<svg width="200" height="200" viewBox="0 0 200 200" fill="none" xmlns="http://www.w3.org/2000/svg">
<g clip-path="url(#clip0_981_859)">
<path d="M76.0821 23.0245L80.9495 38.3595M82.0372 21.422L85.7164 37.0845M88.0977 20.2794L90.5672 36.1776M94.2274 19.6064L95.4726 35.647M100.39 19.4028L100.404 35.4916M106.551 19.6712L105.333 35.7139M112.674 20.4116L110.231 36.314M118.721 21.6187L115.068 37.2875M124.657 23.2842L119.816 38.6274M136.064 27.9522L128.937 42.3766M141.464 30.927L133.254 44.7635M146.623 34.3066L137.378 47.474M151.507 38.072L141.281 50.4931M156.088 42.199L144.941 53.8009M160.341 46.6651L148.338 57.3796M164.238 51.4433L151.451 61.2077M167.759 56.506L154.262 65.2629M170.882 61.8237L156.754 69.5217M175.863 73.0954L160.726 78.5466M177.692 78.985L162.182 83.2615M179.065 84.9969L163.273 88.0735M179.974 91.0962L163.993 92.955M180.413 97.2461L164.336 97.876M180.379 103.413L164.301 102.811M179.875 109.559L163.891 107.727M178.901 115.648L163.104 112.598M177.464 121.645L161.946 117.395M175.571 127.515L160.425 122.089M170.469 138.733L156.329 131.059M167.29 144.017L153.778 135.283M163.715 149.04L150.911 139.298M159.766 153.777L147.746 143.083M155.466 158.197L144.3 146.614M150.84 162.275L140.593 149.871M145.917 165.988L136.649 152.836M140.723 169.311L132.49 155.489M135.29 172.228L128.138 157.816M123.835 176.774L118.967 161.439M117.88 178.376L114.201 162.713M111.82 179.518L109.35 163.62M105.69 180.191L104.445 164.151M99.5279 180.395L99.5142 164.306M93.3664 180.127L94.5843 164.084M87.2439 179.386L89.6863 163.484M81.1965 178.179L84.8491 162.51M75.26 176.514L80.1013 161.17M63.8537 171.846L70.9804 157.421M58.4532 168.871L66.6631 155.034M53.2942 165.491L62.5393 152.324M48.4106 161.726L58.6364 149.305M43.8295 157.599L54.9761 145.997M39.577 153.133L51.5791 142.418M35.6793 148.355L48.4664 138.59M32.1581 143.292L45.6551 134.535M29.0359 137.974L43.1636 130.276M24.0545 126.702L39.1917 121.251M22.2255 120.813L37.7356 116.536M20.8525 114.801L36.6445 111.724M19.9437 108.702L35.9249 106.843M19.5048 102.552L35.5814 101.922M19.5385 96.3845L35.6161 96.9871M20.0423 90.2392L36.0266 92.0707M21.0164 84.15L36.8136 87.1997M22.4538 78.1528L37.9712 82.4029M24.3456 72.2833L39.4921 77.7087M29.4475 61.0654L43.5883 68.7394M32.6268 55.7812L46.1387 64.515M36.2019 50.7576L49.0056 60.5002M40.1507 46.0209L52.171 56.715M44.4505 41.6011L55.617 53.1839M49.0767 37.5231L59.3237 49.9268M54.0004 33.81L63.2678 46.9616M59.1938 30.4867L67.4273 44.3092M64.6275 27.5698L71.7787 41.982" stroke="#C2C2C2"/>
<path d="M130.45 25.4002L124.449 40.3277M173.236 133.222L158.549 126.653M69.4674 174.398L75.469 159.471M26.6811 66.577L41.3679 73.146" stroke="#939393" stroke-width="2"/>
<path d="M70.2692 25.0782L76.2962 39.9955M173.589 67.3644L158.914 73.9584M129.65 174.721L123.623 159.804M26.3288 132.434L41.0043 125.84" stroke="#939393" stroke-width="2"/>
<path d="M82.5182 43.8253L86.7192 54.2232L85.5007 54.7156L76.5362 48.8408L76.4346 48.8818L79.7331 57.0458L78.474 57.5545L74.2729 47.1566L75.4914 46.6643L84.4845 52.5512L84.586 52.5101L81.2794 44.3258L82.5182 43.8253Z" fill="#5A5A5A"/>
<path d="M147.956 86.4397L143.755 76.0417L150.03 73.5063L150.481 74.6233L145.465 76.65L146.884 80.1633L151.576 78.2679L152.027 79.3849L147.336 81.2803L148.763 84.814L153.861 82.7545L154.312 83.8715L147.956 86.4397Z" fill="#5A5A5A"/>
<path d="M121.122 147.038C120.853 146.548 120.445 146.248 119.897 146.139C119.348 146.03 118.76 146.102 118.13 146.356C117.67 146.542 117.297 146.78 117.012 147.068C116.73 147.355 116.546 147.668 116.458 148.006C116.374 148.344 116.399 148.678 116.533 149.01C116.645 149.287 116.807 149.499 117.02 149.646C117.235 149.787 117.474 149.882 117.737 149.929C117.999 149.973 118.262 149.991 118.526 149.982C118.789 149.97 119.027 149.951 119.241 149.924L120.412 149.781C120.711 149.743 121.052 149.72 121.434 149.711C121.82 149.701 122.209 149.742 122.601 149.836C122.995 149.925 123.36 150.096 123.695 150.351C124.03 150.605 124.296 150.976 124.493 151.463C124.72 152.025 124.778 152.592 124.667 153.165C124.559 153.736 124.278 154.269 123.824 154.763C123.374 155.256 122.749 155.664 121.95 155.987C121.206 156.288 120.512 156.428 119.87 156.408C119.232 156.387 118.67 156.224 118.185 155.92C117.703 155.614 117.327 155.185 117.057 154.633L118.356 154.108C118.549 154.487 118.812 154.759 119.146 154.923C119.482 155.082 119.853 155.153 120.259 155.135C120.667 155.112 121.078 155.017 121.491 154.85C121.971 154.656 122.371 154.403 122.691 154.093C123.009 153.779 123.223 153.437 123.333 153.066C123.442 152.691 123.419 152.314 123.266 151.935C123.127 151.59 122.917 151.348 122.636 151.209C122.356 151.071 122.031 150.997 121.661 150.989C121.292 150.981 120.904 151 120.497 151.046L119.07 151.197C118.163 151.292 117.386 151.219 116.737 150.977C116.088 150.735 115.622 150.264 115.339 149.563C115.104 148.981 115.056 148.41 115.196 147.849C115.337 147.284 115.627 146.773 116.065 146.317C116.504 145.856 117.056 145.491 117.719 145.223C118.39 144.952 119.034 144.832 119.652 144.861C120.269 144.888 120.813 145.046 121.285 145.336C121.76 145.624 122.112 146.027 122.34 146.545L121.122 147.038Z" fill="#5A5A5A"/>
<path d="M49.446 128.642L42.4017 119.393L43.6812 118.876L49.2757 126.467L49.3773 126.426L48.1693 117.063L49.5909 116.488L55.2261 124.063L55.3277 124.022L54.0791 114.675L55.3585 114.158L56.7164 125.705L55.4167 126.23L49.7741 118.871L49.6929 118.904L50.7457 128.117L49.446 128.642Z" fill="#5A5A5A"/>
<path d="M73.1007 19.612L64.5523 23.0658C63.8766 23.3388 63.1452 22.8205 63.1787 22.0926L63.692 10.955C63.7315 10.0976 64.7617 9.68514 65.382 10.2783L73.4172 17.9621C73.942 18.4639 73.7739 19.34 73.1007 19.612Z" fill="#60AEEE"/>
</g>
<defs>
<clipPath id="clip0_981_859">
<rect width="200" height="200" fill="white"/>
</clipPath>
</defs>
</svg>
