<svg width="257" height="240" viewBox="0 0 257 240" fill="none" xmlns="http://www.w3.org/2000/svg">
<path d="M210.48 160.745L255.718 150.511C256.468 150.341 257 149.674 257 148.906V1.64552C257 0.736722 256.242 -0.000550895 255.333 0.00604596C88.6213 1.21622 1.68747 183.758 0.0243238 238.438C-0.00330537 239.346 0.736727 240 1.64552 240H197.582C198.806 240 199.605 238.714 199.08 237.609C181.86 201.379 178.592 152.577 181.561 122.934C181.645 122.099 182.349 121.481 183.189 121.481H198.6C199.509 121.481 200.244 122.218 200.258 123.127C200.456 136.959 203.164 151.393 208.792 160.077C209.154 160.636 209.831 160.892 210.48 160.745Z" fill="#322014"/>
</svg>
