<svg width="912" height="204" viewBox="0 0 912 204" fill="none" xmlns="http://www.w3.org/2000/svg">
<path d="M162.618 139.128L197.167 131.306C197.862 131.148 198.355 130.53 198.355 129.818V16.5258C198.355 15.6831 197.653 14.9994 196.81 15.0067C68.5602 16.1263 1.56381 156.42 0.0270514 198.93C-0.00339194 199.773 0.68314 200.386 1.52582 200.386H152.083C153.217 200.386 153.958 199.193 153.476 198.166C140.383 170.312 137.866 133.005 140.108 110.188C140.184 109.413 140.838 108.837 141.616 108.837H153.026C153.869 108.837 154.55 109.52 154.565 110.363C154.746 120.894 156.809 131.838 161.056 138.507C161.388 139.028 162.016 139.265 162.618 139.128Z" fill="#322014"/>
<path d="M330.215 45.2005V148.289C330.215 166.969 325.369 180.89 315.677 190.054C306.161 199.041 292.945 203.535 276.028 203.535C260.873 203.535 248.713 200.539 239.55 194.547C230.386 188.556 225.805 180.626 225.805 170.758C225.805 167.233 226.51 163.973 227.919 160.977C228.77 159.171 229.716 157.588 230.758 156.23C232.028 154.576 234.097 153.84 236.183 153.84H243.325C247.956 153.84 251.709 157.594 251.709 162.224V165.735C251.709 174.723 254.088 181.419 258.846 185.824C263.78 190.054 270.036 192.168 277.613 192.168C285.543 192.168 291.975 189.261 296.91 183.445C302.02 177.454 304.575 167.145 304.575 152.519V45.2005C304.575 39.7377 303.518 35.6846 301.403 33.0413C299.465 30.398 296.469 28.6358 292.416 27.7547C289.726 27.0211 286.569 26.4995 282.946 26.1901C280.128 25.9494 277.878 23.6562 277.878 20.828C277.878 17.9382 280.22 15.5955 283.11 15.5955H351.971C354.846 15.5955 357.177 17.9263 357.177 20.8015C357.177 23.6361 354.905 25.927 352.079 26.142C345.738 26.6242 340.741 27.7786 337.088 29.605C332.506 31.8959 330.215 37.0944 330.215 45.2005Z" fill="#322014"/>
<path d="M410.107 58.4171C413.215 58.4171 415.734 60.9364 415.734 64.0441V176.837C415.734 182.829 417.585 186.617 421.285 188.203C424.209 189.399 427.734 190.395 431.86 191.19C434.278 191.656 436.088 193.729 436.088 196.192C436.088 198.933 433.865 201.156 431.124 201.156H376.037C373.29 201.156 371.063 198.929 371.063 196.181C371.063 193.722 372.864 191.65 375.276 191.17C379.26 190.379 382.701 189.39 385.601 188.203C389.478 186.617 391.416 182.829 391.416 176.837V91.6826C391.416 88.4732 389.584 85.5455 386.698 84.1424L374.735 78.3274C373.297 77.6283 372.384 76.1695 372.384 74.5704C372.384 72.8085 373.49 71.2359 375.148 70.6396L408.203 58.7492C408.814 58.5294 409.458 58.4171 410.107 58.4171ZM402.518 39.6496C397.76 39.6496 393.707 37.9755 390.359 34.6273C387.011 31.1029 385.336 26.8736 385.336 21.9394C385.336 17.0053 387.011 12.8641 390.359 9.51591C393.707 5.99149 397.76 4.22928 402.518 4.22928C407.276 4.22928 411.329 5.99149 414.677 9.51591C418.025 12.8641 419.699 17.0053 419.699 21.9394C419.699 26.8736 418.025 31.1029 414.677 34.6273C411.329 37.9755 407.276 39.6496 402.518 39.6496Z" fill="#322014"/>
<path d="M564.1 176.837V103.618C564.1 94.1017 562.074 87.4934 558.021 83.7928C554.144 79.916 547.976 77.9775 539.518 77.9775C532.645 77.9775 525.684 79.2992 518.635 81.9425C513.173 84.0433 508.268 86.5893 503.919 89.5806C501.81 91.031 500.661 93.4791 500.661 96.0384V176.837C500.661 182.829 502.511 186.617 506.212 188.203C509.136 189.399 512.661 190.395 516.787 191.19C519.205 191.656 521.014 193.729 521.014 196.192C521.014 198.933 518.792 201.156 516.05 201.156H460.963C458.216 201.156 455.989 198.929 455.989 196.181C455.989 193.722 457.791 191.65 460.203 191.17C464.186 190.379 467.628 189.39 470.527 188.203C474.404 186.617 476.343 182.829 476.343 176.837V91.6826C476.343 88.4732 474.51 85.5455 471.624 84.1424L459.662 78.3274C458.224 77.6283 457.311 76.1695 457.311 74.5704C457.311 72.8085 458.416 71.2359 460.074 70.6396L493.129 58.7492C493.74 58.5294 494.385 58.4171 495.034 58.4171C498.142 58.4171 500.661 60.9364 500.661 64.0441V66.1585C500.661 72.9794 509.005 76.6315 514.36 72.4066C514.464 72.3251 514.567 72.2436 514.671 72.1623C519.781 68.1092 525.332 64.8491 531.323 62.382C537.491 59.7387 544.187 58.4171 551.412 58.4171C562.867 58.4171 571.854 61.7653 578.374 68.4616C585.071 75.158 588.419 86.2599 588.419 101.767V176.837C588.419 182.829 590.357 186.617 594.234 188.203C597.158 189.399 600.683 190.395 604.809 191.19C607.227 191.656 609.037 193.729 609.037 196.192C609.037 198.933 606.814 201.156 604.072 201.156H548.721C545.974 201.156 543.747 198.929 543.747 196.181C543.747 193.722 545.548 191.65 547.961 191.17C551.944 190.379 555.386 189.39 558.285 188.203C562.162 186.617 564.1 182.829 564.1 176.837Z" fill="#322014"/>
<path d="M637.467 33.2971C637.467 30.0714 635.616 27.1318 632.707 25.7372L620.532 19.8998C619.089 19.2078 618.17 17.749 618.17 16.1484C618.17 14.3902 619.276 12.8218 620.931 12.2304L654.258 0.328147C654.866 0.110999 655.507 0 656.152 0C659.263 0 661.785 2.52182 661.785 5.63264V56.9096C661.785 64.8996 673.131 69.3048 680.063 65.3313C680.4 65.138 680.74 64.9479 681.081 64.761C688.482 60.5317 697.029 58.4171 706.721 58.4171C718.88 58.4171 729.013 61.4128 737.119 67.4043C745.225 73.2196 751.305 81.1495 755.358 91.1941C759.587 101.239 761.702 112.341 761.702 124.5C761.702 140.712 758.618 154.81 752.45 166.793C746.459 178.599 738.353 187.763 728.132 194.283C717.911 200.627 706.545 203.799 694.033 203.799C680.993 203.799 669.627 202.037 659.935 198.512C652.103 195.467 645.644 192.123 640.558 188.481C638.543 187.037 637.467 184.657 637.467 182.178V33.2971ZM695.884 191.64C708.219 191.64 718.176 186.617 725.753 176.573C733.507 166.352 737.384 152.695 737.384 135.602C737.384 125.557 735.974 116.041 733.154 107.054C730.511 97.8904 726.105 90.4892 719.938 84.8501C713.946 79.0349 706.016 76.1272 696.148 76.1272C689.628 76.1272 683.284 77.2727 677.116 79.5635C672.13 81.273 667.835 83.6735 664.231 86.765C662.59 88.1725 661.785 90.2863 661.785 92.4481V154.898C661.785 168.29 664.869 177.806 671.037 183.445C677.38 188.908 685.663 191.64 695.884 191.64Z" fill="#322014"/>
<path d="M830.104 185.296C836.271 185.296 841.822 184.327 846.757 182.388C850.785 180.86 854.922 178.675 859.169 175.834C861.375 174.358 862.616 171.836 862.616 169.182V138.244C862.616 132.373 856.739 128.321 851.252 130.407L825.081 140.36C820.147 142.122 816.182 144.853 813.187 148.554C810.367 152.254 808.957 156.66 808.957 161.77C808.957 169.348 810.808 175.163 814.508 179.216C818.209 183.269 823.407 185.296 830.104 185.296ZM887.199 102.825C887.199 104.587 887.111 107.583 886.935 111.812C886.935 116.041 886.935 120.887 886.935 126.35C886.935 131.813 886.847 137.364 886.67 143.003C886.67 148.642 886.582 153.752 886.406 158.334C886.406 162.74 886.406 166.088 886.406 168.379C886.406 174.194 887.463 178.688 889.578 181.859C891.693 184.855 894.688 186.353 898.565 186.353C899.799 186.353 901.649 186.265 904.116 186.089C905.053 185.964 905.945 185.828 906.793 185.681C909.088 185.283 911.39 186.693 911.865 188.973C912.143 190.307 911.736 191.699 910.742 192.631C906.859 196.274 902.977 199.028 899.094 200.891C894.865 202.83 890.459 203.799 885.877 203.799C879.181 203.799 874.071 201.596 870.546 197.191C869.917 196.373 869.324 195.515 868.768 194.619C865.424 189.228 856.901 186.766 852.043 190.847C847.638 194.547 842.703 197.631 837.241 200.098C831.778 202.565 825.786 203.799 819.266 203.799C807.283 203.799 798.384 200.275 792.569 193.226C786.93 186.177 784.11 177.806 784.11 168.114C784.11 159.832 785.96 153.224 789.661 148.289C793.362 143.355 798.032 139.39 803.671 136.395C809.486 133.399 815.213 130.932 820.852 128.993L857.078 115.925C860.401 114.726 862.616 111.572 862.616 108.038V100.974C862.616 95.6877 861.823 90.7535 860.237 86.1718C858.828 81.5901 856.184 77.9775 852.307 75.3342C848.607 72.5147 843.32 71.1049 836.448 71.1049C829.399 71.1049 824.024 72.6909 820.323 75.8629C816.623 79.0349 814.772 83.969 814.772 90.6654C814.772 92.9563 814.861 95.159 815.037 97.2737C815.674 101.1 813.218 104.865 809.373 105.377L801.154 106.473C798.426 106.837 795.613 105.891 794.091 103.598C793.521 102.739 793.014 101.864 792.569 100.974C791.688 98.6834 791.247 95.952 791.247 92.78C791.247 85.555 793.45 79.3873 797.855 74.2769C802.261 69.1665 808.252 65.2897 815.83 62.6464C823.407 59.8268 831.954 58.4171 841.47 58.4171C851.691 58.4171 860.149 60.1793 866.846 63.7037C873.542 67.0519 878.564 71.986 881.912 78.5062C885.437 85.0264 887.199 93.1325 887.199 102.825Z" fill="#322014"/>
</svg>
