<svg width="440" height="412" viewBox="0 0 440 412" fill="none" xmlns="http://www.w3.org/2000/svg">
<path d="M360.675 275.873L437.428 258.462C438.932 258.121 440 256.783 440 255.241V3.30271C440 1.47867 438.479 -0.00130458 436.655 0.0142609C152.025 2.44324 3.37851 314.472 0.0569252 408.851C-0.00723003 410.674 1.47866 412 3.3027 412H337.494C339.948 412 341.552 409.42 340.508 407.199C311.396 345.25 305.811 262.203 310.801 211.465C310.966 209.788 312.381 208.543 314.066 208.543H339.53C341.354 208.543 342.83 210.021 342.861 211.845C343.253 235.301 347.837 259.692 357.29 274.527C358.009 275.656 359.37 276.169 360.675 275.873Z" fill="#7D95A1"/>
<rect x="0.03125" y="4.4375" width="136" height="136" rx="3.30271" fill="#7D95A1"/>
</svg>
