<svg width="144" height="19" viewBox="0 0 144 19" fill="none" xmlns="http://www.w3.org/2000/svg">
<path d="M8.50454 17.9706C7.80814 17.3426 7.24668 16.5974 6.72368 15.8307C6.55024 15.5776 6.24939 15.3751 6.26534 15.0077C6.26534 14.9749 6.23157 14.9384 6.20628 14.914C5.75728 14.3985 5.5108 13.7714 5.23802 13.1584C5.16269 12.962 5.11384 12.7565 5.09274 12.5473C5.07255 12.4002 5.01691 12.2603 4.93056 12.1395C4.74313 11.8958 4.71502 11.6109 4.66626 11.3278C4.64844 11.2275 4.65031 11.1188 4.76842 11.0682C4.88654 11.0176 4.96433 11.0766 5.04963 11.1422C5.13275 11.214 5.19491 11.307 5.22959 11.4112C5.4737 12.1296 5.76298 12.8318 6.09568 13.5136C6.25969 13.8389 6.47058 14.1398 6.6412 14.4622C6.93266 15.0087 7.31321 15.4933 7.61693 16.0378C7.99184 16.7118 8.55426 17.2564 9.11007 17.7897C9.1663 17.844 9.24222 17.8778 9.2141 17.9771L8.50454 17.9706Z" fill="#353535" fill-opacity="0.5"/>
<path d="M3.72807 16.2486C3.47326 16.1181 3.24176 15.9464 3.04289 15.7406C2.79357 15.5109 2.50018 15.315 2.38677 14.9663C2.37646 14.9335 2.33803 14.9064 2.3071 14.8838C1.59193 14.3515 1.21325 13.6129 0.920815 12.7871C0.698668 12.1591 0.763344 11.5114 0.651804 10.8787C0.584315 10.5038 0.745536 10.0979 0.754909 9.70049C0.767783 9.40569 0.827912 9.11482 0.932996 8.83908C0.94612 8.80254 0.971429 8.75191 0.957366 8.72757C0.780214 8.42481 0.998611 8.12391 0.957366 7.82211C0.950248 7.76779 0.956031 7.71256 0.974241 7.66088C1.14764 7.17534 1.19357 6.65985 1.32667 6.16118C1.49445 5.5341 1.65848 4.90424 1.91624 4.3053C2.02554 4.06531 2.11946 3.81861 2.19743 3.56669C2.29117 3.24894 2.51706 3.0043 2.70077 2.73155C3.38876 1.72206 4.39262 1.12592 5.47617 0.640393C5.54457 0.60946 5.61115 0.556973 5.71236 0.598213C5.69172 0.716316 5.58864 0.744437 5.5052 0.785678C4.77221 1.11655 4.21172 1.64894 3.71401 2.26945C3.47593 2.56658 3.22942 2.85808 3.08038 3.20676C2.89292 3.6473 2.58829 4.03066 2.47207 4.50588C2.34365 5.03452 2.09246 5.52476 1.97904 6.05902C1.87406 6.55768 1.74471 7.0507 1.63317 7.54655C1.4354 8.42294 1.4354 9.31806 1.31167 10.201C1.1992 10.9996 1.23762 11.7945 1.53007 12.5687C1.65473 12.8986 1.6238 13.2613 1.74284 13.5941C1.86187 13.9268 1.96311 14.2568 2.07184 14.5886C2.08495 14.6261 2.10183 14.6636 2.14963 14.6627C2.19743 14.6617 2.21524 14.628 2.23211 14.5914C2.27801 14.4909 2.28437 14.3767 2.24993 14.2718C2.1495 13.963 2.06781 13.6484 2.00529 13.3298C1.95466 13.0292 1.86254 12.7371 1.73159 12.4618C1.5688 12.1218 1.49434 11.7462 1.51507 11.3698C1.53288 10.9809 1.55538 10.5872 1.48414 10.2038C1.42603 9.88887 1.5535 9.60862 1.64067 9.34431C1.77845 8.93095 1.71097 8.50916 1.80282 8.10145C1.92655 7.55871 2.01653 7.00851 2.13088 6.46299C2.23399 5.96902 2.42333 5.50129 2.59954 5.04391C2.787 4.54713 2.92292 4.02129 3.22567 3.55169C3.51623 3.10085 3.82742 2.66874 4.14611 2.23945C4.21906 2.15905 4.30189 2.08818 4.39262 2.02856C5.01391 1.51474 5.69609 1.07936 6.42379 0.732247C7.06026 0.430683 7.73328 0.213273 8.42589 0.0855023C8.702 0.015228 8.9905 0.00881714 9.26948 0.0667564C9.43535 0.107998 9.62469 -0.0129152 9.8159 0.00114449C10.648 0.0619141 11.4658 0.250004 12.2408 0.558846C14.196 1.32463 15.7013 2.62094 16.7802 4.41684C16.8464 4.5038 16.8838 4.60936 16.887 4.71863C16.7445 4.68304 16.7698 4.51525 16.6761 4.45902C16.3949 4.29217 16.2693 3.99036 16.0285 3.77946C15.512 3.33611 15.0368 2.84215 14.5287 2.38942C14.3493 2.22972 14.1506 2.09306 13.9373 1.98263C13.761 1.90218 13.5939 1.80321 13.4386 1.68737C13.0637 1.37993 12.6269 1.20934 12.1986 1.00969C12.1423 0.984088 12.0889 0.952677 12.0392 0.915966C11.9117 0.822234 11.8386 0.579466 11.609 0.773492C11.5715 0.804425 11.5153 0.744437 11.4609 0.723812C10.9227 0.500858 10.3485 0.377627 9.76623 0.360135C9.3464 0.350574 8.92689 0.389258 8.51585 0.475426C7.93944 0.59259 7.35077 0.675076 6.80526 0.915027C6.41003 1.07724 6.03909 1.2933 5.70297 1.55709C5.61006 1.65085 5.50766 1.73472 5.39743 1.80735C4.92874 2.04824 4.62416 2.4541 4.31764 2.85058C4.02913 3.24033 3.78605 3.66172 3.59309 4.10659C3.28941 4.7627 3.08788 5.46005 2.82262 6.13211C2.57049 6.77045 2.52456 7.44438 2.48331 8.11831C2.47877 8.21163 2.46336 8.3041 2.43739 8.39387C2.34556 8.6821 2.35851 8.99347 2.47394 9.27309C2.66636 9.80675 2.78217 10.365 2.81794 10.9312C2.87252 11.4645 2.9665 11.993 3.09913 12.5124C3.23129 13.0908 3.44594 13.6372 3.6334 14.1911C3.72713 14.4724 3.62309 14.6701 3.36814 14.7404C3.18068 14.7929 3.01946 14.7179 3.03914 14.5324C3.086 14.0975 2.85168 13.7459 2.75795 13.3551C2.66422 12.9642 2.54143 12.5649 2.50487 12.1422C2.45955 11.7185 2.38311 11.2987 2.27617 10.8862C2.18244 10.4766 2.18244 10.0707 2.17212 9.65924C2.17212 9.52522 2.20774 9.29742 2.0709 9.29838C1.93405 9.29933 1.96404 9.53083 1.97716 9.6602C2.06527 10.3894 2.00153 11.1327 2.17025 11.8554C2.27055 12.2846 2.40739 12.7102 2.46457 13.1451C2.52456 13.6025 2.87324 13.9775 2.81044 14.4574C2.76826 14.7807 2.88449 15.0197 3.07757 15.2831C3.30721 15.5925 3.55654 15.8924 3.72807 16.2486Z" fill="#353535" fill-opacity="0.5"/>
<path d="M4.82855 7.39455C4.73481 7.50985 4.76293 7.60636 4.76762 7.69449C4.81324 8.59431 4.86163 9.49445 4.9129 10.3949C4.92612 10.4962 4.90638 10.5991 4.85667 10.6883C4.83871 10.7232 4.81178 10.7528 4.7787 10.774C4.74561 10.7951 4.70747 10.8071 4.66819 10.8087C4.62896 10.8104 4.58995 10.8015 4.55522 10.7832C4.5205 10.7648 4.49125 10.7375 4.47048 10.7042C4.41255 10.6404 4.37331 10.562 4.35706 10.4774C4.35706 10.1147 4.26802 9.76221 4.28489 9.3957C4.30176 9.02923 4.24459 8.68427 4.22678 8.32809C4.20803 7.95319 4.3252 7.59324 4.37019 7.22581C4.39737 6.99805 4.55764 6.96337 4.83042 7.08053C4.66546 6.56314 4.9335 6.12918 5.07599 5.68205C5.16973 5.37741 5.39466 5.11407 5.5259 4.81787C5.77239 4.26015 6.16985 3.81024 6.55131 3.35283C6.825 3.02571 7.22241 2.85231 7.60297 2.67422C7.88978 2.5383 8.2085 2.48113 8.49814 2.34428C9.04739 2.08371 9.59194 2.20462 10.13 2.39396C10.6981 2.5802 11.2352 2.85032 11.7234 3.19536C12.0543 3.43813 12.4208 3.62465 12.761 3.85711C13.1528 4.12612 13.4171 4.48886 13.7124 4.83659C14.117 5.29179 14.4633 5.79556 14.7435 6.33629C15.019 6.89871 15.4455 7.35236 15.7492 7.8904C15.8346 8.04861 15.9454 8.19175 16.0772 8.31406C16.2488 8.46776 16.3013 8.68896 16.4081 8.86518C16.6096 9.20075 16.7024 9.57565 16.8927 9.89624C17.0586 10.1774 17.2339 10.4446 17.3276 10.7604C17.372 10.8855 17.4373 11.0022 17.5207 11.1054C17.681 11.3266 17.6528 11.559 17.5545 11.7933C17.501 11.9208 17.4176 11.9321 17.3173 11.8458C17.1926 11.7406 17.0881 11.6136 17.0089 11.4709C16.8554 11.2103 16.6758 10.9659 16.4728 10.7417C16.4571 10.7275 16.4446 10.7101 16.436 10.6907C16.4274 10.6714 16.423 10.6504 16.423 10.6292C16.423 10.608 16.4274 10.5871 16.436 10.5677C16.4446 10.5483 16.4571 10.531 16.4728 10.5168C16.6171 10.3396 16.5525 10.2355 16.3556 10.1831C16.2928 10.1662 16.2216 10.1343 16.2094 10.0762C16.1466 9.79503 15.9498 9.58413 15.8345 9.3329C15.7989 9.25165 15.7461 9.17906 15.6798 9.12014C15.5861 9.03953 15.4867 8.98047 15.5533 8.81177C15.6049 8.6824 15.4521 8.65711 15.3592 8.64116C15.1999 8.61304 15.0912 8.55681 15.1174 8.37029C15.1206 8.34673 15.1164 8.32276 15.1055 8.30166C15.0946 8.28056 15.0775 8.26329 15.0565 8.25217C14.8822 8.14627 14.7472 8.01786 14.7753 7.78354C14.7847 7.71135 14.7144 7.70949 14.6628 7.6898C14.5834 7.6589 14.5122 7.61001 14.455 7.54689C14.3977 7.48373 14.3559 7.40818 14.3329 7.32611C14.2636 7.1452 14.1155 7.00088 14.137 6.77873C14.1454 6.68499 14.0152 6.67747 13.9308 6.66626C13.8464 6.655 13.7433 6.60347 13.7977 6.50317C13.8792 6.35411 13.7874 6.3213 13.704 6.23039C13.5043 6.0148 13.2812 5.80299 13.24 5.48054C13.2278 5.3868 13.1462 5.35964 13.0788 5.32774C12.9907 5.28837 12.9101 5.24713 12.8913 5.14027C12.8116 4.68663 12.5229 4.39888 12.1555 4.14768C11.7525 3.8721 11.2857 3.67902 10.9473 3.32096C10.6755 3.03977 10.369 2.96478 10.01 2.97134C9.85443 2.97134 9.73348 3.06508 9.5929 3.11288C8.82337 3.35096 8.0932 3.6659 7.453 4.17205C7.25053 4.33233 7.16058 4.57416 7.03686 4.78597C6.65444 5.44212 6.34228 6.12539 6.32355 6.90618C6.32273 7.00006 6.3066 7.09311 6.27575 7.18179C6.02735 7.86132 6.13234 8.54464 6.26167 9.22513C6.38539 9.88124 6.62445 10.5055 6.76786 11.1532C6.85818 11.5626 7.01931 11.9531 7.24402 12.307C7.33023 12.4448 7.36774 12.6126 7.453 12.7494C7.56551 12.9294 7.47924 13.0372 7.35926 13.1487C7.23932 13.2603 7.14089 13.2565 7.05558 13.1112C6.82687 12.7166 6.63192 12.3004 6.35728 11.9321C6.32055 11.8813 6.29763 11.8219 6.29074 11.7596C6.25233 11.3528 6.06299 10.9873 5.97864 10.5964C5.83801 9.94873 5.76492 9.28419 5.64306 8.63459C5.49309 7.82665 5.63463 7.04681 5.79399 6.25759C5.853 5.96608 6.00393 5.70643 6.02735 5.40836C6.04881 5.30883 6.10213 5.21902 6.17919 5.15248C6.26167 5.05875 6.38261 4.97531 6.41164 4.86658C6.5185 4.47386 6.85034 4.25828 7.07996 3.96584C7.31032 3.68034 7.61627 3.46533 7.96292 3.34533C8.28346 3.22723 8.59374 3.08101 8.90024 2.93198C9.06612 2.85137 9.24516 2.83825 9.41481 2.78763C9.50855 2.7567 9.67351 2.74545 9.63975 2.60579C9.60602 2.46613 9.45232 2.44551 9.32577 2.48113C9.08393 2.53745 8.84911 2.62044 8.6256 2.72858C8.4461 2.81875 8.25757 2.88975 8.06322 2.94042C7.44434 3.12268 6.92083 3.53892 6.60381 4.10081C6.53112 4.22074 6.44832 4.33425 6.35636 4.44012C5.94204 4.93407 5.75083 5.5396 5.53338 6.12731C5.41531 6.4488 5.50713 6.8078 5.44625 7.14615C5.31501 7.87445 5.50152 8.58492 5.57557 9.30196C5.62151 9.74344 5.75835 10.1681 5.78273 10.6142C5.79959 10.9085 5.97016 11.1569 6.06955 11.425C6.0968 11.4821 6.10336 11.5468 6.08819 11.6082C6.07297 11.6696 6.03688 11.7238 5.98611 11.7615C5.93881 11.7968 5.88208 11.8172 5.82311 11.82C5.76419 11.8229 5.70572 11.808 5.65523 11.7774C5.60292 11.7496 5.56067 11.7061 5.53461 11.6529C5.5085 11.5997 5.49988 11.5396 5.50995 11.4812C5.51747 11.3369 5.49405 11.2281 5.3356 11.1691C5.20158 11.1194 5.20628 11.0013 5.27659 10.8982C5.34686 10.7951 5.35529 10.7333 5.24 10.6508C5.1397 10.5796 5.13975 10.4455 5.1341 10.3283C5.11628 10.0021 5.09755 9.67222 5.09003 9.34885C5.09987 9.09931 5.05941 8.85037 4.971 8.61678C4.91573 8.49214 4.94102 8.35717 4.94849 8.22502C4.9731 7.94262 4.93204 7.6584 4.82855 7.39455Z" fill="#353535" fill-opacity="0.5"/>
<path d="M9.05441 1.86014C8.53701 1.83015 8.11053 2.06729 7.66809 2.25194C7.4113 2.35973 7.18259 2.52001 6.92763 2.63531C6.64172 2.76559 6.45899 3.04304 6.24901 3.26706C5.92004 3.61199 5.69224 4.02253 5.43823 4.42276C5.03521 5.05734 4.80367 5.7453 4.56936 6.4427C4.49098 6.6288 4.40146 6.81003 4.30127 6.98539C4.11381 7.37346 4.10256 7.79616 4.08569 8.21139C4.06226 8.77377 4.13443 9.33619 4.07257 9.89013C4.02664 10.296 4.2366 10.5847 4.30502 10.9305C4.36446 11.2925 4.47458 11.6444 4.63215 11.9757C4.81119 12.3206 4.86178 12.7011 4.96864 13.0648C5.13661 13.5859 5.36268 14.0865 5.64257 14.557C6.02685 15.2441 6.47398 15.8861 6.90325 16.5422C7.1254 16.8834 7.44129 17.1468 7.70277 17.4543C7.78903 17.5555 7.87621 17.6548 7.95682 17.7589C7.98867 17.7992 8.03834 17.8526 7.99897 17.9032C7.97837 17.9295 7.91366 17.9248 7.86869 17.9276C7.49378 17.951 7.23974 17.6952 6.94636 17.5311C6.91733 17.5107 6.89363 17.4837 6.87732 17.4522C6.86101 17.4206 6.85253 17.3857 6.85262 17.3502C6.85371 17.3267 6.84975 17.3033 6.841 17.2815C6.8323 17.2596 6.81899 17.24 6.80204 17.2237C6.34912 16.8603 5.9631 16.4207 5.66134 15.9246C5.47387 15.6106 5.27796 15.2984 5.1608 14.9385C5.07267 14.6676 4.88524 14.4249 4.74648 14.1671C4.56685 13.8071 4.42276 13.4303 4.31627 13.0423C4.19536 12.6515 4.10631 12.2475 3.99477 11.851C3.84105 11.3055 3.71358 10.7506 3.58329 10.1995C3.53081 9.98478 3.55517 9.76545 3.54299 9.54799C3.5233 9.20212 3.61235 8.84691 3.45863 8.51133C3.45377 8.49283 3.45284 8.47351 3.4559 8.4546C3.45897 8.43573 3.46597 8.41769 3.47644 8.40169C3.5106 8.34409 3.53264 8.28011 3.54118 8.21372C3.54972 8.14732 3.54459 8.07983 3.52612 8.01549C3.41645 7.55619 3.65078 7.1719 3.78669 6.76793C3.84761 6.59075 3.94229 6.41832 4.0079 6.23645C4.3206 5.36662 4.72598 4.53292 5.21704 3.74977C5.62944 3.08803 6.22089 2.61843 6.86953 2.20976C7.25195 1.96887 7.65032 1.7486 8.08801 1.65394C8.76194 1.50771 9.44152 1.37274 10.1286 1.63238C10.3873 1.72611 10.6816 1.70455 10.9487 1.79734C11.0659 1.83765 11.2065 1.84327 11.2937 1.93138C11.5617 2.2032 11.9085 2.29131 12.2525 2.41597C12.7465 2.59406 13.1392 2.95493 13.5319 3.29143C14.2076 3.86415 14.8174 4.51018 15.3503 5.2176C15.4291 5.32351 15.4881 5.44258 15.5575 5.55596C15.6268 5.66938 15.6775 5.80158 15.7946 5.86902C15.8731 5.90448 15.937 5.96581 15.9756 6.04282C16.0142 6.11979 16.0251 6.2077 16.0065 6.29177C15.983 6.46516 16.1517 6.5589 16.2464 6.64234C16.641 6.99477 16.8331 7.4784 17.1153 7.90207C17.2831 8.15516 17.5315 8.34263 17.6674 8.62193C17.7397 8.75053 17.7763 8.89621 17.7733 9.04372C17.7577 9.29312 17.7978 9.5428 17.8904 9.77484C17.9842 10.0223 17.9054 10.2669 17.8633 10.5107C17.8436 10.625 17.777 10.6306 17.6992 10.5575C17.6553 10.5248 17.6207 10.4812 17.5989 10.431C17.5174 10.1244 17.2709 9.89104 17.224 9.56955C17.2165 9.51054 17.1959 9.45895 17.1359 9.44492C16.9531 9.40181 16.9484 9.29116 17.0075 9.14402C17.0665 8.99688 17.0075 8.87033 16.9231 8.75317C16.7169 8.45414 16.4133 8.22921 16.267 7.88238C16.2221 7.8086 16.1571 7.74909 16.0796 7.71086C16.0005 7.6626 15.935 7.59502 15.8891 7.51454C15.8432 7.43407 15.8184 7.34329 15.8171 7.25065C15.7927 6.99755 15.5743 6.83824 15.4 6.67888C15.2875 6.57576 15.1769 6.50549 15.1685 6.33205C15.1591 6.13898 14.8873 6.12307 14.8657 5.9253C14.831 5.64409 14.4702 5.63192 14.4027 5.36944C14.309 5.00388 13.9865 4.76113 13.8675 4.40683C13.8628 4.39183 13.8544 4.37121 13.8431 4.36746C13.5104 4.25311 13.3894 3.91005 13.1317 3.71134C12.7378 3.41083 12.3266 3.13384 11.9001 2.88182C11.5656 2.66027 11.2102 2.47191 10.8391 2.31943C10.6159 2.23788 10.4229 2.07479 10.1773 2.04855C9.79956 2.00449 9.43683 1.8264 9.05441 1.86014Z" fill="#353535" fill-opacity="0.5"/>
<path d="M7.2808 6.74229C7.28002 6.88328 7.30577 7.02318 7.35671 7.1547C7.42584 7.35292 7.47269 7.55817 7.49638 7.76674C7.62079 8.54202 7.81852 9.30371 8.08688 10.0416C8.22094 10.3969 8.32124 10.7643 8.48994 11.1092C8.89674 11.9397 9.50222 12.6389 9.9812 13.4178C10.2699 13.8865 10.7198 14.2033 10.986 14.6785C11.1061 14.8726 11.2726 15.0336 11.4706 15.1472C11.7593 15.329 11.9533 15.6084 12.1651 15.8671C12.2739 15.9978 12.409 16.1042 12.5616 16.1792C12.8372 16.3226 13.0528 16.5541 13.2908 16.7519C13.3658 16.8137 13.3471 16.8737 13.2646 16.915C13.0978 16.9984 12.9291 17.0799 12.7631 17.1643C12.6694 17.214 12.6047 17.1568 12.5391 17.0968C12.1858 16.7725 11.8202 16.4613 11.4809 16.1238C11.3531 15.9933 11.2121 15.8764 11.0601 15.7752C10.9466 15.7002 10.8941 15.524 10.8323 15.3853C10.8094 15.3229 10.7703 15.2677 10.7191 15.2254C10.6679 15.1831 10.6064 15.1551 10.5408 15.1444C10.5075 15.1425 10.475 15.1337 10.4451 15.1187C10.4154 15.1036 10.3891 15.0826 10.3678 15.0569C10.3465 15.0312 10.3307 15.0015 10.3215 14.9694C10.3122 14.9373 10.3096 14.9038 10.314 14.8707C10.314 14.7338 10.2483 14.6776 10.1396 14.5895C9.92871 14.417 9.60439 14.3176 9.59409 13.9577C9.59409 13.8462 9.46098 13.8134 9.40662 13.7309C8.89765 12.9932 8.3756 12.2603 8.06815 11.4073C8.05972 11.3857 8.05689 11.3539 8.04094 11.3445C7.71758 11.1392 7.75135 10.7643 7.60885 10.4756C7.44389 10.1391 7.37549 9.77545 7.23395 9.43236C7.07555 9.03681 7.02305 8.58877 6.99302 8.15668C6.99676 8.03934 6.96892 7.92314 6.91246 7.82019C6.35003 6.97661 6.60126 6.1574 7.00615 5.35693C7.08471 5.18841 7.17261 5.02441 7.26954 4.86578C7.48422 4.54239 7.81227 4.36336 8.11877 4.1506C8.48251 3.91291 8.87017 3.71405 9.27542 3.55727C9.78434 3.34357 10.2999 3.2967 10.7976 3.65101C11.6412 4.24433 12.4454 4.86952 12.9834 5.77685C13.1212 6.01021 13.2421 6.25114 13.3724 6.4845C13.5363 6.75519 13.7144 7.01703 13.9058 7.26903C14.1869 7.65897 14.5206 8.01888 14.7221 8.44723C15.0089 9.0518 15.517 9.48672 15.8338 10.0594C15.9105 10.1756 15.9711 10.3018 16.0138 10.4343C16.0653 10.6788 16.1808 10.9052 16.3484 11.0905C16.422 11.1722 16.4739 11.2712 16.4993 11.3782C16.5162 11.4392 16.5312 11.5132 16.5855 11.5385C16.9398 11.7025 16.9398 12.1159 17.176 12.3652C17.2838 12.4786 17.1985 12.8236 17.0748 12.9201C17.0609 12.9342 17.0438 12.9447 17.0249 12.9508C17.0062 12.957 16.9862 12.9587 16.9666 12.9557C16.9471 12.9526 16.9285 12.945 16.9125 12.9335C16.8964 12.9219 16.8833 12.9068 16.8742 12.8892C16.8205 12.823 16.7748 12.7506 16.7383 12.6736C16.6373 12.3948 16.4489 12.1561 16.2012 11.9931C15.9988 11.8609 15.9678 11.6182 15.8591 11.4307C15.7822 11.276 15.6521 11.1542 15.4926 11.0877C15.3885 11.0483 15.338 10.9883 15.3811 10.874C15.4326 10.739 15.3042 10.6425 15.3005 10.5187C15.3005 10.4841 15.2676 10.4522 15.2377 10.469C14.9162 10.649 14.994 10.2647 14.8496 10.1925C14.8074 10.171 14.828 10.1138 14.8496 10.0669C14.9274 9.87197 14.874 9.80357 14.6622 9.79418C14.5506 9.78948 14.4747 9.80074 14.4456 9.61327C14.4125 9.43504 14.3118 9.27651 14.1645 9.17088C14.0426 9.094 14.0135 8.95716 13.9085 8.8775C13.899 8.86588 13.8926 8.85203 13.89 8.83726C13.8873 8.8225 13.8886 8.80728 13.8935 8.79311C14.0932 8.54379 13.9011 8.55505 13.7276 8.50538C13.692 8.50032 13.6584 8.48606 13.63 8.46405C13.6015 8.44204 13.5793 8.41301 13.5655 8.37983C13.5517 8.34666 13.5468 8.31043 13.5512 8.27475C13.5556 8.23907 13.5693 8.20517 13.5908 8.17637C13.6733 8.02544 13.603 7.91484 13.4389 7.95704C13.2937 7.99359 13.274 7.92236 13.259 7.82393C13.2619 7.7543 13.2575 7.68458 13.2459 7.61586C13.1915 7.48744 13.2215 7.25499 12.9543 7.34964C12.9395 7.35579 12.9234 7.35848 12.9073 7.35748C12.8912 7.35648 12.8756 7.35183 12.8616 7.3439C12.8476 7.33593 12.8355 7.3249 12.8265 7.31159C12.8174 7.29829 12.8114 7.28311 12.8091 7.26716C12.7903 6.86132 12.4604 6.61761 12.3058 6.28299C12.212 6.08148 12.1183 5.88745 11.9093 5.73279C11.7658 5.62779 11.7012 5.35784 11.5784 5.17041C11.5568 5.1376 11.5409 5.10197 11.5221 5.06824C11.4462 4.93605 10.4742 3.98001 10.3355 3.94345C10.0178 3.86565 9.69999 3.67257 9.37007 3.94907C9.1826 4.10935 8.92486 4.17497 8.69614 4.25839C8.13377 4.46554 7.87224 4.91919 7.6454 5.41412C7.453 5.83422 7.32987 6.28277 7.2808 6.74229Z" fill="#353535" fill-opacity="0.5"/>
<path d="M9.27829 0.756871C10.6636 0.829044 12.0115 1.07837 13.1606 1.90133C13.9705 2.48247 14.7803 3.07579 15.4861 3.79377C15.9764 4.29118 16.4297 4.82375 16.8424 5.38721C16.8687 5.41533 16.8911 5.44686 16.909 5.48095C17.0571 5.88493 17.3776 6.17457 17.6035 6.52791C17.8294 6.88131 17.8266 7.30027 17.9109 7.69299C17.9343 7.82286 17.9496 7.95401 17.9569 8.08576C17.9569 8.13916 17.9569 8.2057 17.8913 8.21791C17.8397 8.22729 17.805 8.1804 17.7919 8.13543C17.7497 7.99015 17.6982 7.86078 17.5276 7.81207C17.5113 7.80218 17.4977 7.78846 17.4879 7.77215C17.4781 7.75579 17.4724 7.73733 17.4713 7.71833C17.4779 7.51773 17.3851 7.40526 17.1986 7.33591C17.0899 7.29558 17.1049 7.16625 17.1049 7.06595C17.1049 6.93189 17.0768 6.8438 16.9221 6.78474C16.8431 6.76068 16.7712 6.71757 16.7127 6.6592C16.6541 6.60087 16.6108 6.5291 16.5866 6.45013C16.5638 6.38341 16.5197 6.32604 16.4609 6.28703C16.4079 6.24739 16.3673 6.19343 16.3439 6.1315C16.3205 6.06957 16.3152 6.00222 16.3288 5.93742C16.3625 5.68246 16.2632 5.57091 16.0045 5.53718C15.9154 5.52593 15.8957 5.48282 15.9042 5.39282C15.9052 5.26472 15.8661 5.13945 15.7923 5.03473C15.7185 4.92997 15.6137 4.851 15.4927 4.80889C15.3858 4.78077 15.3137 4.7358 15.3221 4.62142C15.3333 4.4677 15.2452 4.39272 15.144 4.29617C14.8787 4.04399 14.5969 3.80977 14.3004 3.59506C14.0539 3.41416 13.9489 3.10953 13.6865 2.93894C13.2178 2.62682 12.7698 2.28282 12.3114 1.95569C11.9515 1.69793 11.5101 1.62295 11.1061 1.48704C10.5137 1.29395 9.89972 1.11211 9.25769 1.14773C8.25288 1.20397 7.27527 1.34175 6.47384 2.03537C6.43638 2.0636 6.39583 2.0875 6.35294 2.1066C5.90021 2.33817 5.53192 2.70647 5.30033 3.15921C5.23189 3.30843 5.12439 3.43636 4.98914 3.52945C4.76325 3.67755 4.69576 3.94 4.6208 4.16214C4.45676 4.65423 4.18025 5.0901 3.98342 5.56813C3.70972 6.22424 3.45383 6.886 3.3273 7.59461C3.20076 8.33411 3.31043 9.06336 3.38166 9.79352C3.41353 10.1272 3.46977 10.4572 3.42852 10.7927C3.40978 10.952 3.40884 11.1011 3.5485 11.2192C3.60483 11.2744 3.64168 11.3464 3.65348 11.4245C3.84039 12.3254 4.10089 13.2094 4.43239 14.0677C4.56566 14.432 4.7493 14.7759 4.97793 15.0893C5.1027 15.2591 5.20304 15.4456 5.27595 15.6433C5.51592 16.2498 5.97895 16.7006 6.3539 17.2124C6.4223 17.3061 6.49448 17.3999 6.56288 17.4936C6.58726 17.5283 6.64072 17.563 6.59948 17.6126C6.55824 17.6623 6.51321 17.6389 6.46824 17.6267C6.18703 17.5545 5.87679 17.4992 5.68653 17.2846C5.41535 16.9791 5.18158 16.6424 4.99009 16.2816C4.85708 16.0272 4.69271 15.7903 4.50081 15.5768C4.37489 15.4401 4.2836 15.2752 4.23461 15.0959C4.19833 14.9459 4.13479 14.8039 4.04715 14.6769C3.94133 14.5425 3.87889 14.3791 3.86812 14.2083C3.86554 14.1651 3.85434 14.1229 3.83519 14.0841C3.81603 14.0453 3.7893 14.0107 3.75658 13.9824C3.69427 13.9336 3.6522 13.8635 3.63849 13.7856C3.60474 13.421 3.42852 13.0891 3.39853 12.7217C3.37534 12.5607 3.33929 12.4017 3.29074 12.2465C3.22326 11.9756 3.12671 11.6841 3.11921 11.432C3.10796 11.0626 2.99174 10.7318 2.93175 10.3831C2.91263 10.2983 2.92357 10.2095 2.96268 10.1319C3.02267 10.0307 2.96268 9.94445 2.95143 9.85071C2.91957 9.5695 2.73585 9.33423 2.6843 9.07744C2.60838 8.69407 2.65712 8.28353 2.7246 7.89359C2.79209 7.50365 2.78084 7.10719 2.91957 6.72755C3.03392 6.41827 3.09203 6.09865 3.27387 5.80431C3.45571 5.50998 3.54475 5.1379 3.67316 4.80046C3.68133 4.75484 3.69683 4.71082 3.71909 4.67018C4.02653 4.30648 4.11277 3.82658 4.39583 3.43666C4.70036 2.98965 5.04993 2.57506 5.43905 2.1994C5.88549 1.79978 6.39145 1.47216 6.93879 1.22834C7.2565 1.08399 7.63518 1.02494 7.98762 0.933084C8.41128 0.821544 8.83776 0.72875 9.27829 0.756871Z" fill="#353535" fill-opacity="0.5"/>
<path d="M8.38026 6.56858C8.40555 7.06347 8.51241 7.564 8.57334 8.06828C8.61645 8.42914 8.69802 8.78345 8.71957 9.15087C8.73548 9.41896 8.88171 9.68422 8.99609 9.93914C9.15636 10.2972 9.19008 10.689 9.42066 11.0377C9.67002 11.4126 9.94462 11.7669 10.1705 12.1531C10.4199 12.574 10.7667 12.9245 11.06 13.3107C11.373 13.7257 11.7068 14.1245 12.0601 14.5058C12.5599 15.037 13.1162 15.5119 13.7192 15.9221C13.8029 15.9792 13.8791 16.0466 13.946 16.1226C14.0154 16.2014 14.1766 16.2764 14.0604 16.4038C13.9441 16.5313 13.8129 16.6428 13.6302 16.5407C13.424 16.4254 13.1934 16.3532 13.0509 16.1283C12.9665 15.998 12.7828 15.9811 12.6366 15.9295C12.5485 15.8986 12.4397 15.8846 12.4079 15.7861C12.286 15.4112 11.9514 15.2519 11.6768 15.0363C11.4527 14.8582 11.3309 14.6004 11.1256 14.4073C11.0094 14.2977 10.9007 14.174 10.7873 14.0577C10.6377 13.9191 10.5368 13.7361 10.4995 13.5356C10.4901 13.4738 10.4901 13.4091 10.4302 13.3698C10.1012 13.1598 9.91181 12.8176 9.64842 12.5496C9.35695 12.2534 9.1929 11.886 8.97449 11.5532C8.73106 11.1557 8.527 10.7353 8.36527 10.2981C8.13282 9.72733 8.05221 9.11715 7.83475 8.54539C7.82185 8.51591 7.81729 8.48351 7.82162 8.45165C7.94908 7.94829 7.6707 7.50121 7.62011 7.02131C7.57322 6.57701 7.51603 6.1477 7.78508 5.73812C7.93505 5.50941 7.94817 5.20851 8.14781 4.98827C8.34745 4.76799 8.61645 4.64053 8.87702 4.51116C8.91393 4.49874 8.95362 4.49711 8.99139 4.50648C9.69248 4.62458 10.2839 5.28821 10.342 6.00056C10.3777 6.43451 10.3852 6.88069 10.4977 7.29592C10.6354 7.80488 10.6485 8.36635 11.0075 8.80313C11.0296 8.82587 11.0426 8.85586 11.0441 8.88748C10.9907 9.20806 11.2316 9.36081 11.4049 9.5661C11.7218 9.94852 11.9346 10.405 12.2636 10.7846C12.6553 11.2345 13.0134 11.7126 13.4061 12.1634C13.7922 12.5899 14.2136 12.9831 14.6659 13.3388C14.6926 13.3549 14.7176 13.3734 14.7409 13.3941C15.0764 13.815 15.4973 14.1524 15.8581 14.5489C15.9903 14.6941 15.8844 14.7663 15.8122 14.861C15.7241 14.9772 15.6369 14.9819 15.517 14.8882C15.352 14.7589 15.2208 14.5958 15.0539 14.4673C14.7821 14.2574 14.5656 13.9743 14.2169 13.8693C14.1744 13.8568 14.1363 13.8327 14.1069 13.7995C14.0776 13.7663 14.0582 13.7256 14.051 13.6819C14.037 13.6009 14.0009 13.5254 13.9466 13.4637C13.8924 13.402 13.8221 13.3565 13.7436 13.3323C13.6014 13.2658 13.4823 13.1584 13.4014 13.0239C13.3012 12.8675 13.1658 12.7369 13.0059 12.6424C12.8212 12.5176 12.6756 12.3431 12.586 12.1391C12.4982 11.9156 12.3412 11.7261 12.1379 11.5982C12.072 11.5562 12.0179 11.4982 11.9805 11.4295C11.8399 11.1961 11.6993 10.9665 11.4518 10.8193C11.3557 10.7518 11.2837 10.6552 11.2465 10.5437C11.1613 10.3479 10.9466 10.2625 10.8238 10.0957C10.7367 9.9776 10.6364 9.86978 10.5529 9.74515C10.5209 9.705 10.5005 9.65693 10.4939 9.60602C10.4873 9.55512 10.4948 9.5034 10.5155 9.45646C10.6739 9.18929 10.5089 8.97748 10.3842 8.79374C10.1284 8.41884 10.0346 7.9914 9.93528 7.56305C9.93058 7.54058 9.93528 7.50868 9.92402 7.49556C9.61 7.16937 9.74498 6.7504 9.71686 6.37641C9.68 5.9821 9.58982 5.59457 9.44878 5.22446C9.33349 4.90297 8.81987 4.87576 8.59207 5.16258C8.49706 5.28789 8.4416 5.43864 8.43276 5.59562C8.40929 5.91434 8.39712 6.23396 8.38026 6.56858Z" fill="#353535" fill-opacity="0.5"/>
<path d="M9.34836 6.25142C9.42032 6.62513 9.46074 7.00418 9.4693 7.38464C9.4693 7.813 9.60241 8.22823 9.54426 8.66223C9.52763 8.79511 9.5578 8.92968 9.62957 9.04278C9.71109 9.17776 9.84233 9.28458 9.80579 9.47674C9.7908 9.55362 9.89953 9.59486 9.96701 9.62767C10.3119 9.78885 10.5369 10.0691 10.7468 10.3775C10.9123 10.6036 11.09 10.8205 11.2792 11.0271C11.8823 11.7263 12.4868 12.4243 13.093 13.121C13.4164 13.4875 13.7809 13.8155 14.1793 14.0986C14.4952 14.3264 14.7576 14.6151 15.0501 14.8691C15.1203 14.9301 15.1991 14.9826 15.2722 15.0388C15.3453 15.095 15.5215 15.1175 15.4175 15.29C15.3134 15.4625 15.1054 15.5768 14.9826 15.4906C14.8157 15.3743 14.6142 15.3078 14.5261 15.0809C14.4642 14.9207 14.2552 14.8785 14.1137 14.7941C13.7725 14.5917 13.5241 14.2908 13.2401 14.0321C12.667 13.5246 12.1398 12.9675 11.6645 12.3674C11.1789 11.7366 10.6465 11.1414 10.2192 10.4666C10.1657 10.3831 10.1414 10.2791 10.0963 10.1919C10.0804 10.161 10.0392 10.1207 10.012 10.1226C9.9492 10.1273 9.96045 10.1882 9.96232 10.2332C9.97544 10.4553 10.1132 10.6287 10.2285 10.7955C10.3841 11.0195 10.5341 11.2483 10.6691 11.4826C10.8706 11.8341 11.1874 12.0928 11.388 12.4518C11.4995 12.6496 11.7498 12.7789 11.9101 12.972C12.2934 13.4341 12.6871 13.8887 13.0798 14.3442C13.1316 14.3914 13.1867 14.4346 13.2448 14.4736C13.6585 14.8135 14.0709 15.1544 14.4821 15.4962C14.5186 15.5262 14.5533 15.5581 14.5908 15.5843C14.6845 15.649 14.8476 15.678 14.7998 15.8214C14.752 15.9649 14.6048 16.038 14.4698 16.1026C14.3893 16.1401 14.3442 16.0642 14.2993 16.0089C14.1264 15.8081 13.9113 15.6481 13.6694 15.5402C13.5888 15.5084 13.5203 15.452 13.4735 15.379C13.3695 15.2038 13.1867 15.1109 13.0536 14.9797C12.5915 14.5242 11.9447 14.2374 11.7104 13.5634C11.6382 13.3535 11.4189 13.2569 11.2811 13.0948C11.1002 12.8848 10.9362 12.6589 10.7497 12.4518C10.3687 12.0252 10.017 11.5733 9.69706 11.0993C9.42337 10.6971 9.30243 10.2388 9.23498 9.76825C9.21594 9.64663 9.17898 9.52847 9.1253 9.41769C8.84409 8.80938 8.79911 8.1617 8.76726 7.50836C8.74661 7.0847 8.70724 6.66478 8.68195 6.23834C8.67202 5.94232 8.69753 5.64625 8.75787 5.35629C8.76534 5.2894 8.79756 5.22765 8.84819 5.18327C8.89882 5.13888 8.96425 5.115 9.03156 5.11637C9.18153 5.10981 9.21903 5.23727 9.24715 5.3516C9.31619 5.64653 9.35014 5.94856 9.34836 6.25142Z" fill="#353535" fill-opacity="0.5"/>
<path d="M9.82402 4.11397C10.1576 4.19227 10.4573 4.37561 10.6788 4.63697C11.0313 5.026 11.3471 5.44779 11.6808 5.8555C11.9286 6.15448 12.127 6.49115 12.2685 6.85279C12.3895 7.16116 12.5225 7.47331 12.7606 7.71889C12.8043 7.76337 12.832 7.8211 12.8393 7.88303C12.8466 7.94496 12.8331 8.00757 12.8009 8.06103C12.7362 8.211 12.7494 8.31407 12.9593 8.25315C13.0802 8.21756 13.174 8.24754 13.2002 8.39186C13.2088 8.43793 13.2288 8.48109 13.2583 8.5175C13.847 9.20642 14.2134 10.0566 14.8518 10.7099C15.0103 10.8816 15.1427 11.0759 15.2445 11.2863C15.4676 11.7156 15.8528 12.0052 16.1884 12.3361C16.4272 12.591 16.6416 12.8678 16.8286 13.1628C16.941 13.3259 16.8285 13.4731 16.7095 13.5968C16.7024 13.6061 16.6933 13.6137 16.6828 13.6189C16.6723 13.6241 16.6608 13.6268 16.6491 13.6268C16.6374 13.6268 16.6258 13.6241 16.6153 13.6189C16.6048 13.6137 16.5957 13.6061 16.5886 13.5968C16.2418 13.2453 15.8669 12.9116 15.5754 12.5039C15.4733 12.3456 15.3222 12.2251 15.1451 12.1608C14.968 12.1018 14.8799 11.949 14.7805 11.8121C14.4862 11.4091 14.2341 10.9686 13.8929 10.6086C13.6379 10.3424 13.5002 9.98156 13.1759 9.77349C13.0977 9.72723 13.0339 9.66011 12.9916 9.57968C12.9494 9.4992 12.9305 9.40857 12.9368 9.31793C12.9368 9.28234 12.9284 9.22424 12.9049 9.21016C12.4991 8.98518 12.4419 8.53996 12.2488 8.1791C12.2061 8.09607 12.1471 8.02247 12.0754 7.9626C11.9526 7.86886 11.888 7.80041 11.9658 7.62046C12.0295 7.46862 11.8598 7.35616 11.7352 7.2868C11.6293 7.22865 11.5712 7.17898 11.6161 7.05622C11.6225 7.04141 11.6258 7.02546 11.6258 7.00933C11.6258 6.99324 11.6225 6.97729 11.6161 6.96248C11.3968 6.64472 11.3453 6.21263 11.035 5.97175C10.7248 5.73082 10.5664 5.39716 10.3564 5.0897C10.1765 4.82258 10.004 4.55919 9.6309 4.56574C9.58756 4.5708 9.54377 4.56055 9.50713 4.53676C9.47054 4.51297 9.44338 4.47714 9.43035 4.43547C9.3938 4.32955 9.4566 4.25644 9.53438 4.19739C9.6191 4.13845 9.7209 4.10912 9.82402 4.11397Z" fill="#353535" fill-opacity="0.5"/>
<path d="M10.6636 6.04088C10.7625 6.05082 10.8543 6.09689 10.9213 6.17025C11.151 6.39988 11.2222 6.70921 11.3337 6.99885C11.3337 7.00541 11.3394 7.01662 11.3337 7.0204C11.1191 7.30157 11.3984 7.42811 11.5212 7.5959C11.748 7.91457 11.8155 8.31481 12.063 8.62696C12.198 8.79661 12.3067 8.98596 12.4323 9.16308C12.9825 9.94105 13.5215 10.7265 14.1195 11.4698C14.3528 11.7576 14.6312 11.9985 14.8581 12.2937C15.0849 12.589 15.4289 12.7924 15.6707 13.0867C15.8816 13.3445 16.2012 13.4869 16.3765 13.7803C16.4257 13.8635 16.441 13.9625 16.419 14.0566C16.3969 14.1508 16.3394 14.2328 16.2584 14.2855C16.1028 14.3952 15.9875 14.2752 15.8957 14.1815C15.6866 13.9659 15.4898 13.7419 15.233 13.5769C15.1024 13.4772 14.9962 13.349 14.9227 13.202C14.7643 12.9442 14.515 12.7568 14.2882 12.5627C14.0613 12.3687 13.8776 12.1447 13.6573 11.9675C13.2824 11.6685 13.1774 11.1774 12.7913 10.9037C12.7418 10.8556 12.6863 10.814 12.6263 10.7799C12.5379 10.7469 12.4574 10.6959 12.3897 10.6301C12.3221 10.5642 12.2689 10.485 12.2336 10.3975C12.1201 10.1088 11.9646 9.83984 11.8511 9.55394C11.7435 9.25504 11.572 8.98318 11.3487 8.75724C11.3206 8.73004 11.2691 8.70944 11.2644 8.68037C11.2025 8.24732 10.8154 7.93052 10.8285 7.47122C10.8242 7.23626 10.7569 7.00673 10.6336 6.80668C10.5277 6.61921 10.5305 6.41114 10.5164 6.20771C10.5144 6.18698 10.5166 6.16597 10.523 6.1461C10.5294 6.12623 10.5398 6.10791 10.5536 6.09224C10.5674 6.07656 10.5844 6.06394 10.6033 6.0551C10.6222 6.04626 10.6427 6.04143 10.6636 6.04088Z" fill="#353535" fill-opacity="0.5"/>
<path d="M9.30528 14.1413C9.30624 14.2083 9.28327 14.2735 9.24048 14.325C9.19769 14.3765 9.1379 14.4111 9.07187 14.4225C8.99586 14.4445 8.91438 14.4375 8.8432 14.4029C8.77202 14.3682 8.71625 14.3085 8.68663 14.2351C8.48771 13.7619 8.19315 13.3349 7.82149 12.9809C7.6594 12.8432 7.55695 12.648 7.53563 12.4364C7.52998 12.3507 7.50223 12.268 7.45502 12.1964C7.09132 11.6743 6.98073 11.0426 6.70986 10.4802C6.57766 10.2036 6.57393 9.8775 6.50083 9.57847C6.4071 9.19323 6.29837 8.81081 6.27494 8.41526C6.26337 8.14991 6.27371 7.88406 6.30584 7.62044C6.32275 7.44796 6.44551 7.41045 6.56176 7.53417C6.66817 7.63825 6.74176 7.77123 6.77357 7.91659C6.85887 8.38058 6.89542 8.85391 7.02757 9.31039C7.03928 9.37933 7.05719 9.44709 7.08103 9.51285C7.37067 10.0949 7.41847 10.7604 7.69963 11.3369C7.84304 11.6293 8.02395 11.9143 8.15893 12.2114C8.43449 12.8197 8.90317 13.2968 9.22088 13.8733C9.27087 13.9542 9.29986 14.0463 9.30528 14.1413Z" fill="#353535" fill-opacity="0.5"/>
<path d="M1.98853 3.3257C1.95203 3.52474 1.88898 3.718 1.80106 3.90027C1.54295 4.50849 1.33052 5.13512 1.16557 5.77492C0.99685 6.38697 0.88437 7.01405 0.741897 7.63453C0.729183 7.67941 0.721942 7.72571 0.720342 7.77233C0.726904 8.41814 0.532878 9.04144 0.48976 9.67509C0.451332 10.2777 0.351976 10.8936 0.477575 11.501C0.491637 11.5712 0.533817 11.6884 0.440085 11.7043C0.346353 11.7203 0.340729 11.6003 0.323857 11.5328C0.173887 10.9602 0.0173553 10.3818 0.00610757 9.79129C-0.00607749 9.18485 -0.0191995 8.58028 0.172013 7.97384C0.296675 7.57925 0.336042 7.13964 0.396031 6.71876C0.417589 6.56223 0.474763 6.41978 0.501011 6.26885C0.680036 5.23032 1.17025 4.33987 1.79732 3.51316C1.84418 3.44567 1.87605 3.35756 1.98853 3.3257Z" fill="#353535" fill-opacity="0.5"/>
<path d="M10.8857 17.778C10.6588 17.7583 10.5183 17.6111 10.3955 17.449C10.3313 17.3513 10.2373 17.277 10.1274 17.2371C10.0337 17.2081 9.95492 17.165 9.93993 17.0497C9.94002 17.0259 9.93323 17.0025 9.92047 16.9824C9.90766 16.9623 9.88939 16.9463 9.86774 16.9363C9.57532 16.8341 9.39159 16.5932 9.26882 16.3486C9.14601 16.104 8.90044 16.0121 8.80019 15.8181C8.68298 15.595 8.56021 15.371 8.45431 15.1404C8.42214 15.0468 8.35852 14.9673 8.27431 14.9154C7.9191 14.7279 7.77756 14.3905 7.66131 14.0447C7.62786 13.9101 7.55964 13.7866 7.46354 13.6866C7.33512 13.5694 7.33421 13.4541 7.44668 13.322C7.55914 13.1898 7.65101 13.1983 7.77756 13.306C8.03767 13.5357 8.25585 13.8087 8.42241 14.1131C8.47409 14.2173 8.54003 14.3138 8.61832 14.3999C9.0551 14.8179 9.32692 15.3616 9.71121 15.8199C10.1949 16.3982 10.6645 16.9888 11.3046 17.4068C11.3731 17.4518 11.48 17.4902 11.4603 17.5943C11.4406 17.6983 11.3253 17.688 11.2465 17.7058C11.1294 17.7339 11.0057 17.7536 10.8857 17.778Z" fill="#353535" fill-opacity="0.5"/>
<path d="M9.82914 17.9491C9.65202 17.9538 9.47484 17.9716 9.44203 17.7241C9.43169 17.6852 9.40685 17.6517 9.37267 17.6304C8.95088 17.3652 8.66876 16.9743 8.38942 16.5769C8.26383 16.396 8.07822 16.2545 7.94047 16.067C7.68341 15.7398 7.46545 15.3837 7.29092 15.0059C7.20971 14.8334 7.09237 14.6803 6.94691 14.5569C6.78227 14.4022 6.67213 14.1984 6.63289 13.9758C6.61594 13.8604 6.57916 13.7488 6.52416 13.6459C6.45763 13.5381 6.36389 13.4368 6.5551 13.3272C6.73036 13.2269 6.8663 13.2222 6.9769 13.3863C7.1605 13.6364 7.31757 13.905 7.44553 14.1877C7.56438 14.4477 7.72242 14.688 7.91422 14.9C8.30694 15.3743 8.57033 15.9367 8.96961 16.3997C9.32578 16.8194 9.71303 17.2117 10.1281 17.5732C10.1629 17.6032 10.205 17.6267 10.2397 17.6567C10.2931 17.7017 10.3625 17.7504 10.3456 17.8254C10.3287 17.9003 10.235 17.8966 10.1703 17.9079C10.0607 17.9257 9.94444 17.9313 9.82914 17.9491Z" fill="#353535" fill-opacity="0.5"/>
<path d="M11.9101 17.498C11.8123 17.4821 11.7239 17.4307 11.6617 17.3536C11.448 17.0959 11.1256 16.9975 10.8725 16.7987C10.8359 16.7706 10.7787 16.7472 10.7675 16.7107C10.6241 16.242 10.0364 16.1192 9.92389 15.6215C9.91173 15.5662 9.83485 15.5128 9.77584 15.48C9.48055 15.3196 9.46278 14.9729 9.2753 14.7404C9.21529 14.6654 9.30998 14.5848 9.36904 14.5201C9.38043 14.5043 9.39492 14.4909 9.4116 14.4807C9.42832 14.4705 9.44687 14.4639 9.46624 14.4611C9.48556 14.4583 9.50525 14.4594 9.52416 14.4644C9.54307 14.4694 9.56075 14.4782 9.57615 14.4901C9.70976 14.5547 9.82824 14.6467 9.92389 14.7601C10.3589 15.364 10.8688 15.9101 11.4414 16.3854C11.7033 16.6122 11.9672 16.8366 12.2335 17.0584C12.4453 17.2355 12.4331 17.303 12.1838 17.3986C12.09 17.4352 11.9954 17.468 11.9101 17.498Z" fill="#353535" fill-opacity="0.5"/>
<path d="M5.19152 17.1082C4.76973 16.9207 4.3545 16.767 4.06674 16.3518C3.79117 15.959 3.69838 15.4388 3.2569 15.1605C3.2411 15.1523 3.2275 15.1405 3.21727 15.126C3.20704 15.1115 3.20049 15.0947 3.19819 15.0771C3.19588 15.0595 3.19788 15.0416 3.20403 15.0249C3.21018 15.0083 3.22028 14.9933 3.23347 14.9814C3.3572 14.8221 3.80992 14.823 3.88959 15.0011C4.13423 15.5494 4.59256 15.9665 4.81097 16.5317C4.86356 16.627 4.93538 16.7103 5.02187 16.7764C5.11579 16.8635 5.17589 16.981 5.19152 17.1082Z" fill="#353535" fill-opacity="0.5"/>
<path d="M5.99236 12.0256C6.05547 12.0198 6.11881 12.0349 6.1724 12.0689C6.22599 12.1028 6.26682 12.1535 6.28852 12.2131C6.37036 12.4394 6.47002 12.6588 6.58659 12.8692C6.62044 12.9229 6.6327 12.9873 6.62085 13.0496C6.60905 13.1119 6.57401 13.1673 6.52288 13.2048C6.39633 13.3126 6.29417 13.276 6.2229 13.1401C6.08044 12.8683 5.86016 12.6433 5.79923 12.3228C5.75895 12.1035 5.78424 12.0256 5.99236 12.0256Z" fill="#353535" fill-opacity="0.5"/>
<path d="M10.3365 9.19379C10.3365 9.3063 10.3103 9.38878 10.2231 9.42719C10.1359 9.46561 10.0703 9.40468 10.0291 9.34189C9.89316 9.13755 9.73567 8.94074 9.70943 8.68578C9.69913 8.59204 9.70382 8.48614 9.80316 8.44303C9.91659 8.39331 9.99811 8.47675 10.0497 8.56392C10.1725 8.76042 10.2689 8.97218 10.3365 9.19379Z" fill="#353535" fill-opacity="0.5"/>
<g filter="url(#filter0_i_3172_25551)">
<path d="M28.0212 2.92826H29.9467V7.38743H29.9805C30.1156 7.17348 30.2789 6.98205 30.4703 6.81314C30.6617 6.64423 30.8701 6.50347 31.0953 6.39087C31.3317 6.267 31.5738 6.17692 31.8216 6.12062C32.0806 6.05305 32.3339 6.01927 32.5817 6.01927C33.2686 6.01927 33.8654 6.14314 34.3721 6.39087C34.8901 6.62734 35.318 6.95953 35.6558 7.38743C35.9936 7.80407 36.247 8.2939 36.4159 8.85692C36.5848 9.41995 36.6692 10.0224 36.6692 10.6642C36.6692 11.2498 36.5904 11.8184 36.4328 12.3702C36.2864 12.922 36.0555 13.4118 35.7402 13.8397C35.4362 14.2563 35.0477 14.5942 34.5748 14.8532C34.1018 15.1009 33.5444 15.2248 32.9026 15.2248C32.6098 15.2248 32.3114 15.2022 32.0074 15.1572C31.7146 15.1234 31.4331 15.0502 31.1628 14.9376C30.8926 14.825 30.6449 14.6786 30.4196 14.4984C30.2057 14.3183 30.0255 14.0818 29.8791 13.789H29.8454V14.9883H28.0212V2.92826ZM34.7437 10.6305C34.7437 10.2363 34.693 9.85348 34.5917 9.48188C34.4903 9.11029 34.3383 8.78373 34.1356 8.50222C33.9329 8.20944 33.6796 7.9786 33.3755 7.8097C33.0715 7.62953 32.7224 7.53944 32.3283 7.53944C31.5175 7.53944 30.9038 7.82096 30.4872 8.38398C30.0818 8.94701 29.8791 9.69583 29.8791 10.6305C29.8791 11.0696 29.9298 11.4806 30.0312 11.8635C30.1438 12.2351 30.307 12.556 30.521 12.8263C30.7349 13.0965 30.9883 13.3105 31.2811 13.4681C31.5851 13.6258 31.9342 13.7046 32.3283 13.7046C32.7675 13.7046 33.1391 13.6145 33.4431 13.4343C33.7471 13.2542 33.9949 13.0233 34.1863 12.7418C34.389 12.449 34.5297 12.1225 34.6086 11.7621C34.6986 11.3905 34.7437 11.0133 34.7437 10.6305ZM38.0091 2.92826H39.9347V14.9883H38.0091V2.92826ZM49.3633 14.9883H47.4716V13.7721H47.4378C47.2013 14.2113 46.8466 14.566 46.3737 14.8363C45.912 15.0953 45.439 15.2248 44.9548 15.2248C43.8063 15.2248 42.973 14.9432 42.455 14.3802C41.9483 13.8059 41.6949 12.9445 41.6949 11.7959V6.25574H43.6205V11.6101C43.6205 12.3758 43.7668 12.9163 44.0596 13.2316C44.3524 13.5469 44.7634 13.7046 45.2926 13.7046C45.698 13.7046 46.0358 13.6426 46.3061 13.5188C46.5763 13.3949 46.7959 13.2316 46.9648 13.0289C47.1337 12.815 47.252 12.5616 47.3195 12.2689C47.3984 11.9761 47.4378 11.6608 47.4378 11.323V6.25574H49.3633V14.9883ZM57.0523 9.85348C57.0298 9.54945 56.9622 9.25667 56.8496 8.97516C56.7483 8.69365 56.6019 8.45155 56.4105 8.24886C56.2303 8.03491 56.0051 7.866 55.7348 7.74213C55.4759 7.60701 55.1831 7.53944 54.8565 7.53944C54.5187 7.53944 54.209 7.60138 53.9275 7.72524C53.6573 7.83785 53.4208 8.00112 53.2181 8.21507C53.0267 8.41776 52.869 8.65987 52.7452 8.94138C52.6326 9.22289 52.5706 9.52693 52.5594 9.85348H57.0523ZM52.5594 11.1203C52.5594 11.4581 52.6044 11.7847 52.6945 12.1C52.7958 12.4153 52.9422 12.6911 53.1337 12.9276C53.3251 13.1641 53.5672 13.3555 53.86 13.5019C54.1527 13.637 54.5018 13.7046 54.9072 13.7046C55.4702 13.7046 55.9206 13.5863 56.2585 13.3499C56.6075 13.1021 56.8665 12.7362 57.0354 12.252H58.8596C58.7583 12.7249 58.5838 13.1472 58.336 13.5188C58.0883 13.8904 57.7899 14.2057 57.4408 14.4647C57.0917 14.7124 56.6976 14.8982 56.2585 15.0221C55.8306 15.1572 55.3801 15.2248 54.9072 15.2248C54.2203 15.2248 53.6122 15.1121 53.083 14.8869C52.5537 14.6617 52.1033 14.3464 51.7317 13.9411C51.3714 13.5357 51.0955 13.0515 50.9041 12.4884C50.7239 11.9254 50.6338 11.3061 50.6338 10.6305C50.6338 10.0111 50.7295 9.42558 50.921 8.87382C51.1237 8.31079 51.4052 7.82096 51.7655 7.40432C52.1371 6.97642 52.5819 6.6386 53.0999 6.39087C53.6179 6.14314 54.2034 6.01927 54.8565 6.01927C55.5434 6.01927 56.1571 6.16566 56.6976 6.45843C57.2494 6.73995 57.7054 7.11717 58.0658 7.59012C58.4261 8.06306 58.6851 8.60919 58.8427 9.22852C59.0117 9.83659 59.0567 10.4672 58.9779 11.1203H52.5594ZM60.1546 6.25574H61.9788V7.4381H62.0125C62.2828 6.93137 62.66 6.57104 63.1442 6.35709C63.6284 6.13188 64.152 6.01927 64.7151 6.01927C65.402 6.01927 65.9988 6.14314 66.5055 6.39087C67.0235 6.62734 67.4514 6.95953 67.7892 7.38743C68.127 7.80407 68.3804 8.2939 68.5493 8.85692C68.7182 9.41995 68.8026 10.0224 68.8026 10.6642C68.8026 11.2498 68.7238 11.8184 68.5662 12.3702C68.4198 12.922 68.1889 13.4118 67.8736 13.8397C67.5696 14.2563 67.1811 14.5942 66.7082 14.8532C66.2352 15.1009 65.6778 15.2248 65.036 15.2248C64.7545 15.2248 64.473 15.1966 64.1915 15.1403C63.9099 15.0953 63.6397 15.0164 63.3807 14.9038C63.1217 14.7912 62.8796 14.6505 62.6544 14.4816C62.4404 14.3014 62.2603 14.0931 62.1139 13.8566H62.0801V18.2144H60.1546V6.25574ZM66.8771 10.6305C66.8771 10.2363 66.8264 9.85348 66.7251 9.48188C66.6237 9.11029 66.4717 8.78373 66.269 8.50222C66.0663 8.20944 65.813 7.9786 65.5089 7.8097C65.2049 7.62953 64.8558 7.53944 64.4617 7.53944C63.651 7.53944 63.0373 7.82096 62.6206 8.38398C62.2152 8.94701 62.0125 9.69583 62.0125 10.6305C62.0125 11.0696 62.0632 11.4806 62.1646 11.8635C62.2772 12.2351 62.4404 12.556 62.6544 12.8263C62.8683 13.0965 63.1217 13.3105 63.4145 13.4681C63.7185 13.6258 64.0676 13.7046 64.4617 13.7046C64.9009 13.7046 65.2725 13.6145 65.5765 13.4343C65.8805 13.2542 66.1283 13.0233 66.3197 12.7418C66.5224 12.449 66.6631 12.1225 66.742 11.7621C66.8321 11.3905 66.8771 11.0133 66.8771 10.6305ZM70.0919 6.25574H71.8992V7.94482H71.933C71.9893 7.70835 72.0963 7.47751 72.2539 7.2523C72.4228 7.02709 72.6199 6.8244 72.8451 6.64423C73.0816 6.4528 73.3405 6.30078 73.6221 6.18818C73.9036 6.07557 74.1907 6.01927 74.4835 6.01927C74.7087 6.01927 74.8607 6.0249 74.9395 6.03616C75.0296 6.04742 75.1197 6.05868 75.2098 6.06994V7.92793C75.0747 7.90541 74.9339 7.88852 74.7875 7.87726C74.6524 7.85474 74.5173 7.84348 74.3821 7.84348C74.0556 7.84348 73.7459 7.91104 73.4532 8.04617C73.1716 8.17003 72.9239 8.36146 72.71 8.62045C72.496 8.86819 72.3271 9.17785 72.2032 9.54945C72.0794 9.92104 72.0174 10.3489 72.0174 10.8331V14.9883H70.0919V6.25574ZM75.7429 2.92826H77.6685V4.75246H75.7429V2.92826ZM75.7429 6.25574H77.6685V14.9883H75.7429V6.25574ZM79.4287 6.25574H81.2529V7.53944L81.2866 7.57322C81.5794 7.08902 81.9623 6.71179 82.4352 6.44154C82.9082 6.16003 83.4318 6.01927 84.0061 6.01927C84.9632 6.01927 85.7177 6.267 86.2694 6.76247C86.8212 7.25793 87.0971 8.00112 87.0971 8.99205V14.9883H85.1715V9.49877C85.149 8.81188 85.0026 8.31642 84.7324 8.01239C84.4621 7.69709 84.0398 7.53944 83.4656 7.53944C83.139 7.53944 82.8462 7.60138 82.5872 7.72524C82.3282 7.83785 82.1087 8.00112 81.9285 8.21507C81.7483 8.41776 81.6076 8.65987 81.5062 8.94138C81.4049 9.22289 81.3542 9.5213 81.3542 9.83659V14.9883H79.4287V6.25574ZM87.9115 6.25574H89.3641V3.63767H91.2897V6.25574H93.0294V7.69146H91.2897V12.3533C91.2897 12.556 91.2953 12.7305 91.3066 12.8769C91.3291 13.0233 91.3685 13.1472 91.4248 13.2485C91.4924 13.3499 91.5881 13.4287 91.712 13.485C91.8358 13.53 92.0047 13.5526 92.2187 13.5526C92.3538 13.5526 92.4889 13.5526 92.6241 13.5526C92.7592 13.5413 92.8943 13.5188 93.0294 13.485V14.9714C92.8155 14.9939 92.6072 15.0164 92.4045 15.039C92.2018 15.0615 91.9935 15.0727 91.7795 15.0727C91.2728 15.0727 90.8618 15.0277 90.5465 14.9376C90.2425 14.8363 90.0004 14.6955 89.8202 14.5153C89.6513 14.3239 89.5331 14.0874 89.4655 13.8059C89.4092 13.5244 89.3754 13.2035 89.3641 12.8432V7.69146H87.9115V6.25574Z" fill="#353535" fill-opacity="0.5"/>
</g>
<g filter="url(#filter1_i_3172_25551)">
<path d="M98.6731 12.1844C98.7294 12.7474 98.9433 13.1416 99.3149 13.3668C99.6865 13.592 100.131 13.7046 100.649 13.7046C100.829 13.7046 101.032 13.6933 101.257 13.6708C101.494 13.637 101.713 13.5807 101.916 13.5019C102.119 13.4231 102.282 13.3105 102.406 13.1641C102.541 13.0064 102.603 12.8037 102.592 12.556C102.58 12.3083 102.49 12.1056 102.321 11.9479C102.153 11.7903 101.933 11.6664 101.663 11.5763C101.404 11.475 101.105 11.3905 100.768 11.323C100.43 11.2554 100.086 11.1822 99.7372 11.1034C99.3769 11.0246 99.0278 10.9289 98.69 10.8163C98.3634 10.7037 98.065 10.5516 97.7948 10.3602C97.5358 10.1688 97.3275 9.92667 97.1698 9.6339C97.0122 9.32987 96.9333 8.95827 96.9333 8.51911C96.9333 8.04617 97.0459 7.65205 97.2712 7.33675C97.5076 7.0102 97.8004 6.75121 98.1495 6.55978C98.5098 6.35709 98.9039 6.21633 99.3318 6.13751C99.771 6.05868 100.188 6.01927 100.582 6.01927C101.032 6.01927 101.46 6.06994 101.865 6.17129C102.282 6.26137 102.654 6.41339 102.98 6.62734C103.318 6.84129 103.594 7.1228 103.808 7.47188C104.033 7.8097 104.174 8.2207 104.23 8.70491H102.22C102.13 8.24323 101.916 7.93356 101.578 7.77591C101.252 7.61827 100.875 7.53944 100.447 7.53944C100.311 7.53944 100.148 7.5507 99.9568 7.57322C99.7766 7.59575 99.6021 7.64079 99.4332 7.70835C99.2755 7.76465 99.1404 7.85474 99.0278 7.9786C98.9152 8.09121 98.8589 8.24323 98.8589 8.43465C98.8589 8.67113 98.9377 8.86255 99.0954 9.00894C99.2643 9.15533 99.4782 9.27919 99.7372 9.38054C100.007 9.47062 100.311 9.54945 100.649 9.61701C100.987 9.68457 101.336 9.75777 101.697 9.83659C102.046 9.91541 102.389 10.0111 102.727 10.1237C103.065 10.2363 103.363 10.3884 103.622 10.5798C103.892 10.7712 104.106 11.0133 104.264 11.3061C104.433 11.5989 104.517 11.9592 104.517 12.3871C104.517 12.9051 104.399 13.3442 104.163 13.7046C103.926 14.0649 103.616 14.3577 103.234 14.5829C102.862 14.8081 102.445 14.9714 101.984 15.0727C101.522 15.1741 101.066 15.2248 100.616 15.2248C100.064 15.2248 99.5514 15.1628 99.0785 15.039C98.6168 14.9151 98.2114 14.7293 97.8623 14.4816C97.5245 14.2226 97.2543 13.9073 97.0516 13.5357C96.8601 13.1528 96.7588 12.7024 96.7475 12.1844H98.6731ZM104.763 6.25574H106.216V3.63767H108.141V6.25574H109.881V7.69146H108.141V12.3533C108.141 12.556 108.147 12.7305 108.158 12.8769C108.181 13.0233 108.22 13.1472 108.276 13.2485C108.344 13.3499 108.44 13.4287 108.564 13.485C108.687 13.53 108.856 13.5526 109.07 13.5526C109.205 13.5526 109.341 13.5526 109.476 13.5526C109.611 13.5413 109.746 13.5188 109.881 13.485V14.9714C109.667 14.9939 109.459 15.0164 109.256 15.039C109.053 15.0615 108.845 15.0727 108.631 15.0727C108.124 15.0727 107.713 15.0277 107.398 14.9376C107.094 14.8363 106.852 14.6955 106.672 14.5153C106.503 14.3239 106.385 14.0874 106.317 13.8059C106.261 13.5244 106.227 13.2035 106.216 12.8432V7.69146H104.763V6.25574ZM118.597 14.9883H116.705V13.7721H116.671C116.435 14.2113 116.08 14.566 115.607 14.8363C115.145 15.0953 114.673 15.2248 114.188 15.2248C113.04 15.2248 112.206 14.9432 111.688 14.3802C111.182 13.8059 110.928 12.9445 110.928 11.7959V6.25574H112.854V11.6101C112.854 12.3758 113 12.9163 113.293 13.2316C113.586 13.5469 113.997 13.7046 114.526 13.7046C114.932 13.7046 115.269 13.6426 115.54 13.5188C115.81 13.3949 116.029 13.2316 116.198 13.0289C116.367 12.815 116.485 12.5616 116.553 12.2689C116.632 11.9761 116.671 11.6608 116.671 11.323V6.25574H118.597V14.9883ZM128.515 14.9883H126.691V13.8059H126.657C126.398 14.3126 126.021 14.6786 125.526 14.9038C125.03 15.1178 124.507 15.2248 123.955 15.2248C123.268 15.2248 122.666 15.1065 122.148 14.87C121.641 14.6223 121.219 14.2901 120.881 13.8735C120.543 13.4568 120.29 12.967 120.121 12.404C119.952 11.8297 119.867 11.216 119.867 10.5629C119.867 9.77466 119.974 9.0934 120.188 8.51911C120.402 7.94482 120.684 7.47188 121.033 7.10028C121.393 6.72869 121.799 6.45843 122.249 6.28952C122.711 6.10936 123.178 6.01927 123.651 6.01927C123.921 6.01927 124.197 6.04742 124.479 6.10373C124.76 6.14877 125.03 6.22759 125.289 6.3402C125.548 6.4528 125.785 6.59919 125.999 6.77936C126.224 6.94827 126.41 7.15095 126.556 7.38743H126.59V2.92826H128.515V14.9883ZM121.793 10.7149C121.793 11.0865 121.838 11.4525 121.928 11.8128C122.029 12.1731 122.176 12.4941 122.367 12.7756C122.57 13.0571 122.823 13.2823 123.127 13.4512C123.431 13.6201 123.792 13.7046 124.208 13.7046C124.636 13.7046 125.002 13.6145 125.306 13.4343C125.621 13.2542 125.875 13.0177 126.066 12.7249C126.269 12.4321 126.415 12.1056 126.505 11.7452C126.607 11.3737 126.657 10.9964 126.657 10.6136C126.657 9.64516 126.438 8.89071 125.999 8.3502C125.571 7.8097 124.985 7.53944 124.242 7.53944C123.792 7.53944 123.409 7.63516 123.093 7.82659C122.789 8.00675 122.536 8.24886 122.333 8.55289C122.142 8.84566 122.001 9.18348 121.911 9.56634C121.832 9.93794 121.793 10.3208 121.793 10.7149ZM130.328 2.92826H132.254V4.75246H130.328V2.92826ZM130.328 6.25574H132.254V14.9883H130.328V6.25574ZM138.017 15.2248C137.319 15.2248 136.694 15.1121 136.142 14.8869C135.602 14.6505 135.14 14.3295 134.757 13.9242C134.386 13.5188 134.098 13.0346 133.896 12.4716C133.704 11.9085 133.609 11.2892 133.609 10.6136C133.609 9.9492 133.704 9.3355 133.896 8.77247C134.098 8.20944 134.386 7.72524 134.757 7.31986C135.14 6.91448 135.602 6.59919 136.142 6.37398C136.694 6.13751 137.319 6.01927 138.017 6.01927C138.715 6.01927 139.335 6.13751 139.875 6.37398C140.427 6.59919 140.889 6.91448 141.26 7.31986C141.643 7.72524 141.93 8.20944 142.122 8.77247C142.324 9.3355 142.426 9.9492 142.426 10.6136C142.426 11.2892 142.324 11.9085 142.122 12.4716C141.93 13.0346 141.643 13.5188 141.26 13.9242C140.889 14.3295 140.427 14.6505 139.875 14.8869C139.335 15.1121 138.715 15.2248 138.017 15.2248ZM138.017 13.7046C138.445 13.7046 138.817 13.6145 139.132 13.4343C139.447 13.2542 139.706 13.0177 139.909 12.7249C140.112 12.4321 140.258 12.1056 140.348 11.7452C140.449 11.3737 140.5 10.9964 140.5 10.6136C140.5 10.242 140.449 9.87037 140.348 9.49877C140.258 9.12718 140.112 8.80062 139.909 8.51911C139.706 8.22634 139.447 7.98986 139.132 7.8097C138.817 7.62953 138.445 7.53944 138.017 7.53944C137.589 7.53944 137.218 7.62953 136.902 7.8097C136.587 7.98986 136.328 8.22634 136.125 8.51911C135.923 8.80062 135.771 9.12718 135.669 9.49877C135.579 9.87037 135.534 10.242 135.534 10.6136C135.534 10.9964 135.579 11.3737 135.669 11.7452C135.771 12.1056 135.923 12.4321 136.125 12.7249C136.328 13.0177 136.587 13.2542 136.902 13.4343C137.218 13.6145 137.589 13.7046 138.017 13.7046Z" fill="#353535" fill-opacity="0.33"/>
</g>
<defs>
<filter id="filter0_i_3172_25551" x="28.021" y="2.92773" width="65.0083" height="15.2871" filterUnits="userSpaceOnUse" color-interpolation-filters="sRGB">
<feFlood flood-opacity="0" result="BackgroundImageFix"/>
<feBlend mode="normal" in="SourceGraphic" in2="BackgroundImageFix" result="shape"/>
<feColorMatrix in="SourceAlpha" type="matrix" values="0 0 0 0 0 0 0 0 0 0 0 0 0 0 0 0 0 0 127 0" result="hardAlpha"/>
<feOffset/>
<feGaussianBlur stdDeviation="0.28125"/>
<feComposite in2="hardAlpha" operator="arithmetic" k2="-1" k3="1"/>
<feColorMatrix type="matrix" values="0 0 0 0 0 0 0 0 0 0 0 0 0 0 0 0 0 0 0.25 0"/>
<feBlend mode="normal" in2="shape" result="effect1_innerShadow_3172_25551"/>
</filter>
<filter id="filter1_i_3172_25551" x="96.7476" y="2.92773" width="45.6782" height="12.2969" filterUnits="userSpaceOnUse" color-interpolation-filters="sRGB">
<feFlood flood-opacity="0" result="BackgroundImageFix"/>
<feBlend mode="normal" in="SourceGraphic" in2="BackgroundImageFix" result="shape"/>
<feColorMatrix in="SourceAlpha" type="matrix" values="0 0 0 0 0 0 0 0 0 0 0 0 0 0 0 0 0 0 127 0" result="hardAlpha"/>
<feOffset/>
<feGaussianBlur stdDeviation="0.28125"/>
<feComposite in2="hardAlpha" operator="arithmetic" k2="-1" k3="1"/>
<feColorMatrix type="matrix" values="0 0 0 0 0 0 0 0 0 0 0 0 0 0 0 0 0 0 0.25 0"/>
<feBlend mode="normal" in2="shape" result="effect1_innerShadow_3172_25551"/>
</filter>
</defs>
</svg>
