<svg width="905" height="187" viewBox="0 0 905 187" fill="none" xmlns="http://www.w3.org/2000/svg">
<path d="M157.71 122.125L191.192 114.544C191.866 114.391 192.344 113.792 192.344 113.101V3.30539C192.344 2.48871 191.663 1.82606 190.847 1.83319C66.5541 2.91815 1.62493 138.883 0.135592 180.082C0.106088 180.898 0.771418 181.492 1.5881 181.492H147.5C148.599 181.492 149.317 180.336 148.849 179.341C136.161 152.346 133.721 116.19 135.894 94.0771C135.968 93.3263 136.602 92.7686 137.356 92.7686H148.414C149.23 92.7686 149.891 93.4304 149.905 94.2469C150.081 104.453 152.08 115.06 156.196 121.523C156.517 122.028 157.126 122.257 157.71 122.125Z" fill="#322014"/>
<path fill-rule="evenodd" clip-rule="evenodd" d="M386.86 20.2344C386.86 16.8081 384.083 14.0304 380.656 14.0303H318.73C315.304 14.0304 312.525 16.8085 312.525 20.2354C312.525 23.6084 315.205 26.2874 318.487 26.5117C324.829 26.9452 329.285 27.9628 332.171 30.2119C334.939 32.369 336.543 35.8995 336.543 42.1611V138.706C336.543 151.758 334.066 160.289 330.072 165.531C326.138 170.695 320.567 172.878 313.786 172.878C307.279 172.878 301.863 171.054 298.082 167.464C294.316 163.887 291.979 158.374 291.979 150.596V147.495C291.979 142.471 287.906 138.397 282.882 138.397H276.434C274.302 138.397 271.984 139.121 270.475 141.009C267.666 144.522 265.68 149.576 265.68 155.114C265.68 164.607 270.456 172.421 278.694 177.8C286.888 183.149 298.498 186.099 312.359 186.099C327.825 186.099 340.445 182.049 349.195 173.484C357.952 164.914 362.604 152.048 362.604 134.901V42.1611C362.604 35.8896 364.213 32.3595 367.009 30.2031C369.927 27.9521 374.443 26.9383 380.896 26.5078C384.181 26.2887 386.86 23.6072 386.86 20.2344ZM904.856 171.188C904.249 168.275 901.367 166.571 898.597 166.995C895.746 167.432 892.798 167.646 891.427 167.646C888.456 167.646 886.192 166.45 884.607 164.137C882.971 161.748 881.986 158.046 881.986 152.974C881.986 147.993 882.164 135.227 882.343 122.706L882.372 120.66C882.54 108.887 882.699 97.7238 882.699 94.001C882.699 80.7865 879.181 70.355 871.938 63.2373C864.699 56.1239 853.977 52.5528 840.063 52.5527C826.909 52.5527 815.3 55.4459 806.931 60.9434C798.514 66.4719 793.384 74.6431 793.384 84.9648C793.384 89.3243 794.31 92.7567 796.242 95.7246C797.945 98.3402 801.076 99.1565 803.796 98.7939L809.477 98.0361C814.925 97.3096 818.168 92.0749 817.71 86.9297C817.596 85.6557 817.544 84.388 817.544 83.0625C817.544 77.2684 819.127 73.3467 821.971 70.8389C824.852 68.2979 829.301 66.9629 835.545 66.9629C844.442 66.9629 849.828 69.9598 853.058 74.4277C856.354 78.9881 857.589 85.3299 857.589 92.3359V98.6504C857.589 101.222 855.977 103.518 853.558 104.391L821.007 116.134C813.283 118.867 804.785 122.21 798.226 127.753C791.585 133.365 786.964 141.203 786.964 152.736C786.964 161.689 789.539 170.1 795.04 176.292C800.566 182.513 808.905 186.337 820.088 186.337C831.582 186.337 841.355 181.457 849.142 175.429C851.212 173.826 854.041 173.484 856.932 174.205C859.823 174.927 862.573 176.672 864.306 178.925C867.91 183.611 873.072 186.337 880.013 186.337C888.309 186.337 895.652 183.18 903.402 175.89C904.697 174.672 905.208 172.879 904.856 171.188ZM857.589 125.947V153.656C857.589 155.607 856.673 157.416 855.115 158.47C846.71 164.154 839.48 166.695 829.838 166.695C824.098 166.695 819.785 164.905 816.891 161.691C813.975 158.455 812.313 153.569 812.312 147.029C812.312 138.74 817.508 132.325 825.85 129.169L825.853 129.168L849.318 120.244C853.312 118.726 857.589 121.675 857.589 125.947ZM447.687 168.979C445.622 167.441 444.295 165.026 444.295 160.584V59.1133C444.295 55.4904 441.358 52.5528 437.735 52.5527C436.978 52.5527 436.227 52.6842 435.515 52.9404L405.778 63.6367C403.692 64.3871 402.301 66.3662 402.301 68.583C402.301 70.5947 403.45 72.43 405.259 73.3096L415.988 78.5254C418.089 79.5466 419.423 81.6771 419.423 84.0127V160.584C419.423 165.001 418.067 167.418 415.977 168.963C413.745 170.612 410.466 171.44 406.218 172.107C403.319 172.563 401.112 175.032 401.112 178.017C401.112 181.298 403.772 183.958 407.054 183.958H456.67C459.948 183.958 462.605 181.301 462.605 178.023C462.605 175.036 460.393 172.565 457.489 172.116C453.165 171.449 449.894 170.624 447.687 168.979ZM528.882 66.0332C526.879 65.1493 525.452 63.3236 525.452 60.9463V59.1133C525.452 55.4904 522.515 52.5528 518.893 52.5527C518.136 52.5527 517.384 52.6842 516.672 52.9404L486.936 63.6367C484.85 64.3871 483.458 66.3662 483.458 68.583C483.458 70.5947 484.607 72.43 486.416 73.3096L497.146 78.5254C499.246 79.5466 500.579 81.6771 500.579 84.0127V160.584C500.579 165.001 499.224 167.418 497.134 168.963C494.902 170.612 491.624 171.44 487.375 172.107C484.476 172.563 482.27 175.032 482.27 178.017C482.27 181.298 484.929 183.958 488.211 183.958H537.827C541.105 183.958 543.763 181.301 543.763 178.023C543.763 175.036 541.55 172.565 538.646 172.116C534.322 171.449 531.051 170.624 528.844 168.979C526.779 167.441 525.452 165.026 525.452 160.584V87.9336C525.452 86.0448 526.3 84.313 527.767 83.3154C536.447 77.4113 548.188 73.1456 558.91 73.1455C566.377 73.1455 571.41 74.6136 574.616 77.8193C577.824 81.0274 579.527 86.301 579.527 94.7139V160.584C579.527 165.001 578.172 167.418 576.082 168.963C573.851 170.612 570.572 171.44 566.323 172.107C563.424 172.563 561.218 175.032 561.218 178.017C561.218 181.298 563.878 183.958 567.159 183.958H617.013C620.291 183.958 622.948 181.301 622.948 178.023C622.948 175.036 620.736 172.563 617.83 172.117C613.48 171.449 610.144 170.625 607.88 168.974C605.762 167.428 604.4 165.012 604.4 160.584V93.0498C604.4 78.943 601.208 68.7625 595.12 62.1064C589.008 55.4244 580.218 52.5527 569.611 52.5527C555.849 52.5527 544.706 58.1592 535.335 65.3086C533.383 66.7974 530.899 66.9232 528.882 66.0332ZM430.907 38.665C440.339 38.665 447.862 30.8162 447.862 21.2354C447.862 11.6544 440.339 3.80469 430.907 3.80469C421.476 3.80489 413.953 11.6545 413.953 21.2354C413.953 30.816 421.476 38.6648 430.907 38.665ZM680.159 58.9717C677.15 57.6772 675.158 55.3198 675.158 52.4951V6.56543C675.158 2.93972 672.218 0 668.593 0C667.84 3.49751e-06 667.093 0.129727 666.385 0.382812L636.404 11.0898C634.319 11.8347 632.926 13.8107 632.926 16.0254C632.926 18.0416 634.082 19.8793 635.9 20.751L646.821 25.9863C648.938 27.0013 650.285 29.1416 650.285 31.4893V165.401C650.285 168.041 651.419 170.654 653.645 172.285C664.063 179.921 680.909 186.337 702.671 186.337C737.181 186.337 765.045 158.157 765.045 113.5C765.045 96.8559 760.765 81.6441 752.219 70.5557C743.638 59.4224 730.832 52.5527 714.085 52.5527C704.805 52.5528 696.619 54.8035 689.484 58.8018C686.809 60.3011 683.17 60.2669 680.159 58.9717ZM730.097 159.299C723.796 167.709 714.898 172.402 704.336 172.402C695.274 172.402 688.054 170.252 683.09 165.398C678.131 160.55 675.158 152.744 675.158 140.847V84.6406C675.158 83.0583 675.736 81.6149 676.808 80.6875C683.707 74.714 694.084 71.4815 704.573 71.4814C717.282 71.4814 726.103 77.7884 731.821 87.4229C737.582 97.1296 740.172 110.211 740.172 123.487C740.172 138.594 736.423 150.855 730.097 159.299Z" fill="#322014"/>
</svg>
