<svg width="112" height="33" viewBox="0 0 112 33" fill="none" xmlns="http://www.w3.org/2000/svg">
<path d="M32.3744 32.8384H30.9028C30.7487 32.8384 30.604 32.7598 30.5223 32.6277L23.4158 21.2C23.2491 20.9327 22.9881 20.9044 22.8843 20.9044C22.7806 20.9044 22.5164 20.9327 22.3529 21.2L15.2464 32.6277C15.1647 32.7598 15.02 32.8384 14.8659 32.8384H13.3943C13.0421 32.8384 12.8283 32.4516 13.0139 32.1529L20.5323 20.0679C21.0417 19.2472 21.9221 18.7598 22.8875 18.7598C23.8528 18.7598 24.7333 19.2472 25.2427 20.0679L32.7611 32.1529C32.9467 32.4516 32.7328 32.8384 32.3807 32.8384H32.3744Z" fill="#B0B0B0"/>
<path d="M36.4206 32.8387H34.949C34.7949 32.8387 34.6502 32.76 34.5685 32.628L23.849 15.3921C23.6351 15.0493 23.2861 14.8543 22.8836 14.8543C22.4811 14.8543 22.1289 15.0493 21.9183 15.3921L11.1988 32.628C11.117 32.76 10.9723 32.8387 10.8183 32.8387H9.34665C8.99447 32.8387 8.78066 32.4519 8.96618 32.1531L20.0945 14.26C20.6982 13.2883 21.739 12.7097 22.8836 12.7097C23.4559 12.7097 23.9999 12.8543 24.481 13.1216C24.959 13.3889 25.3709 13.7757 25.6728 14.26L36.8011 32.1531C36.9866 32.4519 36.7728 32.8387 36.4206 32.8387Z" fill="#B0B0B0"/>
<path d="M40.4638 32.8384H38.9921C38.8381 32.8384 38.6934 32.7598 38.6117 32.6277L24.2823 9.58361C23.9741 9.08989 23.4647 8.80687 22.883 8.80687C22.3013 8.80687 21.7919 9.08989 21.4837 9.58361L7.15433 32.6277C7.07258 32.7598 6.92793 32.8384 6.77385 32.8384H5.30223C4.95005 32.8384 4.73622 32.4516 4.92175 32.1529L19.663 8.44838C20.3454 7.35089 21.5151 6.68422 22.8044 6.65907C24.1628 6.63076 25.4269 7.35404 26.147 8.50813L40.8505 32.1497C41.036 32.4485 40.8222 32.8353 40.47 32.8353L40.4638 32.8384Z" fill="#B0B0B0"/>
<path d="M44.5116 32.8385H43.04C42.8859 32.8385 42.7413 32.7599 42.6595 32.6278L24.7171 3.77551C24.3146 3.12771 23.648 2.75663 22.8839 2.75663C22.1198 2.75663 21.4532 3.12771 21.0507 3.77551L3.10831 32.6278C3.02656 32.7599 2.88191 32.8385 2.72783 32.8385H1.25621C0.904033 32.8385 0.690202 32.4517 0.875726 32.153L19.23 2.64028C20.0224 1.36984 21.3871 0.608826 22.8871 0.608826C24.387 0.608826 25.7517 1.36669 26.5441 2.64028L44.8984 32.153C45.0839 32.4517 44.8701 32.8385 44.5179 32.8385H44.5116Z" fill="#B0B0B0"/>
<path d="M56.2347 15.4753H52.1036L51.42 17.4517H49.2355L52.9654 7.06448H55.3876L59.1175 17.4517H56.9182L56.2347 15.4753ZM55.67 13.811L54.1691 9.47183L52.6682 13.811H55.67ZM62.5921 10.4972C62.8596 10.0613 63.2064 9.71949 63.6324 9.47183C64.0682 9.22416 64.5636 9.10032 65.1184 9.10032V11.2848H64.5685C63.9147 11.2848 63.4194 11.4383 63.0825 11.7454C62.7556 12.0525 62.5921 12.5875 62.5921 13.3503V17.4517H60.5117V9.2192H62.5921V10.4972ZM65.9847 13.3355C65.9847 12.4835 66.158 11.7405 66.5048 11.1064C66.8515 10.4625 67.332 9.96716 67.9462 9.62043C68.5604 9.26378 69.2638 9.08546 70.0563 9.08546C71.0767 9.08546 71.9188 9.34304 72.5826 9.85819C73.2562 10.3634 73.707 11.0767 73.9348 11.998H71.691C71.5721 11.6414 71.369 11.364 71.0817 11.1659C70.8043 10.9578 70.4576 10.8538 70.0415 10.8538C69.4471 10.8538 68.9765 11.0718 68.6298 11.5077C68.283 11.9337 68.1097 12.5429 68.1097 13.3355C68.1097 14.1181 68.283 14.7274 68.6298 15.1633C68.9765 15.5893 69.4471 15.8022 70.0415 15.8022C70.8836 15.8022 71.4334 15.4258 71.691 14.6729H73.9348C73.707 15.5645 73.2562 16.2728 72.5826 16.7979C71.9089 17.3229 71.0668 17.5855 70.0563 17.5855C69.2638 17.5855 68.5604 17.4121 67.9462 17.0654C67.332 16.7087 66.8515 16.2134 66.5048 15.5793C66.158 14.9354 65.9847 14.1874 65.9847 13.3355ZM80.0953 9.10032C80.7194 9.10032 81.2742 9.23902 81.7596 9.51641C82.2451 9.78389 82.6215 10.1851 82.889 10.7201C83.1664 11.2451 83.3051 11.8792 83.3051 12.6222V17.4517H81.2247V12.9045C81.2247 12.2507 81.0612 11.7504 80.7343 11.4036C80.4074 11.047 79.9616 10.8687 79.3969 10.8687C78.8223 10.8687 78.3666 11.047 78.0297 11.4036C77.7028 11.7504 77.5394 12.2507 77.5394 12.9045V17.4517H75.4589V6.45522H77.5394V10.2446C77.8068 9.88791 78.1635 9.61052 78.6093 9.41239C79.0551 9.20434 79.5504 9.10032 80.0953 9.10032ZM58.746 32.4517H56.6656L51.955 25.3337V32.4517H49.8745V22.0645H51.955L56.6656 29.1974V22.0645H58.746V32.4517ZM68.4549 28.1571C68.4549 28.4543 68.4351 28.7218 68.3955 28.9596H62.3771C62.4267 29.554 62.6347 30.0196 63.0013 30.3564C63.3678 30.6933 63.8186 30.8617 64.3535 30.8617C65.1263 30.8617 65.6761 30.5298 66.003 29.8661H68.2469C68.0091 30.6586 67.5534 31.3124 66.8798 31.8276C66.2061 32.3328 65.3789 32.5855 64.3981 32.5855C63.6056 32.5855 62.8923 32.4121 62.2583 32.0654C61.6341 31.7087 61.1437 31.2084 60.7871 30.5645C60.4404 29.9205 60.267 29.1775 60.267 28.3355C60.267 27.4835 60.4404 26.7355 60.7871 26.0916C61.1338 25.4476 61.6193 24.9523 62.2434 24.6056C62.8675 24.2588 63.5858 24.0855 64.3981 24.0855C65.1807 24.0855 65.8792 24.2539 66.4934 24.5907C67.1175 24.9275 67.598 25.408 67.9348 26.0321C68.2816 26.6464 68.4549 27.3547 68.4549 28.1571ZM66.3002 27.5627C66.2903 27.0278 66.0971 26.6018 65.7207 26.2848C65.3442 25.9578 64.8835 25.7944 64.3387 25.7944C63.8235 25.7944 63.3876 25.9529 63.031 26.2699C62.6842 26.577 62.4712 27.008 62.392 27.5627H66.3002ZM72.3957 25.9281V29.9106C72.3957 30.188 72.46 30.3911 72.5888 30.5199C72.7275 30.6388 72.9554 30.6982 73.2724 30.6982H74.2383V32.4517H72.9306C71.1771 32.4517 70.3004 31.5997 70.3004 29.8958V25.9281H69.3196V24.2192H70.3004V22.1834H72.3957V24.2192H74.2383V25.9281H72.3957ZM87.1472 24.2192L84.7399 32.4517H82.496L80.9951 26.7008L79.4943 32.4517H77.2355L74.8133 24.2192H76.9235L78.3798 30.4902L79.9549 24.2192H82.1542L83.6997 30.4753L85.156 24.2192H87.1472ZM91.9285 32.5855C91.136 32.5855 90.4227 32.4121 89.7886 32.0654C89.1546 31.7087 88.6543 31.2084 88.2878 30.5645C87.9311 29.9205 87.7528 29.1775 87.7528 28.3355C87.7528 27.4934 87.9361 26.7504 88.3026 26.1064C88.6791 25.4625 89.1893 24.9672 89.8332 24.6204C90.4772 24.2638 91.1954 24.0855 91.9879 24.0855C92.7805 24.0855 93.4987 24.2638 94.1427 24.6204C94.7866 24.9672 95.2918 25.4625 95.6584 26.1064C96.0348 26.7504 96.2231 27.4934 96.2231 28.3355C96.2231 29.1775 96.0299 29.9205 95.6435 30.5645C95.2671 31.2084 94.7519 31.7087 94.0981 32.0654C93.4541 32.4121 92.7309 32.5855 91.9285 32.5855ZM91.9285 30.7725C92.305 30.7725 92.6566 30.6834 92.9836 30.505C93.3204 30.3168 93.5879 30.0394 93.786 29.6729C93.9841 29.3063 94.0832 28.8605 94.0832 28.3355C94.0832 27.5528 93.8752 26.9535 93.4591 26.5374C93.0529 26.1114 92.5526 25.8984 91.9582 25.8984C91.3638 25.8984 90.8635 26.1114 90.4573 26.5374C90.0611 26.9535 89.8629 27.5528 89.8629 28.3355C89.8629 29.1181 90.0561 29.7224 90.4425 30.1484C90.8388 30.5645 91.3341 30.7725 91.9285 30.7725ZM99.8296 25.4972C100.097 25.0613 100.444 24.7195 100.87 24.4718C101.306 24.2242 101.801 24.1003 102.356 24.1003V26.2848H101.806C101.152 26.2848 100.657 26.4383 100.32 26.7454C99.993 27.0525 99.8296 27.5875 99.8296 28.3503V32.4517H97.7491V24.2192H99.8296V25.4972ZM108.631 32.4517L105.837 28.9447V32.4517H103.757V21.4552H105.837V27.7113L108.601 24.2192H111.306L107.68 28.3503L111.336 32.4517H108.631Z" fill="#B0B0B0"/>
</svg>
