<svg width="149" height="41" viewBox="0 0 149 41" fill="none" xmlns="http://www.w3.org/2000/svg">
<g filter="url(#filter0_d_633_137629)">
<path d="M16.8593 21.254C16.8593 21.4749 16.9943 21.5854 17.2644 21.5854V21.9169H14.4286V21.5854C14.5145 21.5854 14.5882 21.5609 14.6496 21.5118C14.7232 21.4504 14.7601 21.3644 14.7601 21.254V13.9252H11.7217C11.6112 13.9252 11.5008 13.9558 11.3903 14.0172C11.2921 14.0786 11.243 14.1952 11.243 14.3671H10.9115V11.7891H11.243C11.243 11.961 11.2921 12.0776 11.3903 12.139C11.5008 12.2004 11.6112 12.2311 11.7217 12.2311H19.8976C20.0081 12.2311 20.1124 12.2004 20.2106 12.139C20.3211 12.0776 20.3764 11.961 20.3764 11.7891H20.7078V14.3671H20.3764C20.3764 14.1952 20.3211 14.0786 20.2106 14.0172C20.1124 13.9558 20.0081 13.9252 19.8976 13.9252H16.8593V21.254ZM28.5398 15.0668C28.147 15.0668 27.7603 15.1343 27.3798 15.2694C27.0115 15.3921 26.68 15.5763 26.3854 15.8218C26.0908 16.0551 25.8514 16.3435 25.6672 16.6873C25.4954 17.031 25.4094 17.4238 25.4094 17.8658C25.4094 18.3077 25.4954 18.7005 25.6672 19.0443C25.8514 19.388 26.0908 19.6826 26.3854 19.9281C26.68 20.1614 27.0115 20.3455 27.3798 20.4806C27.7603 20.6033 28.147 20.6647 28.5398 20.6647C28.9327 20.6647 29.3132 20.6033 29.6815 20.4806C30.0621 20.3455 30.3997 20.1614 30.6943 19.9281C30.9889 19.6826 31.2222 19.388 31.394 19.0443C31.5782 18.7005 31.6702 18.3077 31.6702 17.8658C31.6702 17.4238 31.5782 17.031 31.394 16.6873C31.2222 16.3435 30.9889 16.0551 30.6943 15.8218C30.3997 15.5763 30.0621 15.3921 29.6815 15.2694C29.3132 15.1343 28.9327 15.0668 28.5398 15.0668ZM28.5398 13.7042C29.215 13.7042 29.8472 13.7901 30.4365 13.962C31.038 14.1338 31.5598 14.3916 32.0017 14.7354C32.4436 15.0791 32.7935 15.5149 33.0513 16.0428C33.3091 16.5584 33.438 17.166 33.438 17.8658C33.438 18.5655 33.3091 19.1793 33.0513 19.7072C32.7935 20.2228 32.4436 20.6524 32.0017 20.9962C31.5598 21.3399 31.038 21.5916 30.4365 21.7511C29.8472 21.8985 29.215 21.9721 28.5398 21.9721C27.8647 21.9721 27.2263 21.8985 26.6248 21.7511C26.0355 21.5916 25.5199 21.3399 25.078 20.9962C24.6361 20.6524 24.2862 20.2228 24.0284 19.7072C23.7706 19.1793 23.6417 18.5655 23.6417 17.8658C23.6417 17.166 23.7706 16.5584 24.0284 16.0428C24.2862 15.5149 24.6361 15.0791 25.078 14.7354C25.5199 14.3916 26.0355 14.1338 26.6248 13.962C27.2263 13.7901 27.8647 13.7042 28.5398 13.7042ZM39.0787 21.3092C39.0787 21.4933 39.1954 21.5854 39.4286 21.5854V21.9169H37.0164V21.5854C37.2128 21.5854 37.311 21.4933 37.311 21.3092V14.4223C37.311 14.2382 37.2128 14.1461 37.0164 14.1461V13.8147H39.4286V14.1461C39.1954 14.1461 39.0787 14.2382 39.0787 14.4223V17.4238C39.4961 17.0801 39.9258 16.7364 40.3677 16.3926C40.8097 16.0366 41.2086 15.7113 41.5646 15.4167C41.9207 15.1221 42.2153 14.8765 42.4485 14.6801C42.6818 14.4714 42.7984 14.3425 42.7984 14.2934C42.7984 14.2321 42.7616 14.183 42.6879 14.1461C42.6265 14.1093 42.5651 14.0909 42.5038 14.0909V13.8147H45.5421V14.1461C45.3948 14.1952 45.1738 14.3364 44.8792 14.5696L41.804 17.0555L44.7135 20.6647C44.8608 20.8489 45.0204 21.0391 45.1922 21.2355C45.3641 21.4197 45.536 21.5363 45.7078 21.5854V21.9169H42.9825V21.5854C43.1176 21.5854 43.1851 21.5486 43.1851 21.4749C43.1851 21.4258 43.1544 21.3583 43.093 21.2724C43.0439 21.1864 42.9396 21.0514 42.78 20.8673L40.515 18.1052L39.0787 19.2468V21.3092ZM55.9767 15.5272C55.9767 15.2939 55.7864 15.1773 55.4059 15.1773H50.9128V17.0187H53.7486C53.9573 17.0187 54.1107 17.0064 54.2089 16.9819C54.3071 16.9451 54.3563 16.8591 54.3563 16.7241H54.6877V18.676H54.3194C54.3563 18.541 54.3071 18.4612 54.1721 18.4366C54.0371 18.3998 53.8468 18.3814 53.6013 18.3814H50.9128V20.5542H55.6268C55.7741 20.5542 55.8969 20.5235 55.9951 20.4622C56.0933 20.3885 56.1424 20.2964 56.1424 20.1859H56.4739V22.1194H56.1424C56.1424 22.0089 56.0933 21.9476 55.9951 21.9353C55.8969 21.923 55.7741 21.9169 55.6268 21.9169H48.8689V21.5854C48.9302 21.5854 48.9916 21.567 49.053 21.5302C49.1144 21.4811 49.1451 21.4074 49.1451 21.3092V14.4223C49.1451 14.3241 49.1144 14.2566 49.053 14.2198C48.9916 14.1707 48.9302 14.1461 48.8689 14.1461V13.8147H55.4059C55.7864 13.8147 55.9767 13.7042 55.9767 13.4832H56.3081V15.5272H55.9767ZM60.5556 21.5854C60.7766 21.5854 60.8871 21.4933 60.8871 21.3092V14.4223C60.8871 14.2382 60.7766 14.1461 60.5556 14.1461V13.8147H63.2625V14.1461C63.1766 14.1584 63.1336 14.1891 63.1336 14.2382C63.1336 14.2996 63.2686 14.4653 63.5387 14.7354L67.9581 19.4126V14.4223C67.9581 14.2382 67.8353 14.1461 67.5898 14.1461V13.8147H69.8363V14.1461C69.6154 14.1461 69.5049 14.2382 69.5049 14.4223V21.3092C69.5049 21.4933 69.6154 21.5854 69.8363 21.5854V21.9169H67.4425V21.5854C67.5284 21.5854 67.5714 21.5547 67.5714 21.4933C67.5714 21.4442 67.51 21.3583 67.3872 21.2355C67.2768 21.1128 67.1479 20.9716 67.0006 20.812L62.4339 15.9507V21.3092C62.4339 21.4933 62.5628 21.5854 62.8206 21.5854V21.9169H60.5556V21.5854ZM76.2443 12.5625C76.0601 12.5625 75.9681 12.6791 75.9681 12.9124C75.9681 12.9738 75.9742 13.0474 75.9865 13.1333C76.011 13.2193 76.0601 13.3605 76.1338 13.5569L78.1041 18.676H78.1409L80.0928 13.4832C80.1542 13.3236 80.191 13.207 80.2033 13.1333C80.2279 13.0474 80.2401 12.9738 80.2401 12.9124C80.2401 12.6791 80.1603 12.5625 80.0008 12.5625V12.2311H83.1496V12.5625C83.0636 12.5625 83.0023 12.5932 82.9654 12.6546C82.9286 12.716 82.9102 12.7835 82.9102 12.8571C82.9102 12.9799 82.9716 13.1886 83.0943 13.4832L85.0646 18.676H85.1015L87.0902 13.3727C87.1761 13.1886 87.2191 13.0229 87.2191 12.8755C87.2191 12.8019 87.1884 12.7344 87.127 12.673C87.0656 12.5993 86.992 12.5625 86.906 12.5625V12.2311H89.6313V12.5625C89.4963 12.5625 89.3919 12.6362 89.3183 12.7835C89.2569 12.9308 89.1833 13.1149 89.0973 13.3359L86.4457 20.3701C86.372 20.5665 86.3045 20.7384 86.2431 20.8857C86.194 21.033 86.1695 21.1558 86.1695 21.254C86.1695 21.3399 86.2002 21.4197 86.2615 21.4933C86.3229 21.5547 86.4089 21.5854 86.5193 21.5854V21.9169H83.6099V21.5854C83.6836 21.5609 83.7572 21.524 83.8309 21.4749C83.9168 21.4258 83.9598 21.3583 83.9598 21.2724C83.9598 21.1742 83.9352 21.0637 83.8861 20.9409C83.8493 20.8182 83.7818 20.6463 83.6836 20.4253L81.566 14.9932H81.5291L79.522 20.3148C79.3378 20.7936 79.2458 21.0944 79.2458 21.2171C79.2458 21.4136 79.3256 21.5363 79.4852 21.5854V21.9169H76.631V21.5854C76.7046 21.5854 76.7783 21.567 76.8519 21.5302C76.9256 21.4933 76.9624 21.432 76.9624 21.346C76.9624 21.2478 76.9379 21.1435 76.8888 21.033C76.8519 20.9225 76.809 20.8059 76.7599 20.6831L73.8136 13.0781C73.7645 12.9431 73.7093 12.8326 73.6479 12.7467C73.5988 12.6484 73.5129 12.5871 73.3901 12.5625V12.2311H76.2443V12.5625ZM97.2978 15.0668C96.9049 15.0668 96.5182 15.1343 96.1377 15.2694C95.7694 15.3921 95.4379 15.5763 95.1433 15.8218C94.8487 16.0551 94.6093 16.3435 94.4252 16.6873C94.2533 17.031 94.1674 17.4238 94.1674 17.8658C94.1674 18.3077 94.2533 18.7005 94.4252 19.0443C94.6093 19.388 94.8487 19.6826 95.1433 19.9281C95.4379 20.1614 95.7694 20.3455 96.1377 20.4806C96.5182 20.6033 96.9049 20.6647 97.2978 20.6647C97.6906 20.6647 98.0712 20.6033 98.4394 20.4806C98.82 20.3455 99.1576 20.1614 99.4522 19.9281C99.7468 19.6826 99.9801 19.388 100.152 19.0443C100.336 18.7005 100.428 18.3077 100.428 17.8658C100.428 17.4238 100.336 17.031 100.152 16.6873C99.9801 16.3435 99.7468 16.0551 99.4522 15.8218C99.1576 15.5763 98.82 15.3921 98.4394 15.2694C98.0712 15.1343 97.6906 15.0668 97.2978 15.0668ZM97.2978 13.7042C97.973 13.7042 98.6052 13.7901 99.1944 13.962C99.796 14.1338 100.318 14.3916 100.76 14.7354C101.202 15.0791 101.551 15.5149 101.809 16.0428C102.067 16.5584 102.196 17.166 102.196 17.8658C102.196 18.5655 102.067 19.1793 101.809 19.7072C101.551 20.2228 101.202 20.6524 100.76 20.9962C100.318 21.3399 99.796 21.5916 99.1944 21.7511C98.6052 21.8985 97.973 21.9721 97.2978 21.9721C96.6226 21.9721 95.9842 21.8985 95.3827 21.7511C94.7935 21.5916 94.2779 21.3399 93.8359 20.9962C93.394 20.6524 93.0441 20.2228 92.7863 19.7072C92.5285 19.1793 92.3996 18.5655 92.3996 17.8658C92.3996 17.166 92.5285 16.5584 92.7863 16.0428C93.0441 15.5149 93.394 15.0791 93.8359 14.7354C94.2779 14.3916 94.7935 14.1338 95.3827 13.962C95.9842 13.7901 96.6226 13.7042 97.2978 13.7042ZM110.893 17.3133C112.096 17.3133 112.698 16.9328 112.698 16.1717C112.698 15.8648 112.551 15.6254 112.256 15.4535C111.974 15.2694 111.519 15.1773 110.893 15.1773H107.984V17.3133H110.893ZM110.93 13.8147C112.023 13.8147 112.876 13.9988 113.49 14.3671C114.104 14.7231 114.411 15.3369 114.411 16.2085C114.411 16.54 114.349 16.8346 114.226 17.0924C114.104 17.3502 113.938 17.5773 113.729 17.7737C113.533 17.9578 113.312 18.1113 113.066 18.2341C112.821 18.3445 112.569 18.4305 112.311 18.4918L114.116 21.1251C114.214 21.2601 114.318 21.3644 114.429 21.4381C114.552 21.4995 114.681 21.5486 114.816 21.5854V21.9169H111.998V21.5854C112.158 21.5854 112.238 21.5302 112.238 21.4197C112.238 21.2969 112.146 21.1067 111.961 20.8489L110.507 18.676H107.947V21.3092C107.947 21.4074 107.984 21.4811 108.058 21.5302C108.144 21.567 108.223 21.5854 108.297 21.5854V21.9169H105.848V21.5854C106.069 21.5854 106.179 21.4933 106.179 21.3092V14.4223C106.179 14.2382 106.069 14.1461 105.848 14.1461V13.8147H110.93ZM120.567 21.3092C120.567 21.4933 120.683 21.5854 120.917 21.5854V21.9169H118.504V21.5854C118.701 21.5854 118.799 21.4933 118.799 21.3092V14.4223C118.799 14.2382 118.701 14.1461 118.504 14.1461V13.8147H120.917V14.1461C120.683 14.1461 120.567 14.2382 120.567 14.4223V17.4238C120.984 17.0801 121.414 16.7364 121.856 16.3926C122.298 16.0366 122.697 15.7113 123.053 15.4167C123.409 15.1221 123.703 14.8765 123.937 14.6801C124.17 14.4714 124.287 14.3425 124.287 14.2934C124.287 14.2321 124.25 14.183 124.176 14.1461C124.115 14.1093 124.053 14.0909 123.992 14.0909V13.8147H127.03V14.1461C126.883 14.1952 126.662 14.3364 126.367 14.5696L123.292 17.0555L126.202 20.6647C126.349 20.8489 126.508 21.0391 126.68 21.2355C126.852 21.4197 127.024 21.5363 127.196 21.5854V21.9169H124.471V21.5854C124.606 21.5854 124.673 21.5486 124.673 21.4749C124.673 21.4258 124.643 21.3583 124.581 21.2724C124.532 21.1864 124.428 21.0514 124.268 20.8673L122.003 18.1052L120.567 19.2468V21.3092ZM130.891 19.0995C130.891 19.1486 130.885 19.2039 130.873 19.2652C130.873 19.3143 130.873 19.3696 130.873 19.431C130.873 19.6151 130.989 19.787 131.222 19.9466C131.456 20.0939 131.732 20.2228 132.051 20.3333C132.383 20.4315 132.708 20.5113 133.027 20.5726C133.358 20.634 133.616 20.6647 133.8 20.6647C133.972 20.6647 134.181 20.6524 134.426 20.6279C134.684 20.6033 134.936 20.5542 135.181 20.4806C135.427 20.3946 135.636 20.2842 135.808 20.1491C135.979 20.0018 136.065 19.8115 136.065 19.5783C136.065 19.3082 135.912 19.1118 135.605 18.989C135.31 18.8663 134.936 18.7742 134.482 18.7128C134.028 18.6392 133.536 18.5716 133.009 18.5103C132.481 18.4366 131.99 18.3261 131.535 18.1788C131.081 18.0192 130.701 17.7983 130.394 17.5159C130.099 17.2213 129.952 16.81 129.952 16.2822C129.952 15.4965 130.277 14.8704 130.928 14.4039C131.578 13.9374 132.493 13.7042 133.672 13.7042C134.248 13.7042 134.74 13.7533 135.145 13.8515C135.562 13.9374 135.912 14.0356 136.194 14.1461C136.477 14.2566 136.704 14.361 136.876 14.4592C137.06 14.5451 137.195 14.5881 137.281 14.5881C137.379 14.5881 137.453 14.5758 137.502 14.5512C137.551 14.5144 137.612 14.4776 137.686 14.4407L137.888 14.6433L136.968 16.3742L136.636 16.2637C136.624 16.1901 136.612 16.1164 136.599 16.0428C136.587 15.9691 136.532 15.8955 136.434 15.8218C136.188 15.6131 135.808 15.4351 135.292 15.2878C134.776 15.1405 134.199 15.0668 133.561 15.0668C133.316 15.0668 133.082 15.0852 132.861 15.1221C132.64 15.1466 132.444 15.1957 132.272 15.2694C132.1 15.343 131.965 15.4412 131.867 15.564C131.769 15.6745 131.72 15.8157 131.72 15.9875C131.72 16.2576 131.867 16.454 132.162 16.5768C132.468 16.6873 132.849 16.7793 133.303 16.853C133.757 16.9144 134.248 16.9819 134.776 17.0555C135.304 17.1169 135.795 17.2274 136.249 17.387C136.704 17.5466 137.078 17.7798 137.373 18.0867C137.68 18.3936 137.833 18.8172 137.833 19.3573C137.833 19.8975 137.698 20.3394 137.428 20.6831C137.17 21.0269 136.845 21.2969 136.452 21.4933C136.059 21.6898 135.623 21.8187 135.145 21.88C134.678 21.9414 134.236 21.9721 133.819 21.9721C133.401 21.9721 132.984 21.9353 132.567 21.8616C132.162 21.7757 131.787 21.6836 131.443 21.5854C131.112 21.4749 130.83 21.3767 130.596 21.2908C130.363 21.1926 130.222 21.1435 130.173 21.1435C130.087 21.1435 130.013 21.1803 129.952 21.254L129.694 21.0698L130.541 19.0074L130.891 19.0995Z" fill="#B0B0B0"/>
</g>
<path d="M55.1932 31.9441C54.8841 31.9441 54.6726 31.7407 54.6726 31.4398C54.6726 31.1307 54.8841 30.9355 55.1932 30.9355C55.5022 30.9355 55.7137 31.1307 55.7137 31.4398C55.7137 31.7407 55.5022 31.9441 55.1932 31.9441ZM53.4527 36.027L54.1521 34.0587C54.2497 33.7903 54.3636 33.4569 54.3636 33.343C54.3636 33.2373 54.3229 33.2047 54.2578 33.2047C54.0139 33.2047 53.656 33.6358 53.3469 34.1482H53.1517C53.5259 33.4243 54.1359 32.7737 54.7296 32.7737C55.0224 32.7737 55.1606 32.9851 55.1606 33.221C55.1606 33.4325 55.0549 33.7171 54.9248 34.075L54.2172 36.0514C54.1521 36.2303 54.0464 36.515 54.0464 36.6288C54.0464 36.7508 54.0789 36.8159 54.1928 36.8159C54.4937 36.8159 54.8597 36.3035 55.1281 35.7098H55.3152C55.0224 36.4336 54.4937 37.2551 53.8268 37.2551C53.3957 37.2551 53.2493 37.0274 53.2493 36.7346C53.2493 36.5475 53.3388 36.3523 53.4527 36.027ZM58.5642 36.8159C58.8651 36.8159 59.223 36.3035 59.4995 35.7098H59.6866C59.3938 36.4336 58.857 37.2551 58.1982 37.2551C57.7672 37.2551 57.6208 37.0274 57.6208 36.7346C57.6208 36.5475 57.7021 36.3523 57.816 36.0188L58.1169 35.1323H58.003C57.6126 35.9863 56.8725 37.2958 56.1486 37.2958C55.6688 37.2958 55.4166 36.8403 55.4166 36.2059C55.4166 34.7582 56.7261 32.7574 57.8566 32.7574C58.4016 32.7574 58.613 33.1559 58.5886 33.6765H58.6049L59.345 31.4805C59.4995 31.025 59.3287 30.8623 58.7594 30.8623L58.8082 30.6753C59.7273 30.6753 60.1095 30.6183 60.321 30.4394L60.4186 30.4964L58.5805 36.0432C58.5154 36.2303 58.4178 36.515 58.4178 36.6288C58.4178 36.7508 58.4504 36.8159 58.5642 36.8159ZM56.4902 36.7102C56.9701 36.7102 57.8241 35.4251 58.1413 34.5142C58.2308 34.2539 58.2958 33.9936 58.2958 33.7253C58.2958 33.3755 58.1982 33.1722 57.9298 33.1722C57.206 33.1722 56.2218 34.9534 56.2218 36.1083C56.2218 36.4906 56.295 36.7102 56.4902 36.7102ZM61.8388 37.3139C61.3684 37.3139 60.931 37.0828 60.6173 36.7444C60.4687 36.5876 60.3862 36.5876 60.3449 36.8022L60.2789 37.1901H60.0973L60.1056 34.8048H60.2872C60.3449 36.1337 60.9805 37.0333 61.8388 37.0333C62.6229 37.0333 62.9531 36.3895 62.9531 35.8283C62.9531 34.9864 62.2928 34.4747 61.5995 33.9465C60.8484 33.377 60.1469 32.8322 60.1469 31.8996C60.1469 31.0247 60.7576 30.4469 61.6408 30.4469C62.0617 30.4469 62.3753 30.5707 62.6807 30.8679C62.8128 30.9917 62.9283 30.9587 62.9448 30.7853L62.9778 30.5295H63.1512L63.2585 32.6754H63.0851C62.9778 31.5612 62.5239 30.7276 61.6408 30.7276C60.9722 30.7276 60.6091 31.2228 60.6091 31.8005C60.6091 32.5351 61.1703 32.9973 61.8719 33.5255C62.656 34.1115 63.407 34.6893 63.407 35.721C63.407 36.6206 62.7963 37.3139 61.8388 37.3139ZM65.242 37.3139C64.3837 37.3139 63.8967 36.3648 63.8967 35.069C63.8967 33.7401 64.4084 32.7002 65.3576 32.7002C65.9849 32.7002 66.3645 33.1624 66.3645 33.7154C66.3645 34.0207 66.249 34.1858 66.0344 34.1858C65.8363 34.1858 65.7538 34.0455 65.7538 33.8969C65.7538 33.7731 65.8115 33.6163 65.8115 33.443C65.8115 33.1459 65.6382 32.9808 65.3493 32.9808C64.656 32.9808 64.3754 33.9465 64.3754 34.8956C64.3754 35.9851 64.7386 36.8848 65.3906 36.8848C65.7455 36.8848 66.183 36.5711 66.3233 35.4239H66.4966C66.4223 36.7527 65.8693 37.3139 65.242 37.3139ZM69.7675 36.307H69.9409C69.9326 36.8682 69.7923 37.3139 69.3466 37.3139C68.9752 37.3139 68.7606 37.0168 68.7606 36.406V36.0759C68.5378 36.893 68.1168 37.3139 67.5803 37.3139C67.0356 37.3139 66.7385 36.8765 66.7385 36.3565C66.7385 35.3331 67.8527 34.8544 68.7606 34.4169V33.9465C68.7606 33.2284 68.4965 32.9725 68.059 32.9725C67.7041 32.9725 67.4318 33.1459 67.4318 33.4512C67.4318 33.6493 67.5473 33.7236 67.5473 33.8969C67.5473 34.0703 67.4483 34.1858 67.2667 34.1858C67.0439 34.1858 66.9283 33.996 66.9283 33.7319C66.9283 33.1541 67.4483 32.6919 68.1416 32.6919C68.7606 32.6919 69.2146 33.0633 69.2146 33.9382V36.4721C69.2146 36.926 69.3219 37.0251 69.4539 37.0251C69.6272 37.0251 69.7593 36.86 69.7675 36.307ZM67.7206 36.893C68.0921 36.893 68.5047 36.5381 68.7606 35.6385V34.6563C68.0178 35.0525 67.2172 35.4569 67.2172 36.241C67.2172 36.6124 67.3823 36.893 67.7206 36.893ZM70.0397 37.1819V37.0086C70.5101 37.0086 70.5761 36.9013 70.5761 36.3895V33.6411C70.5761 33.1211 70.5844 33.0303 70.0974 33.2284L70.0314 33.0633L70.9228 32.7002L71.0301 32.791V33.4843H71.0549C71.4098 33.0221 71.7399 32.7002 72.2351 32.7002C72.8211 32.7002 73.0687 33.1459 73.0687 33.8144V36.3895C73.0687 36.9013 73.1265 37.0086 73.597 37.0086V37.1819H72.0948V37.0086C72.557 37.0086 72.6148 36.9013 72.6148 36.3895V33.8392C72.6148 33.344 72.4084 33.1129 72.07 33.1129C71.6739 33.1129 71.3602 33.3852 71.0301 33.7649V36.3895C71.0301 36.9013 71.0879 37.0086 71.5501 37.0086V37.1819H70.0397ZM73.9056 37.1819V37.0086C74.3761 37.0086 74.4421 36.9013 74.4421 36.3895V33.6411C74.4421 33.1211 74.4504 33.0303 73.9634 33.2284L73.8974 33.0633L74.7888 32.7002L74.8961 32.791V33.4843H74.9208C75.2757 33.0221 75.6059 32.7002 76.1011 32.7002C76.6871 32.7002 76.9347 33.1459 76.9347 33.8144V36.3895C76.9347 36.9013 76.9925 37.0086 77.463 37.0086V37.1819H75.9608V37.0086C76.423 37.0086 76.4808 36.9013 76.4808 36.3895V33.8392C76.4808 33.344 76.2744 33.1129 75.936 33.1129C75.5399 33.1129 75.2262 33.3852 74.8961 33.7649V36.3895C74.8961 36.9013 74.9538 37.0086 75.4161 37.0086V37.1819H73.9056ZM80.2011 35.4404H80.3744C80.2424 36.7527 79.7059 37.3139 79.0456 37.3139C78.1955 37.3139 77.7002 36.3813 77.7002 35.0772C77.7002 33.7649 78.212 32.7002 79.0786 32.7002C79.8709 32.7002 80.3249 33.5338 80.3249 34.7636H78.179V34.9204C78.179 36.0016 78.5421 36.893 79.1941 36.893C79.5738 36.893 80.0113 36.5711 80.2011 35.4404ZM79.0869 32.9808C78.5504 32.9808 78.2697 33.6741 78.1955 34.483H79.8379C79.8379 33.7319 79.6398 32.9808 79.0869 32.9808ZM82.7242 32.7002C82.9635 32.7002 83.1038 32.8322 83.1038 33.0221C83.1038 33.2614 82.947 33.3935 82.8067 33.3935C82.6912 33.3935 82.6334 33.344 82.5591 33.2614C82.4766 33.1789 82.4353 33.1459 82.3445 33.1459C82.1547 33.1459 81.9318 33.4017 81.709 33.9547V36.373C81.709 36.9013 81.7998 37.0003 82.5261 37.0003V37.1819H80.7268V37.0086C81.1973 37.0086 81.2633 36.9013 81.2633 36.3895V33.6411C81.2633 33.1211 81.2633 33.0303 80.7846 33.2201L80.7186 33.0633L81.6099 32.7002L81.709 32.791V33.5255H81.7337C81.9648 33.0633 82.3198 32.7002 82.7242 32.7002ZM83.4852 37.3139C83.2788 37.3139 83.1055 37.1406 83.1055 36.9343C83.1055 36.7197 83.2788 36.5464 83.4852 36.5464C83.6998 36.5464 83.8731 36.7197 83.8731 36.9343C83.8731 37.1406 83.6998 37.3139 83.4852 37.3139ZM85.477 37.3139C84.6186 37.3139 84.1316 36.3648 84.1316 35.069C84.1316 33.7401 84.6433 32.7002 85.5925 32.7002C86.2198 32.7002 86.5994 33.1624 86.5994 33.7154C86.5994 34.0207 86.4839 34.1858 86.2693 34.1858C86.0712 34.1858 85.9887 34.0455 85.9887 33.8969C85.9887 33.7731 86.0465 33.6163 86.0465 33.443C86.0465 33.1459 85.8731 32.9808 85.5843 32.9808C84.8909 32.9808 84.6103 33.9465 84.6103 34.8956C84.6103 35.9851 84.9735 36.8848 85.6255 36.8848C85.9804 36.8848 86.4179 36.5711 86.5582 35.4239H86.7315C86.6572 36.7527 86.1042 37.3139 85.477 37.3139ZM88.5901 37.3139C87.674 37.3139 87.0384 36.3235 87.0384 35.0277C87.0384 33.7484 87.5997 32.7002 88.5901 32.7002C89.498 32.7002 90.1335 33.6906 90.1335 34.9864C90.1335 36.2657 89.5723 37.3139 88.5901 37.3139ZM88.6974 37.0251C89.366 37.0251 89.6548 36.1749 89.6548 35.3413C89.6548 34.2188 89.2669 32.989 88.4828 32.989C87.806 32.989 87.5171 33.8392 87.5171 34.681C87.5171 35.8035 87.9051 37.0251 88.6974 37.0251ZM95.2716 33.8062V36.3895C95.2716 36.9013 95.3294 37.0086 95.7998 37.0086V37.1819H94.3059V37.0086C94.7599 37.0086 94.8177 36.9013 94.8177 36.3895V33.8309C94.8177 33.3357 94.6278 33.1129 94.2977 33.1129C93.951 33.1129 93.6622 33.3605 93.3733 33.7319V33.8062V36.3895C93.3733 36.9013 93.4311 37.0086 93.885 37.0086V37.1819H92.4076V37.0086C92.8616 37.0086 92.9193 36.9013 92.9193 36.3895V33.8309C92.9193 33.3357 92.7295 33.1129 92.3994 33.1129C92.0445 33.1129 91.7473 33.377 91.4502 33.7649V36.3895C91.4502 36.9013 91.508 37.0086 91.9619 37.0086V37.1819H90.4598V37.0086C90.9385 37.0086 90.9962 36.9013 90.9962 36.3895V33.6493C90.9962 33.1294 91.0045 33.0386 90.5258 33.2449L90.4515 33.0798L91.0788 32.8075L91.3346 32.7002L91.4502 32.791V33.4843H91.475C91.7721 33.0303 92.1022 32.7002 92.5809 32.7002C93.0431 32.7002 93.2825 33.0056 93.3485 33.4843H93.3733C93.6704 33.0303 93.9923 32.7002 94.4793 32.7002C95.0405 32.7002 95.2716 33.1459 95.2716 33.8062Z" fill="#B0B0B0"/>
<defs>
<filter id="filter0_d_633_137629" x="-0.00287056" y="0.874754" width="148.806" height="32.1591" filterUnits="userSpaceOnUse" color-interpolation-filters="sRGB">
<feFlood flood-opacity="0" result="BackgroundImageFix"/>
<feColorMatrix in="SourceAlpha" type="matrix" values="0 0 0 0 0 0 0 0 0 0 0 0 0 0 0 0 0 0 127 0" result="hardAlpha"/>
<feOffset/>
<feGaussianBlur stdDeviation="5.45718"/>
<feComposite in2="hardAlpha" operator="out"/>
<feColorMatrix type="matrix" values="0 0 0 0 1 0 0 0 0 1 0 0 0 0 1 0 0 0 0.08 0"/>
<feBlend mode="normal" in2="BackgroundImageFix" result="effect1_dropShadow_633_137629"/>
<feBlend mode="normal" in="SourceGraphic" in2="effect1_dropShadow_633_137629" result="shape"/>
</filter>
</defs>
</svg>
