<svg preserveAspectRatio="none" width="100%" height="100%" overflow="visible" style="display: block;" viewBox="0 0 27.1676 32.0002" fill="none" xmlns="http://www.w3.org/2000/svg">
<g id="Group">
<path id="Vector" d="M10.2206 3.93527C9.69462 6.22824 7.0384 13.2434 5.81246 16.452C4.76435 19.2861 2.22164 25.2456 1.79786 25.1018C1.77516 25.1169 1.77516 25.1283 1.813 25.1396C2.18381 25.2266 2.60759 25.2947 3.01624 25.3591C5.26759 25.6996 8.35895 25.6315 10.1449 25.1018C10.3265 19.4942 10.1298 9.63365 10.2168 3.96554V3.93527H10.2206Z" fill="var(--fill-0, #FDFCFB)"/>
<path id="Vector_2" d="M18.8924 32.0002C19.653 30.9483 24.5606 24.1942 27.1676 22.0072C26.3919 21.2958 2.48216 30.131 0 31.9358C8.53622 30.6531 16.3081 31.7088 18.8924 31.9964V32.0002Z" fill="var(--fill-0, #FDFCFB)"/>
<path id="Vector_3" d="M11.045 24.8108C13.4515 22.0184 14.9461 18.1059 14.9461 13.7697C14.9461 8.57457 12.7969 3.98483 9.50881 1.21132C9.02448 0.802667 8.51745 0.431857 7.98772 0.106451C8.40016 0.0723969 8.81259 0.0459136 9.21745 0.0269946C17.2845 -0.321114 23.9326 2.71726 25.3477 7.99943C27.0315 14.273 20.7353 21.4962 11.045 24.8108Z" fill="var(--fill-0, #FDFCFB)"/>
</g>
</svg>
