<svg width="169" height="32" viewBox="0 0 169 32" fill="none" xmlns="http://www.w3.org/2000/svg">
<g id="Section">
<g id="Frame 2087329279">
<g id="Frame 2087329293">
<g id="Frame 2087329276">
<g id="Frame 2087329291">
<g id="Frame 2087329392">
<g id="Group">
<path id="Vector" d="M10.22 3.93408C9.69403 6.22721 7.03764 13.2428 5.81161 16.4517C4.76343 19.2859 2.22056 25.2458 1.79674 25.102C1.77404 25.1171 1.77404 25.1285 1.81188 25.1398C2.18272 25.2269 2.60653 25.295 3.01521 25.3593C5.26671 25.6999 8.35827 25.6318 10.1443 25.102C10.326 19.494 10.1292 9.63284 10.2162 3.96436V3.93408H10.22Z" fill="#1E2028"/>
<path id="Vector_2" d="M18.8937 31.9999C19.6543 30.9479 24.5622 24.1934 27.1694 22.0062C26.3937 21.2948 2.48233 30.1306 0 31.9355C8.53679 30.6528 16.3092 31.7085 18.8937 31.9961V31.9999Z" fill="#1E2028"/>
<path id="Vector_3" d="M11.0458 24.8125C13.4524 22.0198 14.9471 18.1071 14.9471 13.7706C14.9471 8.57514 12.7978 3.9851 9.50946 1.2114C9.02511 0.80272 8.51805 0.431885 7.98828 0.106458C8.40074 0.0724017 8.8132 0.0459166 9.21809 0.0269964C17.2857 -0.321135 23.9342 2.71744 25.3494 7.99996C27.0333 14.2739 20.7367 21.4976 11.0458 24.8125Z" fill="#1E2028"/>
</g>
<g id="Frame 1171276677">
<g id="Double Digit">
<path d="M44.9048 22.1395V10.6251C44.9048 9.55297 44.8619 8.88826 44.7332 7.96625C45.5052 8.00913 46.0627 8.03058 47.3063 8.03058H51.1016C53.6103 8.03058 55.3686 8.63096 56.7194 9.91749C58.2204 11.3756 58.9923 13.5412 58.9923 16.2644C58.9923 19.0947 58.1561 21.3676 56.5693 22.9115C55.2185 24.198 53.5031 24.7984 51.1016 24.7984H47.3063C46.1055 24.7984 45.6124 24.8198 44.7332 24.8627C44.8619 24.0265 44.9048 23.3403 44.9048 22.1395ZM47.2849 22.6756H50.9729C52.7312 22.6756 53.9105 22.2468 54.854 21.2604C55.9475 20.124 56.5265 18.3872 56.5265 16.3073C56.5265 14.163 56.0118 12.5978 54.9612 11.5042C54.0392 10.5608 52.8813 10.1534 51.0158 10.1534H47.2849V22.6756ZM65.9639 25.1414C62.2115 25.1414 59.8314 22.6756 59.8314 18.7946C59.8314 14.9135 62.2115 12.4477 65.9424 12.4477C69.6734 12.4477 72.032 14.9135 72.032 18.7731C72.032 22.6327 69.6305 25.1414 65.9639 25.1414ZM65.9639 14.3131C63.6052 14.3131 62.1472 16.0071 62.1472 18.7517C62.1472 21.5392 63.5838 23.2331 65.9424 23.2331C68.2796 23.2331 69.7163 21.5606 69.7163 18.816C69.7163 16.0071 68.3011 14.3131 65.9639 14.3131ZM81.7961 12.7907H84.3906C84.2619 13.6913 84.2191 14.2917 84.2191 15.4281V22.1395C84.2191 23.2545 84.2619 23.9407 84.3906 24.7984H81.9462V23.7691C81.9462 23.6191 81.9676 23.3189 81.9891 22.8686C80.8955 24.3481 79.5447 25.0128 77.6792 25.0128C76.0496 25.0128 74.8059 24.4553 74.0769 23.4046C73.6052 22.7399 73.3907 21.9037 73.3907 20.6386V15.4067C73.3907 14.2703 73.3479 13.5412 73.2406 12.7907H75.8566C75.7494 13.7128 75.7065 14.3775 75.7065 15.4281V20.2955C75.7065 22.1824 76.4355 23.083 78.0008 23.083C79.0729 23.083 79.9092 22.6542 80.7454 21.7321C81.3029 21.0889 81.6245 20.5528 81.9462 19.6737V15.4281C81.9462 14.4418 81.9033 13.6699 81.7961 12.7907ZM88.5582 24.7984H86.1782C86.2854 23.9192 86.3283 23.2545 86.3283 22.0752V10.7109C86.3283 9.70307 86.2854 8.97403 86.1782 8.03058H88.7298C88.6226 8.88826 88.5797 9.57441 88.5797 10.7323V13.0695C88.5797 13.7128 88.5582 14.1416 88.5154 14.5919C89.5875 13.1981 91.0455 12.5334 92.9968 12.5334C96.4061 12.5334 98.486 14.8706 98.486 18.7088C98.486 22.6542 96.3418 25.0771 92.8467 25.0771C90.9383 25.0771 89.6304 24.4982 88.5154 23.1473C88.5368 23.2117 88.5368 23.276 88.5368 23.3189C88.5582 23.469 88.5582 23.469 88.5582 23.9192V24.7984ZM96.1488 18.7088C96.1488 16.0714 94.8623 14.4632 92.7395 14.4632C90.3165 14.4632 88.644 16.2001 88.644 18.7302C88.644 21.239 90.2951 23.1044 92.5465 23.1044C94.7765 23.1044 96.1488 21.4319 96.1488 18.7088ZM99.7005 8.03058H102.316C102.209 8.84538 102.166 9.48864 102.166 10.6894V22.161C102.166 23.2545 102.209 23.8549 102.316 24.7984H99.7005C99.8077 23.9192 99.8506 23.2974 99.8506 22.161V10.668C99.8506 9.48864 99.8077 8.80249 99.7005 8.03058ZM115.029 19.3306H105.83C105.916 20.6171 106.131 21.2819 106.667 21.968C107.31 22.8042 108.275 23.2545 109.476 23.2545C110.591 23.2545 111.491 22.89 112.156 22.1395C112.435 21.7965 112.585 21.5606 112.799 20.9602L114.922 21.6893C114.515 22.5898 114.214 23.0401 113.678 23.5762C112.606 24.6268 111.17 25.1629 109.454 25.1629C105.852 25.1629 103.558 22.697 103.558 18.816C103.558 14.9564 105.83 12.4477 109.304 12.4477C112.327 12.4477 114.429 14.3346 114.879 17.4651C114.922 17.7439 114.922 17.7439 115.029 19.3306ZM105.895 17.508H112.692C112.563 16.4574 112.263 15.7927 111.663 15.2137C111.062 14.6133 110.29 14.3131 109.283 14.3131C108.06 14.3131 107.074 14.8921 106.431 15.9642C106.131 16.4574 106.023 16.8004 105.895 17.508ZM122.645 22.1395V10.6251C122.645 9.55297 122.602 8.88826 122.474 7.96625C123.246 8.00913 123.803 8.03058 125.047 8.03058H128.842C131.351 8.03058 133.109 8.63096 134.46 9.91749C135.961 11.3756 136.733 13.5412 136.733 16.2644C136.733 19.0947 135.897 21.3676 134.31 22.9115C132.959 24.198 131.244 24.7984 128.842 24.7984H125.047C123.846 24.7984 123.353 24.8198 122.474 24.8627C122.602 24.0265 122.645 23.3403 122.645 22.1395ZM125.025 22.6756H128.713C130.472 22.6756 131.651 22.2468 132.594 21.2604C133.688 20.124 134.267 18.3872 134.267 16.3073C134.267 14.163 133.752 12.5978 132.702 11.5042C131.78 10.5608 130.622 10.1534 128.756 10.1534H125.025V22.6756ZM138.108 8.03058H140.831V10.4321H138.108V8.03058ZM138.151 12.7907H140.788C140.681 13.5627 140.638 14.2274 140.638 15.4496V22.1395C140.638 23.2545 140.681 23.8978 140.788 24.7984H138.151C138.258 23.812 138.301 23.1688 138.301 22.161V15.4281C138.301 14.3131 138.258 13.6055 138.151 12.7907ZM142.371 26.9212L144.279 25.5917C145.158 26.7496 146.209 27.2428 147.667 27.2428C149.383 27.2428 150.669 26.5566 151.269 25.3773C151.548 24.7769 151.698 23.8978 151.72 22.7185C151.377 23.2331 151.141 23.469 150.776 23.7263C149.897 24.3266 148.804 24.6483 147.646 24.6483C144.194 24.6483 142.028 22.3325 142.028 18.6445C142.028 14.9564 144.215 12.5978 147.646 12.5978C149.447 12.5978 150.798 13.1767 151.741 14.3775C151.72 14.2917 151.72 14.2274 151.72 14.1845C151.698 14.0129 151.698 13.9486 151.698 13.7342V12.7907H154.036C153.928 13.6484 153.885 14.2703 153.885 15.3638V22.7185C153.885 25.2058 153.457 26.5781 152.384 27.6287C151.441 28.5508 149.661 29.1083 147.753 29.1083C145.33 29.1083 143.85 28.5079 142.371 26.9212ZM144.387 18.6659C144.387 21.1961 145.694 22.7828 147.796 22.7828C150.047 22.7828 151.591 21.0245 151.591 18.5158C151.591 16.1143 150.112 14.4632 147.924 14.4632C145.737 14.4632 144.387 16.0714 144.387 18.6659ZM155.877 8.03058H158.601V10.4321H155.877V8.03058ZM155.92 12.7907H158.558C158.45 13.5627 158.408 14.2274 158.408 15.4496V22.1395C158.408 23.2545 158.45 23.8978 158.558 24.7984H155.92C156.027 23.812 156.07 23.1688 156.07 22.161V15.4281C156.07 14.3131 156.027 13.6055 155.92 12.7907ZM161.727 9.53153H164.322C164.214 10.2606 164.171 11.1183 164.171 12.0617V12.7907H165.136C166.144 12.7907 166.594 12.7693 167.323 12.6621V14.8278C166.637 14.7205 166.144 14.6991 165.179 14.6991H164.171V21.6249C164.171 22.697 164.493 23.0401 165.501 23.0401C166.08 23.0401 166.53 22.9115 167.173 22.5469L167.624 24.5625C166.723 24.927 166.015 25.0557 165.029 25.0557C163.936 25.0557 163.121 24.8198 162.628 24.3695C162.092 23.8978 161.877 23.2117 161.877 22.0752V14.6991H161.041C160.29 14.6991 159.819 14.742 159.133 14.8278V12.6621C159.733 12.7693 160.183 12.7907 161.062 12.7907H161.877V12.0617C161.877 11.1826 161.813 10.282 161.727 9.53153Z" fill="#1E2028"/>
</g>
</g>
</g>
</g>
</g>
</g>
</g>
</g>
</svg>
