<svg preserveAspectRatio="none" width="100%" height="100%" overflow="visible" style="display: block;" viewBox="0 0 30.5637 36" fill="none" xmlns="http://www.w3.org/2000/svg">
<g id="Group">
<path id="Vector" d="M11.4986 4.42762C10.9069 7.00724 7.91868 14.8993 6.53948 18.5091C5.36035 21.6974 2.49978 28.4019 2.02302 28.2401C1.99748 28.2571 1.99748 28.2699 2.04005 28.2827C2.45722 28.3806 2.93398 28.4572 3.39371 28.5296C5.9265 28.9127 9.4043 28.836 11.4135 28.2401C11.6178 21.9315 11.3965 10.8383 11.4944 4.46168V4.42762H11.4986Z" fill="var(--fill-0, #FDFCFB)"/>
<path id="Vector_2" d="M21.2541 36C22.1098 34.8166 27.6308 27.2182 30.5637 24.7578C29.6911 23.9575 2.79245 33.8971 0 35.9276C9.60332 34.4846 18.3468 35.6722 21.2541 35.9957V36Z" fill="var(--fill-0, #FDFCFB)"/>
<path id="Vector_3" d="M12.4262 27.9123C15.1335 24.7708 16.8149 20.3693 16.8149 15.491C16.8149 9.64645 14.397 4.48297 10.6979 1.36274C10.153 0.903007 9.58262 0.485842 8.98667 0.119758C9.45066 0.081447 9.91465 0.0516531 10.3701 0.0303692C19.4456 -0.361255 26.9248 3.05694 28.5168 8.99942C30.4111 16.0572 23.3278 24.1834 12.4262 27.9123Z" fill="var(--fill-0, #FDFCFB)"/>
</g>
</svg>
