<svg width="538" height="538" viewBox="0 0 538 538" fill="none" xmlns="http://www.w3.org/2000/svg">

<g id="Frame 2087329610">
<g id="Group 1171276709">
<g id="Subtract">
<path d="M269 0C417.565 0 538 120.435 538 269C538 417.565 417.565 538 269 538C120.435 538 0 417.565 0 269C0 120.435 120.435 0 269 0ZM317.688 365.426C303.058 372.828 286.517 377 269 377C251.483 377 234.941 372.828 220.311 365.426L150.124 486.992C185.428 506.285 225.933 517.253 269 517.253C312.067 517.253 352.571 506.285 387.875 486.992L317.688 365.426ZM20.8213 275.095C22.9225 362.303 69.996 438.367 139.736 480.984L209.921 359.421C182.054 341.176 163.135 310.399 161.171 275.095H20.8213ZM376.829 275.095C374.865 310.399 355.945 341.176 328.078 359.421L398.263 480.984C468.003 438.367 515.077 362.303 517.179 275.095H376.829ZM269.08 358.322C266.937 358.322 265.2 360.059 265.2 362.202C265.2 364.345 266.937 366.083 269.08 366.083C271.223 366.083 272.96 364.345 272.96 362.202C272.96 360.059 271.223 358.322 269.08 358.322ZM245.982 355.281C243.913 354.727 241.785 355.955 241.23 358.024C240.676 360.094 241.904 362.223 243.974 362.777C246.043 363.332 248.171 362.103 248.726 360.033C249.28 357.963 248.052 355.836 245.982 355.281ZM296.93 358.024C296.375 355.955 294.247 354.727 292.178 355.281C290.108 355.836 288.879 357.963 289.434 360.033C289.988 362.103 292.116 363.332 294.186 362.777C296.255 362.223 297.484 360.094 296.93 358.024ZM224.459 346.366C222.603 345.295 220.231 345.931 219.159 347.786C218.088 349.642 218.723 352.015 220.578 353.087C222.434 354.158 224.807 353.522 225.879 351.666C226.95 349.81 226.314 347.438 224.459 346.366ZM319.001 347.786C317.929 345.931 315.557 345.295 313.701 346.366C311.846 347.438 311.21 349.81 312.281 351.666C313.353 353.522 315.725 354.158 317.581 353.087C319.437 352.015 320.072 349.642 319.001 347.786ZM281.511 302.765C277.614 304.209 273.399 305 269 305C264.6 305 260.385 304.209 256.488 302.765L233.976 341.758C244.57 346.867 256.451 349.73 269 349.73C281.549 349.73 293.429 346.867 304.023 341.758L281.511 302.765ZM205.977 332.184C204.461 330.668 202.005 330.669 200.489 332.184C198.974 333.699 198.973 336.156 200.488 337.671C202.004 339.186 204.461 339.186 205.977 337.671C207.492 336.156 207.492 333.699 205.977 332.184ZM337.671 332.184C336.156 330.669 333.699 330.668 332.184 332.184C330.668 333.699 330.669 336.156 332.184 337.671C333.699 339.186 336.156 339.187 337.671 337.672C339.186 336.157 339.186 333.699 337.671 332.184ZM188.497 275.095C190.379 300.309 203.843 322.295 223.586 335.753L246.092 296.771C239.582 291.396 234.997 283.775 233.517 275.095H188.497ZM304.483 275.095C303.003 283.775 298.417 291.396 291.907 296.771L314.413 335.753C334.156 322.295 347.621 300.309 349.503 275.095H304.483ZM191.794 313.701C190.723 311.846 188.35 311.21 186.494 312.281C184.638 313.353 184.002 315.725 185.073 317.581C186.145 319.437 188.518 320.072 190.374 319.001C192.229 317.929 192.865 315.557 191.794 313.701ZM351.666 312.281C349.81 311.21 347.438 311.846 346.366 313.701C345.295 315.557 345.931 317.929 347.786 319.001C349.642 320.072 352.015 319.437 353.087 317.581C354.158 315.725 353.522 313.353 351.666 312.281ZM182.879 292.178C182.324 290.108 180.197 288.879 178.127 289.434C176.057 289.988 174.828 292.116 175.383 294.186C175.937 296.255 178.065 297.484 180.135 296.93C182.204 296.375 183.433 294.247 182.879 292.178ZM360.033 289.435C357.963 288.88 355.836 290.108 355.281 292.178C354.727 294.247 355.955 296.375 358.024 296.93C360.094 297.484 362.223 296.256 362.777 294.187C363.332 292.117 362.103 289.989 360.033 289.435ZM175.958 265.2C173.815 265.2 172.077 266.937 172.077 269.08C172.077 271.223 173.815 272.96 175.958 272.96C178.101 272.96 179.838 271.223 179.838 269.08C179.838 266.937 178.101 265.2 175.958 265.2ZM362.202 265.2C360.059 265.2 358.322 266.937 358.322 269.08C358.322 271.223 360.059 272.96 362.202 272.96C364.345 272.96 366.083 271.223 366.083 269.08C366.083 266.937 364.345 265.2 362.202 265.2ZM139.655 57.0645C69.9089 99.7219 22.8542 175.841 20.8174 263.095H161.16C163.065 227.745 181.968 196.914 209.842 178.63L139.655 57.0645ZM223.507 202.3C203.757 215.796 190.31 237.834 188.483 263.095H233.485C234.925 254.369 239.5 246.702 246.018 241.29L223.507 202.3ZM291.98 241.289C298.499 246.701 303.075 254.368 304.515 263.095H349.517C347.69 237.834 334.242 215.796 314.492 202.3L291.98 241.289ZM328.157 178.63C356.031 196.914 374.935 227.744 376.84 263.095H517.183C515.146 175.841 468.091 99.7218 398.344 57.0645L328.157 178.63ZM180.136 241.23C178.066 240.676 175.938 241.904 175.383 243.974C174.828 246.044 176.057 248.171 178.127 248.726C180.197 249.28 182.324 248.052 182.879 245.982C183.433 243.913 182.205 241.785 180.136 241.23ZM362.777 243.974C362.223 241.904 360.094 240.676 358.024 241.23C355.955 241.785 354.727 243.913 355.281 245.982C355.836 248.052 357.963 249.28 360.033 248.726C362.103 248.171 363.332 246.043 362.777 243.974ZM269 188.27C256.417 188.27 244.506 191.148 233.891 196.283L256.399 235.269C260.321 233.803 264.567 233 269 233C273.433 233 277.678 233.803 281.6 235.269L304.108 196.283C293.493 191.149 281.583 188.27 269 188.27ZM190.374 219.159C188.518 218.088 186.145 218.723 185.073 220.578C184.002 222.434 184.638 224.807 186.494 225.879C188.35 226.95 190.722 226.315 191.794 224.459C192.865 222.603 192.229 220.231 190.374 219.159ZM353.087 220.579C352.015 218.723 349.642 218.088 347.786 219.159C345.931 220.231 345.295 222.603 346.366 224.459C347.438 226.315 349.81 226.95 351.666 225.879C353.522 224.807 354.158 222.435 353.087 220.579ZM337.672 200.488C336.157 198.973 333.699 198.974 332.184 200.489C330.669 202.005 330.668 204.461 332.184 205.977C333.699 207.492 336.156 207.492 337.671 205.977C339.186 204.461 339.187 202.004 337.672 200.488ZM205.977 200.489C204.461 198.974 202.004 198.973 200.488 200.488C198.973 202.004 198.974 204.461 200.489 205.977C202.005 207.491 204.461 207.492 205.977 205.977C207.492 204.461 207.491 202.005 205.977 200.489ZM225.879 186.494C224.808 184.638 222.435 184.002 220.579 185.073C218.723 186.145 218.088 188.518 219.159 190.374C220.231 192.229 222.603 192.865 224.459 191.794C226.315 190.723 226.95 188.35 225.879 186.494ZM317.581 185.073C315.725 184.002 313.353 184.638 312.281 186.494C311.21 188.35 311.845 190.723 313.701 191.794C315.557 192.865 317.929 192.23 319.001 190.374C320.072 188.518 319.437 186.145 317.581 185.073ZM248.726 178.127C248.171 176.057 246.044 174.828 243.974 175.383C241.904 175.938 240.676 178.065 241.23 180.135C241.785 182.204 243.913 183.433 245.982 182.879C248.052 182.324 249.28 180.197 248.726 178.127ZM294.187 175.383C292.117 174.828 289.989 176.057 289.435 178.127C288.88 180.197 290.108 182.324 292.178 182.879C294.247 183.433 296.375 182.205 296.93 180.136C297.484 178.066 296.256 175.938 294.187 175.383ZM269.08 172.077C266.937 172.077 265.2 173.815 265.2 175.958C265.2 178.101 266.937 179.838 269.08 179.838C271.223 179.838 272.96 178.101 272.96 175.958C272.96 173.815 271.223 172.077 269.08 172.077ZM269 20.7471C225.899 20.7471 185.364 31.7317 150.041 51.0527L220.227 172.616C234.877 165.188 251.449 161 269 161C286.55 161 303.122 165.188 317.772 172.616L387.958 51.0527C352.635 31.732 312.1 20.7471 269 20.7471Z" fill="#F8F6F6"/>
<path d="M269 0C417.565 0 538 120.435 538 269C538 417.565 417.565 538 269 538C120.435 538 0 417.565 0 269C0 120.435 120.435 0 269 0ZM317.688 365.426C303.058 372.828 286.517 377 269 377C251.483 377 234.941 372.828 220.311 365.426L150.124 486.992C185.428 506.285 225.933 517.253 269 517.253C312.067 517.253 352.571 506.285 387.875 486.992L317.688 365.426ZM20.8213 275.095C22.9225 362.303 69.996 438.367 139.736 480.984L209.921 359.421C182.054 341.176 163.135 310.399 161.171 275.095H20.8213ZM376.829 275.095C374.865 310.399 355.945 341.176 328.078 359.421L398.263 480.984C468.003 438.367 515.077 362.303 517.179 275.095H376.829ZM269.08 358.322C266.937 358.322 265.2 360.059 265.2 362.202C265.2 364.345 266.937 366.083 269.08 366.083C271.223 366.083 272.96 364.345 272.96 362.202C272.96 360.059 271.223 358.322 269.08 358.322ZM245.982 355.281C243.913 354.727 241.785 355.955 241.23 358.024C240.676 360.094 241.904 362.223 243.974 362.777C246.043 363.332 248.171 362.103 248.726 360.033C249.28 357.963 248.052 355.836 245.982 355.281ZM296.93 358.024C296.375 355.955 294.247 354.727 292.178 355.281C290.108 355.836 288.879 357.963 289.434 360.033C289.988 362.103 292.116 363.332 294.186 362.777C296.255 362.223 297.484 360.094 296.93 358.024ZM224.459 346.366C222.603 345.295 220.231 345.931 219.159 347.786C218.088 349.642 218.723 352.015 220.578 353.087C222.434 354.158 224.807 353.522 225.879 351.666C226.95 349.81 226.314 347.438 224.459 346.366ZM319.001 347.786C317.929 345.931 315.557 345.295 313.701 346.366C311.846 347.438 311.21 349.81 312.281 351.666C313.353 353.522 315.725 354.158 317.581 353.087C319.437 352.015 320.072 349.642 319.001 347.786ZM281.511 302.765C277.614 304.209 273.399 305 269 305C264.6 305 260.385 304.209 256.488 302.765L233.976 341.758C244.57 346.867 256.451 349.73 269 349.73C281.549 349.73 293.429 346.867 304.023 341.758L281.511 302.765ZM205.977 332.184C204.461 330.668 202.005 330.669 200.489 332.184C198.974 333.699 198.973 336.156 200.488 337.671C202.004 339.186 204.461 339.186 205.977 337.671C207.492 336.156 207.492 333.699 205.977 332.184ZM337.671 332.184C336.156 330.669 333.699 330.668 332.184 332.184C330.668 333.699 330.669 336.156 332.184 337.671C333.699 339.186 336.156 339.187 337.671 337.672C339.186 336.157 339.186 333.699 337.671 332.184ZM188.497 275.095C190.379 300.309 203.843 322.295 223.586 335.753L246.092 296.771C239.582 291.396 234.997 283.775 233.517 275.095H188.497ZM304.483 275.095C303.003 283.775 298.417 291.396 291.907 296.771L314.413 335.753C334.156 322.295 347.621 300.309 349.503 275.095H304.483ZM191.794 313.701C190.723 311.846 188.35 311.21 186.494 312.281C184.638 313.353 184.002 315.725 185.073 317.581C186.145 319.437 188.518 320.072 190.374 319.001C192.229 317.929 192.865 315.557 191.794 313.701ZM351.666 312.281C349.81 311.21 347.438 311.846 346.366 313.701C345.295 315.557 345.931 317.929 347.786 319.001C349.642 320.072 352.015 319.437 353.087 317.581C354.158 315.725 353.522 313.353 351.666 312.281ZM182.879 292.178C182.324 290.108 180.197 288.879 178.127 289.434C176.057 289.988 174.828 292.116 175.383 294.186C175.937 296.255 178.065 297.484 180.135 296.93C182.204 296.375 183.433 294.247 182.879 292.178ZM360.033 289.435C357.963 288.88 355.836 290.108 355.281 292.178C354.727 294.247 355.955 296.375 358.024 296.93C360.094 297.484 362.223 296.256 362.777 294.187C363.332 292.117 362.103 289.989 360.033 289.435ZM175.958 265.2C173.815 265.2 172.077 266.937 172.077 269.08C172.077 271.223 173.815 272.96 175.958 272.96C178.101 272.96 179.838 271.223 179.838 269.08C179.838 266.937 178.101 265.2 175.958 265.2ZM362.202 265.2C360.059 265.2 358.322 266.937 358.322 269.08C358.322 271.223 360.059 272.96 362.202 272.96C364.345 272.96 366.083 271.223 366.083 269.08C366.083 266.937 364.345 265.2 362.202 265.2ZM139.655 57.0645C69.9089 99.7219 22.8542 175.841 20.8174 263.095H161.16C163.065 227.745 181.968 196.914 209.842 178.63L139.655 57.0645ZM223.507 202.3C203.757 215.796 190.31 237.834 188.483 263.095H233.485C234.925 254.369 239.5 246.702 246.018 241.29L223.507 202.3ZM291.98 241.289C298.499 246.701 303.075 254.368 304.515 263.095H349.517C347.69 237.834 334.242 215.796 314.492 202.3L291.98 241.289ZM328.157 178.63C356.031 196.914 374.935 227.744 376.84 263.095H517.183C515.146 175.841 468.091 99.7218 398.344 57.0645L328.157 178.63ZM180.136 241.23C178.066 240.676 175.938 241.904 175.383 243.974C174.828 246.044 176.057 248.171 178.127 248.726C180.197 249.28 182.324 248.052 182.879 245.982C183.433 243.913 182.205 241.785 180.136 241.23ZM362.777 243.974C362.223 241.904 360.094 240.676 358.024 241.23C355.955 241.785 354.727 243.913 355.281 245.982C355.836 248.052 357.963 249.28 360.033 248.726C362.103 248.171 363.332 246.043 362.777 243.974ZM269 188.27C256.417 188.27 244.506 191.148 233.891 196.283L256.399 235.269C260.321 233.803 264.567 233 269 233C273.433 233 277.678 233.803 281.6 235.269L304.108 196.283C293.493 191.149 281.583 188.27 269 188.27ZM190.374 219.159C188.518 218.088 186.145 218.723 185.073 220.578C184.002 222.434 184.638 224.807 186.494 225.879C188.35 226.95 190.722 226.315 191.794 224.459C192.865 222.603 192.229 220.231 190.374 219.159ZM353.087 220.579C352.015 218.723 349.642 218.088 347.786 219.159C345.931 220.231 345.295 222.603 346.366 224.459C347.438 226.315 349.81 226.95 351.666 225.879C353.522 224.807 354.158 222.435 353.087 220.579ZM337.672 200.488C336.157 198.973 333.699 198.974 332.184 200.489C330.669 202.005 330.668 204.461 332.184 205.977C333.699 207.492 336.156 207.492 337.671 205.977C339.186 204.461 339.187 202.004 337.672 200.488ZM205.977 200.489C204.461 198.974 202.004 198.973 200.488 200.488C198.973 202.004 198.974 204.461 200.489 205.977C202.005 207.491 204.461 207.492 205.977 205.977C207.492 204.461 207.491 202.005 205.977 200.489ZM225.879 186.494C224.808 184.638 222.435 184.002 220.579 185.073C218.723 186.145 218.088 188.518 219.159 190.374C220.231 192.229 222.603 192.865 224.459 191.794C226.315 190.723 226.95 188.35 225.879 186.494ZM317.581 185.073C315.725 184.002 313.353 184.638 312.281 186.494C311.21 188.35 311.845 190.723 313.701 191.794C315.557 192.865 317.929 192.23 319.001 190.374C320.072 188.518 319.437 186.145 317.581 185.073ZM248.726 178.127C248.171 176.057 246.044 174.828 243.974 175.383C241.904 175.938 240.676 178.065 241.23 180.135C241.785 182.204 243.913 183.433 245.982 182.879C248.052 182.324 249.28 180.197 248.726 178.127ZM294.187 175.383C292.117 174.828 289.989 176.057 289.435 178.127C288.88 180.197 290.108 182.324 292.178 182.879C294.247 183.433 296.375 182.205 296.93 180.136C297.484 178.066 296.256 175.938 294.187 175.383ZM269.08 172.077C266.937 172.077 265.2 173.815 265.2 175.958C265.2 178.101 266.937 179.838 269.08 179.838C271.223 179.838 272.96 178.101 272.96 175.958C272.96 173.815 271.223 172.077 269.08 172.077ZM269 20.7471C225.899 20.7471 185.364 31.7317 150.041 51.0527L220.227 172.616C234.877 165.188 251.449 161 269 161C286.55 161 303.122 165.188 317.772 172.616L387.958 51.0527C352.635 31.732 312.1 20.7471 269 20.7471Z" fill="#CCDFE3"/>
<path d="M269 0C417.565 0 538 120.435 538 269C538 417.565 417.565 538 269 538C120.435 538 0 417.565 0 269C0 120.435 120.435 0 269 0ZM317.688 365.426C303.058 372.828 286.517 377 269 377C251.483 377 234.941 372.828 220.311 365.426L150.124 486.992C185.428 506.285 225.933 517.253 269 517.253C312.067 517.253 352.571 506.285 387.875 486.992L317.688 365.426ZM20.8213 275.095C22.9225 362.303 69.996 438.367 139.736 480.984L209.921 359.421C182.054 341.176 163.135 310.399 161.171 275.095H20.8213ZM376.829 275.095C374.865 310.399 355.945 341.176 328.078 359.421L398.263 480.984C468.003 438.367 515.077 362.303 517.179 275.095H376.829ZM269.08 358.322C266.937 358.322 265.2 360.059 265.2 362.202C265.2 364.345 266.937 366.083 269.08 366.083C271.223 366.083 272.96 364.345 272.96 362.202C272.96 360.059 271.223 358.322 269.08 358.322ZM245.982 355.281C243.913 354.727 241.785 355.955 241.23 358.024C240.676 360.094 241.904 362.223 243.974 362.777C246.043 363.332 248.171 362.103 248.726 360.033C249.28 357.963 248.052 355.836 245.982 355.281ZM296.93 358.024C296.375 355.955 294.247 354.727 292.178 355.281C290.108 355.836 288.879 357.963 289.434 360.033C289.988 362.103 292.116 363.332 294.186 362.777C296.255 362.223 297.484 360.094 296.93 358.024ZM224.459 346.366C222.603 345.295 220.231 345.931 219.159 347.786C218.088 349.642 218.723 352.015 220.578 353.087C222.434 354.158 224.807 353.522 225.879 351.666C226.95 349.81 226.314 347.438 224.459 346.366ZM319.001 347.786C317.929 345.931 315.557 345.295 313.701 346.366C311.846 347.438 311.21 349.81 312.281 351.666C313.353 353.522 315.725 354.158 317.581 353.087C319.437 352.015 320.072 349.642 319.001 347.786ZM281.511 302.765C277.614 304.209 273.399 305 269 305C264.6 305 260.385 304.209 256.488 302.765L233.976 341.758C244.57 346.867 256.451 349.73 269 349.73C281.549 349.73 293.429 346.867 304.023 341.758L281.511 302.765ZM205.977 332.184C204.461 330.668 202.005 330.669 200.489 332.184C198.974 333.699 198.973 336.156 200.488 337.671C202.004 339.186 204.461 339.186 205.977 337.671C207.492 336.156 207.492 333.699 205.977 332.184ZM337.671 332.184C336.156 330.669 333.699 330.668 332.184 332.184C330.668 333.699 330.669 336.156 332.184 337.671C333.699 339.186 336.156 339.187 337.671 337.672C339.186 336.157 339.186 333.699 337.671 332.184ZM188.497 275.095C190.379 300.309 203.843 322.295 223.586 335.753L246.092 296.771C239.582 291.396 234.997 283.775 233.517 275.095H188.497ZM304.483 275.095C303.003 283.775 298.417 291.396 291.907 296.771L314.413 335.753C334.156 322.295 347.621 300.309 349.503 275.095H304.483ZM191.794 313.701C190.723 311.846 188.35 311.21 186.494 312.281C184.638 313.353 184.002 315.725 185.073 317.581C186.145 319.437 188.518 320.072 190.374 319.001C192.229 317.929 192.865 315.557 191.794 313.701ZM351.666 312.281C349.81 311.21 347.438 311.846 346.366 313.701C345.295 315.557 345.931 317.929 347.786 319.001C349.642 320.072 352.015 319.437 353.087 317.581C354.158 315.725 353.522 313.353 351.666 312.281ZM182.879 292.178C182.324 290.108 180.197 288.879 178.127 289.434C176.057 289.988 174.828 292.116 175.383 294.186C175.937 296.255 178.065 297.484 180.135 296.93C182.204 296.375 183.433 294.247 182.879 292.178ZM360.033 289.435C357.963 288.88 355.836 290.108 355.281 292.178C354.727 294.247 355.955 296.375 358.024 296.93C360.094 297.484 362.223 296.256 362.777 294.187C363.332 292.117 362.103 289.989 360.033 289.435ZM175.958 265.2C173.815 265.2 172.077 266.937 172.077 269.08C172.077 271.223 173.815 272.96 175.958 272.96C178.101 272.96 179.838 271.223 179.838 269.08C179.838 266.937 178.101 265.2 175.958 265.2ZM362.202 265.2C360.059 265.2 358.322 266.937 358.322 269.08C358.322 271.223 360.059 272.96 362.202 272.96C364.345 272.96 366.083 271.223 366.083 269.08C366.083 266.937 364.345 265.2 362.202 265.2ZM139.655 57.0645C69.9089 99.7219 22.8542 175.841 20.8174 263.095H161.16C163.065 227.745 181.968 196.914 209.842 178.63L139.655 57.0645ZM223.507 202.3C203.757 215.796 190.31 237.834 188.483 263.095H233.485C234.925 254.369 239.5 246.702 246.018 241.29L223.507 202.3ZM291.98 241.289C298.499 246.701 303.075 254.368 304.515 263.095H349.517C347.69 237.834 334.242 215.796 314.492 202.3L291.98 241.289ZM328.157 178.63C356.031 196.914 374.935 227.744 376.84 263.095H517.183C515.146 175.841 468.091 99.7218 398.344 57.0645L328.157 178.63ZM180.136 241.23C178.066 240.676 175.938 241.904 175.383 243.974C174.828 246.044 176.057 248.171 178.127 248.726C180.197 249.28 182.324 248.052 182.879 245.982C183.433 243.913 182.205 241.785 180.136 241.23ZM362.777 243.974C362.223 241.904 360.094 240.676 358.024 241.23C355.955 241.785 354.727 243.913 355.281 245.982C355.836 248.052 357.963 249.28 360.033 248.726C362.103 248.171 363.332 246.043 362.777 243.974ZM269 188.27C256.417 188.27 244.506 191.148 233.891 196.283L256.399 235.269C260.321 233.803 264.567 233 269 233C273.433 233 277.678 233.803 281.6 235.269L304.108 196.283C293.493 191.149 281.583 188.27 269 188.27ZM190.374 219.159C188.518 218.088 186.145 218.723 185.073 220.578C184.002 222.434 184.638 224.807 186.494 225.879C188.35 226.95 190.722 226.315 191.794 224.459C192.865 222.603 192.229 220.231 190.374 219.159ZM353.087 220.579C352.015 218.723 349.642 218.088 347.786 219.159C345.931 220.231 345.295 222.603 346.366 224.459C347.438 226.315 349.81 226.95 351.666 225.879C353.522 224.807 354.158 222.435 353.087 220.579ZM337.672 200.488C336.157 198.973 333.699 198.974 332.184 200.489C330.669 202.005 330.668 204.461 332.184 205.977C333.699 207.492 336.156 207.492 337.671 205.977C339.186 204.461 339.187 202.004 337.672 200.488ZM205.977 200.489C204.461 198.974 202.004 198.973 200.488 200.488C198.973 202.004 198.974 204.461 200.489 205.977C202.005 207.491 204.461 207.492 205.977 205.977C207.492 204.461 207.491 202.005 205.977 200.489ZM225.879 186.494C224.808 184.638 222.435 184.002 220.579 185.073C218.723 186.145 218.088 188.518 219.159 190.374C220.231 192.229 222.603 192.865 224.459 191.794C226.315 190.723 226.95 188.35 225.879 186.494ZM317.581 185.073C315.725 184.002 313.353 184.638 312.281 186.494C311.21 188.35 311.845 190.723 313.701 191.794C315.557 192.865 317.929 192.23 319.001 190.374C320.072 188.518 319.437 186.145 317.581 185.073ZM248.726 178.127C248.171 176.057 246.044 174.828 243.974 175.383C241.904 175.938 240.676 178.065 241.23 180.135C241.785 182.204 243.913 183.433 245.982 182.879C248.052 182.324 249.28 180.197 248.726 178.127ZM294.187 175.383C292.117 174.828 289.989 176.057 289.435 178.127C288.88 180.197 290.108 182.324 292.178 182.879C294.247 183.433 296.375 182.205 296.93 180.136C297.484 178.066 296.256 175.938 294.187 175.383ZM269.08 172.077C266.937 172.077 265.2 173.815 265.2 175.958C265.2 178.101 266.937 179.838 269.08 179.838C271.223 179.838 272.96 178.101 272.96 175.958C272.96 173.815 271.223 172.077 269.08 172.077ZM269 20.7471C225.899 20.7471 185.364 31.7317 150.041 51.0527L220.227 172.616C234.877 165.188 251.449 161 269 161C286.55 161 303.122 165.188 317.772 172.616L387.958 51.0527C352.635 31.732 312.1 20.7471 269 20.7471Z" fill="#D9E7EB"/>
<path d="M269 0C417.565 0 538 120.435 538 269C538 417.565 417.565 538 269 538C120.435 538 0 417.565 0 269C0 120.435 120.435 0 269 0ZM317.688 365.426C303.058 372.828 286.517 377 269 377C251.483 377 234.941 372.828 220.311 365.426L150.124 486.992C185.428 506.285 225.933 517.253 269 517.253C312.067 517.253 352.571 506.285 387.875 486.992L317.688 365.426ZM20.8213 275.095C22.9225 362.303 69.996 438.367 139.736 480.984L209.921 359.421C182.054 341.176 163.135 310.399 161.171 275.095H20.8213ZM376.829 275.095C374.865 310.399 355.945 341.176 328.078 359.421L398.263 480.984C468.003 438.367 515.077 362.303 517.179 275.095H376.829ZM269.08 358.322C266.937 358.322 265.2 360.059 265.2 362.202C265.2 364.345 266.937 366.083 269.08 366.083C271.223 366.083 272.96 364.345 272.96 362.202C272.96 360.059 271.223 358.322 269.08 358.322ZM245.982 355.281C243.913 354.727 241.785 355.955 241.23 358.024C240.676 360.094 241.904 362.223 243.974 362.777C246.043 363.332 248.171 362.103 248.726 360.033C249.28 357.963 248.052 355.836 245.982 355.281ZM296.93 358.024C296.375 355.955 294.247 354.727 292.178 355.281C290.108 355.836 288.879 357.963 289.434 360.033C289.988 362.103 292.116 363.332 294.186 362.777C296.255 362.223 297.484 360.094 296.93 358.024ZM224.459 346.366C222.603 345.295 220.231 345.931 219.159 347.786C218.088 349.642 218.723 352.015 220.578 353.087C222.434 354.158 224.807 353.522 225.879 351.666C226.95 349.81 226.314 347.438 224.459 346.366ZM319.001 347.786C317.929 345.931 315.557 345.295 313.701 346.366C311.846 347.438 311.21 349.81 312.281 351.666C313.353 353.522 315.725 354.158 317.581 353.087C319.437 352.015 320.072 349.642 319.001 347.786ZM281.511 302.765C277.614 304.209 273.399 305 269 305C264.6 305 260.385 304.209 256.488 302.765L233.976 341.758C244.57 346.867 256.451 349.73 269 349.73C281.549 349.73 293.429 346.867 304.023 341.758L281.511 302.765ZM205.977 332.184C204.461 330.668 202.005 330.669 200.489 332.184C198.974 333.699 198.973 336.156 200.488 337.671C202.004 339.186 204.461 339.186 205.977 337.671C207.492 336.156 207.492 333.699 205.977 332.184ZM337.671 332.184C336.156 330.669 333.699 330.668 332.184 332.184C330.668 333.699 330.669 336.156 332.184 337.671C333.699 339.186 336.156 339.187 337.671 337.672C339.186 336.157 339.186 333.699 337.671 332.184ZM188.497 275.095C190.379 300.309 203.843 322.295 223.586 335.753L246.092 296.771C239.582 291.396 234.997 283.775 233.517 275.095H188.497ZM304.483 275.095C303.003 283.775 298.417 291.396 291.907 296.771L314.413 335.753C334.156 322.295 347.621 300.309 349.503 275.095H304.483ZM191.794 313.701C190.723 311.846 188.35 311.21 186.494 312.281C184.638 313.353 184.002 315.725 185.073 317.581C186.145 319.437 188.518 320.072 190.374 319.001C192.229 317.929 192.865 315.557 191.794 313.701ZM351.666 312.281C349.81 311.21 347.438 311.846 346.366 313.701C345.295 315.557 345.931 317.929 347.786 319.001C349.642 320.072 352.015 319.437 353.087 317.581C354.158 315.725 353.522 313.353 351.666 312.281ZM182.879 292.178C182.324 290.108 180.197 288.879 178.127 289.434C176.057 289.988 174.828 292.116 175.383 294.186C175.937 296.255 178.065 297.484 180.135 296.93C182.204 296.375 183.433 294.247 182.879 292.178ZM360.033 289.435C357.963 288.88 355.836 290.108 355.281 292.178C354.727 294.247 355.955 296.375 358.024 296.93C360.094 297.484 362.223 296.256 362.777 294.187C363.332 292.117 362.103 289.989 360.033 289.435ZM175.958 265.2C173.815 265.2 172.077 266.937 172.077 269.08C172.077 271.223 173.815 272.96 175.958 272.96C178.101 272.96 179.838 271.223 179.838 269.08C179.838 266.937 178.101 265.2 175.958 265.2ZM362.202 265.2C360.059 265.2 358.322 266.937 358.322 269.08C358.322 271.223 360.059 272.96 362.202 272.96C364.345 272.96 366.083 271.223 366.083 269.08C366.083 266.937 364.345 265.2 362.202 265.2ZM139.655 57.0645C69.9089 99.7219 22.8542 175.841 20.8174 263.095H161.16C163.065 227.745 181.968 196.914 209.842 178.63L139.655 57.0645ZM223.507 202.3C203.757 215.796 190.31 237.834 188.483 263.095H233.485C234.925 254.369 239.5 246.702 246.018 241.29L223.507 202.3ZM291.98 241.289C298.499 246.701 303.075 254.368 304.515 263.095H349.517C347.69 237.834 334.242 215.796 314.492 202.3L291.98 241.289ZM328.157 178.63C356.031 196.914 374.935 227.744 376.84 263.095H517.183C515.146 175.841 468.091 99.7218 398.344 57.0645L328.157 178.63ZM180.136 241.23C178.066 240.676 175.938 241.904 175.383 243.974C174.828 246.044 176.057 248.171 178.127 248.726C180.197 249.28 182.324 248.052 182.879 245.982C183.433 243.913 182.205 241.785 180.136 241.23ZM362.777 243.974C362.223 241.904 360.094 240.676 358.024 241.23C355.955 241.785 354.727 243.913 355.281 245.982C355.836 248.052 357.963 249.28 360.033 248.726C362.103 248.171 363.332 246.043 362.777 243.974ZM269 188.27C256.417 188.27 244.506 191.148 233.891 196.283L256.399 235.269C260.321 233.803 264.567 233 269 233C273.433 233 277.678 233.803 281.6 235.269L304.108 196.283C293.493 191.149 281.583 188.27 269 188.27ZM190.374 219.159C188.518 218.088 186.145 218.723 185.073 220.578C184.002 222.434 184.638 224.807 186.494 225.879C188.35 226.95 190.722 226.315 191.794 224.459C192.865 222.603 192.229 220.231 190.374 219.159ZM353.087 220.579C352.015 218.723 349.642 218.088 347.786 219.159C345.931 220.231 345.295 222.603 346.366 224.459C347.438 226.315 349.81 226.95 351.666 225.879C353.522 224.807 354.158 222.435 353.087 220.579ZM337.672 200.488C336.157 198.973 333.699 198.974 332.184 200.489C330.669 202.005 330.668 204.461 332.184 205.977C333.699 207.492 336.156 207.492 337.671 205.977C339.186 204.461 339.187 202.004 337.672 200.488ZM205.977 200.489C204.461 198.974 202.004 198.973 200.488 200.488C198.973 202.004 198.974 204.461 200.489 205.977C202.005 207.491 204.461 207.492 205.977 205.977C207.492 204.461 207.491 202.005 205.977 200.489ZM225.879 186.494C224.808 184.638 222.435 184.002 220.579 185.073C218.723 186.145 218.088 188.518 219.159 190.374C220.231 192.229 222.603 192.865 224.459 191.794C226.315 190.723 226.95 188.35 225.879 186.494ZM317.581 185.073C315.725 184.002 313.353 184.638 312.281 186.494C311.21 188.35 311.845 190.723 313.701 191.794C315.557 192.865 317.929 192.23 319.001 190.374C320.072 188.518 319.437 186.145 317.581 185.073ZM248.726 178.127C248.171 176.057 246.044 174.828 243.974 175.383C241.904 175.938 240.676 178.065 241.23 180.135C241.785 182.204 243.913 183.433 245.982 182.879C248.052 182.324 249.28 180.197 248.726 178.127ZM294.187 175.383C292.117 174.828 289.989 176.057 289.435 178.127C288.88 180.197 290.108 182.324 292.178 182.879C294.247 183.433 296.375 182.205 296.93 180.136C297.484 178.066 296.256 175.938 294.187 175.383ZM269.08 172.077C266.937 172.077 265.2 173.815 265.2 175.958C265.2 178.101 266.937 179.838 269.08 179.838C271.223 179.838 272.96 178.101 272.96 175.958C272.96 173.815 271.223 172.077 269.08 172.077ZM269 20.7471C225.899 20.7471 185.364 31.7317 150.041 51.0527L220.227 172.616C234.877 165.188 251.449 161 269 161C286.55 161 303.122 165.188 317.772 172.616L387.958 51.0527C352.635 31.732 312.1 20.7471 269 20.7471Z" fill="url(#paint0_linear_0_1)"/>
</g>
</g>
</g>
<defs>
<linearGradient id="paint0_linear_0_1" x1="269" y1="-101.5" x2="269" y2="538" gradientUnits="userSpaceOnUse">
<stop stop-color="#F2F2F3" stop-opacity="0.72"/>
<stop offset="1" stop-color="#F2F2F3" stop-opacity="0"/>
</linearGradient>
</defs>
</svg>
