<svg preserveAspectRatio="none" width="100%" height="100%" overflow="visible" style="display: block;" viewBox="0 0 15.672 15.6726" fill="none" xmlns="http://www.w3.org/2000/svg">
<g id="HoneyB-Brandmark">
<path id="4" d="M1.56774 14.5372C1.56774 14.134 1.56774 13.9324 1.61458 13.8031C1.70662 13.549 1.87468 13.3918 2.13441 13.317C2.26656 13.2789 2.48041 13.2933 2.9081 13.322C3.86685 13.3863 5.42373 13.4497 7.8364 13.4497C10.2491 13.4497 11.806 13.3863 12.7647 13.322C13.1924 13.2933 13.4062 13.2789 13.5384 13.317C13.7981 13.3918 13.9662 13.549 14.0582 13.8031C14.1051 13.9324 14.1051 14.134 14.1051 14.5372C14.1051 14.7433 14.1051 14.8464 14.0664 14.9648C14.0038 15.1566 13.8124 15.365 13.6266 15.4435C13.5118 15.492 13.4214 15.4997 13.2407 15.515C12.3885 15.5873 10.7726 15.6698 7.8364 15.6698C4.9002 15.6698 3.28429 15.5873 2.43209 15.515C2.25135 15.4997 2.16098 15.492 2.04624 15.4435C1.86036 15.365 1.66896 15.1566 1.60638 14.9648C1.56774 14.8464 1.56774 14.7433 1.56774 14.5372Z" fill="var(--fill-0, #FDFCFB)"/>
<path id="3" d="M0.000360489 10.0449C0.000360489 9.64277 0.000360489 9.4417 0.0823362 9.27687C0.1525 9.13579 0.273707 9.01058 0.41244 8.93588C0.574527 8.8486 0.770222 8.84225 1.16161 8.82954C2.29011 8.79291 4.35506 8.75 7.83618 8.75C11.3173 8.75 13.3823 8.79291 14.5108 8.82954C14.9021 8.84225 15.0978 8.8486 15.2599 8.93588C15.3987 9.01058 15.5199 9.13579 15.59 9.27687C15.672 9.4417 15.672 9.64277 15.672 10.0449V10.1432C15.672 10.4551 15.672 10.6111 15.5977 10.7693C15.5395 10.8934 15.4128 11.0344 15.2957 11.1057C15.1464 11.1966 15.0061 11.2117 14.7255 11.2421C13.6873 11.3543 11.6372 11.4925 7.83618 11.4925C4.03521 11.4925 1.98508 11.3543 0.946887 11.2421C0.666258 11.2117 0.525944 11.1966 0.376629 11.1057C0.259529 11.0344 0.132891 10.8934 0.0746385 10.7693C0.000360489 10.6111 0.000360489 10.4551 0.000360489 10.1432V10.0449Z" fill="var(--fill-0, #FDFCFB)"/>
<path id="2" d="M0.000360489 5.49032C0.000360489 5.20067 0.000360489 5.05584 0.0743444 4.89789C0.130702 4.77757 0.261888 4.631 0.375249 4.5617C0.524066 4.47073 0.651536 4.45657 0.906476 4.42825C1.91366 4.31635 3.94107 4.17969 7.83618 4.17969C11.7313 4.17969 13.7587 4.31635 14.7659 4.42825C15.0208 4.45657 15.1483 4.47073 15.2971 4.5617C15.4105 4.631 15.5417 4.77757 15.598 4.89789C15.672 5.05584 15.672 5.20067 15.672 5.49032V5.66294C15.672 6.04477 15.672 6.23569 15.5901 6.40046C15.5214 6.5386 15.3961 6.6682 15.2603 6.74141C15.0983 6.82873 14.9145 6.83484 14.5469 6.84705C13.4755 6.88263 11.4675 6.92223 7.83618 6.92223C4.20489 6.92223 2.19687 6.88263 1.12543 6.84705C0.757834 6.83484 0.574034 6.82873 0.412075 6.74141C0.276291 6.6682 0.150918 6.5386 0.0822573 6.40046C0.000360489 6.23569 0.000360489 6.04477 0.000360489 5.66294V5.49032Z" fill="var(--fill-0, #FDFCFB)"/>
<path id="1" d="M1.56774 1.12222C1.56774 0.926502 1.56774 0.828643 1.60335 0.714602C1.6653 0.516139 1.86258 0.301307 2.05506 0.222698C2.16566 0.177527 2.25092 0.17025 2.42144 0.155697C3.2708 0.0832092 4.88793 0 7.8364 0C10.7849 0 12.402 0.0832092 13.2514 0.155697C13.4219 0.17025 13.5071 0.177527 13.6177 0.222698C13.8102 0.301307 14.0075 0.516139 14.0695 0.714602C14.1051 0.828643 14.1051 0.926502 14.1051 1.12222C14.1051 1.52608 14.1051 1.72801 14.0619 1.85261C13.9697 2.1189 13.8002 2.27752 13.5284 2.35193C13.4012 2.38674 13.1859 2.37246 12.7553 2.34389C11.8067 2.28096 10.2624 2.22015 7.8364 2.22015C5.41041 2.22015 3.86612 2.28096 2.91747 2.34389C2.48691 2.37246 2.27162 2.38674 2.14444 2.35193C1.87262 2.27752 1.70314 2.1189 1.6109 1.85261C1.56774 1.72801 1.56774 1.52608 1.56774 1.12222Z" fill="var(--fill-0, #FDFCFB)"/>
</g>
</svg>
