<svg preserveAspectRatio="none" width="100%" height="100%" overflow="visible" style="display: block;" viewBox="0 0 20 20" fill="none" xmlns="http://www.w3.org/2000/svg">
<g id="linkedin">
<path id="Vector" d="M13.334 6.86304C14.6601 6.86304 15.9318 7.38982 16.8695 8.3275C17.8072 9.26519 18.334 10.537 18.334 11.863V17.6964H15.0007V11.863C15.0007 11.421 14.8251 10.9971 14.5125 10.6845C14.1999 10.372 13.776 10.1964 13.334 10.1964C12.892 10.1964 12.468 10.372 12.1555 10.6845C11.8429 10.9971 11.6673 11.421 11.6673 11.863V17.6964H8.33398V11.863C8.33398 10.537 8.86077 9.26519 9.79845 8.3275C10.7361 7.38982 12.0079 6.86304 13.334 6.86304Z" stroke="var(--stroke-0, #FDFCFB)" stroke-width="1.66667" stroke-linecap="round" stroke-linejoin="round"/>
<path id="Vector_2" d="M4.99935 7.69629H1.66602V17.6963H4.99935V7.69629Z" stroke="var(--stroke-0, #FDFCFB)" stroke-width="1.66667" stroke-linecap="round" stroke-linejoin="round"/>
<path id="Vector_3" d="M3.33268 5.19637C4.25316 5.19637 4.99935 4.45018 4.99935 3.5297C4.99935 2.60923 4.25316 1.86304 3.33268 1.86304C2.41221 1.86304 1.66602 2.60923 1.66602 3.5297C1.66602 4.45018 2.41221 5.19637 3.33268 5.19637Z" stroke="var(--stroke-0, #FDFCFB)" stroke-width="1.66667" stroke-linecap="round" stroke-linejoin="round"/>
</g>
</svg>
