<svg preserveAspectRatio="none" width="100%" height="100%" overflow="visible" style="display: block;" viewBox="0 0 113.211 22.6421" fill="none" xmlns="http://www.w3.org/2000/svg">
<g id="image 1431 [Vectorized]">
<path id="Vector" d="M11.3388 1.59908C11.9423 1.60365 12.9157 1.63394 13.3566 2.112C13.8995 2.70067 14.4405 3.45497 14.9292 4.09736L17.4804 7.44893C18.3245 8.56618 20.1199 10.3977 20.0174 11.7297C19.9484 12.6272 17.9299 15.0664 17.3234 15.9002L15.431 18.461C14.9005 19.189 14.6783 19.6203 14.0278 20.2807C12.7671 21.5604 11.1739 21.3917 9.51423 21.3794C9.39958 21.3831 9.28493 21.3854 9.17023 21.3865C7.39407 21.4005 7.17495 20.4029 6.1759 19.1652C4.93972 17.6337 3.78101 16.0232 2.59135 14.4556C1.88578 13.5259 0.87798 12.6785 0.893502 11.4295C0.906122 10.5143 1.53807 9.8279 2.05219 9.13743L3.47985 7.20429C4.59104 5.70792 5.76352 3.95936 6.99087 2.59881C7.99893 1.48138 9.92302 1.59908 11.3388 1.59908ZM10.0482 16.4638L10.6111 16.5568C11.044 16.0768 11.5912 15.3512 11.98 14.7961C12.678 13.8 13.7558 12.7398 14.1387 11.5956C14.244 11.2809 13.9313 10.6764 13.7354 10.4279C12.7555 9.18475 11.9451 7.74621 10.8693 6.59449C10.7733 6.49238 10.4501 6.44009 10.308 6.41529C9.71368 7.16143 8.67742 8.60854 8.14973 9.22385C6.02775 11.6982 6.66191 11.911 8.40396 14.2621C8.85625 14.8725 9.42131 15.9506 10.0482 16.4638Z" fill="var(--fill-0, #FDFCFB)"/>
<g id="Vector_2">
</g>
<path id="Vector_3" d="M104.368 4.60601C105.251 4.43855 106.836 4.65035 107.779 4.5636C108.417 4.57217 109.056 4.53749 109.69 4.60126C110.506 4.6833 110.823 5.07682 110.856 5.85581C110.908 7.06418 110.881 8.26725 110.88 9.46717L110.886 17.0815C110.137 17.0546 109.333 17.0713 108.579 17.0747C108.544 16.1409 108.576 14.9741 108.577 14.0232C107.431 13.9893 106.158 14.015 105.002 14.0142C103.557 14.0057 102.113 14.0102 100.669 14.0276L100.667 17.0832C99.9405 17.0515 99.1279 17.0702 98.3943 17.0727L98.391 12.8772C98.3916 10.0079 98.3402 7.40674 101.078 5.60006C102.135 4.90249 103.123 4.69431 104.368 4.60601ZM100.675 11.7116L104.781 11.7156L108.571 11.7127L108.574 6.87967C107.682 6.85598 106.79 6.84775 105.897 6.85493C105.669 6.85477 104.757 6.84328 104.563 6.87078C103.571 6.92899 102.262 7.41143 101.597 8.19226C100.661 9.29255 100.666 10.3631 100.675 11.7116Z" fill="var(--fill-0, #FDFCFB)"/>
<path id="Vector_4" d="M41.5723 4.60564C41.5829 4.60362 41.6325 4.59448 41.6445 4.59441C43.4452 4.58499 45.4113 4.47043 47.1903 4.65328C47.4489 4.67986 47.6808 4.85366 47.8652 5.00566C48.161 5.71211 48.0502 8.62019 48.0501 9.50417L48.0484 17.0906C47.4574 17.0349 46.3854 17.0669 45.7782 17.0802L45.7792 14.0233C44.6164 13.9888 43.3228 14.0151 42.15 14.0142C40.7225 14.0058 39.295 14.01 37.8676 14.0271L37.8745 17.0866C37.2332 17.0375 36.2687 17.0696 35.6036 17.076L35.5986 12.8276C35.5983 11.8514 35.557 10.2781 35.7613 9.34192C35.9692 8.3523 36.417 7.42866 37.0653 6.65215C38.2624 5.2326 39.8006 4.75701 41.5723 4.60564ZM37.9031 11.7101L41.9841 11.7156L45.7735 11.7156L45.777 6.87747C44.9057 6.85648 44.034 6.8488 43.1623 6.85444C42.8881 6.85416 42.0169 6.84013 41.7708 6.87178C39.0328 7.04745 37.7055 8.8655 37.8841 11.5105C37.8886 11.5772 37.895 11.6437 37.9031 11.7101Z" fill="var(--fill-0, #FDFCFB)"/>
<path id="Vector_5" d="M62.8546 13.8882C63.2808 12.949 67.8269 4.97095 68.289 4.60802C68.6246 4.34447 69.137 4.44274 69.5256 4.49218C69.7849 4.7734 69.8849 4.88406 70.0801 5.20971C70.1514 6.41347 70.1 8.12963 70.0994 9.36125L70.1011 17.0917C69.3918 17.0443 68.5124 17.0682 67.7888 17.0708C67.7556 15.8352 67.7838 14.472 67.7832 13.2263C67.7921 12.0636 67.786 10.9008 67.765 9.73811C67.2382 10.9114 66.2531 12.3821 65.6268 13.5595C65.0536 14.5594 64.5102 15.5778 63.9209 16.5681C63.4555 17.3501 62.4129 17.498 61.8905 16.7095C61.3963 15.9638 60.9712 15.1772 60.5307 14.4032L57.8662 9.70066L57.8629 17.0822C57.0973 17.0636 56.3317 17.0623 55.5666 17.0784L55.5705 9.46872C55.5694 8.22517 55.5539 6.97737 55.5865 5.73503C55.6048 5.0164 55.8226 4.57866 56.5672 4.43068C56.9138 4.44302 57.0304 4.47097 57.3671 4.55865C57.9525 5.19098 58.7242 6.7616 59.2056 7.5569C60.4411 9.59739 61.6025 11.8761 62.8546 13.8882Z" fill="var(--fill-0, #FDFCFB)"/>
<path id="Vector_6" d="M83.8948 4.55847C84.0274 4.72779 83.9705 6.55479 83.9688 6.90237C83.3552 6.81197 80.8157 6.85626 80.0236 6.8562L76.9777 6.85703C76.3354 6.85709 75.5394 6.83384 74.9186 6.90988C74.959 9.21905 74.8661 11.5409 74.9484 13.8491C74.965 14.308 75.1038 14.4262 75.4161 14.7177C75.9877 14.8423 77.7185 14.7991 78.4227 14.7989L83.9683 14.7877L83.9672 17.0914C83.384 17.0458 82.5537 17.0677 81.9506 17.0675L77.9877 17.0743C75.6903 17.0763 72.7478 17.228 72.6588 13.9937C72.5842 11.2736 72.6682 8.52167 72.6605 5.80086C72.6594 5.5063 72.776 5.22499 72.9081 4.96743C73.1193 4.80801 73.3857 4.63897 73.6538 4.62703C77.0363 4.47635 80.5122 4.62354 83.8948 4.55847Z" fill="var(--fill-0, #FDFCFB)"/>
<path id="Vector_7" d="M85.2248 4.55596C88.1274 4.65855 91.128 4.5149 94.0395 4.57224C95.1036 4.59319 96.3695 4.61866 97.4187 4.54517C97.4435 5.28358 97.422 6.14767 97.4225 6.89613C96.9024 6.83329 95.9643 6.85532 95.4098 6.85604C94.4519 6.85731 93.4264 6.83986 92.4745 6.88172C92.4309 8.57695 92.458 10.3646 92.458 12.0666C92.4651 13.7406 92.4613 15.4147 92.4458 17.0886C91.7543 17.0417 90.8659 17.0717 90.1611 17.0826L90.16 6.91507C89.7073 6.8334 88.7515 6.85571 88.2573 6.85631L85.175 6.86349C85.1877 6.39397 85.133 4.92162 85.2248 4.55596Z" fill="var(--fill-0, #FDFCFB)"/>
<path id="Vector_8" d="M31.2285 4.58062C32.1956 4.53506 33.4148 4.57179 34.3953 4.57769C34.1388 5.03007 32.9699 6.04424 32.5057 6.49697C31.0421 7.92458 29.5691 9.42399 28.074 10.815C28.7655 11.6612 34.287 16.6969 34.3244 17.0698C34.2085 17.1313 34.0342 17.0894 33.8959 17.0717L31.2227 17.0655C30.7942 16.7329 30.0646 15.9514 29.6598 15.5432L27.377 13.2674C27.0451 12.9318 26.4083 12.2462 26.0453 11.9937C25.5715 11.9768 25.0168 11.9882 24.5369 11.987C24.5329 11.2113 24.5335 10.4357 24.5386 9.66002L26.1078 9.65864C27.5034 8.32347 28.8349 6.89564 30.2197 5.54738C30.558 5.21794 30.8661 4.88734 31.2285 4.58062Z" fill="var(--fill-0, #FDFCFB)"/>
<path id="Vector_9" d="M23.5516 4.55881L23.5735 4.56928C23.6965 4.70665 23.6486 8.21633 23.6487 8.80409L23.6482 17.0977C23.0328 17.0437 22.1804 17.0673 21.5449 17.0687L21.463 17.0691C21.3768 16.9614 21.3704 16.9146 21.3719 16.7537C21.384 15.4519 21.3805 14.1311 21.3802 12.831L21.3852 4.56006C22.1072 4.57489 22.8295 4.57448 23.5516 4.55881Z" fill="var(--fill-0, #FDFCFB)"/>
<path id="Vector_10" d="M50.6935 4.56116C51.4385 4.57941 52.2189 4.56815 52.9667 4.56826L52.9678 17.1038C52.5037 17.0325 51.21 17.0713 50.6821 17.0789C50.7392 12.9399 50.6806 8.7122 50.6935 4.56116Z" fill="var(--fill-0, #FDFCFB)"/>
<path id="Vector_11" d="M75.8252 9.66123L82.9683 9.66383L82.9688 11.9877C80.5979 11.9615 78.18 11.9857 75.8058 11.9851C75.8042 11.2105 75.8102 10.4358 75.8252 9.66123Z" fill="var(--fill-0, #FDFCFB)"/>
</g>
</svg>
