<svg preserveAspectRatio="none" width="100%" height="100%" overflow="visible" style="display: block;" viewBox="0 0 110.691 14.9643" fill="none" xmlns="http://www.w3.org/2000/svg">
<g id="Vector">
<path d="M0.0264562 8.83283C2.40012 8.71754 5.00856 8.90749 7.40788 8.78804C7.95873 9.45533 8.51985 10.1602 9.15366 10.7479C9.66386 11.221 10.2218 11.6481 10.7491 12.1113C10.3473 12.3725 10.0751 12.5592 9.63589 12.7488C9.15831 12.9535 8.68036 13.1492 8.18455 13.3067C7.64788 13.4771 7.11003 13.5964 6.58856 13.8116C3.9429 12.9031 1.64219 11.2023 0 8.94093L0.0264562 8.83283Z" fill="var(--fill-0, #FDFCFB)"/>
<path d="M40.9631 3.46733L41.0029 3.39244C41.2533 3.27322 42.8425 3.25298 43.0616 3.46013C43.1979 3.77998 43.1147 13.3656 43.1193 14.6069C42.3227 14.6453 41.7524 14.641 40.9534 14.6263L40.9631 3.46733Z" fill="var(--fill-0, #FDFCFB)"/>
<path d="M40.9631 3.46733L41.0029 3.39244C41.2533 3.27322 42.8425 3.25298 43.0616 3.46013C42.7709 3.54071 41.2257 3.53362 40.9631 3.46733Z" fill="var(--fill-0, #FDFCFB)"/>
<path d="M85.1574 3.4466C85.3728 3.26946 87.1294 3.26096 87.2538 3.45738L87.256 14.6025C86.5844 14.6442 85.8392 14.628 85.1628 14.6236C85.2423 11.7069 85.1476 8.75525 85.1844 5.83532C85.1942 5.05228 85.1953 4.22579 85.1574 3.4466Z" fill="var(--fill-0, #FDFCFB)"/>
<path d="M85.1574 3.4466C85.3728 3.26946 87.1294 3.26096 87.2538 3.45738C86.9232 3.5423 85.4934 3.54066 85.1574 3.4466Z" fill="var(--fill-0, #FDFCFB)"/>
<path d="M18.3574 0H25.8999C25.9102 1.20746 25.6509 2.8154 25.328 3.96891C24.3256 7.68657 21.8725 10.8481 18.5172 12.7463C15.2106 14.6049 11.4765 15.1851 7.80563 14.1602C8.479 13.867 9.19717 13.6525 9.88531 13.3498C12.9299 12.0103 15.4515 9.46932 16.9344 6.51228C17.749 4.88817 18.631 1.82939 18.3574 0Z" fill="var(--fill-0, #FDFCFB)"/>
<path d="M50.8313 3.43737C50.8454 3.50233 53.654 12.4154 53.3131 11.9746L53.4178 11.9035L53.4288 11.8372L53.5588 11.7906C53.645 11.4348 53.6969 10.8698 53.8339 10.5821L53.8654 10.5826L53.8994 10.6896L53.9574 10.6658C53.9785 10.5176 54.024 10.1363 54.0689 10.0142L54.0694 10.0363C54.4731 8.10368 55.274 6.16567 55.7622 4.24041C55.8266 3.98609 55.8948 3.7292 55.9721 3.47879C56.8916 3.49118 57.811 3.49273 58.7304 3.48344C58.7791 4.40188 58.79 5.33577 58.8998 6.24649C58.9723 6.84187 58.9658 7.46405 59.0681 8.04728L59.0757 8.02524C59.2851 9.55538 59.2418 11.2805 59.4107 12.8386C59.4653 13.3452 59.5552 14.0993 59.5535 14.5851L59.5097 14.9643H57.5621L57.5215 14.5873C57.443 13.9466 57.4755 12.3929 57.4722 11.702C57.3277 11.9304 57.4165 12.6473 57.3629 12.7349C57.3223 11.6738 57.3245 10.6046 57.2964 9.54388C57.2872 9.20861 57.3012 8.3604 57.2471 8.06581C57.2385 8.4249 57.2422 9.67358 57.1908 9.94435C57.1843 9.60665 57.0469 5.72841 57.049 5.7323L56.9765 5.75358C56.963 6.28798 56.5961 6.70871 56.5539 7.32694C56.5263 7.74146 56.1621 8.537 56.0382 8.92569L54.8693 12.6806C54.7248 13.1344 54.195 14.6083 54.1344 14.9643H52.6884L52.6578 14.8477L52.492 14.7739C52.1726 13.6028 50.7528 9.44442 50.3647 7.98662C50.3647 7.98662 50.2872 7.9421 50.2732 7.93405C50.1726 7.77523 50.0532 5.95342 49.7958 5.73619C49.7223 5.8297 49.6957 7.31889 49.6802 7.58409C49.636 7.50592 49.6266 7.19621 49.6141 7.07287C49.5755 8.02724 49.5808 9.02142 49.4817 9.96493L49.4729 9.95105C49.3276 11.1806 49.4332 12.4738 49.2759 13.6699L49.2665 12.4231C49.1934 12.9995 49.2733 14.6345 49.1035 14.9643H47.3231C47.2536 14.6296 47.3436 12.2887 47.4014 11.8966C47.4298 12.0396 47.419 12.6181 47.4471 12.8676C47.5074 12.7533 47.4748 10.9947 47.5066 10.7212C47.7545 8.5907 47.8038 6.42801 47.9787 4.2978C47.9995 4.76303 48.011 5.22862 48.0135 5.69432C48.0943 5.03213 48.0771 4.12893 48.0832 3.44595C48.4404 3.54367 50.4752 3.54428 50.8313 3.43737Z" fill="var(--fill-0, #FDFCFB)"/>
<path d="M57.5215 14.5873L59.5535 14.5851L59.5097 14.9643H57.5621L57.5215 14.5873Z" fill="var(--fill-0, #FDFCFB)"/>
<path d="M63.7637 3.45816C65.4749 3.4887 67.5226 3.34831 69.224 3.62717C69.6505 3.69701 70.5488 4.2646 70.8567 4.57104C71.9737 5.83435 71.8378 8.33495 70.571 9.47375C69.4849 10.4503 68.3392 10.3973 66.949 10.4744C66.5783 10.4981 66.1968 10.4619 65.8266 10.5445C65.8288 11.163 65.9457 14.6407 65.7606 14.9643H64.0132C63.9071 14.8469 63.8249 14.7283 63.8152 14.569C63.7518 13.5005 63.7821 12.3433 63.7881 11.2747L63.7843 6.90589C63.787 5.76752 63.8195 4.59186 63.7637 3.45816ZM65.844 5.0071C65.8239 6.27372 65.8196 7.54055 65.831 8.80727C67.2034 8.8439 69.388 9.03795 69.4805 7.03976C69.4881 6.87375 69.4567 6.47063 69.4064 6.32401C68.6645 4.89066 67.3532 5.00632 65.9614 5.03881C65.9051 5.86682 65.9895 6.77613 65.9035 7.57415C65.8813 7.14132 65.9332 5.25011 65.844 5.0071ZM63.9212 7.18508C63.9266 6.57014 63.9797 4.3809 63.8969 3.89378C63.8584 4.96051 63.886 6.1117 63.8936 7.18508C63.8725 9.45187 63.8758 11.7188 63.9044 13.9855C63.9943 11.9881 63.9515 9.21028 63.9212 7.18508Z" fill="var(--fill-0, #FDFCFB)"/>
<path d="M63.8936 7.18508H63.9212C63.9515 9.21028 63.9943 11.9881 63.9044 13.9855C63.8758 11.7188 63.8725 9.45187 63.8936 7.18508Z" fill="var(--fill-0, #FDFCFB)"/>
<path d="M63.8936 7.18508C63.886 6.1117 63.8584 4.96051 63.8969 3.89378C63.9797 4.3809 63.9266 6.57014 63.9212 7.18508H63.8936Z" fill="var(--fill-0, #FDFCFB)"/>
<path d="M33.6737 3.29249C34.2746 3.30094 35.9642 3.51554 36.3967 3.90624C36.6568 4.34289 36.2381 5.21492 36.0621 5.6638C34.7378 4.98536 32.478 4.31063 31.5266 5.88956C31.5219 6.19511 31.5051 6.57976 31.5346 6.87796C32.639 8.44467 36.3385 8.10935 37.0459 10.6151C37.397 11.8589 37.1021 13.1313 36.0505 14.0206C35.2833 14.6694 34.4255 14.7073 33.4831 14.8364L33.7385 14.9643H32.1812C32.1594 14.8113 32.086 14.8429 31.9869 14.8234C31.3991 14.708 29.4962 14.2948 29.2267 13.7795C29.2945 13.5625 29.559 13.4163 29.7002 13.2361C29.8817 13.0045 30.0289 12.6162 30.2622 12.4414C30.3032 12.4439 30.367 12.4533 30.4025 12.4743C31.8459 13.3311 33.9685 13.863 35.0655 12.22C35.079 12.0336 35.105 11.6639 35.0658 11.483C34.7438 10.1574 33.0288 10.0208 31.9617 9.60109C30.7278 9.11585 29.8081 8.59318 29.5392 7.20388L29.4843 7.3781C29.3387 7.15315 29.3307 5.72295 29.4744 5.54263C29.4933 5.62836 29.4792 5.63857 29.5396 5.67839C30.198 3.25018 31.7092 3.71095 31.9526 3.38502C32.3579 3.30708 33.2324 3.30076 33.6737 3.29249Z" fill="var(--fill-0, #FDFCFB)"/>
<path d="M91.6221 3.45874C91.6475 3.43464 91.6783 3.40462 91.7162 3.36868C93.7975 3.26578 95.9373 3.33916 98.0256 3.33256C98.2854 3.33173 98.3958 3.33233 98.5164 3.45688C98.4926 3.99154 98.5034 4.51542 98.5105 5.04986C97.1576 5.11101 95.1207 5.07857 93.7423 5.05505C93.7326 6.14125 93.7331 7.22754 93.7429 8.31378C94.2775 8.31389 97.7945 8.20838 98.0061 8.41323C98.1376 8.79707 98.084 9.56743 97.9785 9.95812C97.643 10.0725 94.2992 9.99939 93.7423 9.99788C93.699 11.5196 93.8008 13.0979 93.7017 14.6176C93.6904 14.7922 93.5302 14.8497 93.4669 14.9643H91.8131C91.7384 14.8768 91.648 14.7656 91.6432 14.6488C91.588 13.3027 91.6139 11.8682 91.621 10.5231L91.6221 3.45874ZM93.561 8.19801C93.6049 7.7998 93.6487 5.27558 93.5421 5.00455C93.521 5.67104 93.4956 7.56389 93.561 8.19801Z" fill="var(--fill-0, #FDFCFB)"/>
<path d="M91.6221 3.45874C91.6475 3.43464 91.6783 3.40462 91.7162 3.36868C93.7975 3.26578 95.9373 3.33916 98.0256 3.33256C98.2854 3.33173 98.3958 3.33233 98.5164 3.45688C98.1944 3.54548 91.976 3.53845 91.6221 3.45874Z" fill="var(--fill-0, #FDFCFB)"/>
<path d="M93.561 8.19801C93.6049 7.7998 93.6487 5.27558 93.5421 5.00455C93.521 5.67104 93.4956 7.56389 93.561 8.19801Z" fill="var(--fill-0, #FDFCFB)"/>
<path d="M100.936 3.49247L100.974 3.38131C101.312 3.28198 102.848 3.29291 103.187 3.37421C103.209 3.39887 103.277 3.47081 103.29 3.49421C103.291 3.49483 105.731 7.87938 105.771 8.01449L105.812 8.01644C106.393 7.16347 107.032 5.79016 107.578 4.86523C107.702 4.65606 108.261 3.56194 108.364 3.43462C108.679 3.56928 110.131 3.47779 110.624 3.52695C110.351 3.81724 106.949 9.62799 106.876 9.98146C106.772 10.4824 106.828 11.0681 106.829 11.5801C106.831 12.5836 106.85 13.5894 106.819 14.5925C106.787 14.7159 106.757 14.849 106.705 14.9643H104.732C104.568 14.6757 104.613 14.3182 104.624 13.9879C104.576 13.7149 104.608 13.3812 104.609 13.1026C104.615 12.169 104.726 11.1077 104.6 10.1858C104.492 9.39872 101.532 4.57338 100.936 3.49247Z" fill="var(--fill-0, #FDFCFB)"/>
<path d="M104.624 13.9879C104.647 14.1785 104.665 14.3178 104.707 14.5056C104.918 14.6647 106.427 14.5781 106.819 14.5925C106.787 14.7159 106.757 14.849 106.705 14.9643H104.732C104.568 14.6757 104.613 14.3182 104.624 13.9879Z" fill="var(--fill-0, #FDFCFB)"/>
<path d="M100.936 3.49247L100.974 3.38131C101.312 3.28198 102.848 3.29291 103.187 3.37421C103.209 3.39887 103.277 3.47081 103.29 3.49421C102.613 3.52793 101.613 3.52108 100.936 3.49247Z" fill="var(--fill-0, #FDFCFB)"/>
<path d="M75.2282 3.40747C75.4809 3.28408 77.1012 3.23644 77.2971 3.4532C77.185 5.70788 77.303 8.08791 77.2646 10.3535C77.2538 11.0056 77.3171 12.4022 77.2581 12.9652L77.3333 13.0861C77.8723 13.1659 81.4358 13.1569 81.8985 13.0108C81.8985 13.4705 81.8774 14.1462 81.9066 14.5888L81.8238 14.9643H75.3078C75.219 14.8207 75.2076 14.7586 75.1692 14.5995C75.2314 14.2713 75.2055 12.2716 75.2055 11.8384L75.1952 5.54101C75.1941 5.15338 75.166 3.64701 75.2282 3.40747Z" fill="var(--fill-0, #FDFCFB)"/>
<path d="M75.1692 14.5995C77.2797 14.5496 79.7923 14.5505 81.9066 14.5888L81.8238 14.9643H75.3078C75.219 14.8207 75.2076 14.7586 75.1692 14.5995Z" fill="var(--fill-0, #FDFCFB)"/>
<path d="M75.2282 3.40747C75.4809 3.28408 77.1012 3.23644 77.2971 3.4532C77.02 3.53905 75.4355 3.5722 75.2282 3.40747Z" fill="var(--fill-0, #FDFCFB)"/>
<path d="M77.2581 12.9652C77.6136 12.8748 81.228 12.8985 81.7941 12.9332L81.8985 13.0108C81.4358 13.1569 77.8723 13.1659 77.3333 13.0861L77.2581 12.9652Z" fill="var(--fill-0, #FDFCFB)"/>
<path d="M48.0832 3.44595C48.2475 3.27524 50.6162 3.2853 50.8313 3.43737C50.4752 3.54428 48.4404 3.54367 48.0832 3.44595Z" fill="var(--fill-0, #FDFCFB)"/>
<path d="M108.364 3.43462C108.724 3.26993 110.227 3.3391 110.691 3.34567V3.51564L110.624 3.52695C110.131 3.47779 108.679 3.56928 108.364 3.43462Z" fill="var(--fill-0, #FDFCFB)"/>
</g>
</svg>
