<svg preserveAspectRatio="none" width="100%" height="100%" overflow="visible" style="display: block;" viewBox="0 0 83.9842 27.9947" fill="none" xmlns="http://www.w3.org/2000/svg">
<g id="image 1430 [Vectorized]">
<path id="Vector" d="M36.8401 5.49746C38.0452 5.48918 39.2505 5.48918 40.4557 5.4975C40.222 5.83996 39.7057 6.42661 39.4215 6.76796C39.3457 7.93858 39.4058 9.87784 39.4062 11.0922L39.4086 19.5061C39.7695 19.9115 40.1369 20.3206 40.425 20.7809L36.0547 20.7788C36.3542 20.3221 36.8263 19.8859 37.0782 19.4686C37.1475 17.0335 37.0978 14.3304 37.0973 11.8762C37.0983 10.5827 37.1314 9.59678 37.2131 8.29837C35.6821 12.4334 33.5414 16.6834 31.8596 20.7926C31.4059 20.7921 30.9521 20.7853 30.4986 20.7724L27.386 13.7463C26.5735 11.9208 25.8235 10.2935 25.1368 8.41408C25.1041 9.25097 25.2007 10.7954 25.219 11.7073C25.2711 14.3208 25.2098 16.9813 25.2754 19.5824C25.5316 19.8739 26.0578 20.4453 26.2183 20.7805L22.6734 20.7803C22.8845 20.418 23.3492 19.9037 23.6363 19.5675C23.6972 16.6159 23.6088 13.6342 23.6427 10.68C23.6577 9.3734 23.6599 8.03477 23.6301 6.72943C23.4785 6.55642 22.7008 5.70154 22.698 5.56091L22.782 5.50648C23.8796 5.4718 25.0772 5.4943 26.182 5.49365C27.4037 8.04502 28.4517 10.7472 29.6424 13.3203C30.3865 14.9283 31.1347 16.5887 31.6098 18.2949C31.6589 18.1691 31.7028 18.0418 31.7406 17.9121C32.0243 16.9389 32.3857 15.9952 32.7802 15.0619C34.1289 11.8719 35.4989 8.6907 36.8401 5.49746Z" fill="var(--fill-0, #FDFCFB)"/>
<path id="Vector_2" d="M58.3735 9.60588C58.5408 9.57965 58.8222 9.57817 58.9968 9.57952C60.1947 9.59748 61.3376 10.0843 62.1799 10.9354C63.381 12.1649 63.7534 13.7798 63.748 15.4555C63.7382 18.598 61.5139 21.071 58.2903 20.9901C56.9727 20.9571 56.1759 20.5197 55.2737 19.5783C55.3082 20.8762 55.2623 22.2279 55.2881 23.5434L55.8725 24.1555C56.0377 24.3206 56.23 24.5703 56.3818 24.7558C55.1938 24.8092 53.5371 24.8019 52.3474 24.763C52.5426 24.3702 53.031 23.808 53.1052 23.4708C53.1782 23.1391 53.1536 22.341 53.152 21.9697L53.1467 19.7549C53.1458 16.8544 53.1873 13.8628 53.1372 10.9704C52.9203 10.6778 52.3314 10.0826 52.4102 9.71474C52.5422 9.62473 54.917 9.65392 55.2577 9.64515C55.3041 10.2484 55.2799 11.1644 55.286 11.7973C55.9705 10.5057 56.8886 9.76708 58.3735 9.60588ZM58.6585 19.7834C59.6403 19.5215 60.2201 19.0829 60.7606 18.2009C62.2041 15.8442 61.6558 10.8166 57.9942 11.1176C55.5362 11.5307 54.8198 14.6144 55.1729 16.7146C55.4985 18.6498 56.5921 19.9659 58.6585 19.7834Z" fill="var(--fill-0, #FDFCFB)"/>
<path id="Vector_3" d="M45.3359 9.60625C46.8191 9.43287 48.2208 9.84693 49.287 10.9197L50.1256 9.66654C50.4783 9.66162 50.8313 9.65343 51.184 9.64187C51.2053 12.9282 51.1336 16.3373 51.2041 19.6055C51.467 19.9704 51.795 20.3845 51.9947 20.7784C51.011 20.7867 50.0268 20.7879 49.043 20.7819C49.0643 20.1275 49.0512 19.3842 49.0557 18.7227C48.9749 18.8949 48.8941 19.0446 48.8031 19.2114C48.215 20.1974 47.1173 20.8383 45.9867 20.9646C44.781 21.1006 43.5705 20.7526 42.6211 19.997C41.3839 19.0025 40.8161 17.6241 40.6399 16.0775C40.2816 12.9324 41.9855 9.9617 45.3359 9.60625ZM46.3664 19.4558C48.874 19.0653 49.5088 16.1503 49.1824 14.0178C49.0233 12.9783 48.5784 11.8871 47.7049 11.2451C47.0307 10.7619 46.505 10.7462 45.725 10.7923C41.84 11.4704 41.76 19.8153 46.3664 19.4558Z" fill="var(--fill-0, #FDFCFB)"/>
<path id="Vector_4" d="M72.9018 9.60711C74.563 9.32835 76.6348 10.0524 77.5496 11.488C78.3513 12.7452 78.3702 13.6554 78.3723 15.0759C77.6509 15.0289 76.4387 15.0654 75.6834 15.0654L70.4955 15.0721C70.6353 16.6373 70.9306 18.0702 72.4528 18.9254C73.2262 19.3597 74.2854 19.4169 75.1306 19.1688C76.1016 18.8837 76.6462 18.2234 77.1137 17.367L77.3179 16.8961C77.5488 16.961 78.4457 17.1314 78.3903 17.456C78.1061 19.1303 76.6376 20.4972 74.9866 20.8507C73.3599 21.1991 71.6096 20.9255 70.3015 19.8431C66.8589 16.9123 67.8964 10.1304 72.9018 9.60711ZM70.5726 14.0185L73.4247 14.0228L76.1484 14.021C76.0061 12.4991 75.2618 10.5072 73.3877 10.6719C71.549 10.8553 70.835 12.3874 70.5726 14.0185Z" fill="var(--fill-0, #FDFCFB)"/>
<path id="Vector_5" d="M12.1017 3.44808C12.3632 3.43881 13.0864 3.61739 13.3785 3.69036C15.2553 4.15921 17.3427 4.77124 18.8177 6.07875C19.4783 6.6643 19.9634 7.36364 20.0123 8.25947C20.0569 9.07792 19.7184 10.017 19.1472 10.5948C16.5456 13.2264 10.3122 13.5995 6.84791 13.7611C6.21249 13.7725 5.57703 13.7786 4.94149 13.7795C4.97873 13.3341 4.95535 12.6029 4.9547 12.137C5.51884 12.0428 6.60625 12.093 7.25586 12.0411C10.2368 11.803 13.6074 11.573 16.3432 10.2989C16.9898 10.0051 17.9089 9.29687 18.1039 8.59967C18.6766 6.55187 15.6323 4.68008 14.0582 4.039C13.4605 3.79556 12.7111 3.64021 12.1017 3.44808Z" fill="var(--fill-0, #FDFCFB)"/>
<path id="Vector_6" d="M66.995 5.50242L67.0397 5.50504C67.1299 5.64928 67.0914 9.73614 67.0914 10.3114L67.0959 19.6341C67.4018 20.0083 67.6852 20.3479 67.9029 20.7818L64.2598 20.7823L64.2077 20.7502C64.186 20.5744 64.7765 19.8624 64.9295 19.592C64.9729 16.7499 64.936 13.8036 64.934 10.9582L64.9323 8.63254C64.9327 8.26603 64.9578 7.60936 64.8958 7.2715C64.8335 6.93031 64.3152 6.49736 64.2196 6.09601L64.2598 6.0362C64.6125 5.89086 66.4697 5.60329 66.995 5.50242Z" fill="var(--fill-0, #FDFCFB)"/>
<path id="Vector_7" d="M19.9936 15.651L20.032 15.7225C19.952 16.6296 19.6402 17.3814 18.9473 17.9849C15.8356 20.6949 8.93181 20.9758 5.01412 20.8507L4.96393 20.8011C4.92923 20.5626 4.96011 19.4837 4.96319 19.1838C5.81615 19.1405 6.69671 19.1677 7.55288 19.12C11.1915 18.9171 15.3302 18.6082 18.5347 16.7191C19.0693 16.404 19.5208 16.0404 19.9936 15.651Z" fill="var(--fill-0, #FDFCFB)"/>
<path id="Vector_8" d="M19.9562 12.0762C20.0071 12.0967 19.9928 12.0932 20.0295 12.1472C19.4564 17.1412 8.73514 17.2341 4.99669 17.2613C4.96397 17.2554 4.95261 17.2378 4.923 17.2138C4.88281 16.826 4.91139 15.992 4.9139 15.5722C9.15481 15.551 14.1581 15.4454 18.0168 13.468C18.7248 13.1051 19.3662 12.6065 19.9562 12.0762Z" fill="var(--fill-0, #FDFCFB)"/>
</g>
</svg>
