<svg preserveAspectRatio="none" width="100%" height="100%" overflow="visible" style="display: block;" viewBox="0 0 83.3795 31.7636" fill="none" xmlns="http://www.w3.org/2000/svg">
<g id="Frame 2087329091">
<g id="Vector">
<path d="M22.703 24.8145C22.5868 24.8145 22.4777 24.7561 22.416 24.6578L17.055 16.1584C16.9293 15.9596 16.7324 15.9385 16.6541 15.9385C16.5759 15.9385 16.3766 15.9596 16.2532 16.1584L10.8923 24.6578C10.8306 24.7561 10.7215 24.8145 10.6052 24.8145H9.49509C9.22941 24.8145 9.06812 24.5269 9.20807 24.3047L14.8798 15.3164C15.2641 14.7059 15.9283 14.3434 16.6565 14.3434C17.3848 14.3434 18.0489 14.7059 18.4332 15.3164L24.105 24.3047C24.2449 24.5269 24.0836 24.8145 23.8179 24.8145H22.703Z" fill="var(--fill-0, #FDFCFB)"/>
<path d="M26.8661 24.8146H25.7559C25.6397 24.8146 25.5305 24.7562 25.4689 24.6579L17.3823 11.8386C17.221 11.5836 16.9577 11.4386 16.6541 11.4386C16.3504 11.4386 16.0848 11.5836 15.9258 11.8386L7.8393 24.6579C7.77762 24.7562 7.6685 24.8146 7.55226 24.8146H6.44211C6.17644 24.8146 6.01514 24.5269 6.1551 24.3048L14.55 10.9966C15.0055 10.2739 15.7906 9.84352 16.6541 9.84352C17.0858 9.84352 17.4962 9.95111 17.8591 10.1499C18.2197 10.3487 18.5304 10.6364 18.7581 10.9966L27.1531 24.3048C27.293 24.5269 27.1317 24.8146 26.8661 24.8146Z" fill="var(--fill-0, #FDFCFB)"/>
<path d="M29.9164 24.8153H28.8062C28.69 24.8153 28.5809 24.7568 28.5192 24.6586L17.7095 7.51937C17.477 7.15216 17.0927 6.94166 16.6539 6.94166C16.215 6.94166 15.8308 7.15216 15.5983 7.51937L4.78855 24.6586C4.72687 24.7568 4.61775 24.8153 4.50152 24.8153H3.39137C3.12569 24.8153 2.96438 24.5276 3.10434 24.3054L14.2248 6.67503C14.7396 5.85877 15.622 5.36293 16.5946 5.34422C17.6193 5.32317 18.5729 5.86111 19.1161 6.71947L30.2082 24.3031C30.3481 24.5253 30.1868 24.813 29.9211 24.813L29.9164 24.8153Z" fill="var(--fill-0, #FDFCFB)"/>
<path d="M31.8593 24.8148C31.7431 24.8148 31.6339 24.7563 31.5723 24.6581L18.037 3.19897C17.7333 2.71716 17.2304 2.44117 16.654 2.44117C16.0776 2.44117 15.5747 2.71716 15.2711 3.19897L1.73578 24.6581C1.6741 24.7563 1.56498 24.8148 1.44874 24.8148H0.338595C0.0729179 24.8148 -0.0883913 24.5271 0.0515636 24.3049L13.8976 2.35463C14.4954 1.40973 15.5249 0.843721 16.6564 0.843721C17.7879 0.843721 18.8174 1.40739 19.4152 2.35463L33.2612 24.3049C33.4012 24.5271 33.2399 24.8148 32.9742 24.8148H31.8593Z" fill="var(--fill-0, #FDFCFB)"/>
<path d="M41.8128 12.169H38.6964L38.1807 13.639H36.5328L39.3465 5.91343H41.1738L43.9875 13.639H42.3284L41.8128 12.169ZM41.3868 10.9312L40.2546 7.7039L39.1223 10.9312H41.3868Z" fill="var(--fill-0, #FDFCFB)"/>
<path d="M46.6087 8.46651C46.8104 8.14231 47.072 7.88811 47.3934 7.7039C47.7222 7.5197 48.0959 7.4276 48.5144 7.4276V9.05228H48.0996C47.6064 9.05228 47.2327 9.16649 46.9786 9.3949C46.732 9.62332 46.6087 10.0212 46.6087 10.5886V13.639H45.0392V7.51601H46.6087V8.46651Z" fill="var(--fill-0, #FDFCFB)"/>
<path d="M49.1679 10.5775C49.1679 9.94383 49.2987 9.39122 49.5602 8.91966C49.8218 8.44072 50.1843 8.07231 50.6476 7.81443C51.111 7.54917 51.6416 7.41654 52.2394 7.41654C53.0092 7.41654 53.6444 7.60812 54.1452 7.99126C54.6533 8.36704 54.9934 8.89755 55.1653 9.58279H53.4726C53.3829 9.31754 53.2297 9.11123 53.0129 8.96386C52.8037 8.80913 52.5421 8.73177 52.2282 8.73177C51.7798 8.73177 51.4248 8.89387 51.1633 9.21807C50.9017 9.5349 50.7709 9.98804 50.7709 10.5775C50.7709 11.1596 50.9017 11.6127 51.1633 11.9369C51.4248 12.2538 51.7798 12.4122 52.2282 12.4122C52.8635 12.4122 53.2782 12.1322 53.4726 11.5722H55.1653C54.9934 12.2353 54.6533 12.7622 54.1452 13.1527C53.637 13.5432 53.0017 13.7385 52.2394 13.7385C51.6416 13.7385 51.111 13.6095 50.6476 13.3516C50.1843 13.0864 49.8218 12.718 49.5602 12.2464C49.2987 11.7675 49.1679 11.2112 49.1679 10.5775Z" fill="var(--fill-0, #FDFCFB)"/>
<path d="M59.8126 7.4276C60.2834 7.4276 60.7019 7.53075 61.0681 7.73706C61.4343 7.936 61.7183 8.23441 61.92 8.6323C62.1293 9.02281 62.2339 9.49438 62.2339 10.047V13.639H60.6645V10.257C60.6645 9.77068 60.5412 9.39859 60.2946 9.1407C60.048 8.87545 59.7117 8.74282 59.2857 8.74282C58.8522 8.74282 58.5085 8.87545 58.2544 9.1407C58.0077 9.39859 57.8844 9.77068 57.8844 10.257V13.639H56.315V5.46029H57.8844V8.27862C58.0862 8.01337 58.3552 7.80706 58.6915 7.65969C59.0278 7.50496 59.4015 7.4276 59.8126 7.4276Z" fill="var(--fill-0, #FDFCFB)"/>
<path d="M43.7073 24.6894H42.1378L38.5843 19.3954V24.6894H37.0148V16.9639H38.5843L42.1378 22.269V16.9639H43.7073V24.6894Z" fill="var(--fill-0, #FDFCFB)"/>
<path d="M51.0314 21.4953C51.0314 21.7164 51.0164 21.9153 50.9865 22.0922H46.4465C46.4838 22.5342 46.6408 22.8806 46.9173 23.1311C47.1938 23.3816 47.5338 23.5068 47.9374 23.5068C48.5203 23.5068 48.9351 23.26 49.1817 22.7663H50.8744C50.6951 23.3558 50.3513 23.8421 49.8431 24.2252C49.3349 24.601 48.7109 24.7889 47.971 24.7889C47.3732 24.7889 46.8351 24.66 46.3568 24.4021C45.886 24.1368 45.516 23.7647 45.247 23.2858C44.9854 22.8069 44.8546 22.2543 44.8546 21.628C44.8546 20.9943 44.9854 20.438 45.247 19.9591C45.5086 19.4801 45.8747 19.1117 46.3456 18.8538C46.8164 18.5959 47.3582 18.467 47.971 18.467C48.5614 18.467 49.0883 18.5923 49.5517 18.8428C50.0225 19.0933 50.3849 19.4507 50.639 19.9149C50.9006 20.3717 51.0314 20.8985 51.0314 21.4953ZM49.4059 21.0532C49.3984 20.6554 49.2527 20.3385 48.9687 20.1027C48.6847 19.8596 48.3372 19.738 47.9262 19.738C47.5376 19.738 47.2087 19.8559 46.9397 20.0917C46.6781 20.3201 46.5175 20.6406 46.4577 21.0532H49.4059Z" fill="var(--fill-0, #FDFCFB)"/>
<path d="M54.0042 19.8375V22.7995C54.0042 23.0058 54.0527 23.1569 54.1499 23.2526C54.2545 23.3411 54.4264 23.3853 54.6656 23.3853H55.3942V24.6894H54.4077C53.0849 24.6894 52.4235 24.0558 52.4235 22.7885V19.8375H51.6837V18.5665H52.4235V17.0523H54.0042V18.5665H55.3942V19.8375H54.0042Z" fill="var(--fill-0, #FDFCFB)"/>
<path d="M65.1323 18.5665L63.3163 24.6894H61.6236L60.4914 20.4122L59.3592 24.6894H57.6552L55.828 18.5665H57.4198L58.5184 23.2305L59.7067 18.5665H61.3658L62.5316 23.2195L63.6302 18.5665H65.1323Z" fill="var(--fill-0, #FDFCFB)"/>
<path d="M68.7392 24.7889C68.1413 24.7889 67.6032 24.66 67.1249 24.4021C66.6466 24.1368 66.2692 23.7647 65.9927 23.2858C65.7237 22.8069 65.5892 22.2543 65.5892 21.628C65.5892 21.0017 65.7274 20.449 66.0039 19.9701C66.2879 19.4912 66.6728 19.1228 67.1586 18.8649C67.6443 18.5996 68.1862 18.467 68.784 18.467C69.3819 18.467 69.9237 18.5996 70.4095 18.8649C70.8953 19.1228 71.2764 19.4912 71.5529 19.9701C71.8369 20.449 71.9789 21.0017 71.9789 21.628C71.9789 22.2543 71.8332 22.8069 71.5417 23.2858C71.2577 23.7647 70.8691 24.1368 70.3759 24.4021C69.8901 24.66 69.3445 24.7889 68.7392 24.7889ZM68.7392 23.4405C69.0232 23.4405 69.2885 23.3742 69.5351 23.2416C69.7892 23.1016 69.991 22.8953 70.1404 22.6227C70.2899 22.35 70.3647 22.0185 70.3647 21.628C70.3647 21.0459 70.2077 20.6001 69.8938 20.2906C69.5874 19.9738 69.21 19.8154 68.7616 19.8154C68.3132 19.8154 67.9358 19.9738 67.6294 20.2906C67.3305 20.6001 67.181 21.0459 67.181 21.628C67.181 22.21 67.3267 22.6595 67.6182 22.9763C67.9171 23.2858 68.2908 23.4405 68.7392 23.4405Z" fill="var(--fill-0, #FDFCFB)"/>
<path d="M74.6995 19.517C74.9013 19.1928 75.1629 18.9386 75.4842 18.7544C75.8131 18.5702 76.1867 18.4781 76.6053 18.4781V20.1027H76.1905C75.6972 20.1027 75.3236 20.217 75.0695 20.4454C74.8228 20.6738 74.6995 21.0717 74.6995 21.639V24.6894H73.1301V18.5665H74.6995V19.517Z" fill="var(--fill-0, #FDFCFB)"/>
<path d="M81.3392 24.6894L79.2317 22.0811V24.6894H77.6623V16.5108H79.2317V21.1638L81.3168 18.5665H83.357L80.6218 21.639L83.3795 24.6894H81.3392Z" fill="var(--fill-0, #FDFCFB)"/>
</g>
</g>
</svg>
