<svg preserveAspectRatio="none" width="100%" height="100%" overflow="visible" style="display: block;" viewBox="0 0 119.993 27.1268" fill="none" xmlns="http://www.w3.org/2000/svg">
<g id="Vector">
<path d="M105.972 3.30075C106.175 3.28111 106.379 3.27427 106.583 3.28029C107.71 3.31776 108.378 3.79873 109.101 4.56694L109.109 3.49555C109.584 3.47528 110.121 3.48331 110.601 3.47974C110.577 5.8991 110.665 8.44146 110.576 10.8385C110.488 13.2324 108.082 14.6125 105.874 14.2483C104.587 14.036 103.8 13.7514 102.929 12.6733C103.307 12.4102 103.516 12.2288 103.859 11.9204C104.212 11.627 104.334 11.9375 104.635 12.2242C105.532 13.0806 107.471 13.1757 108.382 12.3019C109.093 11.6206 109.105 10.8441 109.132 9.93346C108.562 10.5158 107.976 10.9925 107.153 11.1681C104.961 11.6133 102.865 9.93521 102.696 7.72283C102.516 5.38053 103.673 3.81712 105.972 3.30075ZM107.104 9.77411C108.494 9.53589 109.429 8.2156 109.191 6.82464C108.954 5.43362 107.634 4.49835 106.244 4.7352C104.852 4.97223 103.916 6.29321 104.154 7.68517C104.391 9.07713 105.712 10.0125 107.104 9.77411Z" fill="var(--fill-0, #FDFCFB)"/>
<path d="M59.7068 16.1614C59.831 16.1479 59.9565 16.1424 60.082 16.1449C61.0608 16.169 62.0389 16.7055 62.7046 17.4094L62.6814 16.3395L64.1188 16.3472L64.1257 21.236C64.1263 21.9343 64.1615 23.3158 64.0755 23.947C64.0128 24.4383 63.8616 24.9143 63.6301 25.3519C62.5484 27.368 59.3692 27.538 57.5675 26.5061C57.2166 26.3052 56.672 26.0156 56.5524 25.6133C56.5958 25.3917 57.2509 24.9221 57.4809 24.7318C57.5646 24.6748 57.7169 24.606 57.7479 24.6434C58.3548 25.3948 59.0122 25.737 59.9948 25.7747C62.0784 25.8549 62.6532 24.5225 62.7366 22.7831C62.1933 23.3939 61.4805 23.8876 60.668 24.0467C59.7281 24.226 58.7563 24.0241 57.9659 23.4855C57.1094 22.9049 56.5149 22.0113 56.3104 20.9968C55.8269 18.4909 57.2193 16.6276 59.7068 16.1614ZM60.737 22.6221C62.1073 22.343 62.9995 21.0147 62.7397 19.6401C62.4794 18.2656 61.1643 17.3549 59.7865 17.5957C58.878 17.7545 58.1255 18.3901 57.8168 19.2593C57.5082 20.1284 57.6912 21.0964 58.2958 21.7928C58.9006 22.4892 59.8329 22.8061 60.737 22.6221Z" fill="var(--fill-0, #FDFCFB)"/>
<path d="M51.3689 12.8735L51.4029 12.8935C51.6158 13.2531 51.488 22.8723 51.476 23.9474C51.024 23.9606 50.5097 23.9434 50.0529 23.938L50.0448 22.8662C49.2163 23.5784 48.6897 24.0578 47.5058 24.0986C46.3038 24.1402 45.5384 23.727 44.6922 22.9397C44.6701 22.9274 44.6484 22.917 44.6312 22.8973C42.3959 20.3264 43.9215 16.1805 47.4715 16.1565C47.8495 16.154 48.2092 16.2492 48.5666 16.3721C49.1909 16.5869 49.6005 16.9311 50.0512 17.3945L50.0484 13.4601C50.4657 13.255 50.9386 13.06 51.3689 12.8735ZM48.0023 22.6357C49.382 22.3757 50.2958 21.0539 50.0519 19.671C49.808 18.288 48.4974 17.3586 47.1119 17.5863C46.2013 17.736 45.4414 18.3638 45.1224 19.2301C44.8034 20.0963 44.9746 21.0672 45.5706 21.772C46.1666 22.4768 47.0954 22.8067 48.0023 22.6357Z" fill="var(--fill-0, #FDFCFB)"/>
<path d="M16.2494 18.5182C16.7566 18.5425 22.0099 22.3127 23.0861 22.7453C22.5388 23.2287 21.3875 23.8651 20.7555 24.2942C19.3865 25.2237 17.7806 26.125 16.456 27.0875C16.0906 27.06 10.4585 23.3588 9.55378 22.7832C9.87251 22.6545 11.4749 21.6107 11.891 21.3349C13.316 20.3908 14.848 19.479 16.2494 18.5182Z" fill="var(--fill-0, #FDFCFB)"/>
<path d="M25.9548 12.357C26.2118 12.4265 27.4923 13.2738 27.7578 13.4472L30.8766 15.4518C31.4279 15.8102 32.2051 16.3697 32.7576 16.6587C31.9808 17.0596 26.3238 20.6104 26.0492 20.9828C25.8642 20.8793 25.6909 20.7705 25.5126 20.6566C23.4056 19.31 21.3187 17.9532 19.1849 16.6494C20.6895 15.7197 22.1773 14.7063 23.6793 13.7676C24.4168 13.3067 25.1842 12.7472 25.9548 12.357Z" fill="var(--fill-0, #FDFCFB)"/>
<path d="M16.2622 0.0125704C16.6864 0.0509779 22.3439 3.75091 23.0447 4.31184C22.4696 4.61131 21.1166 5.51672 20.5177 5.90933C19.1874 6.7814 17.7559 7.64695 16.4454 8.53121C16.1276 8.54018 15.4279 8.01302 15.1246 7.81834L11.3366 5.39315C10.8466 5.07986 10.0828 4.51034 9.57995 4.31027C11.5325 2.97956 14.2458 1.20115 16.2622 0.0125704Z" fill="var(--fill-0, #FDFCFB)"/>
<path d="M6.66206 12.3671C6.70504 12.3783 6.74745 12.3915 6.78911 12.4069C7.23433 12.5705 13.2645 16.4999 13.3269 16.6331C13.0796 16.9025 11.7248 17.7438 11.349 17.9862L6.72116 20.9562C6.29772 20.7635 5.22621 19.9935 4.78745 19.7145L1.84853 17.8351C1.33274 17.5093 0.450043 16.9968 0 16.6289C0.332483 16.4354 0.765648 16.1142 1.11084 15.8916L4.38597 13.7834C5.09502 13.3254 5.92572 12.757 6.66206 12.3671Z" fill="var(--fill-0, #FDFCFB)"/>
<path d="M82.7112 3.32742C84.8852 3.0487 86.8722 4.58715 87.147 6.7617C87.4225 8.93624 85.8815 10.9214 83.7069 11.1934C81.5373 11.4647 79.5578 9.9273 79.2829 7.75753C79.0088 5.58782 80.5428 3.6055 82.7112 3.32742ZM83.6975 9.7352C85.0508 9.47112 85.9386 8.16501 85.6858 6.80902C85.4336 5.45302 84.1348 4.55433 82.7771 4.79563C81.4036 5.03982 80.492 6.35735 80.7473 7.72954C81.0027 9.10167 82.3278 10.0024 83.6975 9.7352Z" fill="var(--fill-0, #FDFCFB)"/>
<path d="M97.2579 3.29422C99.3297 3.09939 101.13 4.02943 101.192 6.3352C101.235 7.92704 101.199 9.52227 101.184 11.1147L99.7676 11.1142L99.7494 9.78591C98.6659 10.8853 97.4091 11.54 95.8105 11.139C95.1567 10.9768 94.5964 10.5565 94.2576 9.974C93.9332 9.13054 93.9596 8.02896 94.656 7.37904C95.9272 6.19324 98.142 6.44753 99.7626 6.46322C99.7155 4.00476 96.7259 4.0507 95.5902 5.76743C95.0914 5.52989 94.6905 5.30321 94.2105 5.02677C95.0042 4.01449 96.01 3.50528 97.2579 3.29422ZM95.7521 9.52076C96.7566 10.1244 97.4556 10.0774 98.5059 9.55214C98.861 9.43705 99.4853 8.755 99.7212 8.45564L99.7802 7.65298C99.031 7.64877 97.4079 7.60503 96.7321 7.68134C95.9366 7.85098 95.4604 8.30559 95.6567 9.16907C95.685 9.28724 95.7164 9.4046 95.7521 9.52076Z" fill="var(--fill-0, #FDFCFB)"/>
<path d="M47.4365 3.29906C48.9725 3.14636 51.2099 3.73855 51.41 5.57633C51.6001 7.32225 51.4953 9.34002 51.4746 11.1178L50.0559 11.1127L50.0463 9.76012C49.9023 9.94908 49.5655 10.2946 49.3802 10.4402C48.5814 11.065 47.566 11.3445 46.5601 11.2164C45.5462 11.095 45.1107 10.686 44.5315 9.94186C44.4376 9.6491 44.3796 9.14052 44.3924 8.83137C44.5075 6.05693 48.1847 6.43479 50.0555 6.47948C50.0974 4.06702 47.1828 4.01575 45.8615 5.77735C45.3418 5.50454 45.044 5.34363 44.5701 5.00405C45.6018 3.86494 45.964 3.66619 47.4365 3.29906ZM46.5864 9.82708C47.393 10.0493 48.1247 9.95253 48.851 9.5389C49.3946 9.22932 50.2614 8.45954 50.0228 7.75515C49.8877 7.62185 49.8105 7.63754 49.6151 7.64036C48.9418 7.64312 44.8541 7.17772 46.1349 9.54856C46.161 9.59689 46.5077 9.78491 46.5864 9.82708Z" fill="var(--fill-0, #FDFCFB)"/>
<path d="M115.535 3.29604C118.432 3.14115 120.062 4.95623 119.991 7.80604C117.967 7.85951 115.618 7.7982 113.56 7.79638C113.967 9.98831 116.554 10.6232 118.055 9.0755C118.069 9.05517 118.085 9.03508 118.1 9.01525C118.535 8.44592 119.166 9.12941 119.589 9.45763C118.948 10.2897 118.29 10.8589 117.228 11.1158C116.086 11.3963 114.878 11.2116 113.871 10.6021C113.029 10.0933 112.428 9.26553 112.204 8.30666C111.618 5.8022 113.105 3.85515 115.535 3.29604ZM113.612 6.55491C114.54 6.54763 115.468 6.54537 116.396 6.54826L118.489 6.55629C118.074 5.26173 117.179 4.41727 115.73 4.61376C114.72 4.7989 113.823 5.52356 113.612 6.55491Z" fill="var(--fill-0, #FDFCFB)"/>
<path d="M78.1097 16.1617C80.103 15.9942 81.9652 16.9042 81.994 19.1365C82.0147 20.7524 82.0016 22.3575 81.9783 23.9734L80.593 23.9589C80.5842 23.4879 80.6018 22.9976 80.6131 22.525C80.2184 23.0659 79.6807 23.5638 79.0539 23.8096C77.6253 24.3695 75.6721 24.2428 75.0046 22.6583C74.7831 21.9521 74.8521 20.922 75.366 20.3606C76.6547 18.9541 78.9128 19.4436 80.5999 19.3034C80.4142 18.3539 80.4274 18.3282 79.7792 17.6229C78.0519 17.172 77.5117 17.5104 76.3937 18.5222C76.2481 18.6535 75.3064 18.055 74.9839 17.8653C76.1308 16.8609 76.4345 16.4404 78.1097 16.1617ZM76.9929 20.7112C75.2493 22.5036 77.5883 23.1688 79.2378 22.4836C80.0867 22.0309 80.5541 21.4953 80.6281 20.5305C79.7027 20.4963 78.5677 20.4775 77.651 20.5528C77.4722 20.5937 77.1547 20.657 76.9929 20.7112Z" fill="var(--fill-0, #FDFCFB)"/>
<path d="M70.7889 0.606877C71.2683 0.369032 71.7282 0.127015 72.2514 0C72.2401 1.48163 72.2395 2.96332 72.2483 4.44494C72.9416 3.76007 73.6631 3.2218 74.6802 3.2732C77.9447 3.43819 77.8073 6.00993 77.7953 8.32555L77.7746 10.8671L77.7702 11.1086C77.2915 11.1126 76.7783 11.1257 76.3027 11.1131C76.2996 9.50978 76.3893 7.71944 76.1942 6.14944C75.9953 4.55057 73.8614 4.07474 72.8569 5.23632C72.6856 5.41825 72.5137 5.62572 72.4359 5.87443C72.0695 7.34628 72.4052 9.3276 72.2433 10.8003C71.9421 10.942 71.2394 10.9484 70.9665 10.7146L70.9684 10.7683C70.7921 10.5345 70.8335 10.1862 70.804 9.85269C70.7312 8.84386 70.7764 7.32921 70.7783 6.27633L70.7889 0.606877Z" fill="var(--fill-0, #FDFCFB)"/>
<path d="M56.8196 3.29291C57.7111 3.21376 58.7494 3.45451 59.3818 4.11779C60.4773 5.26556 60.3348 6.99126 60.3267 8.45169L60.3097 11.09C59.8806 11.1294 59.2613 11.1186 58.8159 11.123C58.8008 10.4395 58.8033 9.72636 58.8127 9.04268C58.8403 6.97225 59.1835 3.98412 56.0176 4.73344C55.4362 5.09473 54.9124 5.61932 54.8204 6.31518C54.6169 7.8533 54.7261 9.55277 54.6867 11.1095C54.2296 11.1228 53.7239 11.1111 53.2628 11.11C53.2583 8.78211 53.2094 6.28807 53.2754 3.97313C53.6965 3.73516 54.2457 3.54205 54.6995 3.38133C54.6871 3.79798 54.7048 4.1626 54.7243 4.57811C54.7499 4.5399 54.776 4.50212 54.8026 4.46471C55.3106 3.75304 55.973 3.43486 56.8196 3.29291Z" fill="var(--fill-0, #FDFCFB)"/>
<path d="M65.1779 3.29981C67.2911 3.13928 68.2334 3.90347 69.3383 5.55631C68.9048 5.78193 68.4323 6.04287 67.9756 6.20422C67.6368 5.24786 66.6862 4.70482 65.6943 4.71882C65.0254 4.72516 64.3873 4.99922 63.9218 5.47981C62.4097 7.05452 63.5974 10.0644 65.8957 9.81673C66.5808 9.74292 66.9064 9.65017 67.3845 9.13788C67.7051 8.81481 67.7773 8.71998 68.0138 8.33459C68.4273 8.45019 68.9625 8.66124 69.376 8.81223C69.3251 8.91653 69.2718 9.01927 69.2147 9.12037C68.6889 10.0801 67.995 10.7537 66.9234 11.0667C64.5517 11.7596 62.0282 10.2569 61.8074 7.71241C61.6775 6.21382 62.1732 4.93 63.3979 4.02271C63.9664 3.60192 64.5122 3.48256 65.1779 3.29981Z" fill="var(--fill-0, #FDFCFB)"/>
<path d="M71.6209 13.7099C71.693 13.9767 71.6485 15.9369 71.6347 16.3287C72.3537 16.3392 73.0884 16.3341 73.8093 16.3366C73.7949 16.7995 73.7842 17.1861 73.8087 17.6481L71.6391 17.6571C71.656 19.0877 71.5192 20.6925 71.7928 22.0809C71.9509 22.8856 72.9642 22.6138 73.4774 22.431C73.6907 22.7837 74.0252 23.2211 74.0107 23.6162C73.8721 23.8535 73.8758 23.8012 73.6067 23.9468C71.0186 24.4356 70.1157 23.46 70.1565 20.9198C70.1741 19.8432 70.1389 18.7334 70.1803 17.6451L68.6664 17.652C68.6802 17.2428 68.667 16.7586 68.6657 16.3436L70.164 16.3377L70.169 14.3981C70.5687 14.0978 71.1466 13.9013 71.6209 13.7099Z" fill="var(--fill-0, #FDFCFB)"/>
<path d="M85.0985 12.8864L85.2158 12.9077C85.3633 13.2675 85.2792 22.8551 85.2485 23.9646L84.6518 23.9574L83.7878 23.9634L83.7859 13.4929C84.2389 13.2309 84.6129 13.0848 85.0985 12.8864Z" fill="var(--fill-0, #FDFCFB)"/>
<path d="M90.143 4.73413C90.9969 3.1533 91.9054 3.13868 93.5022 3.5895C93.3221 4.06545 93.1251 4.53513 92.913 4.99765C92.5159 4.9541 92.1131 4.8904 91.7122 4.92127C90.0947 5.04597 90.1166 6.39406 90.1455 7.65994C90.1674 8.6362 90.1549 9.65544 90.1505 10.6306C89.887 10.683 89.86 10.7587 89.7345 10.7883C89.2338 10.9068 89.092 10.7123 88.688 11.0608C88.6259 10.1143 88.6629 8.72914 88.6598 7.76563C88.6566 6.58296 88.6196 5.07402 88.6999 3.91201C89.045 3.77262 89.3857 3.62188 89.7289 3.47773C89.9234 3.39589 89.9748 3.40242 90.1141 3.5391C90.2007 3.81863 90.1536 4.4179 90.143 4.73413Z" fill="var(--fill-0, #FDFCFB)"/>
<path d="M65.9176 16.3374L67.4121 16.3443L67.4159 21.1488C67.4165 21.8991 67.4517 23.1721 67.3808 23.8822L67.281 23.9546L65.9233 23.9614L65.9176 16.3374Z" fill="var(--fill-0, #FDFCFB)"/>
<path d="M53.2577 16.351C53.7393 16.3326 54.2598 16.3454 54.745 16.349C54.7581 18.8912 54.7542 21.4335 54.7335 23.9757L53.2584 23.9607L53.2577 16.351Z" fill="var(--fill-0, #FDFCFB)"/>
<path d="M53.6386 13.1304C54.1393 12.9328 54.7051 13.1808 54.8991 13.683C55.0932 14.1853 54.8412 14.7495 54.3378 14.94C53.8393 15.1287 53.282 14.8797 53.0899 14.3825C52.8978 13.8852 53.1428 13.3261 53.6386 13.1304Z" fill="var(--fill-0, #FDFCFB)"/>
<path d="M66.3411 13.0704C66.8048 13.0236 67.1938 13.0783 67.4793 13.4897C67.6179 13.6907 67.6707 13.9391 67.6242 14.1791C67.547 14.6044 67.3425 14.7487 67.0068 14.9775C66.5557 15.0471 66.1774 15.0004 65.9101 14.5859C65.7671 14.3599 65.72 14.0858 65.7796 13.8248C65.8593 13.4699 66.0406 13.2576 66.3411 13.0704Z" fill="var(--fill-0, #FDFCFB)"/>
<path d="M70.804 9.85269C70.8335 10.1862 70.7921 10.5345 70.9684 10.7683L70.9665 10.7146C71.2394 10.9484 71.9421 10.942 72.2433 10.8003C72.2483 10.9992 72.2734 10.9372 72.1642 11.0802C71.8072 11.1791 71.1792 11.1309 70.7833 11.1231C70.777 10.6739 70.777 10.3008 70.804 9.85269Z" fill="var(--fill-0, #FDFCFB)"/>
<path d="M90.1505 10.6306C90.1392 10.9278 90.1913 10.9198 90.0219 11.0764C89.6981 11.1798 88.932 11.1719 88.688 11.0608C89.092 10.7123 89.2338 10.9068 89.7345 10.7883C89.86 10.7587 89.887 10.683 90.1505 10.6306Z" fill="var(--fill-0, #FDFCFB)"/>
</g>
</svg>
