<svg preserveAspectRatio="none" width="100%" height="100%" overflow="visible" style="display: block;" viewBox="0 0 244 243.951" fill="none" xmlns="http://www.w3.org/2000/svg">
<g id="Pie Chart">
<path id="Vector" d="M120.408 0.00249065C122.97 -0.0126672 125.531 0.0413633 128.09 0.16455C190.516 3.05373 241.634 54.6941 243.994 117.025C244.227 123.187 237.461 122.214 233.317 122.21C228.356 122.206 223.392 122.131 218.429 122.146L204.105 122.222C200.984 122.238 193.082 123.06 191.645 119.789C190.177 116.444 190.235 111.632 189.436 107.992C186.943 96.6338 181.97 87.1125 174.68 78.1087C171.658 74.3072 168.926 71.3158 164.953 68.352C139.163 49.1093 109.066 48.0695 81.9124 65.7958C77.0518 68.969 73.0347 74.7063 68.2484 76.0558C67.2778 76.2126 65.5591 75.213 64.885 74.6844C54.2395 66.3399 44.1586 57.2638 33.6408 48.753C29.7503 45.6049 28.9218 42.3689 32.5175 38.6021C56.127 13.8684 86.4749 0.956661 120.408 0.00249065Z" fill="var(--fill-0, #1E2028)"/>
<path id="Vector_2" opacity="0.4" d="M24.5892 49.3024C27.7219 49.0443 28.5079 49.3199 30.9822 51.2552C41.1191 59.1823 51.3079 66.8979 61.3999 74.896C67.1671 79.4663 65.9269 81.5011 62.2993 87.2453C47.3407 111.201 49.8759 144.594 68.2855 166.031C71.2565 169.574 77.0168 173.619 73.6439 178.814C71.5876 181.981 68.6295 184.89 66.1149 187.751C61.7413 192.707 57.4405 197.728 53.2138 202.811C51.278 205.246 44.9034 214.166 41.5956 213.057C35.7222 211.087 29.1257 202.213 25.3342 197.339C8.9726 176.306 -0.628825 150.326 0.032036 123.553C0.134811 119.323 -0.0394472 115.176 0.275194 110.859C1.63768 92.1613 7.7726 74.1146 17.7507 58.268C19.5527 55.4058 21.897 51.3077 24.5892 49.3024Z" fill="var(--fill-0, #1E2028)"/>
<path id="Vector_3" opacity="0.2" d="M78.1093 178.442C78.631 178.413 80.1318 178.357 80.561 178.565C84.9614 180.7 88.4942 183.225 93.0605 185.226C108.28 192.05 125.43 193.235 141.443 188.57C145.908 187.24 149.415 185.865 153.588 183.861C154.817 183.271 156.855 182.894 158.09 183.579C159.109 184.085 160.109 184.72 160.759 185.701C165.587 192.998 170.028 200.601 174.437 208.156C177.276 213.125 180.975 217.973 183.409 223.133C185.165 226.856 180.561 229.619 177.964 230.989C171.197 234.561 164.093 236.902 156.858 239.275C143.893 243.528 135.555 243.528 122.425 243.902C98.5596 244.582 76.0834 238.065 55.9504 225.299C51.5251 222.632 44.1795 218.267 49.8933 212.516C55.7165 206.656 72.5916 181.312 78.1093 178.442Z" fill="var(--fill-0, #1E2028)"/>
<path id="Vector_4" opacity="0.1" d="M186.177 149.798C192.76 149.403 193.818 150.549 199.762 152.964L212.968 158.227C218.836 160.552 224.965 162.748 230.778 165.177C232.859 166.046 233.493 167.662 234.149 169.67C231.283 179.356 219.964 195.877 213.119 203.607C210.023 207.103 205.791 210.935 202.254 214.034C199.412 216.456 195.368 220.063 192.359 222.016C191.16 222.107 189.757 222.054 188.539 222.04C188.257 221.786 187.979 221.526 187.707 221.261C185.648 219.251 183.657 215.912 181.969 213.485C177.893 207.627 174.089 201.683 170.315 195.629C167.959 192.022 165.453 188.534 163.212 184.857C159.707 179.108 164.318 177.381 168.05 173.937C172.846 169.511 177.117 164.12 180.761 158.698C182.577 155.996 183.779 152 186.177 149.798Z" fill="var(--fill-0, #1E2028)"/>
<path id="Vector_5" opacity="0.05" d="M195.169 125.099C195.295 125.088 195.422 125.081 195.549 125.077C209.186 124.565 224.583 125.829 238.319 126.54C241.413 126.7 243.88 128.406 243.549 131.852C242.888 138.729 241.214 156.551 236.353 161.329C233.802 162.217 231.864 161.519 229.439 160.673C225.193 159.191 220.99 157.592 216.756 156.076L201.445 150.643C189.393 146.357 186.369 147.14 190.153 133.846C191.237 130.038 189.697 126.168 195.169 125.099Z" fill="var(--fill-0, #1E2028)"/>
</g>
</svg>
