<svg preserveAspectRatio="none" width="100%" height="100%" overflow="visible" style="display: block;" viewBox="0 0 357.795 357.795" fill="none" xmlns="http://www.w3.org/2000/svg">
<path id="Ellipse 1 (Stroke)" d="M180.427 357.788C179.918 357.793 179.408 357.795 178.898 357.795C178.387 357.795 177.878 357.793 177.368 357.788L177.523 324.999C177.981 325.003 178.439 325.005 178.898 325.005C179.356 325.005 179.815 325.003 180.272 324.999L180.427 357.788ZM158.452 323.587C159.352 323.713 160.255 323.83 161.16 323.94L159.136 340.677C158.126 340.555 157.12 340.423 156.116 340.283L158.452 323.587ZM201.68 340.283C200.676 340.423 199.669 340.555 198.66 340.677L196.636 323.94C197.541 323.83 198.444 323.713 199.343 323.587L201.68 340.283ZM139.743 319.702C140.621 319.945 141.503 320.181 142.387 320.408L138.187 336.736C137.2 336.482 136.217 336.219 135.237 335.947L139.743 319.702ZM222.559 335.947C221.579 336.219 220.595 336.482 219.608 336.736L215.408 320.408C216.293 320.181 217.174 319.945 218.052 319.702L222.559 335.947ZM121.713 313.393C122.55 313.749 123.391 314.098 124.235 314.439L117.923 330.071C116.981 329.69 116.043 329.302 115.11 328.905L121.713 313.393ZM242.686 328.905C241.752 329.302 240.814 329.69 239.872 330.071L233.561 314.439C234.405 314.098 235.246 313.749 236.082 313.393L242.686 328.905ZM104.659 304.768C105.443 305.231 106.231 305.687 107.024 306.136L98.7184 320.806C97.834 320.305 96.9545 319.797 96.0805 319.28L104.659 304.768ZM261.715 319.28C260.841 319.797 259.961 320.305 259.077 320.806L250.771 306.136C251.564 305.687 252.352 305.231 253.136 304.768L261.715 319.28ZM88.8747 293.986C89.5918 294.547 90.3143 295.103 91.042 295.651L80.8949 309.114C80.0834 308.502 79.2776 307.883 78.478 307.257L88.8747 293.986ZM279.317 307.257C278.518 307.883 277.712 308.502 276.9 309.114L266.753 295.651C267.481 295.103 268.204 294.547 268.921 293.986L279.317 307.257ZM62.1442 266.753C62.6927 267.481 63.2479 268.204 63.8097 268.921L50.5385 279.317C49.9121 278.518 49.2933 277.712 48.6816 276.9L62.1442 266.753ZM309.114 276.9C308.502 277.712 307.883 278.518 307.257 279.317L293.986 268.921C294.547 268.204 295.103 267.481 295.651 266.753L309.114 276.9ZM51.6595 250.771C52.1084 251.564 52.5646 252.352 53.0278 253.136L38.5151 261.715C37.9985 260.841 37.4904 259.961 36.9897 259.077L51.6595 250.771ZM320.806 259.077C320.305 259.961 319.797 260.841 319.28 261.715L304.768 253.136C305.231 252.352 305.687 251.564 306.136 250.771L320.806 259.077ZM43.3569 233.561C43.6976 234.405 44.0463 235.246 44.4024 236.082L28.8908 242.686C28.4935 241.752 28.1051 240.814 27.7247 239.872L43.3569 233.561ZM330.071 239.872C329.69 240.814 329.302 241.752 328.905 242.686L313.393 236.082C313.749 235.246 314.098 234.405 314.439 233.561L330.071 239.872ZM37.3872 215.408C37.6147 216.293 37.8499 217.174 38.0935 218.052L21.8484 222.559C21.5765 221.579 21.3135 220.595 21.0596 219.608L37.3872 215.408ZM336.736 219.608C336.482 220.595 336.219 221.579 335.947 222.559L319.702 218.052C319.945 217.174 320.181 216.293 320.408 215.408L336.736 219.608ZM340.677 198.66C340.555 199.669 340.424 200.676 340.283 201.68L323.587 199.343C323.713 198.444 323.83 197.541 323.94 196.636L340.677 198.66ZM33.8555 196.636C33.9649 197.541 34.0827 198.444 34.2086 199.343L17.5123 201.68C17.3718 200.676 17.2408 199.669 17.1187 198.66L33.8555 196.636ZM0 178.898C0 178.387 0.00231383 177.878 0.0070012 177.368L32.7967 177.523C32.7925 177.981 32.7905 178.439 32.7905 178.898C32.7905 179.356 32.7925 179.815 32.7967 180.272L0.0070012 180.427C0.00231422 179.918 0 179.408 0 178.898ZM325.005 178.898C325.005 178.439 325.003 177.981 324.999 177.523L357.788 177.368C357.793 177.878 357.795 178.387 357.795 178.898C357.795 179.408 357.793 179.918 357.788 180.427L324.999 180.272C325.003 179.815 325.005 179.356 325.005 178.898ZM34.2086 158.452C34.0827 159.352 33.9649 160.255 33.8555 161.16L17.1187 159.136C17.2408 158.126 17.3718 157.12 17.5123 156.116L34.2086 158.452ZM340.283 156.116C340.423 157.12 340.555 158.126 340.677 159.136L323.94 161.16C323.83 160.255 323.713 159.352 323.587 158.452L340.283 156.116ZM38.0935 139.743C37.8499 140.621 37.6147 141.503 37.3872 142.387L21.0596 138.187C21.3135 137.2 21.5773 136.217 21.8492 135.237L38.0935 139.743ZM335.947 135.237C336.219 136.217 336.482 137.2 336.736 138.187L320.408 142.387C320.181 141.503 319.945 140.621 319.702 139.743L335.947 135.237ZM44.4024 121.713C44.0463 122.55 43.6976 123.391 43.3569 124.235L27.7247 117.923C28.1051 116.981 28.4935 116.043 28.8908 115.11L44.4024 121.713ZM328.905 115.11C329.302 116.043 329.69 116.981 330.071 117.923L314.439 124.235C314.098 123.391 313.749 122.55 313.393 121.713L328.905 115.11ZM53.0278 104.659C52.5646 105.443 52.1084 106.231 51.6595 107.024L36.9897 98.7184C37.4904 97.834 37.9985 96.9545 38.5151 96.0805L53.0278 104.659ZM319.28 96.0805C319.797 96.9545 320.305 97.834 320.806 98.7184L306.136 107.024C305.687 106.231 305.231 105.443 304.768 104.659L319.28 96.0805ZM63.8097 88.8747C63.2479 89.5918 62.6927 90.3143 62.1442 91.042L48.6816 80.8949C49.2933 80.0834 49.9121 79.2776 50.5385 78.478L63.8097 88.8747ZM307.257 78.478C307.883 79.2776 308.502 80.0834 309.114 80.8949L295.651 91.042C295.103 90.3143 294.547 89.5918 293.986 88.8747L307.257 78.478ZM91.042 62.1442C90.3143 62.6927 89.5918 63.2479 88.8747 63.8097L78.478 50.5385C79.2776 49.9121 80.0834 49.2933 80.8949 48.6816L91.042 62.1442ZM276.9 48.6816C277.712 49.2933 278.518 49.9121 279.317 50.5385L268.921 63.8097C268.204 63.2479 267.481 62.6927 266.753 62.1442L276.9 48.6816ZM107.024 51.6595C106.231 52.1084 105.443 52.5646 104.659 53.0278L96.0805 38.5151C96.9545 37.9985 97.834 37.4904 98.7184 36.9897L107.024 51.6595ZM259.077 36.9897C259.961 37.4904 260.841 37.9985 261.715 38.5151L253.136 53.0278C252.352 52.5646 251.564 52.1084 250.771 51.6595L259.077 36.9897ZM124.235 43.3569C123.391 43.6976 122.55 44.0463 121.713 44.4024L115.11 28.8908C116.043 28.4935 116.981 28.1051 117.923 27.7247L124.235 43.3569ZM239.872 27.7247C240.814 28.1051 241.752 28.4935 242.686 28.8908L236.082 44.4024C235.246 44.0463 234.405 43.6976 233.561 43.3569L239.872 27.7247ZM142.387 37.3872C141.503 37.6147 140.621 37.8499 139.743 38.0935L135.237 21.8484C136.217 21.5765 137.2 21.3135 138.187 21.0596L142.387 37.3872ZM219.608 21.0596C220.595 21.3135 221.579 21.5773 222.559 21.8492L218.052 38.0935C217.174 37.8499 216.293 37.6147 215.408 37.3872L219.608 21.0596ZM161.16 33.8555C160.255 33.9649 159.352 34.0827 158.452 34.2086L156.116 17.5123C157.12 17.3718 158.126 17.2408 159.136 17.1187L161.16 33.8555ZM198.66 17.1187C199.669 17.2408 200.676 17.3718 201.68 17.5123L199.343 34.2086C198.444 34.0827 197.541 33.9649 196.636 33.8555L198.66 17.1187ZM180.427 0.0070012L180.272 32.7967C179.815 32.7925 179.356 32.7905 178.898 32.7905C178.439 32.7905 177.981 32.7925 177.523 32.7967L177.368 0.0070012C177.878 0.00231422 178.387 0 178.898 0C179.408 0 179.918 0.00231383 180.427 0.0070012Z" fill="var(--fill-0, #BEBFC2)"/>
</svg>
