<svg preserveAspectRatio="none" width="100%" height="100%" overflow="visible" style="display: block;" viewBox="0 0 188 188" fill="none" xmlns="http://www.w3.org/2000/svg">
<g id="V2">
<path id="Vector" d="M94 0C145.909 0 188 42.0813 188 93.9999C188 145.905 145.909 188 94 188C42.0911 188 0 145.918 0 93.9999C0 42.0943 42.0911 0 94 0Z" fill="var(--fill-0, #FF3200)"/>
<g id="Group">
<path id="Vector_2" d="M84.8224 60.3299C83.3724 66.6527 76.0492 85.9966 72.6693 94.8442C69.7797 102.659 62.7695 119.092 61.6011 118.695C61.5385 118.737 61.5385 118.768 61.6428 118.8C62.6651 119.04 63.8335 119.228 64.9602 119.405C71.1671 120.344 79.69 120.156 84.6138 118.695C85.1145 103.233 84.5721 76.0429 84.812 60.4134V60.3299H84.8224Z" fill="var(--fill-0, #FDFCFB)"/>
<path id="Vector_3" d="M109.104 138.058C111.234 135.121 124.98 116.26 132.282 110.153C130.109 108.167 63.1394 132.838 56.187 137.878C80.0965 134.297 101.865 137.244 109.104 138.047V138.058Z" fill="var(--fill-0, #FDFCFB)"/>
<path id="Vector_4" d="M87.1055 118.174C93.8256 110.443 97.9993 99.6112 97.9993 87.6062C97.9993 73.2232 91.9977 60.5163 82.8155 52.8377C81.4631 51.7064 80.0472 50.6797 78.5679 49.7788C79.7196 49.6846 80.8713 49.6112 82.0019 49.5589C104.529 48.5951 123.094 57.007 127.046 71.6309C131.748 88.9995 114.166 108.997 87.1055 118.174Z" fill="var(--fill-0, #FDFCFB)"/>
</g>
</g>
</svg>
