<svg preserveAspectRatio="none" width="100%" height="100%" overflow="visible" style="display: block;" viewBox="0 0 48.7869 48.7869" fill="none" xmlns="http://www.w3.org/2000/svg">
<g id="Frame 2087329407">
<rect x="0.196721" y="0.196721" width="48.3934" height="48.3934" rx="24.1967" fill="var(--fill-0, #1E2028)"/>
<rect x="0.196721" y="0.196721" width="48.3934" height="48.3934" rx="24.1967" stroke="var(--stroke-0, #E7EAF0)" stroke-width="0.393443"/>
<path id="Vector 1348" d="M25.4657 12.4431H24.4338C24.4338 19.4757 24.7868 21.8074 23.3613 21.8074L23.0007 27.828C25.4753 26.5576 26.1612 26.8379 26.1612 26.8379L25.4657 12.4431Z" fill="var(--fill-0, white)"/>
<path id="Vector 1349" d="M15.4807 17.6965L15.3825 16.6122L23.5288 18.5228C23.5288 18.5228 23.9912 20.2354 23.2946 20.2985L15.4807 17.6965Z" fill="var(--fill-0, white)"/>
<path id="Vector 1351" d="M19.6972 15.2693L19.1405 13.8359L24.7653 15.3192L24.5692 16.55L19.6972 15.2693Z" fill="var(--fill-0, white)"/>
<path id="Vector 1350" d="M32.803 21.9676L33.5085 21.2353L26.6559 19.2015L26.7583 20.9365C27.9718 21.442 32.803 21.9676 32.803 21.9676Z" fill="var(--fill-0, white)"/>
<path id="Vector 1352" d="M29.7351 17.9092L31.0202 17.0673L25.4397 15.5731L25.5167 16.7888L29.7351 17.9092Z" fill="var(--fill-0, white)"/>
<path id="Vector" d="M29.1768 34.918C36.7867 25.5369 36.7867 25.5369 36.7867 25.5369C36.0734 24.8691 20.1609 29.7467 11.8031 34.8576C11.8031 34.8576 24.1966 32.8525 29.1768 34.9145V34.918Z" fill="var(--fill-0, #FDFCFB)"/>
</g>
</svg>
