<svg preserveAspectRatio="none" width="100%" height="100%" overflow="visible" style="display: block;" viewBox="0 0 24 24" fill="none" xmlns="http://www.w3.org/2000/svg">
<g id="stash:telegram">
<path id="Vector" d="M16.4651 9.04213L15.3751 16.0211C15.3601 16.1173 15.3214 16.2083 15.2625 16.2859C15.2037 16.3635 15.1264 16.4252 15.0378 16.4655C14.9492 16.5059 14.8519 16.5236 14.7547 16.5171C14.6576 16.5105 14.5636 16.48 14.4811 16.4281L10.8311 14.1411C10.7553 14.0937 10.6912 14.0295 10.6439 13.9536C10.5966 13.8776 10.5672 13.7919 10.5581 13.7028C10.5489 13.6138 10.5602 13.5239 10.591 13.4399C10.6219 13.3559 10.6715 13.2801 10.7361 13.2181L13.7661 10.3141C13.8001 10.2821 13.7601 10.2291 13.7201 10.2531L9.32813 12.8811C9.06708 13.0381 8.75707 13.0926 8.45813 13.0341L6.86813 12.7271C6.29413 12.6161 6.21513 11.8281 6.75413 11.6051L15.2561 8.09013C15.401 8.02987 15.5593 8.00933 15.7147 8.03063C15.8701 8.05192 16.017 8.11429 16.1403 8.21129C16.2636 8.30829 16.3588 8.43641 16.4161 8.58246C16.4733 8.7285 16.4906 8.88718 16.4661 9.04213" fill="var(--fill-0, #FDFCFB)"/>
<path id="Vector_2" fill-rule="evenodd" clip-rule="evenodd" d="M11.9971 1.90137C6.31212 1.90137 1.70312 6.51037 1.70312 12.1954C1.70312 17.8804 6.31212 22.4894 11.9971 22.4894C17.6821 22.4894 22.2911 17.8804 22.2911 12.1954C22.2911 6.51037 17.6821 1.90137 11.9971 1.90137ZM3.46713 12.1954C3.46713 11.0752 3.68776 9.96598 4.11643 8.93108C4.54511 7.89617 5.17342 6.95583 5.9655 6.16375C6.75759 5.37166 7.69793 4.74335 8.73284 4.31467C9.76774 3.886 10.8769 3.66537 11.9971 3.66537C13.1173 3.66537 14.2265 3.886 15.2614 4.31467C16.2963 4.74335 17.2367 5.37166 18.0287 6.16375C18.8208 6.95583 19.4491 7.89617 19.8778 8.93108C20.3065 9.96598 20.5271 11.0752 20.5271 12.1954C20.5271 14.4577 19.6284 16.6273 18.0287 18.227C16.4291 19.8267 14.2594 20.7254 11.9971 20.7254C9.73483 20.7254 7.56519 19.8267 5.9655 18.227C4.36582 16.6273 3.46713 14.4577 3.46713 12.1954Z" fill="var(--fill-0, #FDFCFB)"/>
</g>
</svg>
