<svg preserveAspectRatio="none" width="100%" height="100%" overflow="visible" style="display: block;" viewBox="0 0 20.3279 20.3279" fill="none" xmlns="http://www.w3.org/2000/svg">
<g id="Frame 2087329407">
<rect x="0.0819672" y="0.0819672" width="20.1639" height="20.1639" rx="10.082" fill="var(--fill-0, #1E2028)"/>
<rect x="0.0819672" y="0.0819672" width="20.1639" height="20.1639" rx="10.082" stroke="var(--stroke-0, #E7EAF0)" stroke-width="0.163934"/>
<path id="Vector 1348" d="M10.6106 5.18448H10.1806C10.1806 8.11473 10.3277 9.08628 9.7337 9.08628L9.58349 11.5949C10.6146 11.0655 10.9004 11.1823 10.9004 11.1823L10.6106 5.18448Z" fill="var(--fill-0, white)"/>
<path id="Vector 1349" d="M6.45039 7.37356L6.40946 6.92175L9.80378 7.71785C9.80378 7.71785 9.99643 8.43141 9.70618 8.45771L6.45039 7.37356Z" fill="var(--fill-0, white)"/>
<path id="Vector 1351" d="M8.20757 6.36236L7.97562 5.76513L10.3193 6.38316L10.2376 6.89598L8.20757 6.36236Z" fill="var(--fill-0, white)"/>
<path id="Vector 1350" d="M13.6678 9.15321L13.9618 8.84807L11.1065 8.00064L11.1492 8.72358C11.6548 8.93421 13.6678 9.15321 13.6678 9.15321Z" fill="var(--fill-0, white)"/>
<path id="Vector 1352" d="M12.3897 7.46219L12.9252 7.11138L10.5999 6.4888L10.632 6.99538L12.3897 7.46219Z" fill="var(--fill-0, white)"/>
<path id="Vector" d="M12.1568 14.5492C15.3276 10.6404 15.3276 10.6404 15.3276 10.6404C15.0304 10.3622 8.40019 12.3945 4.91776 14.524C4.91776 14.524 10.0817 13.6886 12.1568 14.5477V14.5492Z" fill="var(--fill-0, #FDFCFB)"/>
</g>
</svg>
