<svg width="117" height="32" viewBox="0 0 117 32" fill="none" xmlns="http://www.w3.org/2000/svg">
<path d="M9.31348 23.1501C9.31348 22.72 9.31348 22.505 9.36343 22.367C9.46161 22.096 9.64088 21.9283 9.91792 21.8485C10.0589 21.8079 10.287 21.8232 10.7432 21.8538C11.7659 21.9224 13.4265 21.99 16 21.99C18.5736 21.99 20.2342 21.9224 21.2569 21.8538C21.7131 21.8232 21.9412 21.8079 22.0822 21.8485C22.3592 21.9283 22.5385 22.096 22.6367 22.367C22.6866 22.505 22.6866 22.72 22.6866 23.1501C22.6866 23.3699 22.6866 23.4798 22.6454 23.6062C22.5786 23.8108 22.3745 24.033 22.1762 24.1168C22.0538 24.1686 21.9574 24.1767 21.7646 24.1931C20.8556 24.2702 19.132 24.3582 16 24.3582C12.8681 24.3582 11.1445 24.2702 10.2354 24.1931C10.0427 24.1767 9.94626 24.1686 9.82387 24.1168C9.6256 24.033 9.42144 23.8108 9.35469 23.6062C9.31348 23.4798 9.31348 23.3699 9.31348 23.1501Z" fill="#F47000"/>
<path d="M7.6416 18.3563C7.6416 17.9274 7.6416 17.7129 7.72904 17.5371C7.80388 17.3866 7.93317 17.2531 8.08115 17.1734C8.25405 17.0803 8.46279 17.0735 8.88027 17.0599C10.084 17.0209 12.2866 16.9751 15.9998 16.9751C19.713 16.9751 21.9156 17.0209 23.1194 17.0599C23.5368 17.0735 23.7456 17.0803 23.9185 17.1734C24.0664 17.2531 24.1957 17.3866 24.2706 17.5371C24.358 17.7129 24.358 17.9274 24.358 18.3563V18.4611C24.358 18.7939 24.358 18.9603 24.2788 19.129C24.2167 19.2614 24.0816 19.4118 23.9567 19.4878C23.7974 19.5848 23.6477 19.6009 23.3484 19.6333C22.241 19.753 20.0542 19.9005 15.9998 19.9005C11.9454 19.9005 9.75864 19.753 8.65123 19.6333C8.35189 19.6009 8.20222 19.5848 8.04295 19.4878C7.91805 19.4118 7.78297 19.2614 7.72083 19.129C7.6416 18.9603 7.6416 18.7939 7.6416 18.4611V18.3563Z" fill="#F47000"/>
<path d="M7.6416 13.4971C7.6416 13.1882 7.6416 13.0337 7.72052 12.8652C7.78063 12.7369 7.92056 12.5805 8.04148 12.5066C8.20022 12.4096 8.33619 12.3945 8.60813 12.3642C9.68246 12.2449 11.845 12.0991 15.9998 12.0991C20.1546 12.0991 22.3172 12.2449 23.3915 12.3643C23.6634 12.3945 23.7994 12.4096 23.9581 12.5066C24.0791 12.5805 24.219 12.7369 24.2791 12.8652C24.358 13.0337 24.358 13.1882 24.358 13.4971V13.6813C24.358 14.0885 24.358 14.2922 24.2707 14.4679C24.1974 14.6153 24.0637 14.7535 23.9189 14.8316C23.7461 14.9248 23.55 14.9313 23.1579 14.9443C22.0151 14.9823 19.8732 15.0245 15.9998 15.0245C12.1264 15.0245 9.98455 14.9823 8.84168 14.9443C8.44957 14.9313 8.25352 14.9248 8.08076 14.8316C7.93593 14.7535 7.8022 14.6153 7.72896 14.4679C7.6416 14.2922 7.6416 14.0885 7.6416 13.6813V13.4971Z" fill="#F47000"/>
<path d="M9.31348 8.83864C9.31348 8.62987 9.31348 8.52549 9.35145 8.40384C9.41754 8.19215 9.62797 7.963 9.83328 7.87915C9.95125 7.83096 10.0422 7.8232 10.2241 7.80768C11.1301 7.73036 12.855 7.6416 16 7.6416C19.1451 7.6416 20.87 7.73036 21.776 7.80768C21.9579 7.8232 22.0488 7.83096 22.1668 7.87915C22.3721 7.963 22.5825 8.19215 22.6486 8.40384C22.6866 8.52549 22.6866 8.62987 22.6866 8.83864C22.6866 9.26942 22.6866 9.48481 22.6406 9.61771C22.5422 9.90177 22.3614 10.071 22.0715 10.1503C21.9358 10.1875 21.7062 10.1722 21.2469 10.1418C20.235 10.0746 18.5878 10.0098 16 10.0098C13.4123 10.0098 11.7651 10.0746 10.7532 10.1418C10.2939 10.1722 10.0643 10.1875 9.92862 10.1503C9.63868 10.071 9.4579 9.90177 9.35951 9.61771C9.31348 9.48481 9.31348 9.26942 9.31348 8.83864Z" fill="#F47000"/>
<path d="M30.568 24.6416L30.423 23.6988C31.2771 23.5538 31.7928 23.3927 31.9701 23.2154C32.1635 23.0381 32.2602 22.6997 32.2602 22.2001V10.3311C32.2602 9.8315 32.1635 9.49308 31.9701 9.31581C31.7928 9.13854 31.2771 8.97738 30.423 8.83234L30.568 7.88959H36.4905L36.5872 8.83234L35.0884 9.12242C34.7661 9.18688 34.605 9.39638 34.605 9.75092V15.2866H42.6546V10.3311C42.6546 9.8315 42.5579 9.49308 42.3645 9.31581C42.1873 9.13854 41.6716 8.97738 40.8175 8.83234L40.9625 7.88959H46.8849L46.9816 8.83234L45.4829 9.12242C45.1606 9.18688 44.9994 9.39638 44.9994 9.75092V22.7803C44.9994 23.1348 45.1606 23.3443 45.4829 23.4088L46.9816 23.6988L46.8849 24.6416H40.9625L40.8175 23.6988C41.6716 23.5538 42.1873 23.3927 42.3645 23.2154C42.5579 23.0381 42.6546 22.6997 42.6546 22.2001V16.737H34.605V22.7803C34.605 23.1348 34.7661 23.3443 35.0884 23.4088L36.5872 23.6988L36.4905 24.6416H30.568ZM52.7494 24.8592C51.0089 24.8592 49.6713 24.3435 48.7366 23.3121C47.8019 22.2807 47.3346 20.8384 47.3346 18.9851C47.3346 17.1318 47.8261 15.6492 48.8092 14.5372C49.8083 13.4091 51.1781 12.8451 52.9186 12.8451C54.6752 12.8451 56.0208 13.3688 56.9555 14.4163C57.8902 15.4477 58.3576 16.8901 58.3576 18.7433C58.3576 20.5966 57.858 22.0792 56.8588 23.1912C55.8758 24.3032 54.506 24.8592 52.7494 24.8592ZM49.6794 18.6708C49.6794 20.1051 49.9695 21.2815 50.5496 22.2001C51.1298 23.1187 51.9194 23.578 52.9186 23.578C53.9178 23.578 54.6268 23.3362 55.0458 22.8528C55.3359 22.5305 55.5696 22.0228 55.7469 21.3299C55.9241 20.6208 56.0128 19.8553 56.0128 19.0334C56.0128 17.5991 55.7227 16.4227 55.1425 15.5041C54.5624 14.5856 53.7727 14.1263 52.7736 14.1263C51.7744 14.1263 51.0653 14.368 50.6463 14.8515C50.3562 15.1738 50.1226 15.6895 49.9453 16.3985C49.768 17.0915 49.6794 17.8489 49.6794 18.6708ZM59.1681 24.6416L59.0231 23.6988C59.8127 23.5377 60.2881 23.3765 60.4493 23.2154C60.6266 23.0381 60.7152 22.74 60.7152 22.321V15.3591C60.7152 14.9401 60.6104 14.65 60.4009 14.4889C60.2076 14.3116 59.6999 14.1424 58.878 13.9812L59.0231 13.2077L62.1414 12.8934C62.2542 12.8934 62.367 13.1191 62.4798 13.5703C62.6088 14.0215 62.6732 14.4163 62.6732 14.7548V14.8998L62.8666 14.9723L63.1567 14.6339C64.172 13.4414 65.4129 12.8451 66.8794 12.8451C67.9107 12.8451 68.7246 13.1593 69.3208 13.7878C69.9171 14.4002 70.2153 15.2624 70.2153 16.3744V22.9011C70.2153 23.0945 70.2555 23.2234 70.3361 23.2879C70.4328 23.3362 70.5537 23.3765 70.6987 23.4088L71.8832 23.6988L71.7865 24.6416H66.6135L66.4684 23.6988C67.1936 23.5538 67.6368 23.3927 67.7979 23.2154C67.9591 23.0381 68.0397 22.74 68.0397 22.321V17.0996C68.0397 16.3421 67.9027 15.7378 67.6287 15.2866C67.3548 14.8192 66.8149 14.5856 66.0091 14.5856C65.2195 14.5856 64.3573 14.8998 63.4226 15.5283C63.2776 15.625 63.1728 15.6975 63.1083 15.7459C62.9633 15.907 62.8908 16.2052 62.8908 16.6403V22.877C62.8908 23.0542 62.915 23.1751 62.9633 23.2396C63.0278 23.304 63.1647 23.3604 63.3742 23.4088L64.4379 23.6988L64.3412 24.6416H59.1681ZM77.4117 24.8592C75.784 24.8592 74.519 24.3032 73.6165 23.1912C72.7302 22.0792 72.287 20.6772 72.287 18.9851C72.287 17.2768 72.8027 15.8264 73.8341 14.6339C74.8654 13.4414 76.2272 12.8451 77.9193 12.8451C80.659 12.8451 82.0932 14.5292 82.2222 17.8973L81.5937 18.3566L74.5834 18.7433C74.5834 21.7247 75.8565 23.2154 78.4028 23.2154C79.5148 23.2154 80.6025 22.9414 81.6662 22.3935L82.1738 23.1912C81.642 23.6263 80.949 24.0131 80.0949 24.3515C79.2408 24.6899 78.3464 24.8592 77.4117 24.8592ZM74.6559 17.6314L79.6598 17.1963C79.8209 17.1801 79.9015 17.0271 79.9015 16.737C79.9015 16.0279 79.7081 15.4155 79.3214 14.8998C78.9507 14.3841 78.3142 14.1263 77.4117 14.1263C76.5092 14.1263 75.8485 14.4325 75.4295 15.0448C75.0266 15.6411 74.7688 16.5033 74.6559 17.6314ZM83.3471 27.4699C83.7339 27.5182 84.2657 27.5424 84.9426 27.5424C85.6355 27.5424 86.1835 27.4537 86.5864 27.2765C86.9892 27.1153 87.4727 26.237 88.0367 24.6416L84.024 15.0207C83.8951 14.7145 83.7742 14.5211 83.6614 14.4405C83.5647 14.3599 83.2585 14.2633 82.7428 14.1504L82.8879 13.2077H87.8675L87.9642 14.1504L86.4897 14.513C86.3769 14.5292 86.3204 14.5936 86.3204 14.7064C86.3204 14.7225 86.3527 14.8273 86.4171 15.0207L88.8828 21.4749C88.9634 21.7005 89.0037 21.9503 89.0037 22.2243H89.1971L91.7594 15.5767C91.8561 15.3188 91.9045 15.1093 91.9045 14.9482C91.9045 14.7709 91.7836 14.6258 91.5419 14.513C91.3162 14.4002 90.9053 14.2794 90.309 14.1504L90.4541 13.2077H94.7569L94.8536 14.1504C94.1445 14.3116 93.7658 14.4486 93.7174 14.5614L89.8981 24.0373C89.5758 24.843 89.3179 25.4554 89.1245 25.8744C88.9312 26.3096 88.6652 26.793 88.3268 27.3248C87.9884 27.8566 87.6339 28.2676 87.2632 28.5577C86.3446 29.2506 85.2327 29.7099 83.9273 29.9355C83.5083 29.5165 83.2988 28.8558 83.2988 27.9533C83.2988 27.8566 83.3149 27.6955 83.3471 27.4699ZM101.018 24.6416H94.08V23.6988C95.1598 23.5377 95.7802 23.2879 95.9414 22.9495C96.022 22.8206 96.0945 22.5708 96.1589 22.2001L98.1895 10.3311C98.2378 10.1055 98.262 9.89596 98.262 9.70258C98.262 9.49308 98.1492 9.33192 97.9236 9.21911C97.7141 9.09019 97.279 8.96127 96.6182 8.83234L96.7633 7.88959H103.411C104.894 7.88959 106.046 8.21996 106.868 8.88069C107.706 9.54142 108.125 10.4197 108.125 11.5156C108.125 12.5953 107.762 13.5381 107.037 14.3438C106.312 15.1335 105.562 15.6492 104.789 15.8909V16.0601C105.707 16.3019 106.433 16.737 106.964 17.3655C107.496 17.9779 107.762 18.7756 107.762 19.7586C107.762 21.0156 107.287 22.1195 106.336 23.0703C105.836 23.5538 105.127 23.9406 104.209 24.2307C103.306 24.5046 102.243 24.6416 101.018 24.6416ZM99.6399 15.2382H101.477C102.734 15.2382 103.709 14.9562 104.402 14.3922C105.111 13.8281 105.466 12.9821 105.466 11.854C105.466 10.0652 104.426 9.17077 102.347 9.17077H100.655L99.6399 15.2382ZM101.767 16.5919H99.4223L98.5037 22.2968C98.4554 22.5547 98.4393 22.748 98.4554 22.877C98.4715 22.9898 98.5521 23.0784 98.6971 23.1429C99.0839 23.3362 99.7124 23.4329 100.583 23.4329C103.596 23.4329 105.103 22.2243 105.103 19.807C105.103 18.5016 104.716 17.6233 103.943 17.1721C103.282 16.7853 102.557 16.5919 101.767 16.5919Z" fill="#F47000"/>
</svg>
