<svg width="143" height="143" viewBox="0 0 143 143" fill="none" xmlns="http://www.w3.org/2000/svg">
<path d="M41.7285 102.268C41.7285 100.319 41.7285 99.3437 42.014 98.663C42.4232 97.6874 43.1224 97.0153 44.1134 96.6451C44.8049 96.3867 45.8146 96.4267 47.8341 96.5067C52.3082 96.6839 59.6389 96.8607 71.0792 96.8607C82.5195 96.8607 89.8503 96.6839 94.3244 96.5067C96.3438 96.4267 97.3535 96.3867 98.045 96.6451C99.036 97.0153 99.7352 97.6874 100.144 98.663C100.43 99.3437 100.43 100.319 100.43 102.268C100.43 103.431 100.43 104.012 100.186 104.647C99.888 105.422 99.1027 106.275 98.3556 106.635C97.7424 106.931 97.2259 106.974 96.1929 107.06C92.1544 107.394 84.6117 107.768 71.0792 107.768C57.5467 107.768 50.004 107.394 45.9655 107.06C44.9325 106.974 44.416 106.931 43.8028 106.635C43.0557 106.275 42.2704 105.422 41.9728 104.647C41.7285 104.012 41.7285 103.431 41.7285 102.268Z" fill="#F47000"/>
<path d="M41.7285 102.268C41.7285 100.319 41.7285 99.3437 42.014 98.663C42.4232 97.6874 43.1224 97.0153 44.1134 96.6451C44.8049 96.3867 45.8146 96.4267 47.8341 96.5067C52.3082 96.6839 59.6389 96.8607 71.0792 96.8607C82.5195 96.8607 89.8503 96.6839 94.3244 96.5067C96.3438 96.4267 97.3535 96.3867 98.045 96.6451C99.036 97.0153 99.7352 97.6874 100.144 98.663C100.43 99.3437 100.43 100.319 100.43 102.268C100.43 103.431 100.43 104.012 100.186 104.647C99.888 105.422 99.1027 106.275 98.3556 106.635C97.7424 106.931 97.2259 106.974 96.1929 107.06C92.1544 107.394 84.6117 107.768 71.0792 107.768C57.5467 107.768 50.004 107.394 45.9655 107.06C44.9325 106.974 44.416 106.931 43.8028 106.635C43.0557 106.275 42.2704 105.422 41.9728 104.647C41.7285 104.012 41.7285 103.431 41.7285 102.268Z" fill="url(#paint0_radial_3154_20903)" fill-opacity="0.66"/>
<path d="M41.7285 102.268C41.7285 100.319 41.7285 99.3437 42.014 98.663C42.4232 97.6874 43.1224 97.0153 44.1134 96.6451C44.8049 96.3867 45.8146 96.4267 47.8341 96.5067C52.3082 96.6839 59.6389 96.8607 71.0792 96.8607C82.5195 96.8607 89.8503 96.6839 94.3244 96.5067C96.3438 96.4267 97.3535 96.3867 98.045 96.6451C99.036 97.0153 99.7352 97.6874 100.144 98.663C100.43 99.3437 100.43 100.319 100.43 102.268C100.43 103.431 100.43 104.012 100.186 104.647C99.888 105.422 99.1027 106.275 98.3556 106.635C97.7424 106.931 97.2259 106.974 96.1929 107.06C92.1544 107.394 84.6117 107.768 71.0792 107.768C57.5467 107.768 50.004 107.394 45.9655 107.06C44.9325 106.974 44.416 106.931 43.8028 106.635C43.0557 106.275 42.2704 105.422 41.9728 104.647C41.7285 104.012 41.7285 103.431 41.7285 102.268Z" fill="url(#paint1_linear_3154_20903)" fill-opacity="0.5"/>
<path d="M41.7285 102.268C41.7285 100.319 41.7285 99.3437 42.014 98.663C42.4232 97.6874 43.1224 97.0153 44.1134 96.6451C44.8049 96.3867 45.8146 96.4267 47.8341 96.5067C52.3082 96.6839 59.6389 96.8607 71.0792 96.8607C82.5195 96.8607 89.8503 96.6839 94.3244 96.5067C96.3438 96.4267 97.3535 96.3867 98.045 96.6451C99.036 97.0153 99.7352 97.6874 100.144 98.663C100.43 99.3437 100.43 100.319 100.43 102.268C100.43 103.431 100.43 104.012 100.186 104.647C99.888 105.422 99.1027 106.275 98.3556 106.635C97.7424 106.931 97.2259 106.974 96.1929 107.06C92.1544 107.394 84.6117 107.768 71.0792 107.768C57.5467 107.768 50.004 107.394 45.9655 107.06C44.9325 106.974 44.416 106.931 43.8028 106.635C43.0557 106.275 42.2704 105.422 41.9728 104.647C41.7285 104.012 41.7285 103.431 41.7285 102.268Z" fill="url(#paint2_linear_3154_20903)" fill-opacity="0.2"/>
<path d="M41.7285 102.268C41.7285 100.319 41.7285 99.3437 42.014 98.663C42.4232 97.6874 43.1224 97.0153 44.1134 96.6451C44.8049 96.3867 45.8146 96.4267 47.8341 96.5067C52.3082 96.6839 59.6389 96.8607 71.0792 96.8607C82.5195 96.8607 89.8503 96.6839 94.3244 96.5067C96.3438 96.4267 97.3535 96.3867 98.045 96.6451C99.036 97.0153 99.7352 97.6874 100.144 98.663C100.43 99.3437 100.43 100.319 100.43 102.268C100.43 103.431 100.43 104.012 100.186 104.647C99.888 105.422 99.1027 106.275 98.3556 106.635C97.7424 106.931 97.2259 106.974 96.1929 107.06C92.1544 107.394 84.6117 107.768 71.0792 107.768C57.5467 107.768 50.004 107.394 45.9655 107.06C44.9325 106.974 44.416 106.931 43.8028 106.635C43.0557 106.275 42.2704 105.422 41.9728 104.647C41.7285 104.012 41.7285 103.431 41.7285 102.268Z" fill="url(#paint3_linear_3154_20903)" fill-opacity="0.2"/>
<path d="M41.7285 102.268C41.7285 100.319 41.7285 99.3437 42.014 98.663C42.4232 97.6874 43.1224 97.0153 44.1134 96.6451C44.8049 96.3867 45.8146 96.4267 47.8341 96.5067C52.3082 96.6839 59.6389 96.8607 71.0792 96.8607C82.5195 96.8607 89.8503 96.6839 94.3244 96.5067C96.3438 96.4267 97.3535 96.3867 98.045 96.6451C99.036 97.0153 99.7352 97.6874 100.144 98.663C100.43 99.3437 100.43 100.319 100.43 102.268C100.43 103.431 100.43 104.012 100.186 104.647C99.888 105.422 99.1027 106.275 98.3556 106.635C97.7424 106.931 97.2259 106.974 96.1929 107.06C92.1544 107.394 84.6117 107.768 71.0792 107.768C57.5467 107.768 50.004 107.394 45.9655 107.06C44.9325 106.974 44.416 106.931 43.8028 106.635C43.0557 106.275 42.2704 105.422 41.9728 104.647C41.7285 104.012 41.7285 103.431 41.7285 102.268Z" fill="url(#paint4_linear_3154_20903)" fill-opacity="0.2"/>
<path d="M41.7285 102.268C41.7285 100.319 41.7285 99.3437 42.014 98.663C42.4232 97.6874 43.1224 97.0153 44.1134 96.6451C44.8049 96.3867 45.8146 96.4267 47.8341 96.5067C52.3082 96.6839 59.6389 96.8607 71.0792 96.8607C82.5195 96.8607 89.8503 96.6839 94.3244 96.5067C96.3438 96.4267 97.3535 96.3867 98.045 96.6451C99.036 97.0153 99.7352 97.6874 100.144 98.663C100.43 99.3437 100.43 100.319 100.43 102.268C100.43 103.431 100.43 104.012 100.186 104.647C99.888 105.422 99.1027 106.275 98.3556 106.635C97.7424 106.931 97.2259 106.974 96.1929 107.06C92.1544 107.394 84.6117 107.768 71.0792 107.768C57.5467 107.768 50.004 107.394 45.9655 107.06C44.9325 106.974 44.416 106.931 43.8028 106.635C43.0557 106.275 42.2704 105.422 41.9728 104.647C41.7285 104.012 41.7285 103.431 41.7285 102.268Z" fill="url(#paint5_linear_3154_20903)" fill-opacity="0.2"/>
<path d="M41.7285 102.268C41.7285 100.319 41.7285 99.3437 42.014 98.663C42.4232 97.6874 43.1224 97.0153 44.1134 96.6451C44.8049 96.3867 45.8146 96.4267 47.8341 96.5067C52.3082 96.6839 59.6389 96.8607 71.0792 96.8607C82.5195 96.8607 89.8503 96.6839 94.3244 96.5067C96.3438 96.4267 97.3535 96.3867 98.045 96.6451C99.036 97.0153 99.7352 97.6874 100.144 98.663C100.43 99.3437 100.43 100.319 100.43 102.268C100.43 103.431 100.43 104.012 100.186 104.647C99.888 105.422 99.1027 106.275 98.3556 106.635C97.7424 106.931 97.2259 106.974 96.1929 107.06C92.1544 107.394 84.6117 107.768 71.0792 107.768C57.5467 107.768 50.004 107.394 45.9655 107.06C44.9325 106.974 44.416 106.931 43.8028 106.635C43.0557 106.275 42.2704 105.422 41.9728 104.647C41.7285 104.012 41.7285 103.431 41.7285 102.268Z" fill="url(#paint6_radial_3154_20903)" fill-opacity="0.2"/>
<path d="M41.7285 102.268C41.7285 100.319 41.7285 99.3437 42.014 98.663C42.4232 97.6874 43.1224 97.0153 44.1134 96.6451C44.8049 96.3867 45.8146 96.4267 47.8341 96.5067C52.3082 96.6839 59.6389 96.8607 71.0792 96.8607C82.5195 96.8607 89.8503 96.6839 94.3244 96.5067C96.3438 96.4267 97.3535 96.3867 98.045 96.6451C99.036 97.0153 99.7352 97.6874 100.144 98.663C100.43 99.3437 100.43 100.319 100.43 102.268C100.43 103.431 100.43 104.012 100.186 104.647C99.888 105.422 99.1027 106.275 98.3556 106.635C97.7424 106.931 97.2259 106.974 96.1929 107.06C92.1544 107.394 84.6117 107.768 71.0792 107.768C57.5467 107.768 50.004 107.394 45.9655 107.06C44.9325 106.974 44.416 106.931 43.8028 106.635C43.0557 106.275 42.2704 105.422 41.9728 104.647C41.7285 104.012 41.7285 103.431 41.7285 102.268Z" fill="url(#paint7_linear_3154_20903)"/>
<path d="M34.3877 81.4213C34.3877 79.5385 34.3877 78.597 34.7715 77.8253C35.1 77.1647 35.6675 76.5785 36.3171 76.2287C37.076 75.82 37.9923 75.7903 39.8248 75.7308C45.1086 75.5593 54.777 75.3584 71.0761 75.3584C87.3751 75.3584 97.0435 75.5593 102.327 75.7308C104.16 75.7903 105.076 75.82 105.835 76.2287C106.485 76.5785 107.052 77.1647 107.381 77.8253C107.764 78.597 107.764 79.5385 107.764 81.4213V82.196C107.764 83.5285 107.764 84.1948 107.433 84.9209C107.18 85.4733 106.589 86.1551 106.079 86.4833C105.407 86.9148 104.833 86.9971 103.686 87.1618C98.9428 87.8423 89.3141 88.712 71.0761 88.712C52.838 88.712 43.2094 87.8423 38.4665 87.1618C37.319 86.9971 36.7452 86.9148 36.0736 86.4833C35.5627 86.1551 34.9717 85.4733 34.7194 84.9209C34.3877 84.1948 34.3877 83.5285 34.3877 82.196V81.4213Z" fill="#F47000"/>
<path d="M34.3877 81.4213C34.3877 79.5385 34.3877 78.597 34.7715 77.8253C35.1 77.1647 35.6675 76.5785 36.3171 76.2287C37.076 75.82 37.9923 75.7903 39.8248 75.7308C45.1086 75.5593 54.777 75.3584 71.0761 75.3584C87.3751 75.3584 97.0435 75.5593 102.327 75.7308C104.16 75.7903 105.076 75.82 105.835 76.2287C106.485 76.5785 107.052 77.1647 107.381 77.8253C107.764 78.597 107.764 79.5385 107.764 81.4213V82.196C107.764 83.5285 107.764 84.1948 107.433 84.9209C107.18 85.4733 106.589 86.1551 106.079 86.4833C105.407 86.9148 104.833 86.9971 103.686 87.1618C98.9428 87.8423 89.3141 88.712 71.0761 88.712C52.838 88.712 43.2094 87.8423 38.4665 87.1618C37.319 86.9971 36.7452 86.9148 36.0736 86.4833C35.5627 86.1551 34.9717 85.4733 34.7194 84.9209C34.3877 84.1948 34.3877 83.5285 34.3877 82.196V81.4213Z" fill="url(#paint8_radial_3154_20903)" fill-opacity="0.33"/>
<path d="M34.3877 81.4213C34.3877 79.5385 34.3877 78.597 34.7715 77.8253C35.1 77.1647 35.6675 76.5785 36.3171 76.2287C37.076 75.82 37.9923 75.7903 39.8248 75.7308C45.1086 75.5593 54.777 75.3584 71.0761 75.3584C87.3751 75.3584 97.0435 75.5593 102.327 75.7308C104.16 75.7903 105.076 75.82 105.835 76.2287C106.485 76.5785 107.052 77.1647 107.381 77.8253C107.764 78.597 107.764 79.5385 107.764 81.4213V82.196C107.764 83.5285 107.764 84.1948 107.433 84.9209C107.18 85.4733 106.589 86.1551 106.079 86.4833C105.407 86.9148 104.833 86.9971 103.686 87.1618C98.9428 87.8423 89.3141 88.712 71.0761 88.712C52.838 88.712 43.2094 87.8423 38.4665 87.1618C37.319 86.9971 36.7452 86.9148 36.0736 86.4833C35.5627 86.1551 34.9717 85.4733 34.7194 84.9209C34.3877 84.1948 34.3877 83.5285 34.3877 82.196V81.4213Z" fill="url(#paint9_linear_3154_20903)" fill-opacity="0.55"/>
<path d="M34.3877 81.4213C34.3877 79.5385 34.3877 78.597 34.7715 77.8253C35.1 77.1647 35.6675 76.5785 36.3171 76.2287C37.076 75.82 37.9923 75.7903 39.8248 75.7308C45.1086 75.5593 54.777 75.3584 71.0761 75.3584C87.3751 75.3584 97.0435 75.5593 102.327 75.7308C104.16 75.7903 105.076 75.82 105.835 76.2287C106.485 76.5785 107.052 77.1647 107.381 77.8253C107.764 78.597 107.764 79.5385 107.764 81.4213V82.196C107.764 83.5285 107.764 84.1948 107.433 84.9209C107.18 85.4733 106.589 86.1551 106.079 86.4833C105.407 86.9148 104.833 86.9971 103.686 87.1618C98.9428 87.8423 89.3141 88.712 71.0761 88.712C52.838 88.712 43.2094 87.8423 38.4665 87.1618C37.319 86.9971 36.7452 86.9148 36.0736 86.4833C35.5627 86.1551 34.9717 85.4733 34.7194 84.9209C34.3877 84.1948 34.3877 83.5285 34.3877 82.196V81.4213Z" fill="url(#paint10_linear_3154_20903)" fill-opacity="0.2"/>
<path d="M34.3877 81.4213C34.3877 79.5385 34.3877 78.597 34.7715 77.8253C35.1 77.1647 35.6675 76.5785 36.3171 76.2287C37.076 75.82 37.9923 75.7903 39.8248 75.7308C45.1086 75.5593 54.777 75.3584 71.0761 75.3584C87.3751 75.3584 97.0435 75.5593 102.327 75.7308C104.16 75.7903 105.076 75.82 105.835 76.2287C106.485 76.5785 107.052 77.1647 107.381 77.8253C107.764 78.597 107.764 79.5385 107.764 81.4213V82.196C107.764 83.5285 107.764 84.1948 107.433 84.9209C107.18 85.4733 106.589 86.1551 106.079 86.4833C105.407 86.9148 104.833 86.9971 103.686 87.1618C98.9428 87.8423 89.3141 88.712 71.0761 88.712C52.838 88.712 43.2094 87.8423 38.4665 87.1618C37.319 86.9971 36.7452 86.9148 36.0736 86.4833C35.5627 86.1551 34.9717 85.4733 34.7194 84.9209C34.3877 84.1948 34.3877 83.5285 34.3877 82.196V81.4213Z" fill="url(#paint11_linear_3154_20903)" fill-opacity="0.2"/>
<path d="M34.3877 81.4213C34.3877 79.5385 34.3877 78.597 34.7715 77.8253C35.1 77.1647 35.6675 76.5785 36.3171 76.2287C37.076 75.82 37.9923 75.7903 39.8248 75.7308C45.1086 75.5593 54.777 75.3584 71.0761 75.3584C87.3751 75.3584 97.0435 75.5593 102.327 75.7308C104.16 75.7903 105.076 75.82 105.835 76.2287C106.485 76.5785 107.052 77.1647 107.381 77.8253C107.764 78.597 107.764 79.5385 107.764 81.4213V82.196C107.764 83.5285 107.764 84.1948 107.433 84.9209C107.18 85.4733 106.589 86.1551 106.079 86.4833C105.407 86.9148 104.833 86.9971 103.686 87.1618C98.9428 87.8423 89.3141 88.712 71.0761 88.712C52.838 88.712 43.2094 87.8423 38.4665 87.1618C37.319 86.9971 36.7452 86.9148 36.0736 86.4833C35.5627 86.1551 34.9717 85.4733 34.7194 84.9209C34.3877 84.1948 34.3877 83.5285 34.3877 82.196V81.4213Z" fill="url(#paint12_linear_3154_20903)" fill-opacity="0.2"/>
<path d="M34.3877 81.4213C34.3877 79.5385 34.3877 78.597 34.7715 77.8253C35.1 77.1647 35.6675 76.5785 36.3171 76.2287C37.076 75.82 37.9923 75.7903 39.8248 75.7308C45.1086 75.5593 54.777 75.3584 71.0761 75.3584C87.3751 75.3584 97.0435 75.5593 102.327 75.7308C104.16 75.7903 105.076 75.82 105.835 76.2287C106.485 76.5785 107.052 77.1647 107.381 77.8253C107.764 78.597 107.764 79.5385 107.764 81.4213V82.196C107.764 83.5285 107.764 84.1948 107.433 84.9209C107.18 85.4733 106.589 86.1551 106.079 86.4833C105.407 86.9148 104.833 86.9971 103.686 87.1618C98.9428 87.8423 89.3141 88.712 71.0761 88.712C52.838 88.712 43.2094 87.8423 38.4665 87.1618C37.319 86.9971 36.7452 86.9148 36.0736 86.4833C35.5627 86.1551 34.9717 85.4733 34.7194 84.9209C34.3877 84.1948 34.3877 83.5285 34.3877 82.196V81.4213Z" fill="url(#paint13_linear_3154_20903)" fill-opacity="0.2"/>
<path d="M34.3877 81.4213C34.3877 79.5385 34.3877 78.597 34.7715 77.8253C35.1 77.1647 35.6675 76.5785 36.3171 76.2287C37.076 75.82 37.9923 75.7903 39.8248 75.7308C45.1086 75.5593 54.777 75.3584 71.0761 75.3584C87.3751 75.3584 97.0435 75.5593 102.327 75.7308C104.16 75.7903 105.076 75.82 105.835 76.2287C106.485 76.5785 107.052 77.1647 107.381 77.8253C107.764 78.597 107.764 79.5385 107.764 81.4213V82.196C107.764 83.5285 107.764 84.1948 107.433 84.9209C107.18 85.4733 106.589 86.1551 106.079 86.4833C105.407 86.9148 104.833 86.9971 103.686 87.1618C98.9428 87.8423 89.3141 88.712 71.0761 88.712C52.838 88.712 43.2094 87.8423 38.4665 87.1618C37.319 86.9971 36.7452 86.9148 36.0736 86.4833C35.5627 86.1551 34.9717 85.4733 34.7194 84.9209C34.3877 84.1948 34.3877 83.5285 34.3877 82.196V81.4213Z" fill="url(#paint14_radial_3154_20903)" fill-opacity="0.2"/>
<path d="M34.3877 81.4213C34.3877 79.5385 34.3877 78.597 34.7715 77.8253C35.1 77.1647 35.6675 76.5785 36.3171 76.2287C37.076 75.82 37.9923 75.7903 39.8248 75.7308C45.1086 75.5593 54.777 75.3584 71.0761 75.3584C87.3751 75.3584 97.0435 75.5593 102.327 75.7308C104.16 75.7903 105.076 75.82 105.835 76.2287C106.485 76.5785 107.052 77.1647 107.381 77.8253C107.764 78.597 107.764 79.5385 107.764 81.4213V82.196C107.764 83.5285 107.764 84.1948 107.433 84.9209C107.18 85.4733 106.589 86.1551 106.079 86.4833C105.407 86.9148 104.833 86.9971 103.686 87.1618C98.9428 87.8423 89.3141 88.712 71.0761 88.712C52.838 88.712 43.2094 87.8423 38.4665 87.1618C37.319 86.9971 36.7452 86.9148 36.0736 86.4833C35.5627 86.1551 34.9717 85.4733 34.7194 84.9209C34.3877 84.1948 34.3877 83.5285 34.3877 82.196V81.4213Z" fill="url(#paint15_linear_3154_20903)"/>
<g filter="url(#filter0_f_3154_20903)">
<path d="M102.306 78.1742C102.306 78.8562 88.2523 79.9217 70.916 79.9217C53.5796 79.9217 39.5258 78.8562 39.5258 78.1742C39.5258 77.4923 38.0972 78.6867 70.916 78.6867C103.733 78.6867 102.306 77.4923 102.306 78.1742Z" fill="white" fill-opacity="0.22"/>
</g>
<path d="M34.3877 60.0921C34.3877 58.7359 34.3877 58.0578 34.7341 57.3183C34.998 56.7549 35.6122 56.0687 36.143 55.7442C36.8398 55.3183 37.4366 55.252 38.6303 55.1193C43.346 54.5954 52.8386 53.9556 71.0761 53.9556C89.3135 53.9556 98.8061 54.5954 103.522 55.1193C104.716 55.252 105.312 55.3183 106.009 55.7442C106.54 56.0687 107.154 56.7549 107.418 57.3183C107.764 58.0578 107.764 58.7359 107.764 60.0921V61.5464C107.764 63.0472 107.764 63.7977 107.404 64.5499C107.119 65.1433 106.511 65.8024 105.942 66.1337C105.221 66.5536 104.537 66.6086 103.169 66.7186C98.3386 67.1071 88.8694 67.5655 71.0761 67.5655C53.2828 67.5655 43.8136 67.1071 38.9833 66.7186C37.615 66.6086 36.9309 66.5536 36.21 66.1337C35.6412 65.8024 35.033 65.1433 34.7484 64.5499C34.3877 63.7977 34.3877 63.0472 34.3877 61.5464V60.0921Z" fill="#F47000"/>
<path d="M34.3877 60.0921C34.3877 58.7359 34.3877 58.0578 34.7341 57.3183C34.998 56.7549 35.6122 56.0687 36.143 55.7442C36.8398 55.3183 37.4366 55.252 38.6303 55.1193C43.346 54.5954 52.8386 53.9556 71.0761 53.9556C89.3135 53.9556 98.8061 54.5954 103.522 55.1193C104.716 55.252 105.312 55.3183 106.009 55.7442C106.54 56.0687 107.154 56.7549 107.418 57.3183C107.764 58.0578 107.764 58.7359 107.764 60.0921V61.5464C107.764 63.0472 107.764 63.7977 107.404 64.5499C107.119 65.1433 106.511 65.8024 105.942 66.1337C105.221 66.5536 104.537 66.6086 103.169 66.7186C98.3386 67.1071 88.8694 67.5655 71.0761 67.5655C53.2828 67.5655 43.8136 67.1071 38.9833 66.7186C37.615 66.6086 36.9309 66.5536 36.21 66.1337C35.6412 65.8024 35.033 65.1433 34.7484 64.5499C34.3877 63.7977 34.3877 63.0472 34.3877 61.5464V60.0921Z" fill="url(#paint16_radial_3154_20903)" fill-opacity="0.33"/>
<path d="M34.3877 60.0921C34.3877 58.7359 34.3877 58.0578 34.7341 57.3183C34.998 56.7549 35.6122 56.0687 36.143 55.7442C36.8398 55.3183 37.4366 55.252 38.6303 55.1193C43.346 54.5954 52.8386 53.9556 71.0761 53.9556C89.3135 53.9556 98.8061 54.5954 103.522 55.1193C104.716 55.252 105.312 55.3183 106.009 55.7442C106.54 56.0687 107.154 56.7549 107.418 57.3183C107.764 58.0578 107.764 58.7359 107.764 60.0921V61.5464C107.764 63.0472 107.764 63.7977 107.404 64.5499C107.119 65.1433 106.511 65.8024 105.942 66.1337C105.221 66.5536 104.537 66.6086 103.169 66.7186C98.3386 67.1071 88.8694 67.5655 71.0761 67.5655C53.2828 67.5655 43.8136 67.1071 38.9833 66.7186C37.615 66.6086 36.9309 66.5536 36.21 66.1337C35.6412 65.8024 35.033 65.1433 34.7484 64.5499C34.3877 63.7977 34.3877 63.0472 34.3877 61.5464V60.0921Z" fill="url(#paint17_linear_3154_20903)" fill-opacity="0.55"/>
<path d="M34.3877 60.0921C34.3877 58.7359 34.3877 58.0578 34.7341 57.3183C34.998 56.7549 35.6122 56.0687 36.143 55.7442C36.8398 55.3183 37.4366 55.252 38.6303 55.1193C43.346 54.5954 52.8386 53.9556 71.0761 53.9556C89.3135 53.9556 98.8061 54.5954 103.522 55.1193C104.716 55.252 105.312 55.3183 106.009 55.7442C106.54 56.0687 107.154 56.7549 107.418 57.3183C107.764 58.0578 107.764 58.7359 107.764 60.0921V61.5464C107.764 63.0472 107.764 63.7977 107.404 64.5499C107.119 65.1433 106.511 65.8024 105.942 66.1337C105.221 66.5536 104.537 66.6086 103.169 66.7186C98.3386 67.1071 88.8694 67.5655 71.0761 67.5655C53.2828 67.5655 43.8136 67.1071 38.9833 66.7186C37.615 66.6086 36.9309 66.5536 36.21 66.1337C35.6412 65.8024 35.033 65.1433 34.7484 64.5499C34.3877 63.7977 34.3877 63.0472 34.3877 61.5464V60.0921Z" fill="url(#paint18_linear_3154_20903)" fill-opacity="0.2"/>
<path d="M34.3877 60.0921C34.3877 58.7359 34.3877 58.0578 34.7341 57.3183C34.998 56.7549 35.6122 56.0687 36.143 55.7442C36.8398 55.3183 37.4366 55.252 38.6303 55.1193C43.346 54.5954 52.8386 53.9556 71.0761 53.9556C89.3135 53.9556 98.8061 54.5954 103.522 55.1193C104.716 55.252 105.312 55.3183 106.009 55.7442C106.54 56.0687 107.154 56.7549 107.418 57.3183C107.764 58.0578 107.764 58.7359 107.764 60.0921V61.5464C107.764 63.0472 107.764 63.7977 107.404 64.5499C107.119 65.1433 106.511 65.8024 105.942 66.1337C105.221 66.5536 104.537 66.6086 103.169 66.7186C98.3386 67.1071 88.8694 67.5655 71.0761 67.5655C53.2828 67.5655 43.8136 67.1071 38.9833 66.7186C37.615 66.6086 36.9309 66.5536 36.21 66.1337C35.6412 65.8024 35.033 65.1433 34.7484 64.5499C34.3877 63.7977 34.3877 63.0472 34.3877 61.5464V60.0921Z" fill="url(#paint19_linear_3154_20903)" fill-opacity="0.2"/>
<path d="M34.3877 60.0921C34.3877 58.7359 34.3877 58.0578 34.7341 57.3183C34.998 56.7549 35.6122 56.0687 36.143 55.7442C36.8398 55.3183 37.4366 55.252 38.6303 55.1193C43.346 54.5954 52.8386 53.9556 71.0761 53.9556C89.3135 53.9556 98.8061 54.5954 103.522 55.1193C104.716 55.252 105.312 55.3183 106.009 55.7442C106.54 56.0687 107.154 56.7549 107.418 57.3183C107.764 58.0578 107.764 58.7359 107.764 60.0921V61.5464C107.764 63.0472 107.764 63.7977 107.404 64.5499C107.119 65.1433 106.511 65.8024 105.942 66.1337C105.221 66.5536 104.537 66.6086 103.169 66.7186C98.3386 67.1071 88.8694 67.5655 71.0761 67.5655C53.2828 67.5655 43.8136 67.1071 38.9833 66.7186C37.615 66.6086 36.9309 66.5536 36.21 66.1337C35.6412 65.8024 35.033 65.1433 34.7484 64.5499C34.3877 63.7977 34.3877 63.0472 34.3877 61.5464V60.0921Z" fill="url(#paint20_linear_3154_20903)" fill-opacity="0.2"/>
<path d="M34.3877 60.0921C34.3877 58.7359 34.3877 58.0578 34.7341 57.3183C34.998 56.7549 35.6122 56.0687 36.143 55.7442C36.8398 55.3183 37.4366 55.252 38.6303 55.1193C43.346 54.5954 52.8386 53.9556 71.0761 53.9556C89.3135 53.9556 98.8061 54.5954 103.522 55.1193C104.716 55.252 105.312 55.3183 106.009 55.7442C106.54 56.0687 107.154 56.7549 107.418 57.3183C107.764 58.0578 107.764 58.7359 107.764 60.0921V61.5464C107.764 63.0472 107.764 63.7977 107.404 64.5499C107.119 65.1433 106.511 65.8024 105.942 66.1337C105.221 66.5536 104.537 66.6086 103.169 66.7186C98.3386 67.1071 88.8694 67.5655 71.0761 67.5655C53.2828 67.5655 43.8136 67.1071 38.9833 66.7186C37.615 66.6086 36.9309 66.5536 36.21 66.1337C35.6412 65.8024 35.033 65.1433 34.7484 64.5499C34.3877 63.7977 34.3877 63.0472 34.3877 61.5464V60.0921Z" fill="url(#paint21_linear_3154_20903)" fill-opacity="0.2"/>
<path d="M34.3877 60.0921C34.3877 58.7359 34.3877 58.0578 34.7341 57.3183C34.998 56.7549 35.6122 56.0687 36.143 55.7442C36.8398 55.3183 37.4366 55.252 38.6303 55.1193C43.346 54.5954 52.8386 53.9556 71.0761 53.9556C89.3135 53.9556 98.8061 54.5954 103.522 55.1193C104.716 55.252 105.312 55.3183 106.009 55.7442C106.54 56.0687 107.154 56.7549 107.418 57.3183C107.764 58.0578 107.764 58.7359 107.764 60.0921V61.5464C107.764 63.0472 107.764 63.7977 107.404 64.5499C107.119 65.1433 106.511 65.8024 105.942 66.1337C105.221 66.5536 104.537 66.6086 103.169 66.7186C98.3386 67.1071 88.8694 67.5655 71.0761 67.5655C53.2828 67.5655 43.8136 67.1071 38.9833 66.7186C37.615 66.6086 36.9309 66.5536 36.21 66.1337C35.6412 65.8024 35.033 65.1433 34.7484 64.5499C34.3877 63.7977 34.3877 63.0472 34.3877 61.5464V60.0921Z" fill="url(#paint22_radial_3154_20903)" fill-opacity="0.2"/>
<path d="M34.3877 60.0921C34.3877 58.7359 34.3877 58.0578 34.7341 57.3183C34.998 56.7549 35.6122 56.0687 36.143 55.7442C36.8398 55.3183 37.4366 55.252 38.6303 55.1193C43.346 54.5954 52.8386 53.9556 71.0761 53.9556C89.3135 53.9556 98.8061 54.5954 103.522 55.1193C104.716 55.252 105.312 55.3183 106.009 55.7442C106.54 56.0687 107.154 56.7549 107.418 57.3183C107.764 58.0578 107.764 58.7359 107.764 60.0921V61.5464C107.764 63.0472 107.764 63.7977 107.404 64.5499C107.119 65.1433 106.511 65.8024 105.942 66.1337C105.221 66.5536 104.537 66.6086 103.169 66.7186C98.3386 67.1071 88.8694 67.5655 71.0761 67.5655C53.2828 67.5655 43.8136 67.1071 38.9833 66.7186C37.615 66.6086 36.9309 66.5536 36.21 66.1337C35.6412 65.8024 35.033 65.1433 34.7484 64.5499C34.3877 63.7977 34.3877 63.0472 34.3877 61.5464V60.0921Z" fill="url(#paint23_linear_3154_20903)"/>
<path d="M41.7285 39.8598C41.7285 38.7265 41.7285 38.1598 41.9629 37.536C42.2605 36.7436 43.0621 35.8727 43.8271 35.5104C44.4294 35.2252 44.932 35.1834 45.9372 35.0999C49.9687 34.7648 57.515 34.3887 71.0792 34.3887C84.6434 34.3887 92.1898 34.7648 96.2213 35.0999C97.2264 35.1834 97.729 35.2252 98.3313 35.5104C99.0964 35.8727 99.8979 36.7436 100.196 37.536C100.43 38.1598 100.43 38.7265 100.43 39.8598C100.43 41.8117 100.43 42.7877 100.156 43.4562C99.7437 44.4624 99.0393 45.1397 98.0177 45.5122C97.339 45.7596 96.3269 45.7199 94.3027 45.6403C89.8784 45.4666 82.6035 45.2964 71.0792 45.2964C59.5549 45.2964 52.28 45.4666 47.8558 45.6403C45.8316 45.7199 44.8195 45.7596 44.1407 45.5122C43.1191 45.1397 42.4147 44.4624 42.0024 43.4562C41.7285 42.7877 41.7285 41.8117 41.7285 39.8598Z" fill="#F47000"/>
<path d="M41.7285 39.8598C41.7285 38.7265 41.7285 38.1598 41.9629 37.536C42.2605 36.7436 43.0621 35.8727 43.8271 35.5104C44.4294 35.2252 44.932 35.1834 45.9372 35.0999C49.9687 34.7648 57.515 34.3887 71.0792 34.3887C84.6434 34.3887 92.1898 34.7648 96.2213 35.0999C97.2264 35.1834 97.729 35.2252 98.3313 35.5104C99.0964 35.8727 99.8979 36.7436 100.196 37.536C100.43 38.1598 100.43 38.7265 100.43 39.8598C100.43 41.8117 100.43 42.7877 100.156 43.4562C99.7437 44.4624 99.0393 45.1397 98.0177 45.5122C97.339 45.7596 96.3269 45.7199 94.3027 45.6403C89.8784 45.4666 82.6035 45.2964 71.0792 45.2964C59.5549 45.2964 52.28 45.4666 47.8558 45.6403C45.8316 45.7199 44.8195 45.7596 44.1407 45.5122C43.1191 45.1397 42.4147 44.4624 42.0024 43.4562C41.7285 42.7877 41.7285 41.8117 41.7285 39.8598Z" fill="url(#paint24_radial_3154_20903)" fill-opacity="0.33"/>
<path d="M41.7285 39.8598C41.7285 38.7265 41.7285 38.1598 41.9629 37.536C42.2605 36.7436 43.0621 35.8727 43.8271 35.5104C44.4294 35.2252 44.932 35.1834 45.9372 35.0999C49.9687 34.7648 57.515 34.3887 71.0792 34.3887C84.6434 34.3887 92.1898 34.7648 96.2213 35.0999C97.2264 35.1834 97.729 35.2252 98.3313 35.5104C99.0964 35.8727 99.8979 36.7436 100.196 37.536C100.43 38.1598 100.43 38.7265 100.43 39.8598C100.43 41.8117 100.43 42.7877 100.156 43.4562C99.7437 44.4624 99.0393 45.1397 98.0177 45.5122C97.339 45.7596 96.3269 45.7199 94.3027 45.6403C89.8784 45.4666 82.6035 45.2964 71.0792 45.2964C59.5549 45.2964 52.28 45.4666 47.8558 45.6403C45.8316 45.7199 44.8195 45.7596 44.1407 45.5122C43.1191 45.1397 42.4147 44.4624 42.0024 43.4562C41.7285 42.7877 41.7285 41.8117 41.7285 39.8598Z" fill="url(#paint25_linear_3154_20903)" fill-opacity="0.5"/>
<path d="M41.7285 39.8598C41.7285 38.7265 41.7285 38.1598 41.9629 37.536C42.2605 36.7436 43.0621 35.8727 43.8271 35.5104C44.4294 35.2252 44.932 35.1834 45.9372 35.0999C49.9687 34.7648 57.515 34.3887 71.0792 34.3887C84.6434 34.3887 92.1898 34.7648 96.2213 35.0999C97.2264 35.1834 97.729 35.2252 98.3313 35.5104C99.0964 35.8727 99.8979 36.7436 100.196 37.536C100.43 38.1598 100.43 38.7265 100.43 39.8598C100.43 41.8117 100.43 42.7877 100.156 43.4562C99.7437 44.4624 99.0393 45.1397 98.0177 45.5122C97.339 45.7596 96.3269 45.7199 94.3027 45.6403C89.8784 45.4666 82.6035 45.2964 71.0792 45.2964C59.5549 45.2964 52.28 45.4666 47.8558 45.6403C45.8316 45.7199 44.8195 45.7596 44.1407 45.5122C43.1191 45.1397 42.4147 44.4624 42.0024 43.4562C41.7285 42.7877 41.7285 41.8117 41.7285 39.8598Z" fill="url(#paint26_linear_3154_20903)" fill-opacity="0.2"/>
<path d="M41.7285 39.8598C41.7285 38.7265 41.7285 38.1598 41.9629 37.536C42.2605 36.7436 43.0621 35.8727 43.8271 35.5104C44.4294 35.2252 44.932 35.1834 45.9372 35.0999C49.9687 34.7648 57.515 34.3887 71.0792 34.3887C84.6434 34.3887 92.1898 34.7648 96.2213 35.0999C97.2264 35.1834 97.729 35.2252 98.3313 35.5104C99.0964 35.8727 99.8979 36.7436 100.196 37.536C100.43 38.1598 100.43 38.7265 100.43 39.8598C100.43 41.8117 100.43 42.7877 100.156 43.4562C99.7437 44.4624 99.0393 45.1397 98.0177 45.5122C97.339 45.7596 96.3269 45.7199 94.3027 45.6403C89.8784 45.4666 82.6035 45.2964 71.0792 45.2964C59.5549 45.2964 52.28 45.4666 47.8558 45.6403C45.8316 45.7199 44.8195 45.7596 44.1407 45.5122C43.1191 45.1397 42.4147 44.4624 42.0024 43.4562C41.7285 42.7877 41.7285 41.8117 41.7285 39.8598Z" fill="url(#paint27_linear_3154_20903)" fill-opacity="0.2"/>
<path d="M41.7285 39.8598C41.7285 38.7265 41.7285 38.1598 41.9629 37.536C42.2605 36.7436 43.0621 35.8727 43.8271 35.5104C44.4294 35.2252 44.932 35.1834 45.9372 35.0999C49.9687 34.7648 57.515 34.3887 71.0792 34.3887C84.6434 34.3887 92.1898 34.7648 96.2213 35.0999C97.2264 35.1834 97.729 35.2252 98.3313 35.5104C99.0964 35.8727 99.8979 36.7436 100.196 37.536C100.43 38.1598 100.43 38.7265 100.43 39.8598C100.43 41.8117 100.43 42.7877 100.156 43.4562C99.7437 44.4624 99.0393 45.1397 98.0177 45.5122C97.339 45.7596 96.3269 45.7199 94.3027 45.6403C89.8784 45.4666 82.6035 45.2964 71.0792 45.2964C59.5549 45.2964 52.28 45.4666 47.8558 45.6403C45.8316 45.7199 44.8195 45.7596 44.1407 45.5122C43.1191 45.1397 42.4147 44.4624 42.0024 43.4562C41.7285 42.7877 41.7285 41.8117 41.7285 39.8598Z" fill="url(#paint28_linear_3154_20903)" fill-opacity="0.2"/>
<path d="M41.7285 39.8598C41.7285 38.7265 41.7285 38.1598 41.9629 37.536C42.2605 36.7436 43.0621 35.8727 43.8271 35.5104C44.4294 35.2252 44.932 35.1834 45.9372 35.0999C49.9687 34.7648 57.515 34.3887 71.0792 34.3887C84.6434 34.3887 92.1898 34.7648 96.2213 35.0999C97.2264 35.1834 97.729 35.2252 98.3313 35.5104C99.0964 35.8727 99.8979 36.7436 100.196 37.536C100.43 38.1598 100.43 38.7265 100.43 39.8598C100.43 41.8117 100.43 42.7877 100.156 43.4562C99.7437 44.4624 99.0393 45.1397 98.0177 45.5122C97.339 45.7596 96.3269 45.7199 94.3027 45.6403C89.8784 45.4666 82.6035 45.2964 71.0792 45.2964C59.5549 45.2964 52.28 45.4666 47.8558 45.6403C45.8316 45.7199 44.8195 45.7596 44.1407 45.5122C43.1191 45.1397 42.4147 44.4624 42.0024 43.4562C41.7285 42.7877 41.7285 41.8117 41.7285 39.8598Z" fill="url(#paint29_linear_3154_20903)" fill-opacity="0.2"/>
<path d="M41.7285 39.8598C41.7285 38.7265 41.7285 38.1598 41.9629 37.536C42.2605 36.7436 43.0621 35.8727 43.8271 35.5104C44.4294 35.2252 44.932 35.1834 45.9372 35.0999C49.9687 34.7648 57.515 34.3887 71.0792 34.3887C84.6434 34.3887 92.1898 34.7648 96.2213 35.0999C97.2264 35.1834 97.729 35.2252 98.3313 35.5104C99.0964 35.8727 99.8979 36.7436 100.196 37.536C100.43 38.1598 100.43 38.7265 100.43 39.8598C100.43 41.8117 100.43 42.7877 100.156 43.4562C99.7437 44.4624 99.0393 45.1397 98.0177 45.5122C97.339 45.7596 96.3269 45.7199 94.3027 45.6403C89.8784 45.4666 82.6035 45.2964 71.0792 45.2964C59.5549 45.2964 52.28 45.4666 47.8558 45.6403C45.8316 45.7199 44.8195 45.7596 44.1407 45.5122C43.1191 45.1397 42.4147 44.4624 42.0024 43.4562C41.7285 42.7877 41.7285 41.8117 41.7285 39.8598Z" fill="url(#paint30_radial_3154_20903)" fill-opacity="0.2"/>
<path d="M41.7285 39.8598C41.7285 38.7265 41.7285 38.1598 41.9629 37.536C42.2605 36.7436 43.0621 35.8727 43.8271 35.5104C44.4294 35.2252 44.932 35.1834 45.9372 35.0999C49.9687 34.7648 57.515 34.3887 71.0792 34.3887C84.6434 34.3887 92.1898 34.7648 96.2213 35.0999C97.2264 35.1834 97.729 35.2252 98.3313 35.5104C99.0964 35.8727 99.8979 36.7436 100.196 37.536C100.43 38.1598 100.43 38.7265 100.43 39.8598C100.43 41.8117 100.43 42.7877 100.156 43.4562C99.7437 44.4624 99.0393 45.1397 98.0177 45.5122C97.339 45.7596 96.3269 45.7199 94.3027 45.6403C89.8784 45.4666 82.6035 45.2964 71.0792 45.2964C59.5549 45.2964 52.28 45.4666 47.8558 45.6403C45.8316 45.7199 44.8195 45.7596 44.1407 45.5122C43.1191 45.1397 42.4147 44.4624 42.0024 43.4562C41.7285 42.7877 41.7285 41.8117 41.7285 39.8598Z" fill="url(#paint31_linear_3154_20903)"/>
<g filter="url(#filter1_f_3154_20903)">
<rect x="63.8662" y="37.4648" width="14.354" height="3.33218" rx="1.66609" fill="white" fill-opacity="0.44"/>
</g>
<g filter="url(#filter2_f_3154_20903)">
<rect x="63.8662" y="102.06" width="14.354" height="3.33218" rx="1.66609" fill="white" fill-opacity="0.44"/>
</g>
<g filter="url(#filter3_f_3154_20903)">
<path d="M102.306 57.1571C102.306 57.8391 88.2523 58.9046 70.916 58.9046C53.5796 58.9046 39.5258 57.8391 39.5258 57.1571C39.5258 56.4752 38.0972 57.6696 70.916 57.6696C103.733 57.6696 102.306 56.4752 102.306 57.1571Z" fill="white" fill-opacity="0.22"/>
</g>
<g filter="url(#filter4_f_3154_20903)">
<path d="M90.0127 99.235C90.0127 99.8033 81.5205 100.264 71.0449 100.264C60.5693 100.264 52.0771 99.8033 52.0771 99.235C52.0771 98.6667 52.0771 99.2352 71.0449 99.2352C90.0127 99.2352 90.0127 98.6667 90.0127 99.235Z" fill="white" fill-opacity="0.22"/>
</g>
<g filter="url(#filter5_f_3154_20903)">
<path d="M90.0127 36.6991C90.0127 36.1308 81.5205 35.6701 71.0449 35.6701C60.5693 35.6701 52.0771 36.1308 52.0771 36.6991C52.0771 37.2674 52.0771 36.6989 71.0449 36.6989C90.0127 36.6989 90.0127 37.2674 90.0127 36.6991Z" fill="white" fill-opacity="0.22"/>
</g>
<g filter="url(#filter6_f_3154_20903)">
<path d="M97.4418 44.3885C97.4418 43.8202 85.6217 43.3595 71.0407 43.3595C56.4598 43.3595 44.6396 43.8202 44.6396 44.3885C44.6396 44.9568 44.6396 44.3884 71.0407 44.3884C97.4418 44.3884 97.4418 44.9568 97.4418 44.3885Z" fill="white" fill-opacity="0.04"/>
</g>
<g filter="url(#filter7_f_3154_20903)">
<rect x="60.0205" y="58.9985" width="21.7873" height="4.8701" rx="2.43505" fill="white" fill-opacity="0.44"/>
</g>
<g filter="url(#filter8_f_3154_20903)">
<rect x="60.0205" y="81.04" width="21.7873" height="4.8701" rx="2.43505" fill="white" fill-opacity="0.44"/>
</g>
<defs>
<filter id="filter0_f_3154_20903" x="37.9787" y="76.4259" width="65.8747" height="5.03386" filterUnits="userSpaceOnUse" color-interpolation-filters="sRGB">
<feFlood flood-opacity="0" result="BackgroundImageFix"/>
<feBlend mode="normal" in="SourceGraphic" in2="BackgroundImageFix" result="shape"/>
<feGaussianBlur stdDeviation="0.768964" result="effect1_foregroundBlur_3154_20903"/>
</filter>
<filter id="filter1_f_3154_20903" x="54.613" y="28.2116" width="32.8599" height="21.8384" filterUnits="userSpaceOnUse" color-interpolation-filters="sRGB">
<feFlood flood-opacity="0" result="BackgroundImageFix"/>
<feBlend mode="normal" in="SourceGraphic" in2="BackgroundImageFix" result="shape"/>
<feGaussianBlur stdDeviation="4.6266" result="effect1_foregroundBlur_3154_20903"/>
</filter>
<filter id="filter2_f_3154_20903" x="54.613" y="92.8064" width="32.8599" height="21.8384" filterUnits="userSpaceOnUse" color-interpolation-filters="sRGB">
<feFlood flood-opacity="0" result="BackgroundImageFix"/>
<feBlend mode="normal" in="SourceGraphic" in2="BackgroundImageFix" result="shape"/>
<feGaussianBlur stdDeviation="4.6266" result="effect1_foregroundBlur_3154_20903"/>
</filter>
<filter id="filter3_f_3154_20903" x="37.9787" y="55.4088" width="65.8747" height="5.03386" filterUnits="userSpaceOnUse" color-interpolation-filters="sRGB">
<feFlood flood-opacity="0" result="BackgroundImageFix"/>
<feBlend mode="normal" in="SourceGraphic" in2="BackgroundImageFix" result="shape"/>
<feGaussianBlur stdDeviation="0.768964" result="effect1_foregroundBlur_3154_20903"/>
</filter>
<filter id="filter4_f_3154_20903" x="51.0519" y="97.9571" width="39.9861" height="3.33231" filterUnits="userSpaceOnUse" color-interpolation-filters="sRGB">
<feFlood flood-opacity="0" result="BackgroundImageFix"/>
<feBlend mode="normal" in="SourceGraphic" in2="BackgroundImageFix" result="shape"/>
<feGaussianBlur stdDeviation="0.512643" result="effect1_foregroundBlur_3154_20903"/>
</filter>
<filter id="filter5_f_3154_20903" x="51.0519" y="34.6446" width="39.9861" height="3.33231" filterUnits="userSpaceOnUse" color-interpolation-filters="sRGB">
<feFlood flood-opacity="0" result="BackgroundImageFix"/>
<feBlend mode="normal" in="SourceGraphic" in2="BackgroundImageFix" result="shape"/>
<feGaussianBlur stdDeviation="0.512643" result="effect1_foregroundBlur_3154_20903"/>
</filter>
<filter id="filter6_f_3154_20903" x="44.409" y="43.1287" width="53.2631" height="1.74312" filterUnits="userSpaceOnUse" color-interpolation-filters="sRGB">
<feFlood flood-opacity="0" result="BackgroundImageFix"/>
<feBlend mode="normal" in="SourceGraphic" in2="BackgroundImageFix" result="shape"/>
<feGaussianBlur stdDeviation="0.115345" result="effect1_foregroundBlur_3154_20903"/>
</filter>
<filter id="filter7_f_3154_20903" x="47.999" y="46.9771" width="45.83" height="28.9131" filterUnits="userSpaceOnUse" color-interpolation-filters="sRGB">
<feFlood flood-opacity="0" result="BackgroundImageFix"/>
<feBlend mode="normal" in="SourceGraphic" in2="BackgroundImageFix" result="shape"/>
<feGaussianBlur stdDeviation="6.01073" result="effect1_foregroundBlur_3154_20903"/>
</filter>
<filter id="filter8_f_3154_20903" x="47.999" y="69.0186" width="45.83" height="28.9131" filterUnits="userSpaceOnUse" color-interpolation-filters="sRGB">
<feFlood flood-opacity="0" result="BackgroundImageFix"/>
<feBlend mode="normal" in="SourceGraphic" in2="BackgroundImageFix" result="shape"/>
<feGaussianBlur stdDeviation="6.01073" result="effect1_foregroundBlur_3154_20903"/>
</filter>
<radialGradient id="paint0_radial_3154_20903" cx="0" cy="0" r="1" gradientUnits="userSpaceOnUse" gradientTransform="translate(71.0517 96.0729) rotate(-180) scale(128.673 5.10256)">
<stop offset="0.320926" stop-color="#FBAD11" stop-opacity="0.66"/>
<stop offset="1" stop-color="#FBAD11" stop-opacity="0.1"/>
<stop offset="1" stop-color="#FBAD11" stop-opacity="0"/>
</radialGradient>
<linearGradient id="paint1_linear_3154_20903" x1="41.7285" y1="101.959" x2="100.43" y2="101.959" gradientUnits="userSpaceOnUse">
<stop stop-color="#FBAD11" stop-opacity="0"/>
<stop offset="0.2" stop-color="#FBAD11" stop-opacity="0.33"/>
<stop offset="0.5" stop-color="#FBAD11" stop-opacity="0.66"/>
<stop offset="0.8" stop-color="#FBAD11" stop-opacity="0.33"/>
<stop offset="1" stop-color="#FBAD11" stop-opacity="0"/>
</linearGradient>
<linearGradient id="paint2_linear_3154_20903" x1="41.7285" y1="101.959" x2="100.43" y2="101.959" gradientUnits="userSpaceOnUse">
<stop offset="0.00394961" stop-color="#FF3700" stop-opacity="0.22"/>
<stop offset="0.265217" stop-color="#FF3700" stop-opacity="0"/>
<stop offset="0.714569" stop-color="#FF3700" stop-opacity="0"/>
<stop offset="1" stop-color="#FF3700" stop-opacity="0.22"/>
</linearGradient>
<linearGradient id="paint3_linear_3154_20903" x1="71.0792" y1="96.1504" x2="71.0443" y2="107.685" gradientUnits="userSpaceOnUse">
<stop offset="0.773505" stop-color="#FF3700" stop-opacity="0"/>
<stop offset="1" stop-color="#FF3700" stop-opacity="0.22"/>
</linearGradient>
<linearGradient id="paint4_linear_3154_20903" x1="41.7285" y1="101.959" x2="100.521" y2="102.059" gradientUnits="userSpaceOnUse">
<stop offset="0.00394961" stop-opacity="0.12"/>
<stop offset="0.289625" stop-opacity="0"/>
<stop offset="0.720341" stop-opacity="0"/>
<stop offset="1" stop-opacity="0.12"/>
</linearGradient>
<linearGradient id="paint5_linear_3154_20903" x1="71.0792" y1="96.1504" x2="71.0443" y2="107.685" gradientUnits="userSpaceOnUse">
<stop offset="0.773505" stop-opacity="0"/>
<stop offset="1" stop-opacity="0.22"/>
</linearGradient>
<radialGradient id="paint6_radial_3154_20903" cx="0" cy="0" r="1" gradientUnits="userSpaceOnUse" gradientTransform="translate(71.0517 96.0729) rotate(-180) scale(128.673 5.10256)">
<stop offset="0.320926" stop-color="white" stop-opacity="0.33"/>
<stop offset="1" stop-color="white" stop-opacity="0.1"/>
<stop offset="1" stop-color="white" stop-opacity="0"/>
</radialGradient>
<linearGradient id="paint7_linear_3154_20903" x1="41.7285" y1="101.959" x2="100.43" y2="101.959" gradientUnits="userSpaceOnUse">
<stop stop-color="white" stop-opacity="0"/>
<stop offset="0.2" stop-color="white" stop-opacity="0.12"/>
<stop offset="0.5" stop-color="white" stop-opacity="0.16"/>
<stop offset="0.8" stop-color="white" stop-opacity="0.12"/>
<stop offset="1" stop-color="white" stop-opacity="0"/>
</linearGradient>
<radialGradient id="paint8_radial_3154_20903" cx="0" cy="0" r="1" gradientUnits="userSpaceOnUse" gradientTransform="translate(71.0416 75.2728) rotate(-180) scale(160.842 5.63968)">
<stop offset="0.320926" stop-color="#FBAD11" stop-opacity="0.66"/>
<stop offset="1" stop-color="#FBAD11" stop-opacity="0.1"/>
<stop offset="1" stop-color="#FBAD11" stop-opacity="0"/>
</radialGradient>
<linearGradient id="paint9_linear_3154_20903" x1="34.3877" y1="81.7789" x2="107.764" y2="81.7789" gradientUnits="userSpaceOnUse">
<stop stop-color="#FBAD11" stop-opacity="0"/>
<stop offset="0.2" stop-color="#FBAD11" stop-opacity="0.33"/>
<stop offset="0.5" stop-color="#FBAD11" stop-opacity="0.66"/>
<stop offset="0.8" stop-color="#FBAD11" stop-opacity="0.33"/>
<stop offset="1" stop-color="#FBAD11" stop-opacity="0"/>
</linearGradient>
<linearGradient id="paint10_linear_3154_20903" x1="34.3877" y1="81.7789" x2="107.764" y2="81.7789" gradientUnits="userSpaceOnUse">
<stop offset="0.00394961" stop-color="#FF3700" stop-opacity="0.22"/>
<stop offset="0.265217" stop-color="#FF3700" stop-opacity="0"/>
<stop offset="0.714569" stop-color="#FF3700" stop-opacity="0"/>
<stop offset="1" stop-color="#FF3700" stop-opacity="0.22"/>
</linearGradient>
<linearGradient id="paint11_linear_3154_20903" x1="71.0761" y1="75.3584" x2="71.0419" y2="88.107" gradientUnits="userSpaceOnUse">
<stop offset="0.773505" stop-color="#FF3700" stop-opacity="0"/>
<stop offset="1" stop-color="#FF3700" stop-opacity="0.22"/>
</linearGradient>
<linearGradient id="paint12_linear_3154_20903" x1="34.3877" y1="81.7789" x2="107.878" y2="81.9194" gradientUnits="userSpaceOnUse">
<stop offset="0.00394961" stop-opacity="0.12"/>
<stop offset="0.289625" stop-opacity="0"/>
<stop offset="0.720341" stop-opacity="0"/>
<stop offset="1" stop-opacity="0.12"/>
</linearGradient>
<linearGradient id="paint13_linear_3154_20903" x1="71.0761" y1="75.3584" x2="71.0419" y2="88.107" gradientUnits="userSpaceOnUse">
<stop offset="0.773505" stop-opacity="0"/>
<stop offset="1" stop-opacity="0.22"/>
</linearGradient>
<radialGradient id="paint14_radial_3154_20903" cx="0" cy="0" r="1" gradientUnits="userSpaceOnUse" gradientTransform="translate(71.0416 75.2728) rotate(-180) scale(160.842 5.63968)">
<stop offset="0.320926" stop-color="white" stop-opacity="0.33"/>
<stop offset="1" stop-color="white" stop-opacity="0.1"/>
<stop offset="1" stop-color="white" stop-opacity="0"/>
</radialGradient>
<linearGradient id="paint15_linear_3154_20903" x1="34.3877" y1="81.7789" x2="107.764" y2="81.7789" gradientUnits="userSpaceOnUse">
<stop stop-color="white" stop-opacity="0"/>
<stop offset="0.2" stop-color="white" stop-opacity="0.12"/>
<stop offset="0.5" stop-color="white" stop-opacity="0.16"/>
<stop offset="0.8" stop-color="white" stop-opacity="0.12"/>
<stop offset="1" stop-color="white" stop-opacity="0"/>
</linearGradient>
<radialGradient id="paint16_radial_3154_20903" cx="0" cy="0" r="1" gradientUnits="userSpaceOnUse" gradientTransform="translate(71.0416 53.87) rotate(-180) scale(160.842 5.63968)">
<stop offset="0.320926" stop-color="#FBAD11" stop-opacity="0.66"/>
<stop offset="1" stop-color="#FBAD11" stop-opacity="0.1"/>
<stop offset="1" stop-color="#FBAD11" stop-opacity="0"/>
</radialGradient>
<linearGradient id="paint17_linear_3154_20903" x1="34.3877" y1="60.376" x2="107.764" y2="60.376" gradientUnits="userSpaceOnUse">
<stop stop-color="#FBAD11" stop-opacity="0"/>
<stop offset="0.2" stop-color="#FBAD11" stop-opacity="0.33"/>
<stop offset="0.5" stop-color="#FBAD11" stop-opacity="0.66"/>
<stop offset="0.8" stop-color="#FBAD11" stop-opacity="0.33"/>
<stop offset="1" stop-color="#FBAD11" stop-opacity="0"/>
</linearGradient>
<linearGradient id="paint18_linear_3154_20903" x1="34.3877" y1="60.376" x2="107.764" y2="60.376" gradientUnits="userSpaceOnUse">
<stop offset="0.00394961" stop-color="#FF3700" stop-opacity="0.22"/>
<stop offset="0.265217" stop-color="#FF3700" stop-opacity="0"/>
<stop offset="0.714569" stop-color="#FF3700" stop-opacity="0"/>
<stop offset="1" stop-color="#FF3700" stop-opacity="0.22"/>
</linearGradient>
<linearGradient id="paint19_linear_3154_20903" x1="71.0761" y1="53.9556" x2="71.0419" y2="66.7042" gradientUnits="userSpaceOnUse">
<stop offset="0.773505" stop-color="#FF3700" stop-opacity="0"/>
<stop offset="1" stop-color="#FF3700" stop-opacity="0.22"/>
</linearGradient>
<linearGradient id="paint20_linear_3154_20903" x1="34.3877" y1="60.376" x2="107.878" y2="60.5166" gradientUnits="userSpaceOnUse">
<stop offset="0.00394961" stop-opacity="0.12"/>
<stop offset="0.289625" stop-opacity="0"/>
<stop offset="0.720341" stop-opacity="0"/>
<stop offset="1" stop-opacity="0.12"/>
</linearGradient>
<linearGradient id="paint21_linear_3154_20903" x1="71.0761" y1="53.9556" x2="71.0419" y2="66.7042" gradientUnits="userSpaceOnUse">
<stop offset="0.773505" stop-opacity="0"/>
<stop offset="1" stop-opacity="0.22"/>
</linearGradient>
<radialGradient id="paint22_radial_3154_20903" cx="0" cy="0" r="1" gradientUnits="userSpaceOnUse" gradientTransform="translate(71.0416 53.87) rotate(-180) scale(160.842 5.63968)">
<stop offset="0.320926" stop-color="white" stop-opacity="0.33"/>
<stop offset="1" stop-color="white" stop-opacity="0.1"/>
<stop offset="1" stop-color="white" stop-opacity="0"/>
</radialGradient>
<linearGradient id="paint23_linear_3154_20903" x1="34.3877" y1="60.376" x2="107.764" y2="60.376" gradientUnits="userSpaceOnUse">
<stop stop-color="white" stop-opacity="0"/>
<stop offset="0.2" stop-color="white" stop-opacity="0.12"/>
<stop offset="0.5" stop-color="white" stop-opacity="0.16"/>
<stop offset="0.8" stop-color="white" stop-opacity="0.12"/>
<stop offset="1" stop-color="white" stop-opacity="0"/>
</linearGradient>
<radialGradient id="paint24_radial_3154_20903" cx="0" cy="0" r="1" gradientUnits="userSpaceOnUse" gradientTransform="translate(71.0517 34.3112) rotate(-180) scale(128.673 5.10256)">
<stop offset="0.320926" stop-color="#FBAD11" stop-opacity="0.66"/>
<stop offset="1" stop-color="#FBAD11" stop-opacity="0.1"/>
<stop offset="1" stop-color="#FBAD11" stop-opacity="0"/>
</radialGradient>
<linearGradient id="paint25_linear_3154_20903" x1="41.7285" y1="40.1977" x2="100.43" y2="40.1977" gradientUnits="userSpaceOnUse">
<stop stop-color="#FBAD11" stop-opacity="0"/>
<stop offset="0.2" stop-color="#FBAD11" stop-opacity="0.33"/>
<stop offset="0.5" stop-color="#FBAD11" stop-opacity="0.66"/>
<stop offset="0.8" stop-color="#FBAD11" stop-opacity="0.33"/>
<stop offset="1" stop-color="#FBAD11" stop-opacity="0"/>
</linearGradient>
<linearGradient id="paint26_linear_3154_20903" x1="41.7285" y1="40.1977" x2="100.43" y2="40.1977" gradientUnits="userSpaceOnUse">
<stop offset="0.00394961" stop-color="#FF3700" stop-opacity="0.22"/>
<stop offset="0.265217" stop-color="#FF3700" stop-opacity="0"/>
<stop offset="0.714569" stop-color="#FF3700" stop-opacity="0"/>
<stop offset="1" stop-color="#FF3700" stop-opacity="0.22"/>
</linearGradient>
<linearGradient id="paint27_linear_3154_20903" x1="71.0792" y1="34.3887" x2="71.0443" y2="45.9231" gradientUnits="userSpaceOnUse">
<stop offset="0.773505" stop-color="#FF3700" stop-opacity="0"/>
<stop offset="1" stop-color="#FF3700" stop-opacity="0.22"/>
</linearGradient>
<linearGradient id="paint28_linear_3154_20903" x1="41.7285" y1="40.1977" x2="100.521" y2="40.2971" gradientUnits="userSpaceOnUse">
<stop offset="0.00394961" stop-opacity="0.12"/>
<stop offset="0.289625" stop-opacity="0"/>
<stop offset="0.720341" stop-opacity="0"/>
<stop offset="1" stop-opacity="0.12"/>
</linearGradient>
<linearGradient id="paint29_linear_3154_20903" x1="71.0792" y1="34.3887" x2="71.0443" y2="45.9231" gradientUnits="userSpaceOnUse">
<stop offset="0.773505" stop-opacity="0"/>
<stop offset="1" stop-opacity="0.22"/>
</linearGradient>
<radialGradient id="paint30_radial_3154_20903" cx="0" cy="0" r="1" gradientUnits="userSpaceOnUse" gradientTransform="translate(71.0517 34.3112) rotate(-180) scale(128.673 5.10256)">
<stop offset="0.320926" stop-color="white" stop-opacity="0.33"/>
<stop offset="1" stop-color="white" stop-opacity="0.1"/>
<stop offset="1" stop-color="white" stop-opacity="0"/>
</radialGradient>
<linearGradient id="paint31_linear_3154_20903" x1="41.7285" y1="40.1977" x2="100.43" y2="40.1977" gradientUnits="userSpaceOnUse">
<stop stop-color="white" stop-opacity="0"/>
<stop offset="0.2" stop-color="white" stop-opacity="0.12"/>
<stop offset="0.5" stop-color="white" stop-opacity="0.16"/>
<stop offset="0.8" stop-color="white" stop-opacity="0.12"/>
<stop offset="1" stop-color="white" stop-opacity="0"/>
</linearGradient>
</defs>
</svg>
