<svg width="144" height="144" viewBox="0 0 144 144" fill="none" xmlns="http://www.w3.org/2000/svg">
<path d="M41.9102 104.175C41.9102 102.24 41.9102 101.272 42.135 100.651C42.5768 99.4316 43.3835 98.6772 44.6301 98.318C45.2645 98.1353 46.2909 98.2041 48.3439 98.3419C52.9459 98.6506 60.4189 98.9549 71.9997 98.9549C83.5805 98.9549 91.0536 98.6506 95.6555 98.3419C97.7085 98.2041 98.7349 98.1353 99.3693 98.318C100.616 98.6772 101.423 99.4316 101.864 100.651C102.089 101.272 102.089 102.24 102.089 104.175C102.089 105.164 102.089 105.659 101.904 106.227C101.603 107.148 100.685 108.148 99.7925 108.525C99.2417 108.758 98.8079 108.795 97.9404 108.869C93.8498 109.216 86.0934 109.612 71.9997 109.612C57.906 109.612 50.1496 109.216 46.059 108.869C45.1915 108.795 44.7577 108.758 44.2069 108.525C43.3147 108.148 42.396 107.148 42.0956 106.227C41.9102 105.659 41.9102 105.164 41.9102 104.175Z" fill="#141417"/>
<path d="M34.3877 82.6022C34.3877 80.672 34.3877 79.7069 34.7812 78.9157C35.118 78.2385 35.6998 77.6375 36.3657 77.2789C37.1437 76.86 38.083 76.8295 39.9617 76.7685C45.3785 76.5927 55.2903 76.3867 71.9996 76.3867C88.709 76.3867 98.6208 76.5927 104.038 76.7685C105.916 76.8295 106.856 76.86 107.634 77.2789C108.3 77.6375 108.881 78.2385 109.218 78.9157C109.612 79.7069 109.612 80.672 109.612 82.6022V83.0738C109.612 84.5712 109.612 85.3199 109.255 86.0794C108.975 86.6749 108.368 87.3521 107.805 87.6941C107.089 88.1302 106.415 88.203 105.068 88.3486C100.085 88.8874 90.2443 89.5509 71.9996 89.5509C53.755 89.5509 43.9144 88.8874 38.931 88.3486C37.584 88.203 36.9105 88.1302 36.1938 87.6941C35.6317 87.3521 35.0238 86.6749 34.7442 86.0794C34.3877 85.3199 34.3877 84.5712 34.3877 83.0738V82.6022Z" fill="#141417"/>
<path d="M34.3877 60.7373C34.3877 59.347 34.3877 58.6518 34.7428 57.8937C35.0133 57.3161 35.643 56.6126 36.1872 56.28C36.9015 55.8433 37.5133 55.7753 38.7371 55.6394C43.5716 55.1023 53.3031 54.4463 71.9996 54.4463C90.6961 54.4463 100.428 55.1023 105.262 55.6394C106.486 55.7753 107.098 55.8433 107.812 56.28C108.356 56.6126 108.986 57.3161 109.256 57.8937C109.612 58.6518 109.612 59.347 109.612 60.7373V61.5659C109.612 63.3987 109.612 64.3151 109.218 65.106C108.889 65.7691 108.287 66.3912 107.635 66.7426C106.858 67.1617 105.976 67.191 104.211 67.2496C99.0683 67.4204 89.4298 67.6105 71.9996 67.6105C54.5695 67.6105 44.9309 67.4204 39.7881 67.2496C38.0236 67.191 37.1413 67.1617 36.3639 66.7426C35.7122 66.3912 35.1104 65.7691 34.7808 65.106C34.3877 64.3151 34.3877 63.3987 34.3877 61.5659V60.7373Z" fill="#141417"/>
<path d="M41.9102 39.7753C41.9102 38.8359 41.9102 38.3662 42.081 37.8188C42.3784 36.8661 43.3254 35.8349 44.2493 35.4576C44.7801 35.2408 45.1894 35.2059 46.0079 35.136C50.0848 34.7881 57.847 34.3887 71.9997 34.3887C86.1524 34.3887 93.9146 34.7881 97.9915 35.136C98.81 35.2059 99.2193 35.2408 99.7502 35.4576C100.674 35.8349 101.621 36.8661 101.918 37.8188C102.089 38.3662 102.089 38.8359 102.089 39.7753C102.089 41.7138 102.089 42.6831 101.882 43.2812C101.439 44.5594 100.626 45.3208 99.3211 45.6779C98.7106 45.845 97.6773 45.7765 95.6106 45.6394C91.0571 45.3373 83.6445 45.0454 71.9997 45.0454C60.3549 45.0454 52.9424 45.3373 48.3889 45.6394C46.3221 45.7765 45.2888 45.845 44.6783 45.6779C43.3736 45.3208 42.56 44.5594 42.1173 43.2812C41.9102 42.6831 41.9102 41.7138 41.9102 39.7753Z" fill="#141417"/>
</svg>
