<svg width="522" height="145" viewBox="0 0 522 145" fill="none" xmlns="http://www.w3.org/2000/svg">
<path d="M42.1982 104.462C42.1982 102.527 42.1982 101.559 42.423 100.939C42.8648 99.7191 43.6715 98.9647 44.9181 98.6056C45.5524 98.4228 46.5788 98.4917 48.6316 98.6294C53.2334 98.9382 60.706 99.2424 72.2862 99.2424C83.8664 99.2424 91.3391 98.9382 95.9408 98.6294C97.9937 98.4917 99.0201 98.4228 99.6544 98.6056C100.901 98.9647 101.708 99.7191 102.149 100.939C102.374 101.559 102.374 102.527 102.374 104.462C102.374 105.452 102.374 105.946 102.189 106.515C101.888 107.435 100.97 108.435 100.078 108.812C99.5268 109.045 99.0931 109.082 98.2256 109.156C94.1352 109.503 86.3792 109.899 72.2862 109.899C58.1932 109.899 50.4372 109.503 46.3469 109.156C45.4794 109.082 45.0456 109.045 44.4949 108.812C43.6027 108.435 42.6841 107.435 42.3837 106.515C42.1982 105.946 42.1982 105.452 42.1982 104.462Z" fill="#F47000"/>
<path d="M34.6768 82.89C34.6768 80.9599 34.6768 79.9948 35.0702 79.2036C35.407 78.5265 35.9888 77.9255 36.6546 77.567C37.4326 77.148 38.3719 77.1176 40.2505 77.0566C45.667 76.8808 55.5783 76.6748 72.2868 76.6748C88.9953 76.6748 98.9066 76.8808 104.323 77.0566C106.202 77.1176 107.141 77.148 107.919 77.567C108.585 77.9255 109.167 78.5265 109.503 79.2036C109.897 79.9948 109.897 80.9599 109.897 82.89V83.3616C109.897 84.8589 109.897 85.6076 109.54 86.3669C109.261 86.9625 108.653 87.6396 108.091 87.9816C107.374 88.4177 106.701 88.4905 105.354 88.6361C100.371 89.1749 90.5305 89.8383 72.2868 89.8383C54.043 89.8383 44.2029 89.1749 39.2198 88.6361C37.8729 88.4905 37.1994 88.4177 36.4828 87.9816C35.9207 87.6396 35.3129 86.9625 35.0333 86.3669C34.6768 85.6076 34.6768 84.8589 34.6768 83.3616V82.89Z" fill="#F47000"/>
<path d="M34.6768 61.0261C34.6768 59.6358 34.6768 58.9407 35.0319 58.1825C35.3024 57.605 35.932 56.9015 36.4761 56.5689C37.1904 56.1323 37.8022 56.0643 39.0259 55.9284C43.8601 55.3913 53.5912 54.7354 72.2868 54.7354C90.9823 54.7354 100.713 55.3913 105.548 55.9284C106.771 56.0643 107.383 56.1323 108.097 56.5689C108.641 56.9015 109.271 57.605 109.542 58.1825C109.897 58.9407 109.897 59.6358 109.897 61.0261V61.8546C109.897 63.6873 109.897 64.6037 109.504 65.3945C109.174 66.0575 108.572 66.6796 107.921 67.031C107.143 67.4501 106.261 67.4794 104.497 67.538C99.3541 67.7088 89.716 67.8989 72.2868 67.8989C54.8575 67.8989 45.2195 67.7088 40.0768 67.538C38.3124 67.4794 37.4303 67.4501 36.6529 67.031C36.0012 66.6796 35.3994 66.0575 35.0698 65.3945C34.6768 64.6037 34.6768 63.6873 34.6768 61.8546V61.0261Z" fill="#F47000"/>
<path d="M42.1982 40.0636C42.1982 39.1242 42.1982 38.6545 42.3691 38.1072C42.6665 37.1546 43.6134 36.1234 44.5372 35.7461C45.0681 35.5293 45.4773 35.4944 46.2958 35.4246C50.3725 35.0766 58.1343 34.6772 72.2862 34.6772C86.4382 34.6772 94.2 35.0766 98.2767 35.4246C99.0952 35.4944 99.5044 35.5293 100.035 35.7461C100.959 36.1234 101.906 37.1546 102.203 38.1072C102.374 38.6545 102.374 39.1242 102.374 40.0636C102.374 42.002 102.374 42.9713 102.167 43.5693C101.724 44.8475 100.911 45.6088 99.6062 45.9659C98.9958 46.133 97.9625 46.0645 95.8959 45.9273C91.3426 45.6253 83.9304 45.3334 72.2862 45.3334C60.6421 45.3334 53.2299 45.6253 48.6766 45.9273C46.61 46.0645 45.5767 46.133 44.9663 45.9659C43.6616 45.6088 42.8481 44.8475 42.4054 43.5693C42.1982 42.9713 42.1982 42.002 42.1982 40.0636Z" fill="#F47000"/>
<path d="M134.38 109.677L133.727 105.435C137.571 104.782 139.891 104.057 140.689 103.26C141.559 102.462 141.994 100.939 141.994 98.6911V45.2832C141.994 43.0352 141.559 41.5124 140.689 40.7147C139.891 39.9171 137.571 39.1919 133.727 38.5393L134.38 34.2971H161.03L161.465 38.5393L154.721 39.8445C153.27 40.1346 152.545 41.0773 152.545 42.6727V67.5818H188.767V45.2832C188.767 43.0352 188.332 41.5124 187.462 40.7147C186.664 39.9171 184.343 39.1919 180.5 38.5393L181.153 34.2971H207.802L208.237 38.5393L201.493 39.8445C200.043 40.1346 199.318 41.0773 199.318 42.6727V101.302C199.318 102.897 200.043 103.84 201.493 104.13L208.237 105.435L207.802 109.677H181.153L180.5 105.435C184.343 104.782 186.664 104.057 187.462 103.26C188.332 102.462 188.767 100.939 188.767 98.6911V74.1083H152.545V101.302C152.545 102.897 153.27 103.84 154.721 104.13L161.465 105.435L161.03 109.677H134.38ZM234.191 110.656C226.359 110.656 220.34 108.336 216.135 103.695C211.929 99.0537 209.826 92.5635 209.826 84.2242C209.826 75.8849 212.037 69.2134 216.461 64.2098C220.957 59.1337 227.121 56.5957 234.952 56.5957C242.857 56.5957 248.912 58.9525 253.118 63.666C257.324 68.307 259.426 74.7972 259.426 83.1365C259.426 91.4758 257.178 98.1472 252.683 103.151C248.259 108.154 242.095 110.656 234.191 110.656ZM220.377 82.8101C220.377 89.2641 221.682 94.5577 224.293 98.6911C226.903 102.825 230.456 104.891 234.952 104.891C239.448 104.891 242.639 103.803 244.524 101.628C245.83 100.178 246.881 97.8934 247.679 94.7753C248.477 91.5846 248.875 88.1401 248.875 84.4418C248.875 77.9878 247.57 72.6942 244.96 68.5608C242.349 64.4274 238.796 62.3607 234.3 62.3607C229.804 62.3607 226.613 63.4484 224.728 65.6239C223.422 67.0742 222.371 69.3947 221.573 72.5854C220.776 75.7036 220.377 79.1118 220.377 82.8101ZM263.074 109.677L262.421 105.435C265.974 104.71 268.114 103.985 268.839 103.26C269.636 102.462 270.035 101.12 270.035 99.235V67.9082C270.035 66.0227 269.564 64.7175 268.621 63.9923C267.751 63.1946 265.467 62.4332 261.769 61.7081L262.421 58.2273L276.453 56.8132C276.961 56.8132 277.468 57.8285 277.976 59.8589C278.556 61.8893 278.846 63.666 278.846 65.1888V65.8415L279.716 66.1678L281.021 64.6449C285.59 59.2788 291.174 56.5957 297.773 56.5957C302.414 56.5957 306.076 58.0097 308.759 60.8379C311.442 63.5935 312.783 67.4731 312.783 72.4766V101.846C312.783 102.716 312.965 103.296 313.327 103.586C313.762 103.803 314.306 103.985 314.959 104.13L320.289 105.435L319.854 109.677H296.576L295.923 105.435C299.187 104.782 301.181 104.057 301.906 103.26C302.631 102.462 302.994 101.12 302.994 99.235V75.7399C302.994 72.3316 302.377 69.6123 301.145 67.5818C299.912 65.4789 297.483 64.4274 293.857 64.4274C290.303 64.4274 286.424 65.8415 282.218 68.6696C281.565 69.1047 281.094 69.431 280.804 69.6485C280.151 70.3737 279.825 71.7152 279.825 73.6732V101.737C279.825 102.534 279.934 103.078 280.151 103.368C280.441 103.658 281.058 103.912 282 104.13L286.786 105.435L286.351 109.677H263.074ZM345.166 110.656C337.842 110.656 332.149 108.154 328.088 103.151C324.1 98.1472 322.106 91.8384 322.106 84.2242C322.106 76.5375 324.426 70.0111 329.067 64.6449C333.708 59.2788 339.836 56.5957 347.45 56.5957C359.778 56.5957 366.231 64.1736 366.812 79.3294L363.983 81.3961L332.439 83.1365C332.439 96.5519 338.168 103.26 349.625 103.26C354.629 103.26 359.524 102.027 364.31 99.5613L366.594 103.151C364.201 105.109 361.083 106.849 357.24 108.372C353.396 109.895 349.372 110.656 345.166 110.656ZM332.765 78.1329L355.282 76.175C356.007 76.1024 356.369 75.4135 356.369 74.1083C356.369 70.9176 355.499 68.162 353.759 65.8415C352.091 63.5209 349.227 62.3607 345.166 62.3607C341.105 62.3607 338.132 63.7385 336.246 66.4941C334.433 69.1772 333.273 73.0568 332.765 78.1329ZM371.874 122.404C373.614 122.621 376.007 122.73 379.053 122.73C382.171 122.73 384.637 122.331 386.449 121.534C388.262 120.808 390.438 116.856 392.976 109.677L374.919 66.3853C374.339 65.0075 373.795 64.1373 373.288 63.7748C372.853 63.4122 371.475 62.9771 369.154 62.4695L369.807 58.2273H392.214L392.65 62.4695L386.014 64.1011C385.507 64.1736 385.253 64.4637 385.253 64.9713C385.253 65.0438 385.398 65.5151 385.688 66.3853L396.783 95.4279C397.146 96.4431 397.327 97.5671 397.327 98.7999H398.197L409.727 68.8871C410.162 67.7269 410.38 66.7842 410.38 66.059C410.38 65.2613 409.836 64.6087 408.748 64.1011C407.733 63.5935 405.884 63.0496 403.201 62.4695L403.853 58.2273H423.215L423.65 62.4695C420.459 63.1946 418.755 63.811 418.538 64.3186L401.351 106.958C399.901 110.584 398.741 113.339 397.871 115.225C397.001 117.183 395.804 119.358 394.281 121.751C392.758 124.144 391.163 125.993 389.495 127.299C385.362 130.417 380.358 132.483 374.484 133.499C372.599 131.613 371.656 128.64 371.656 124.579C371.656 124.144 371.729 123.419 371.874 122.404ZM451.387 109.677H420.169V105.435C425.028 104.71 427.82 103.586 428.545 102.063C428.907 101.483 429.234 100.359 429.524 98.6911L438.661 45.2832C438.878 44.268 438.987 43.3253 438.987 42.4551C438.987 41.5124 438.48 40.7872 437.464 40.2796C436.522 39.6995 434.564 39.1194 431.591 38.5393L432.243 34.2971H462.156C468.827 34.2971 474.012 35.7837 477.711 38.7568C481.481 41.73 483.367 45.6821 483.367 50.6131C483.367 55.4717 481.735 59.7139 478.472 63.3397C475.209 66.8929 471.837 69.2134 468.356 70.3012V71.0626C472.489 72.1503 475.753 74.1083 478.146 76.9364C480.539 79.692 481.735 83.2815 481.735 87.705C481.735 93.3612 479.596 98.3285 475.318 102.607C473.07 104.782 469.879 106.523 465.746 107.828C461.685 109.061 456.899 109.677 451.387 109.677ZM445.187 67.3643H453.454C459.11 67.3643 463.498 66.0953 466.616 63.5572C469.806 61.0192 471.402 57.2121 471.402 52.136C471.402 44.0867 466.724 40.0621 457.37 40.0621H449.756L445.187 67.3643ZM454.759 73.4556H444.208L440.075 99.1262C439.857 100.286 439.785 101.157 439.857 101.737C439.93 102.244 440.292 102.643 440.945 102.933C442.685 103.803 445.514 104.239 449.429 104.239C462.99 104.239 469.77 98.7999 469.77 87.9225C469.77 82.0487 468.03 78.0966 464.549 76.0662C461.576 74.3258 458.313 73.4556 454.759 73.4556Z" fill="#F47000"/>
</svg>
