<svg width="351" height="105" viewBox="0 0 351 105" fill="none" xmlns="http://www.w3.org/2000/svg">
<mask id="path-1-outside-1_1808_113066" maskUnits="userSpaceOnUse" x="136" y="-0.800049" width="82" height="26" fill="black">
<rect fill="white" x="136" y="-0.800049" width="82" height="26"/>
<path d="M149.167 5.52291V17.663C149.167 19.8627 148.602 21.5022 147.473 22.5813C146.364 23.6396 144.824 24.1688 142.853 24.1688C141.087 24.1688 139.67 23.816 138.602 23.1105C137.534 22.4049 137 21.471 137 20.3089C137 19.8939 137.082 19.5099 137.246 19.1571C137.308 19.0245 137.374 18.9022 137.445 18.7901C137.655 18.4562 138.051 18.3167 138.445 18.3167H138.618C139.392 18.3167 140.019 18.9438 140.019 19.7175C140.019 20.7758 140.296 21.5644 140.85 22.0832C141.425 22.5813 142.154 22.8303 143.037 22.8303C143.961 22.8303 144.711 22.4879 145.286 21.8031C145.882 21.0975 146.179 19.8835 146.179 18.161V5.52291C146.179 4.87959 146.056 4.40229 145.81 4.091C145.584 3.77972 145.235 3.5722 144.762 3.46843C144.45 3.38245 144.085 3.32121 143.665 3.28471C143.333 3.25585 143.068 2.98585 143.068 2.65282C143.068 2.31245 143.344 2.03653 143.684 2.03653H151.696C152.035 2.03653 152.309 2.31104 152.309 2.64966C152.309 2.98346 152.042 3.25318 151.709 3.27899C150.973 3.33606 150.393 3.47185 149.968 3.68633C149.434 3.95611 149.167 4.5683 149.167 5.52291Z"/>
<path d="M158.478 7.07933C158.84 7.07933 159.133 7.37247 159.133 7.73409V21.0249C159.133 21.7304 159.349 22.1766 159.78 22.3634C160.119 22.5038 160.529 22.6207 161.008 22.7142C161.292 22.7698 161.505 23.0138 161.505 23.3037C161.505 23.6268 161.243 23.8887 160.92 23.8887H154.513C154.19 23.8887 153.927 23.6262 153.927 23.3025C153.927 23.013 154.139 22.769 154.423 22.7118C154.885 22.6188 155.285 22.5026 155.621 22.3634C156.073 22.1766 156.299 21.7304 156.299 21.0249V11.6144C156.299 10.8581 155.869 10.1677 155.19 9.83419L154.357 9.42511C154.188 9.34206 154.081 9.17011 154.081 8.98176C154.081 8.77404 154.211 8.5885 154.406 8.51754L158.254 7.11873C158.326 7.09266 158.402 7.07933 158.478 7.07933ZM157.593 4.86921C157.038 4.86921 156.566 4.67207 156.176 4.27777C155.786 3.86273 155.591 3.36467 155.591 2.78361C155.591 2.20255 155.786 1.71487 156.176 1.32057C156.566 0.905528 157.038 0.698005 157.593 0.698005C158.147 0.698005 158.62 0.905528 159.01 1.32057C159.4 1.71487 159.595 2.20255 159.595 2.78361C159.595 3.36467 159.4 3.86273 159.01 4.27777C158.62 4.67207 158.147 4.86921 157.593 4.86921Z"/>
<path d="M176.422 21.0249V12.4023C176.422 11.2817 176.186 10.5035 175.714 10.0677C175.262 9.6111 174.543 9.38283 173.558 9.38283C172.757 9.38283 171.946 9.53847 171.124 9.84976C170.822 9.96728 170.534 10.0966 170.261 10.2378C169.437 10.664 169.03 11.5727 169.03 12.5007V21.0249C169.03 21.7304 169.245 22.1766 169.676 22.3634C170.016 22.5038 170.425 22.6207 170.904 22.7142C171.189 22.7698 171.401 23.0138 171.401 23.3037C171.401 23.6268 171.14 23.8887 170.816 23.8887H164.41C164.086 23.8887 163.824 23.6262 163.824 23.3025C163.824 23.013 164.036 22.769 164.32 22.7118C164.782 22.6188 165.181 22.5026 165.518 22.3634C165.97 22.1766 166.196 21.7304 166.196 21.0249V11.6144C166.196 10.8581 165.766 10.1677 165.087 9.83419L164.254 9.42511C164.085 9.34206 163.978 9.17011 163.978 8.98176C163.978 8.77404 164.108 8.5885 164.303 8.51754L168.151 7.11873C168.223 7.09266 168.299 7.07933 168.375 7.07933C168.736 7.07933 169.03 7.37248 169.03 7.73409V7.98632C169.03 8.78776 170.013 9.21511 170.64 8.71596C170.647 8.70997 170.655 8.70399 170.662 8.69801C171.258 8.2207 171.905 7.83679 172.603 7.54625C173.321 7.23497 174.102 7.07933 174.944 7.07933C176.279 7.07933 177.326 7.47362 178.086 8.26221C178.866 9.05079 179.256 10.3582 179.256 12.1844V21.0249C179.256 21.7304 179.482 22.1766 179.934 22.3634C180.273 22.5038 180.683 22.6207 181.162 22.7142C181.446 22.7698 181.659 23.0138 181.659 23.3037C181.659 23.6268 181.397 23.8887 181.074 23.8887H174.637C174.313 23.8887 174.05 23.6262 174.05 23.3025C174.05 23.013 174.262 22.769 174.546 22.7118C175.008 22.6188 175.408 22.5026 175.745 22.3634C176.196 22.1766 176.422 21.7304 176.422 21.0249Z"/>
<path d="M184.972 4.74889C184.972 3.98482 184.535 3.28797 183.848 2.95481L183.001 2.54448C182.831 2.46228 182.723 2.29033 182.723 2.1018C182.723 1.89452 182.853 1.70947 183.048 1.63911L186.928 0.238875C186.999 0.213121 187.074 0.199951 187.15 0.199951C187.512 0.199951 187.806 0.493395 187.806 0.855375V6.78242C187.806 7.75677 189.202 8.29819 190.054 7.82641C190.917 7.32836 191.913 7.07933 193.042 7.07933C194.459 7.07933 195.64 7.43212 196.585 8.13769C197.529 8.82252 198.238 9.75637 198.71 10.9393C199.203 12.1221 199.449 13.4295 199.449 14.8614C199.449 16.7706 199.09 18.4308 198.371 19.842C197.673 21.2324 196.728 22.3115 195.537 23.0793C194.346 23.8264 193.022 24.2 191.564 24.2C190.044 24.2 188.72 23.9924 187.59 23.5774C187.052 23.366 186.57 23.1425 186.143 22.9067C185.357 22.4722 184.972 21.5962 184.972 20.6976V4.74889ZM191.779 22.768C193.217 22.768 194.377 22.1766 195.26 20.9937C196.164 19.7901 196.615 18.1818 196.615 16.1688C196.615 14.9859 196.451 13.8653 196.123 12.807C195.815 11.7278 195.301 10.8562 194.582 10.1922C193.884 9.50734 192.96 9.16493 191.81 9.16493C191.05 9.16493 190.311 9.29982 189.592 9.5696C189.295 9.67263 189.019 9.79696 188.764 9.94261C188.084 10.3307 187.806 11.1267 187.806 11.9097V18.4412C187.806 20.0184 188.165 21.139 188.884 21.8031C189.623 22.4464 190.588 22.768 191.779 22.768Z"/>
<path d="M207.42 22.021C208.139 22.021 208.786 21.9068 209.361 21.6786C209.544 21.6084 209.729 21.5265 209.916 21.4328C210.776 21.0014 211.209 20.0536 211.209 19.0909V17.2316C211.209 16.1791 210.153 15.4539 209.171 15.8314L206.835 16.7291C206.26 16.9367 205.798 17.2583 205.449 17.6941C205.12 18.1299 204.956 18.6487 204.956 19.2505C204.956 20.1429 205.172 20.8277 205.603 21.305C206.034 21.7823 206.64 22.021 207.42 22.021ZM214.074 12.3089C214.074 12.5164 214.063 12.8692 214.043 13.3673C214.043 13.8653 214.043 14.436 214.043 15.0793C214.043 15.7226 214.033 16.3763 214.012 17.0404C214.012 17.7045 214.002 18.3063 213.981 18.8459C213.981 19.3647 213.981 19.759 213.981 20.0287C213.981 20.7136 214.105 21.2428 214.351 21.6163C214.597 21.9691 214.946 22.1455 215.398 22.1455C215.542 22.1455 215.758 22.1351 216.045 22.1143C216.152 22.1 216.253 22.0844 216.35 22.0676C216.621 22.0204 216.893 22.1869 216.949 22.4562C216.981 22.6121 216.933 22.7746 216.818 22.8841C216.365 23.3135 215.913 23.6379 215.46 23.8575C214.967 24.0858 214.454 24.2 213.92 24.2C213.139 24.2 212.544 23.9405 212.133 23.4217C212.058 23.3234 211.988 23.2203 211.922 23.1124C211.536 22.4816 210.54 22.1963 209.977 22.6747C209.464 23.1105 208.889 23.4736 208.252 23.7642C207.615 24.0547 206.917 24.2 206.157 24.2C204.761 24.2 203.724 23.7849 203.046 22.9548C202.389 22.1247 202.061 21.139 202.061 19.9976C202.061 19.0223 202.276 18.244 202.707 17.663C203.139 17.0819 203.683 16.615 204.34 16.2622C205.018 15.9094 205.685 15.6189 206.342 15.3906L209.776 14.1387C210.636 13.825 211.209 13.0069 211.209 12.091C211.209 11.4684 211.117 10.8874 210.932 10.3478C210.768 9.80825 210.459 9.38283 210.008 9.07155C209.576 8.73951 208.96 8.57349 208.16 8.57349C207.338 8.57349 206.712 8.76026 206.281 9.1338C205.849 9.50734 205.634 10.0884 205.634 10.877C205.634 11.1468 205.644 11.4062 205.664 11.6552C205.739 12.1063 205.449 12.5496 204.996 12.6106L204.274 12.7079C203.814 12.7699 203.331 12.6124 203.107 12.2064C203.086 12.1682 203.065 12.1297 203.046 12.091C202.944 11.8212 202.892 11.4996 202.892 11.126C202.892 10.2752 203.149 9.54885 203.662 8.94703C204.176 8.34522 204.874 7.88867 205.757 7.57738C206.64 7.24535 207.636 7.07933 208.745 7.07933C209.936 7.07933 210.922 7.28685 211.702 7.7019C212.482 8.09619 213.067 8.67725 213.458 9.44509C213.868 10.2129 214.074 11.1675 214.074 12.3089Z"/>
</mask>
<path d="M149.167 5.52291V17.663C149.167 19.8627 148.602 21.5022 147.473 22.5813C146.364 23.6396 144.824 24.1688 142.853 24.1688C141.087 24.1688 139.67 23.816 138.602 23.1105C137.534 22.4049 137 21.471 137 20.3089C137 19.8939 137.082 19.5099 137.246 19.1571C137.308 19.0245 137.374 18.9022 137.445 18.7901C137.655 18.4562 138.051 18.3167 138.445 18.3167H138.618C139.392 18.3167 140.019 18.9438 140.019 19.7175C140.019 20.7758 140.296 21.5644 140.85 22.0832C141.425 22.5813 142.154 22.8303 143.037 22.8303C143.961 22.8303 144.711 22.4879 145.286 21.8031C145.882 21.0975 146.179 19.8835 146.179 18.161V5.52291C146.179 4.87959 146.056 4.40229 145.81 4.091C145.584 3.77972 145.235 3.5722 144.762 3.46843C144.45 3.38245 144.085 3.32121 143.665 3.28471C143.333 3.25585 143.068 2.98585 143.068 2.65282C143.068 2.31245 143.344 2.03653 143.684 2.03653H151.696C152.035 2.03653 152.309 2.31104 152.309 2.64966C152.309 2.98346 152.042 3.25318 151.709 3.27899C150.973 3.33606 150.393 3.47185 149.968 3.68633C149.434 3.95611 149.167 4.5683 149.167 5.52291Z" fill="#2C50B5"/>
<path d="M158.478 7.07933C158.84 7.07933 159.133 7.37247 159.133 7.73409V21.0249C159.133 21.7304 159.349 22.1766 159.78 22.3634C160.119 22.5038 160.529 22.6207 161.008 22.7142C161.292 22.7698 161.505 23.0138 161.505 23.3037C161.505 23.6268 161.243 23.8887 160.92 23.8887H154.513C154.19 23.8887 153.927 23.6262 153.927 23.3025C153.927 23.013 154.139 22.769 154.423 22.7118C154.885 22.6188 155.285 22.5026 155.621 22.3634C156.073 22.1766 156.299 21.7304 156.299 21.0249V11.6144C156.299 10.8581 155.869 10.1677 155.19 9.83419L154.357 9.42511C154.188 9.34206 154.081 9.17011 154.081 8.98176C154.081 8.77404 154.211 8.5885 154.406 8.51754L158.254 7.11873C158.326 7.09266 158.402 7.07933 158.478 7.07933ZM157.593 4.86921C157.038 4.86921 156.566 4.67207 156.176 4.27777C155.786 3.86273 155.591 3.36467 155.591 2.78361C155.591 2.20255 155.786 1.71487 156.176 1.32057C156.566 0.905528 157.038 0.698005 157.593 0.698005C158.147 0.698005 158.62 0.905528 159.01 1.32057C159.4 1.71487 159.595 2.20255 159.595 2.78361C159.595 3.36467 159.4 3.86273 159.01 4.27777C158.62 4.67207 158.147 4.86921 157.593 4.86921Z" fill="#2C50B5"/>
<path d="M176.422 21.0249V12.4023C176.422 11.2817 176.186 10.5035 175.714 10.0677C175.262 9.6111 174.543 9.38283 173.558 9.38283C172.757 9.38283 171.946 9.53847 171.124 9.84976C170.822 9.96728 170.534 10.0966 170.261 10.2378C169.437 10.664 169.03 11.5727 169.03 12.5007V21.0249C169.03 21.7304 169.245 22.1766 169.676 22.3634C170.016 22.5038 170.425 22.6207 170.904 22.7142C171.189 22.7698 171.401 23.0138 171.401 23.3037C171.401 23.6268 171.14 23.8887 170.816 23.8887H164.41C164.086 23.8887 163.824 23.6262 163.824 23.3025C163.824 23.013 164.036 22.769 164.32 22.7118C164.782 22.6188 165.181 22.5026 165.518 22.3634C165.97 22.1766 166.196 21.7304 166.196 21.0249V11.6144C166.196 10.8581 165.766 10.1677 165.087 9.83419L164.254 9.42511C164.085 9.34206 163.978 9.17011 163.978 8.98176C163.978 8.77404 164.108 8.5885 164.303 8.51754L168.151 7.11873C168.223 7.09266 168.299 7.07933 168.375 7.07933C168.736 7.07933 169.03 7.37248 169.03 7.73409V7.98632C169.03 8.78776 170.013 9.21511 170.64 8.71596C170.647 8.70997 170.655 8.70399 170.662 8.69801C171.258 8.2207 171.905 7.83679 172.603 7.54625C173.321 7.23497 174.102 7.07933 174.944 7.07933C176.279 7.07933 177.326 7.47362 178.086 8.26221C178.866 9.05079 179.256 10.3582 179.256 12.1844V21.0249C179.256 21.7304 179.482 22.1766 179.934 22.3634C180.273 22.5038 180.683 22.6207 181.162 22.7142C181.446 22.7698 181.659 23.0138 181.659 23.3037C181.659 23.6268 181.397 23.8887 181.074 23.8887H174.637C174.313 23.8887 174.05 23.6262 174.05 23.3025C174.05 23.013 174.262 22.769 174.546 22.7118C175.008 22.6188 175.408 22.5026 175.745 22.3634C176.196 22.1766 176.422 21.7304 176.422 21.0249Z" fill="#2C50B5"/>
<path d="M184.972 4.74889C184.972 3.98482 184.535 3.28797 183.848 2.95481L183.001 2.54448C182.831 2.46228 182.723 2.29033 182.723 2.1018C182.723 1.89452 182.853 1.70947 183.048 1.63911L186.928 0.238875C186.999 0.213121 187.074 0.199951 187.15 0.199951C187.512 0.199951 187.806 0.493395 187.806 0.855375V6.78242C187.806 7.75677 189.202 8.29819 190.054 7.82641C190.917 7.32836 191.913 7.07933 193.042 7.07933C194.459 7.07933 195.64 7.43212 196.585 8.13769C197.529 8.82252 198.238 9.75637 198.71 10.9393C199.203 12.1221 199.449 13.4295 199.449 14.8614C199.449 16.7706 199.09 18.4308 198.371 19.842C197.673 21.2324 196.728 22.3115 195.537 23.0793C194.346 23.8264 193.022 24.2 191.564 24.2C190.044 24.2 188.72 23.9924 187.59 23.5774C187.052 23.366 186.57 23.1425 186.143 22.9067C185.357 22.4722 184.972 21.5962 184.972 20.6976V4.74889ZM191.779 22.768C193.217 22.768 194.377 22.1766 195.26 20.9937C196.164 19.7901 196.615 18.1818 196.615 16.1688C196.615 14.9859 196.451 13.8653 196.123 12.807C195.815 11.7278 195.301 10.8562 194.582 10.1922C193.884 9.50734 192.96 9.16493 191.81 9.16493C191.05 9.16493 190.311 9.29982 189.592 9.5696C189.295 9.67263 189.019 9.79696 188.764 9.94261C188.084 10.3307 187.806 11.1267 187.806 11.9097V18.4412C187.806 20.0184 188.165 21.139 188.884 21.8031C189.623 22.4464 190.588 22.768 191.779 22.768Z" fill="#2C50B5"/>
<path d="M207.42 22.021C208.139 22.021 208.786 21.9068 209.361 21.6786C209.544 21.6084 209.729 21.5265 209.916 21.4328C210.776 21.0014 211.209 20.0536 211.209 19.0909V17.2316C211.209 16.1791 210.153 15.4539 209.171 15.8314L206.835 16.7291C206.26 16.9367 205.798 17.2583 205.449 17.6941C205.12 18.1299 204.956 18.6487 204.956 19.2505C204.956 20.1429 205.172 20.8277 205.603 21.305C206.034 21.7823 206.64 22.021 207.42 22.021ZM214.074 12.3089C214.074 12.5164 214.063 12.8692 214.043 13.3673C214.043 13.8653 214.043 14.436 214.043 15.0793C214.043 15.7226 214.033 16.3763 214.012 17.0404C214.012 17.7045 214.002 18.3063 213.981 18.8459C213.981 19.3647 213.981 19.759 213.981 20.0287C213.981 20.7136 214.105 21.2428 214.351 21.6163C214.597 21.9691 214.946 22.1455 215.398 22.1455C215.542 22.1455 215.758 22.1351 216.045 22.1143C216.152 22.1 216.253 22.0844 216.35 22.0676C216.621 22.0204 216.893 22.1869 216.949 22.4562C216.981 22.6121 216.933 22.7746 216.818 22.8841C216.365 23.3135 215.913 23.6379 215.46 23.8575C214.967 24.0858 214.454 24.2 213.92 24.2C213.139 24.2 212.544 23.9405 212.133 23.4217C212.058 23.3234 211.988 23.2203 211.922 23.1124C211.536 22.4816 210.54 22.1963 209.977 22.6747C209.464 23.1105 208.889 23.4736 208.252 23.7642C207.615 24.0547 206.917 24.2 206.157 24.2C204.761 24.2 203.724 23.7849 203.046 22.9548C202.389 22.1247 202.061 21.139 202.061 19.9976C202.061 19.0223 202.276 18.244 202.707 17.663C203.139 17.0819 203.683 16.615 204.34 16.2622C205.018 15.9094 205.685 15.6189 206.342 15.3906L209.776 14.1387C210.636 13.825 211.209 13.0069 211.209 12.091C211.209 11.4684 211.117 10.8874 210.932 10.3478C210.768 9.80825 210.459 9.38283 210.008 9.07155C209.576 8.73951 208.96 8.57349 208.16 8.57349C207.338 8.57349 206.712 8.76026 206.281 9.1338C205.849 9.50734 205.634 10.0884 205.634 10.877C205.634 11.1468 205.644 11.4062 205.664 11.6552C205.739 12.1063 205.449 12.5496 204.996 12.6106L204.274 12.7079C203.814 12.7699 203.331 12.6124 203.107 12.2064C203.086 12.1682 203.065 12.1297 203.046 12.091C202.944 11.8212 202.892 11.4996 202.892 11.126C202.892 10.2752 203.149 9.54885 203.662 8.94703C204.176 8.34522 204.874 7.88867 205.757 7.57738C206.64 7.24535 207.636 7.07933 208.745 7.07933C209.936 7.07933 210.922 7.28685 211.702 7.7019C212.482 8.09619 213.067 8.67725 213.458 9.44509C213.868 10.2129 214.074 11.1675 214.074 12.3089Z" fill="#2C50B5"/>
<path d="M149.167 5.52291V17.663C149.167 19.8627 148.602 21.5022 147.473 22.5813C146.364 23.6396 144.824 24.1688 142.853 24.1688C141.087 24.1688 139.67 23.816 138.602 23.1105C137.534 22.4049 137 21.471 137 20.3089C137 19.8939 137.082 19.5099 137.246 19.1571C137.308 19.0245 137.374 18.9022 137.445 18.7901C137.655 18.4562 138.051 18.3167 138.445 18.3167H138.618C139.392 18.3167 140.019 18.9438 140.019 19.7175C140.019 20.7758 140.296 21.5644 140.85 22.0832C141.425 22.5813 142.154 22.8303 143.037 22.8303C143.961 22.8303 144.711 22.4879 145.286 21.8031C145.882 21.0975 146.179 19.8835 146.179 18.161V5.52291C146.179 4.87959 146.056 4.40229 145.81 4.091C145.584 3.77972 145.235 3.5722 144.762 3.46843C144.45 3.38245 144.085 3.32121 143.665 3.28471C143.333 3.25585 143.068 2.98585 143.068 2.65282C143.068 2.31245 143.344 2.03653 143.684 2.03653H151.696C152.035 2.03653 152.309 2.31104 152.309 2.64966C152.309 2.98346 152.042 3.25318 151.709 3.27899C150.973 3.33606 150.393 3.47185 149.968 3.68633C149.434 3.95611 149.167 4.5683 149.167 5.52291Z" stroke="#2C50B5" stroke-width="0.4" mask="url(#path-1-outside-1_1808_113066)"/>
<path d="M158.478 7.07933C158.84 7.07933 159.133 7.37247 159.133 7.73409V21.0249C159.133 21.7304 159.349 22.1766 159.78 22.3634C160.119 22.5038 160.529 22.6207 161.008 22.7142C161.292 22.7698 161.505 23.0138 161.505 23.3037C161.505 23.6268 161.243 23.8887 160.92 23.8887H154.513C154.19 23.8887 153.927 23.6262 153.927 23.3025C153.927 23.013 154.139 22.769 154.423 22.7118C154.885 22.6188 155.285 22.5026 155.621 22.3634C156.073 22.1766 156.299 21.7304 156.299 21.0249V11.6144C156.299 10.8581 155.869 10.1677 155.19 9.83419L154.357 9.42511C154.188 9.34206 154.081 9.17011 154.081 8.98176C154.081 8.77404 154.211 8.5885 154.406 8.51754L158.254 7.11873C158.326 7.09266 158.402 7.07933 158.478 7.07933ZM157.593 4.86921C157.038 4.86921 156.566 4.67207 156.176 4.27777C155.786 3.86273 155.591 3.36467 155.591 2.78361C155.591 2.20255 155.786 1.71487 156.176 1.32057C156.566 0.905528 157.038 0.698005 157.593 0.698005C158.147 0.698005 158.62 0.905528 159.01 1.32057C159.4 1.71487 159.595 2.20255 159.595 2.78361C159.595 3.36467 159.4 3.86273 159.01 4.27777C158.62 4.67207 158.147 4.86921 157.593 4.86921Z" stroke="#2C50B5" stroke-width="0.4" mask="url(#path-1-outside-1_1808_113066)"/>
<path d="M176.422 21.0249V12.4023C176.422 11.2817 176.186 10.5035 175.714 10.0677C175.262 9.6111 174.543 9.38283 173.558 9.38283C172.757 9.38283 171.946 9.53847 171.124 9.84976C170.822 9.96728 170.534 10.0966 170.261 10.2378C169.437 10.664 169.03 11.5727 169.03 12.5007V21.0249C169.03 21.7304 169.245 22.1766 169.676 22.3634C170.016 22.5038 170.425 22.6207 170.904 22.7142C171.189 22.7698 171.401 23.0138 171.401 23.3037C171.401 23.6268 171.14 23.8887 170.816 23.8887H164.41C164.086 23.8887 163.824 23.6262 163.824 23.3025C163.824 23.013 164.036 22.769 164.32 22.7118C164.782 22.6188 165.181 22.5026 165.518 22.3634C165.97 22.1766 166.196 21.7304 166.196 21.0249V11.6144C166.196 10.8581 165.766 10.1677 165.087 9.83419L164.254 9.42511C164.085 9.34206 163.978 9.17011 163.978 8.98176C163.978 8.77404 164.108 8.5885 164.303 8.51754L168.151 7.11873C168.223 7.09266 168.299 7.07933 168.375 7.07933C168.736 7.07933 169.03 7.37248 169.03 7.73409V7.98632C169.03 8.78776 170.013 9.21511 170.64 8.71596C170.647 8.70997 170.655 8.70399 170.662 8.69801C171.258 8.2207 171.905 7.83679 172.603 7.54625C173.321 7.23497 174.102 7.07933 174.944 7.07933C176.279 7.07933 177.326 7.47362 178.086 8.26221C178.866 9.05079 179.256 10.3582 179.256 12.1844V21.0249C179.256 21.7304 179.482 22.1766 179.934 22.3634C180.273 22.5038 180.683 22.6207 181.162 22.7142C181.446 22.7698 181.659 23.0138 181.659 23.3037C181.659 23.6268 181.397 23.8887 181.074 23.8887H174.637C174.313 23.8887 174.05 23.6262 174.05 23.3025C174.05 23.013 174.262 22.769 174.546 22.7118C175.008 22.6188 175.408 22.5026 175.745 22.3634C176.196 22.1766 176.422 21.7304 176.422 21.0249Z" stroke="#2C50B5" stroke-width="0.4" mask="url(#path-1-outside-1_1808_113066)"/>
<path d="M184.972 4.74889C184.972 3.98482 184.535 3.28797 183.848 2.95481L183.001 2.54448C182.831 2.46228 182.723 2.29033 182.723 2.1018C182.723 1.89452 182.853 1.70947 183.048 1.63911L186.928 0.238875C186.999 0.213121 187.074 0.199951 187.15 0.199951C187.512 0.199951 187.806 0.493395 187.806 0.855375V6.78242C187.806 7.75677 189.202 8.29819 190.054 7.82641C190.917 7.32836 191.913 7.07933 193.042 7.07933C194.459 7.07933 195.64 7.43212 196.585 8.13769C197.529 8.82252 198.238 9.75637 198.71 10.9393C199.203 12.1221 199.449 13.4295 199.449 14.8614C199.449 16.7706 199.09 18.4308 198.371 19.842C197.673 21.2324 196.728 22.3115 195.537 23.0793C194.346 23.8264 193.022 24.2 191.564 24.2C190.044 24.2 188.72 23.9924 187.59 23.5774C187.052 23.366 186.57 23.1425 186.143 22.9067C185.357 22.4722 184.972 21.5962 184.972 20.6976V4.74889ZM191.779 22.768C193.217 22.768 194.377 22.1766 195.26 20.9937C196.164 19.7901 196.615 18.1818 196.615 16.1688C196.615 14.9859 196.451 13.8653 196.123 12.807C195.815 11.7278 195.301 10.8562 194.582 10.1922C193.884 9.50734 192.96 9.16493 191.81 9.16493C191.05 9.16493 190.311 9.29982 189.592 9.5696C189.295 9.67263 189.019 9.79696 188.764 9.94261C188.084 10.3307 187.806 11.1267 187.806 11.9097V18.4412C187.806 20.0184 188.165 21.139 188.884 21.8031C189.623 22.4464 190.588 22.768 191.779 22.768Z" stroke="#2C50B5" stroke-width="0.4" mask="url(#path-1-outside-1_1808_113066)"/>
<path d="M207.42 22.021C208.139 22.021 208.786 21.9068 209.361 21.6786C209.544 21.6084 209.729 21.5265 209.916 21.4328C210.776 21.0014 211.209 20.0536 211.209 19.0909V17.2316C211.209 16.1791 210.153 15.4539 209.171 15.8314L206.835 16.7291C206.26 16.9367 205.798 17.2583 205.449 17.6941C205.12 18.1299 204.956 18.6487 204.956 19.2505C204.956 20.1429 205.172 20.8277 205.603 21.305C206.034 21.7823 206.64 22.021 207.42 22.021ZM214.074 12.3089C214.074 12.5164 214.063 12.8692 214.043 13.3673C214.043 13.8653 214.043 14.436 214.043 15.0793C214.043 15.7226 214.033 16.3763 214.012 17.0404C214.012 17.7045 214.002 18.3063 213.981 18.8459C213.981 19.3647 213.981 19.759 213.981 20.0287C213.981 20.7136 214.105 21.2428 214.351 21.6163C214.597 21.9691 214.946 22.1455 215.398 22.1455C215.542 22.1455 215.758 22.1351 216.045 22.1143C216.152 22.1 216.253 22.0844 216.35 22.0676C216.621 22.0204 216.893 22.1869 216.949 22.4562C216.981 22.6121 216.933 22.7746 216.818 22.8841C216.365 23.3135 215.913 23.6379 215.46 23.8575C214.967 24.0858 214.454 24.2 213.92 24.2C213.139 24.2 212.544 23.9405 212.133 23.4217C212.058 23.3234 211.988 23.2203 211.922 23.1124C211.536 22.4816 210.54 22.1963 209.977 22.6747C209.464 23.1105 208.889 23.4736 208.252 23.7642C207.615 24.0547 206.917 24.2 206.157 24.2C204.761 24.2 203.724 23.7849 203.046 22.9548C202.389 22.1247 202.061 21.139 202.061 19.9976C202.061 19.0223 202.276 18.244 202.707 17.663C203.139 17.0819 203.683 16.615 204.34 16.2622C205.018 15.9094 205.685 15.6189 206.342 15.3906L209.776 14.1387C210.636 13.825 211.209 13.0069 211.209 12.091C211.209 11.4684 211.117 10.8874 210.932 10.3478C210.768 9.80825 210.459 9.38283 210.008 9.07155C209.576 8.73951 208.96 8.57349 208.16 8.57349C207.338 8.57349 206.712 8.76026 206.281 9.1338C205.849 9.50734 205.634 10.0884 205.634 10.877C205.634 11.1468 205.644 11.4062 205.664 11.6552C205.739 12.1063 205.449 12.5496 204.996 12.6106L204.274 12.7079C203.814 12.7699 203.331 12.6124 203.107 12.2064C203.086 12.1682 203.065 12.1297 203.046 12.091C202.944 11.8212 202.892 11.4996 202.892 11.126C202.892 10.2752 203.149 9.54885 203.662 8.94703C204.176 8.34522 204.874 7.88867 205.757 7.57738C206.64 7.24535 207.636 7.07933 208.745 7.07933C209.936 7.07933 210.922 7.28685 211.702 7.7019C212.482 8.09619 213.067 8.67725 213.458 9.44509C213.868 10.2129 214.074 11.1675 214.074 12.3089Z" stroke="#2C50B5" stroke-width="0.4" mask="url(#path-1-outside-1_1808_113066)"/>
<path d="M170.075 101.227C170.075 102.332 169.179 103.227 168.075 103.227H138C136.895 103.227 136 102.332 136 101.227V100.5C136 99.4181 136.863 98.5418 137.942 98.4637C143.125 98.0882 145.329 96.6925 145.329 91.554V46.6124C145.329 41.474 143.125 40.0783 137.942 39.7028C136.863 39.6246 136 38.7483 136 37.6668V36.9393C136 35.8347 136.895 34.9393 138 34.9393H188.303C189.408 34.9393 190.303 35.8347 190.303 36.9393V50.3517C190.303 51.4563 189.408 52.3517 188.303 52.3517H187.514C186.706 52.3517 185.978 51.8619 185.658 51.1201C182.448 43.6868 179.592 40.0949 172.137 40.0949H159.8C158.695 40.0949 157.8 40.9903 157.8 42.0949V64.8459C157.8 65.9504 158.695 66.8459 159.8 66.8459H169.878C173.773 66.8459 175.593 64.7905 176.706 60.1096C176.928 59.1715 177.746 58.4801 178.71 58.4801H179.269C180.374 58.4801 181.269 59.3755 181.269 60.4801V78.5618C181.269 79.6664 180.374 80.5618 179.269 80.5618H178.715C177.749 80.5618 176.93 79.8677 176.71 78.9265C175.599 74.16 173.779 72.0988 169.878 72.0988H159.8C158.695 72.0988 157.8 72.9942 157.8 74.0988V91.7486C157.8 96.9226 161.434 98.0881 168.171 98.5459C169.235 98.6182 170.075 99.4932 170.075 100.56V101.227Z" fill="#2C50B5"/>
<path d="M208.95 29.2C210.055 29.2 210.95 30.0954 210.95 31.2V93.305C210.95 97.1487 212.979 98.0496 216.29 98.5972C217.277 98.7606 218.02 99.5967 218.02 100.598V101.227C218.02 102.332 217.125 103.227 216.02 103.227H193.998C192.893 103.227 191.998 102.332 191.998 101.227V100.603C191.998 99.5996 192.744 98.7619 193.735 98.602C197.126 98.0549 199.166 97.1601 199.166 93.305V41.5077C199.166 40.8113 198.804 40.1651 198.21 39.8017L193.41 36.8649C192.838 36.5147 192.489 35.8919 192.489 35.2209C192.489 34.3627 193.056 33.6078 193.881 33.3694L208.027 29.2787C208.207 29.2265 208.394 29.2 208.582 29.2H208.95Z" fill="#2C50B5"/>
<path d="M245.827 104.2C230.705 104.2 220.983 93.1105 220.983 78.1299C220.983 61.1066 232.374 50.1143 246.711 50.1143C261.833 50.1143 271.653 61.2038 271.653 76.1844C271.653 93.2077 260.164 104.2 245.827 104.2ZM247.202 98.5579C255.254 98.5579 259.28 90.484 259.28 78.6163C259.28 65.9704 254.272 55.6591 245.434 55.6591C237.284 55.6591 233.258 63.8303 233.258 75.698C233.258 88.3439 238.266 98.5579 247.202 98.5579Z" fill="#2C50B5"/>
<path d="M326.86 81.6337C327.49 83.389 329.967 83.4031 330.617 81.655L338.038 61.6902C338.431 60.5229 338.627 59.6474 338.627 58.8692C338.627 56.8597 337.318 56.2195 334.135 55.646C333.164 55.4709 332.441 54.6388 332.441 53.6519V53.0871C332.441 51.9825 333.336 51.0871 334.441 51.0871H349C350.105 51.0871 351 51.9825 351 53.0871V53.9534C351 54.8008 350.463 55.5535 349.667 55.8438C346.711 56.9221 346.095 57.373 345.403 59.2583L328.421 102.733C328.121 103.5 327.381 104.005 326.558 104.005H325.758C324.932 104.005 324.192 103.498 323.893 102.729L313.354 75.5527C312.699 73.8619 310.312 73.8466 309.634 75.5289L298.674 102.752C298.369 103.509 297.635 104.005 296.819 104.005H296.079C295.265 104.005 294.532 103.512 294.226 102.758L276.566 59.2583C275.792 57.3849 275.169 56.8533 272.325 55.8362C271.517 55.5475 270.969 54.7901 270.969 53.9325V53.0871C270.969 51.9825 271.864 51.0871 272.969 51.0871H293.518C294.623 51.0871 295.518 51.9825 295.518 53.0871V53.664C295.518 54.6456 294.802 55.4726 293.84 55.6676C290.847 56.2743 289.626 57.0253 289.626 58.7719C289.626 59.6474 289.921 60.7175 290.412 61.9821L297.893 81.9532C298.539 83.6761 300.972 83.6871 301.633 81.9702L308.312 64.6204C308.484 64.1734 308.49 63.6795 308.329 63.2285L306.909 59.2583C306.228 57.4029 305.621 56.7905 302.976 55.8363C302.164 55.5435 301.607 54.7844 301.607 53.9215V53.0871C301.607 51.9825 302.502 51.0871 303.607 51.0871H323.272C324.377 51.0871 325.272 51.9825 325.272 53.0871V53.6462C325.272 54.6356 324.546 55.4691 323.571 55.6417C320.329 56.2164 319.086 56.8548 319.086 58.8692C319.086 59.7447 319.38 60.8147 319.773 61.8848L326.86 81.6337Z" fill="#2C50B5"/>
<path d="M90.1689 69.1682L109.357 64.8154C109.733 64.7301 110 64.3958 110 64.0102V1.02563C110 0.569619 109.62 0.199625 109.164 0.203516C38.0062 0.810762 0.844627 78.8179 0.0142313 102.413C-0.00180751 102.869 0.369664 103.2 0.825674 103.2H84.3734C84.987 103.2 85.3879 102.555 85.127 102C77.849 86.5124 76.4526 65.7506 77.7004 53.0663C77.7416 52.647 78.0952 52.3358 78.5166 52.3358H84.8826C85.3386 52.3358 85.7076 52.7052 85.7152 53.1612C85.8133 59.0251 86.9593 65.1228 89.3225 68.8318C89.5022 69.114 89.8426 69.2422 90.1689 69.1682Z" fill="#2C50B5"/>
<path d="M34.4305 18.9552C36.5232 20.1751 36.5232 23.2248 34.4305 24.4447L4.70844 41.7706C2.6158 42.9905 -1.76007e-06 41.4656 -1.65342e-06 39.0259L-1.38742e-07 4.37399C-3.20973e-08 1.93425 2.6158 0.409417 4.70845 1.62929L34.4305 18.9552Z" fill="#2C50B5"/>
</svg>
