<svg width="27" height="26" viewBox="0 0 27 26" fill="none" xmlns="http://www.w3.org/2000/svg" xmlns:xlink="http://www.w3.org/1999/xlink">
<g style="mix-blend-mode:luminosity" opacity="0.88" filter="url(#filter0_d_475_7)">
<g filter="url(#filter1_d_475_7)">
<mask id="mask0_475_7" style="mask-type:alpha" maskUnits="userSpaceOnUse" x="1" y="1" width="25" height="24">
<g clip-path="url(#clip0_475_7)">
<path d="M12.9932 25.0001C12.063 24.1613 11.3131 23.166 10.6145 22.1419C10.3829 21.8039 9.981 21.5334 10.0023 21.0427C10.0023 20.9989 9.95721 20.95 9.92341 20.9175C9.32372 20.2289 8.99446 19.3913 8.63014 18.5726C8.52955 18.3103 8.46429 18.0358 8.43609 17.7563C8.40914 17.5599 8.33481 17.373 8.2195 17.2117C7.96911 16.8862 7.93155 16.5056 7.86645 16.1275C7.84266 15.9935 7.84517 15.8483 8.00291 15.7807C8.16066 15.7131 8.26457 15.792 8.3785 15.8796C8.48951 15.9756 8.57255 16.0997 8.61887 16.2389C8.94497 17.1984 9.33134 18.1363 9.77568 19.0471C9.99477 19.4815 10.2765 19.8834 10.5043 20.314C10.8937 21.0439 11.402 21.6912 11.8076 22.4186C12.3084 23.3187 13.0596 24.0461 13.802 24.7585C13.8771 24.8311 13.9785 24.8762 13.9409 25.0089L12.9932 25.0001Z" fill="black"/>
<path d="M6.61528 22.7015C6.27495 22.5272 5.96573 22.2979 5.7001 22.0229C5.36708 21.7162 4.97522 21.4545 4.82373 20.9888C4.80996 20.945 4.75863 20.9087 4.71732 20.8786C3.76207 20.1675 3.25628 19.181 2.86567 18.078C2.56896 17.2392 2.65535 16.3741 2.50636 15.529C2.41622 15.0282 2.63156 14.4861 2.64408 13.9553C2.66127 13.5615 2.74159 13.1731 2.88195 12.8048C2.89948 12.7559 2.93328 12.6883 2.9145 12.6558C2.67788 12.2514 2.96959 11.8495 2.9145 11.4464C2.90499 11.3738 2.91271 11.3001 2.93704 11.231C3.16865 10.5825 3.22999 9.89396 3.40777 9.22792C3.63187 8.39036 3.85096 7.54905 4.19525 6.74905C4.34124 6.4285 4.46669 6.09898 4.57084 5.7625C4.69603 5.33809 4.99776 5.01133 5.24314 4.64701C6.16207 3.29865 7.50292 2.50241 8.95018 1.8539C9.04157 1.81258 9.13046 1.74247 9.26567 1.79756C9.23813 1.95531 9.10041 1.99286 8.98899 2.04795C8.00996 2.48989 7.26129 3.201 6.5965 4.0298C6.27851 4.42667 5.94924 4.81603 5.75018 5.28175C5.49979 5.87017 5.0929 6.38222 4.93766 7.01697C4.76614 7.72307 4.43062 8.37784 4.27913 9.09146C4.13891 9.7575 3.96614 10.416 3.81716 11.0783C3.553 12.2489 3.553 13.4445 3.38774 14.6238C3.2375 15.6905 3.28884 16.7522 3.67945 17.7863C3.84596 18.227 3.80464 18.7115 3.96364 19.1559C4.12264 19.6004 4.25785 20.0411 4.40308 20.4843C4.4206 20.5343 4.44314 20.5844 4.50699 20.5832C4.57084 20.5819 4.59463 20.5368 4.61716 20.488C4.67846 20.3538 4.68696 20.2013 4.64095 20.0611C4.50682 19.6486 4.3977 19.2285 4.31419 18.8029C4.24656 18.4014 4.12353 18.0112 3.94862 17.6436C3.73118 17.1894 3.63172 16.6878 3.65941 16.185C3.6832 15.6655 3.71325 15.1397 3.6181 14.6276C3.54048 14.2069 3.71074 13.8326 3.82718 13.4796C4.01121 12.9274 3.92107 12.3641 4.04376 11.8195C4.20902 11.0946 4.32921 10.3597 4.48195 9.63105C4.61966 8.97127 4.87256 8.34654 5.10793 7.73559C5.35832 7.07205 5.53985 6.3697 5.94423 5.74247C6.33234 5.14028 6.74799 4.56313 7.17365 3.98973C7.2711 3.88233 7.38173 3.78769 7.50292 3.70804C8.33277 3.02174 9.24395 2.44022 10.2159 1.97659C11.066 1.57379 11.965 1.2834 12.8901 1.11274C13.2589 1.01887 13.6442 1.01031 14.0168 1.0877C14.2384 1.14279 14.4913 0.981284 14.7467 1.00006C15.8581 1.08123 16.9504 1.33246 17.9855 1.74498C20.5971 2.76783 22.6078 4.49928 24.0488 6.89803C24.1373 7.01418 24.1872 7.15517 24.1915 7.30116C24.0012 7.25358 24.035 7.02948 23.9098 6.95437C23.5342 6.73152 23.3665 6.32839 23.0447 6.0467C22.3549 5.45452 21.7201 4.79474 21.0416 4.19005C20.8019 3.97673 20.5365 3.7942 20.2516 3.6467C20.0162 3.53925 19.7929 3.40705 19.5855 3.25233C19.0848 2.84169 18.5014 2.61383 17.9292 2.34717C17.8541 2.31297 17.7828 2.27101 17.7164 2.22197C17.5461 2.09678 17.4485 1.77252 17.1417 2.03167C17.0917 2.07299 17.0165 1.99286 16.9439 1.96532C16.2251 1.66752 15.4581 1.50292 14.6804 1.47956C14.1196 1.46679 13.5592 1.51846 13.0103 1.63355C12.2403 1.79005 11.4541 1.90022 10.7255 2.22072C10.1975 2.43739 9.70207 2.72598 9.25315 3.07831C9.12903 3.20354 8.99225 3.31557 8.84502 3.41258C8.21904 3.73433 7.81215 4.27643 7.40276 4.80601C7.01741 5.32658 6.69272 5.88943 6.435 6.48363C6.02937 7.36 5.7602 8.29145 5.40589 9.18911C5.06912 10.0417 5.00777 10.9418 4.95268 11.842C4.94662 11.9667 4.92603 12.0902 4.89134 12.2101C4.76869 12.595 4.78598 13.011 4.94017 13.3844C5.19718 14.0972 5.35187 14.8429 5.39963 15.5991C5.47254 16.3114 5.59807 17.0174 5.77522 17.7112C5.95175 18.4836 6.23844 19.2135 6.48884 19.9534C6.61403 20.329 6.47506 20.5932 6.13453 20.6871C5.88414 20.7572 5.6688 20.657 5.69509 20.4091C5.75769 19.8282 5.4447 19.3587 5.31951 18.8367C5.19431 18.3146 5.03031 17.7813 4.98148 17.2167C4.92094 16.6507 4.81884 16.09 4.676 15.539C4.55081 14.9919 4.55081 14.4498 4.53704 13.9002C4.53704 13.7212 4.58461 13.417 4.40182 13.4182C4.21904 13.4195 4.2591 13.7287 4.27663 13.9015C4.39431 14.8755 4.30918 15.8683 4.53453 16.8336C4.66849 17.4069 4.85128 17.9753 4.92765 18.5562C5.00777 19.1672 5.4735 19.668 5.38962 20.309C5.33328 20.7409 5.48852 21.0602 5.74643 21.412C6.05315 21.8251 6.38618 22.2257 6.61528 22.7015Z" fill="black"/>
<path d="M8.08769 10.8732C7.9625 11.0272 8.00006 11.1562 8.00632 11.2738C8.06725 12.4757 8.13193 13.678 8.20037 14.8807C8.21802 15.016 8.19168 15.1534 8.12525 15.2726C8.10128 15.3193 8.06535 15.3588 8.02113 15.387C7.97691 15.4153 7.92599 15.4313 7.87355 15.4335C7.82111 15.4357 7.76904 15.4239 7.72265 15.3994C7.67625 15.3748 7.63719 15.3384 7.60945 15.2939C7.53207 15.2087 7.47965 15.1039 7.45796 14.9909C7.45796 14.5064 7.33902 14.0357 7.36156 13.5462C7.3841 13.0566 7.30773 12.5959 7.28394 12.1202C7.2589 11.6194 7.41539 11.1386 7.47549 10.6479C7.5118 10.3436 7.72588 10.2973 8.0902 10.4538C7.86986 9.76274 8.22791 9.18308 8.41821 8.5859C8.54341 8.17901 8.84388 7.82721 9.01915 7.4316C9.34841 6.68668 9.87924 6.08574 10.3888 5.47479C10.7544 5.03786 11.2852 4.80624 11.7935 4.56837C12.1766 4.38684 12.6022 4.31047 12.9891 4.12768C13.7227 3.77964 14.4501 3.94114 15.1688 4.19404C15.9276 4.44279 16.6449 4.80359 17.2971 5.26446C17.739 5.58872 18.2285 5.83786 18.683 6.14834C19.2063 6.50765 19.5594 6.99216 19.9537 7.45664C20.4941 8.06461 20.9567 8.7375 21.3309 9.45977C21.699 10.2109 22.2686 10.8169 22.6742 11.5355C22.7883 11.7469 22.9363 11.938 23.1124 12.1014C23.3415 12.3067 23.4116 12.6022 23.5544 12.8375C23.8235 13.2857 23.9475 13.7865 24.2016 14.2147C24.4232 14.5903 24.6573 14.9471 24.7825 15.369C24.8418 15.5361 24.929 15.6919 25.0404 15.8297C25.2545 16.1252 25.217 16.4357 25.0855 16.7487C25.0141 16.9189 24.9027 16.9339 24.7688 16.8188C24.6022 16.6782 24.4627 16.5085 24.3569 16.318C24.1519 15.9698 23.9119 15.6435 23.6407 15.344C23.6198 15.3249 23.603 15.3018 23.5916 15.2759C23.5801 15.25 23.5742 15.222 23.5742 15.1937C23.5742 15.1654 23.5801 15.1374 23.5916 15.1116C23.603 15.0857 23.6198 15.0625 23.6407 15.0435C23.8335 14.8069 23.7472 14.6679 23.4842 14.5978C23.4004 14.5753 23.3052 14.5327 23.2889 14.4551C23.2051 14.0795 22.9422 13.7978 22.7882 13.4623C22.7406 13.3537 22.6701 13.2568 22.5816 13.1781C22.4564 13.0704 22.3237 12.9915 22.4126 12.7662C22.4814 12.5934 22.2774 12.5596 22.1534 12.5383C21.9406 12.5008 21.7954 12.4256 21.8304 12.1765C21.8346 12.1451 21.829 12.1131 21.8145 12.0849C21.7999 12.0567 21.7771 12.0336 21.749 12.0188C21.5162 11.8773 21.3359 11.7058 21.3735 11.3928C21.386 11.2964 21.2921 11.2939 21.2232 11.2676C21.1171 11.2264 21.0221 11.161 20.9456 11.0767C20.8691 10.9924 20.8133 10.8914 20.7825 10.7818C20.6899 10.5402 20.4921 10.3474 20.5209 10.0507C20.5321 9.92549 20.3581 9.91548 20.2454 9.90045C20.1328 9.88543 19.995 9.81657 20.0677 9.68261C20.1766 9.48355 20.0539 9.43973 19.9425 9.31829C19.6758 9.03034 19.3778 8.7474 19.3227 8.31673C19.3065 8.19153 19.1976 8.15523 19.1074 8.11266C18.9897 8.06008 18.8821 8.00499 18.857 7.86227C18.7506 7.25632 18.365 6.87197 17.8742 6.53645C17.3359 6.16837 16.7124 5.91047 16.2605 5.43222C15.8974 5.05664 15.488 4.95648 15.0085 4.96524C14.8007 4.96524 14.6392 5.09044 14.4514 5.15429C13.4235 5.47228 12.4483 5.89294 11.5932 6.569C11.3227 6.78308 11.2026 7.10609 11.0373 7.38903C10.5265 8.2654 10.1096 9.17808 10.0846 10.221C10.0835 10.3463 10.0619 10.4706 10.0207 10.589C9.68895 11.4967 9.82917 12.4094 10.0019 13.3183C10.1672 14.1947 10.4864 15.0285 10.678 15.8936C10.7986 16.4404 11.0139 16.962 11.314 17.4347C11.4292 17.6188 11.4792 17.8429 11.5932 18.0257C11.7434 18.266 11.6282 18.41 11.468 18.559C11.3077 18.708 11.1763 18.703 11.0623 18.5089C10.7569 17.9818 10.4965 17.426 10.1296 16.9339C10.0806 16.8661 10.0499 16.7868 10.0407 16.7036C9.98942 16.1602 9.73652 15.672 9.62385 15.1499C9.43605 14.2848 9.3384 13.3972 9.17564 12.5296C8.97533 11.4504 9.16438 10.4087 9.37721 9.3546C9.45608 8.96524 9.65765 8.61845 9.68895 8.22033C9.71763 8.08739 9.78883 7.96742 9.89176 7.87854C10.0019 7.75335 10.1634 7.64192 10.2022 7.4967C10.345 6.97213 10.7882 6.68418 11.0949 6.29357C11.4026 5.91224 11.8112 5.62505 12.2742 5.46477C12.7024 5.30703 13.1168 5.11172 13.5262 4.91266C13.7478 4.80499 13.9869 4.78746 14.2135 4.71986C14.3387 4.67854 14.5591 4.66352 14.514 4.47698C14.4689 4.29044 14.2636 4.26289 14.0946 4.31047C13.7716 4.38569 13.4579 4.49654 13.1594 4.64099C12.9196 4.76142 12.6678 4.85626 12.4082 4.92393C11.5816 5.16737 10.8823 5.72334 10.4589 6.47385C10.3618 6.63403 10.2512 6.78565 10.1284 6.92706C9.57502 7.58684 9.31962 8.3956 9.02917 9.18058C8.87142 9.61 8.99411 10.0895 8.91274 10.5415C8.73746 11.5142 8.9866 12.4632 9.0855 13.421C9.14685 14.0106 9.32964 14.5778 9.36219 15.1737C9.38472 15.5668 9.61258 15.8986 9.74529 16.2566C9.7817 16.3329 9.79049 16.4194 9.77017 16.5013C9.74984 16.5833 9.70166 16.6557 9.63386 16.7061C9.5707 16.7533 9.49489 16.7805 9.41614 16.7843C9.3374 16.7881 9.25932 16.7683 9.19192 16.7274C9.12202 16.6903 9.06563 16.6321 9.03078 16.561C8.99593 16.49 8.98441 16.4097 8.99787 16.3318C9.00788 16.139 8.97658 15.9937 8.765 15.9149C8.58597 15.8485 8.59223 15.6908 8.68613 15.553C8.78003 15.4153 8.79129 15.3327 8.6373 15.2225C8.50334 15.1274 8.50335 14.9483 8.49583 14.7918C8.47205 14.3562 8.44701 13.9155 8.43699 13.4836C8.45015 13.1503 8.39607 12.8177 8.27799 12.5058C8.20413 12.3393 8.23793 12.159 8.24795 11.9825C8.28077 11.6053 8.22592 11.2257 8.08769 10.8732Z" fill="black"/>
<path d="M13.7302 3.4811C13.0391 3.44104 12.4695 3.75779 11.8785 4.00442C11.5355 4.1484 11.23 4.36248 10.8895 4.51647C10.5076 4.69049 10.2635 5.06107 9.98308 5.36029C9.54364 5.82101 9.23941 6.36937 8.90013 6.90395C8.36179 7.75153 8.05256 8.67046 7.73957 9.60192C7.6349 9.85052 7.51533 10.0926 7.38151 10.3268C7.13112 10.8451 7.1161 11.4097 7.09356 11.9644C7.06226 12.7155 7.15866 13.4667 7.07604 14.2066C7.01469 14.7487 7.29513 15.1343 7.38652 15.5963C7.4659 16.0798 7.61299 16.5497 7.82345 16.9922C8.06258 17.4529 8.13018 17.9612 8.2729 18.447C8.49725 19.143 8.79921 19.8116 9.17306 20.4401C9.68636 21.3578 10.2835 22.2154 10.8569 23.0917C11.1537 23.5475 11.5756 23.8993 11.9249 24.3099C12.04 24.4451 12.1565 24.5778 12.2641 24.7168C12.3067 24.7706 12.3731 24.842 12.3205 24.9096C12.2929 24.9446 12.2066 24.9384 12.1465 24.9421C11.6457 24.9734 11.3064 24.6316 10.9145 24.4126C10.8758 24.3853 10.8441 24.3492 10.8223 24.3071C10.8005 24.265 10.7892 24.2183 10.7893 24.1709C10.7908 24.1396 10.7855 24.1083 10.7738 24.0791C10.7621 24.05 10.7444 24.0236 10.7217 24.0019C10.1168 23.5165 9.60117 22.9293 9.1981 22.2667C8.94771 21.8473 8.68605 21.4304 8.52956 20.9496C8.41187 20.5878 8.16148 20.2636 7.97619 19.9193C7.73624 19.4384 7.54378 18.9352 7.40154 18.4169C7.24004 17.8949 7.12111 17.3553 6.97212 16.8257C6.7668 16.0971 6.59654 15.3559 6.42251 14.6198C6.3524 14.3331 6.38496 14.0401 6.36868 13.7496C6.34239 13.2877 6.46132 12.8132 6.256 12.365C6.24951 12.3403 6.24827 12.3145 6.25236 12.2892C6.25646 12.264 6.2658 12.2399 6.27979 12.2185C6.32543 12.1416 6.35485 12.0562 6.36626 11.9675C6.37767 11.8788 6.37083 11.7887 6.34614 11.7027C6.19967 11.0892 6.51265 10.5759 6.69419 10.0363C6.77557 9.79973 6.90201 9.56937 6.98965 9.32649C7.40733 8.16463 7.94879 7.05108 8.60467 6.00505C9.15553 5.12117 9.94552 4.49394 10.8119 3.94808C11.3227 3.62633 11.8548 3.33212 12.4394 3.20567C13.3396 3.01037 14.2472 2.83009 15.1649 3.17688C15.5105 3.30207 15.9036 3.27328 16.2604 3.39722C16.4169 3.45106 16.6047 3.45857 16.7211 3.57625C17.0792 3.93932 17.5424 4.057 18.0019 4.22351C18.6616 4.46139 19.1862 4.94339 19.7108 5.39284C20.6132 6.15782 21.4278 7.02071 22.1396 7.96561C22.2447 8.10708 22.3236 8.26608 22.4163 8.41757C22.5089 8.56905 22.5765 8.74558 22.733 8.83572C22.8378 8.88303 22.9232 8.96499 22.9747 9.06781C23.0262 9.17063 23.0408 9.28806 23.0159 9.40035C22.9846 9.63196 23.21 9.75716 23.3364 9.86858C23.8635 10.3393 24.1202 10.9853 24.497 11.5512C24.7211 11.8892 25.0529 12.1396 25.2344 12.5127C25.3311 12.6845 25.3799 12.879 25.3759 13.0761C25.3551 13.4092 25.4085 13.7427 25.5324 14.0526C25.6576 14.3831 25.5524 14.7099 25.4961 15.0354C25.4698 15.1881 25.3809 15.1957 25.277 15.098C25.2183 15.0544 25.1721 14.9961 25.143 14.929C25.0341 14.5196 24.7048 14.2079 24.6422 13.7784C24.6322 13.6996 24.6047 13.6307 24.5245 13.6119C24.2804 13.5543 24.2742 13.4066 24.353 13.2101C24.4319 13.0135 24.353 12.8445 24.2404 12.688C23.9649 12.2886 23.5593 11.9881 23.364 11.5249C23.3039 11.4263 23.2171 11.3469 23.1136 11.2958C23.008 11.2313 22.9205 11.1411 22.8591 11.0336C22.7978 10.9261 22.7648 10.8048 22.763 10.6811C22.7305 10.3431 22.4388 10.1302 22.2059 9.91741C22.0557 9.77969 21.908 9.6858 21.8967 9.45419C21.8842 9.19628 21.5211 9.175 21.4923 8.91084C21.446 8.53525 20.964 8.51897 20.8738 8.16843C20.7486 7.68016 20.318 7.35591 20.159 6.88267C20.1527 6.86264 20.1414 6.83509 20.1264 6.83008C19.682 6.67735 19.5205 6.21913 19.1762 5.95372C18.6501 5.55233 18.1008 5.18236 17.5311 4.84574C17.0843 4.54981 16.6096 4.29823 16.1139 4.09456C15.8159 3.98564 15.558 3.7678 15.23 3.73275C14.7255 3.6739 14.241 3.43603 13.7302 3.4811Z" fill="black"/>
<path d="M11.3623 10.0032C11.3613 10.1915 11.3957 10.3784 11.4638 10.554C11.5561 10.8188 11.6186 11.093 11.6503 11.3715C11.8165 12.4071 12.0806 13.4244 12.439 14.41C12.6181 14.8845 12.752 15.3753 12.9774 15.836C13.5207 16.9453 14.3295 17.8792 14.9692 18.9196C15.3548 19.5456 15.9558 19.9687 16.3113 20.6035C16.4717 20.8627 16.6942 21.0778 16.9586 21.2294C17.3442 21.4723 17.6033 21.8454 17.8863 22.1909C18.0315 22.3656 18.212 22.5077 18.4159 22.6078C18.7839 22.7994 19.0719 23.1086 19.3899 23.3728C19.49 23.4554 19.465 23.5355 19.3548 23.5906C19.132 23.7021 18.9066 23.811 18.685 23.9237C18.5598 23.99 18.4735 23.9136 18.3858 23.8335C17.9138 23.4003 17.4256 22.9847 16.9724 22.534C16.8017 22.3596 16.6133 22.2035 16.4102 22.0683C16.2587 21.9681 16.1886 21.7327 16.106 21.5474C16.0754 21.4641 16.0233 21.3904 15.9549 21.3339C15.8865 21.2773 15.8042 21.24 15.7167 21.2257C15.6722 21.2231 15.6287 21.2114 15.5889 21.1913C15.5492 21.1713 15.514 21.1432 15.4856 21.1089C15.4571 21.0746 15.4361 21.0348 15.4237 20.992C15.4113 20.9492 15.4079 20.9043 15.4137 20.8601C15.4137 20.6773 15.326 20.6022 15.1808 20.4845C14.8991 20.2542 14.4659 20.1215 14.4522 19.6407C14.4522 19.4917 14.2744 19.4479 14.2018 19.3377C13.522 18.3524 12.8246 17.3734 12.414 16.2341C12.4027 16.2053 12.399 16.1628 12.3777 16.1503C11.9458 15.8761 11.9908 15.3753 11.8005 14.9897C11.5802 14.5402 11.4888 14.0545 11.2998 13.5963C11.0882 13.0679 11.0181 12.4695 10.978 11.8924C10.983 11.7356 10.9458 11.5804 10.8703 11.4429C10.1192 10.3161 10.4547 9.22193 10.9955 8.15276C11.1004 7.92767 11.2179 7.70865 11.3473 7.49674C11.634 7.06481 12.0722 6.82569 12.4816 6.5415C12.9674 6.22403 13.4852 5.95841 14.0265 5.74901C14.7063 5.46356 15.3949 5.40096 16.0597 5.8742C17.1864 6.66669 18.2606 7.50175 18.9792 8.71364C19.1633 9.02538 19.3248 9.34713 19.4988 9.65887C19.7178 10.0204 19.9555 10.3702 20.2112 10.7068C20.5868 11.2276 21.0325 11.7083 21.3016 12.2805C21.6847 13.088 22.3633 13.6689 22.7864 14.4338C22.889 14.589 22.9699 14.7575 23.0268 14.9346C23.0957 15.2611 23.25 15.5635 23.4738 15.811C23.5721 15.9202 23.6414 16.0523 23.6753 16.1953C23.6979 16.2767 23.7179 16.3756 23.7905 16.4094C24.2638 16.6285 24.2638 17.1806 24.5792 17.5136C24.7232 17.6651 24.6093 18.1258 24.444 18.2548C24.4254 18.2735 24.4026 18.2876 24.3775 18.2958C24.3524 18.3041 24.3257 18.3063 24.2996 18.3022C24.2735 18.2982 24.2487 18.2881 24.2272 18.2727C24.2058 18.2572 24.1883 18.237 24.1761 18.2135C24.1043 18.1251 24.0434 18.0284 23.9946 17.9255C23.8596 17.5532 23.608 17.2344 23.2772 17.0166C23.0068 16.8401 22.9655 16.5158 22.8203 16.2654C22.7175 16.0588 22.5437 15.8961 22.3307 15.8072C22.1918 15.7546 22.1242 15.6745 22.1818 15.5218C22.2506 15.3415 22.0791 15.2125 22.0741 15.0473C22.0741 15.001 22.0303 14.9584 21.9902 14.9809C21.5608 15.2213 21.6647 14.708 21.4719 14.6116C21.4156 14.5828 21.4431 14.5064 21.4719 14.4438C21.5758 14.1834 21.5044 14.092 21.2215 14.0795C21.0725 14.0733 20.9711 14.0883 20.9323 13.8379C20.8881 13.5998 20.7535 13.3881 20.5567 13.247C20.394 13.1443 20.3551 12.9615 20.2149 12.8551C20.2022 12.8396 20.1936 12.8211 20.1901 12.8014C20.1866 12.7817 20.1883 12.7614 20.1949 12.7424C20.4616 12.4094 20.2049 12.4244 19.9733 12.3581C19.9258 12.3513 19.8808 12.3323 19.8428 12.3029C19.8049 12.2735 19.7752 12.2347 19.7568 12.1904C19.7383 12.1461 19.7317 12.0977 19.7377 12.0501C19.7436 12.0024 19.7618 11.9571 19.7905 11.9186C19.9007 11.7171 19.8068 11.5694 19.5877 11.6257C19.3936 11.6745 19.3674 11.5794 19.3473 11.4479C19.3513 11.3549 19.3454 11.2617 19.3298 11.17C19.2572 10.9985 19.2972 10.688 18.9404 10.8144C18.9206 10.8226 18.8991 10.8262 18.8776 10.8249C18.8561 10.8236 18.8352 10.8173 18.8165 10.8067C18.7978 10.7961 18.7818 10.7813 18.7696 10.7636C18.7575 10.7458 18.7495 10.7255 18.7464 10.7042C18.7213 10.1622 18.2807 9.83664 18.0741 9.3897C17.9489 9.12053 17.8237 8.86137 17.5445 8.6548C17.353 8.51458 17.2666 8.15402 17.1026 7.90362C17.0738 7.85981 17.0525 7.81223 17.0274 7.76716C16.926 7.59064 15.6278 6.31364 15.4425 6.26481C15.0181 6.1609 14.5936 5.903 14.153 6.27233C13.9026 6.48641 13.5583 6.57405 13.2528 6.68547C12.5016 6.96215 12.1523 7.5681 11.8494 8.22913C11.5923 8.79031 11.4279 9.3894 11.3623 10.0032Z" fill="black"/>
<path d="M14.0308 2.00825C15.8812 2.10465 17.6815 2.43767 19.2164 3.53689C20.2981 4.3131 21.3798 5.10559 22.3225 6.06458C22.9774 6.72897 23.5829 7.4403 24.1341 8.19291C24.1692 8.23046 24.1991 8.27257 24.223 8.31811C24.4208 8.8577 24.849 9.24455 25.1507 9.71654C25.4524 10.1885 25.4486 10.7482 25.5613 11.2727C25.5925 11.4462 25.613 11.6213 25.6227 11.7973C25.6227 11.8687 25.6227 11.9575 25.535 11.9738C25.4662 11.9863 25.4199 11.9237 25.4023 11.8636C25.346 11.6696 25.2771 11.4968 25.0493 11.4317C25.0275 11.4185 25.0093 11.4002 24.9962 11.3784C24.9831 11.3566 24.9756 11.3319 24.9742 11.3065C24.9829 11.0386 24.859 10.8884 24.6098 10.7957C24.4646 10.7419 24.4846 10.5691 24.4846 10.4352C24.4846 10.2561 24.4471 10.1384 24.2405 10.0596C24.135 10.0274 24.0389 9.96983 23.9608 9.89191C23.8826 9.81399 23.8248 9.71809 23.7923 9.61263C23.7619 9.5235 23.703 9.44691 23.6245 9.39479C23.5537 9.34183 23.4995 9.26975 23.4682 9.18703C23.4369 9.10431 23.4299 9.01437 23.448 8.92781C23.4931 8.58728 23.3604 8.43829 23.0148 8.39322C22.8959 8.3782 22.8696 8.32061 22.8809 8.20042C22.8823 8.02928 22.83 7.86201 22.7314 7.7221C22.6329 7.5822 22.4929 7.47671 22.3313 7.42045C22.1886 7.38289 22.0922 7.3228 22.1034 7.17006C22.1184 6.96474 22.0008 6.86458 21.8656 6.73563C21.5112 6.3988 21.1348 6.08595 20.7388 5.79917C20.4095 5.55754 20.2693 5.15066 19.9188 4.9228C19.2928 4.5059 18.6943 4.04643 18.0821 3.6095C17.6014 3.26521 17.0117 3.16505 16.4721 2.98352C15.6809 2.72562 14.8609 2.48274 14.0033 2.53031C12.6612 2.60543 11.3554 2.78947 10.285 3.71592C10.2349 3.75363 10.1807 3.78555 10.1235 3.81106C9.51873 4.12036 9.0268 4.61229 8.7175 5.21701C8.62609 5.41632 8.48247 5.5872 8.30186 5.71153C8.00013 5.90934 7.90999 6.25989 7.80984 6.5566C7.59074 7.21388 7.22142 7.79604 6.95851 8.43454C6.59294 9.31091 6.25115 10.1948 6.08214 11.1413C5.91312 12.1291 6.0596 13.1031 6.15475 14.0784C6.19732 14.524 6.27244 14.9647 6.21735 15.4129C6.19231 15.6258 6.19106 15.8248 6.3776 15.9826C6.45284 16.0563 6.50205 16.1526 6.51782 16.2568C6.76747 17.4601 7.11542 18.6409 7.55819 19.7873C7.73622 20.2739 7.98148 20.7332 8.28683 21.1519C8.45354 21.3787 8.58756 21.6277 8.68495 21.8918C9.00546 22.7018 9.62392 23.304 10.1247 23.9876C10.2161 24.1128 10.3125 24.238 10.4039 24.3632C10.4364 24.4095 10.5078 24.4558 10.4527 24.5222C10.3976 24.5885 10.3375 24.5572 10.2774 24.541C9.90186 24.4445 9.48746 24.3707 9.23331 24.084C8.87114 23.676 8.55887 23.2263 8.30311 22.7444C8.12545 22.4045 7.9059 22.0882 7.64959 21.8029C7.48139 21.6204 7.35945 21.4001 7.29403 21.1607C7.24557 20.9604 7.1607 20.7707 7.04364 20.601C6.9023 20.4215 6.8189 20.2031 6.80452 19.9751C6.80107 19.9174 6.78611 19.861 6.76052 19.8091C6.73493 19.7573 6.69924 19.7112 6.65553 19.6733C6.5723 19.6082 6.51611 19.5145 6.49779 19.4104C6.45272 18.9234 6.21735 18.4802 6.17729 17.9895C6.14631 17.7744 6.09817 17.5621 6.03331 17.3547C5.94317 16.9929 5.81422 16.6035 5.8042 16.2668C5.78918 15.7735 5.63394 15.3316 5.55381 14.8658C5.52828 14.7526 5.54288 14.634 5.59513 14.5303C5.67525 14.3951 5.59513 14.2799 5.5801 14.1547C5.53754 13.7791 5.29215 13.4649 5.2233 13.1219C5.12189 12.6098 5.18699 12.0615 5.27713 11.5406C5.36727 11.0198 5.35225 10.4902 5.53754 9.98321C5.69028 9.57006 5.7679 9.14314 6.01078 8.75003C6.25366 8.35692 6.37259 7.85989 6.54411 7.40919C6.55501 7.34824 6.57573 7.28947 6.60546 7.23516C7.0161 6.7494 7.13128 6.1084 7.50937 5.58759C7.91611 4.99053 8.38303 4.43677 8.9028 3.93501C9.49908 3.40124 10.1749 2.96365 10.9059 2.63798C11.3303 2.44518 11.8361 2.36631 12.3069 2.24361C12.8727 2.09463 13.4424 1.97069 14.0308 2.00825Z" fill="black"/>
<path d="M12.8261 9.77123C12.8599 10.4323 13.0026 11.1008 13.084 11.7744C13.1416 12.2564 13.2505 12.7296 13.2793 13.2204C13.3006 13.5784 13.4959 13.9327 13.6487 14.2733C13.8627 14.7515 13.9078 15.2748 14.2158 15.7406C14.5488 16.2413 14.9156 16.7146 15.2174 17.2304C15.5504 17.7925 16.0136 18.2607 16.4055 18.7765C16.8235 19.3308 17.2694 19.8636 17.7413 20.3728C18.4088 21.0823 19.1518 21.7166 19.9573 22.2645C20.069 22.3409 20.1708 22.4309 20.2602 22.5324C20.3529 22.6376 20.5682 22.7377 20.413 22.908C20.2577 23.0783 20.0825 23.2272 19.8383 23.0908C19.5629 22.9368 19.2549 22.8404 19.0646 22.5399C18.9519 22.3659 18.7066 22.3434 18.5113 22.2745C18.3936 22.2332 18.2483 22.2144 18.2058 22.083C18.043 21.5822 17.5961 21.3693 17.2293 21.0814C16.93 20.8435 16.7673 20.4992 16.4931 20.2413C16.3379 20.0949 16.1926 19.9296 16.0411 19.7744C15.8414 19.5892 15.7066 19.3447 15.6568 19.077C15.6443 18.9944 15.6443 18.908 15.5642 18.8554C15.1247 18.575 14.8718 18.118 14.52 17.76C14.1307 17.3643 13.9116 16.8736 13.6199 16.4291C13.2947 15.8982 13.0221 15.3367 12.8061 14.7528C12.4956 13.9903 12.3879 13.1753 12.0975 12.4116C12.0803 12.3723 12.0742 12.329 12.08 12.2864C12.2502 11.6141 11.8784 11.0169 11.8108 10.3759C11.7482 9.78249 11.6718 9.2091 12.0311 8.66199C12.2314 8.35651 12.249 7.95464 12.5156 7.66043C12.7823 7.36622 13.1416 7.19595 13.4897 7.02318C13.5389 7.00659 13.5919 7.00442 13.6424 7.01692C14.5789 7.17467 15.3688 8.06105 15.4465 9.01254C15.494 9.5922 15.5041 10.1881 15.6543 10.7427C15.8383 11.4226 15.8559 12.1725 16.3354 12.7559C16.3648 12.7863 16.3821 12.8263 16.3842 12.8686C16.3128 13.2967 16.6346 13.5008 16.8662 13.775C17.2893 14.2858 17.5735 14.8955 18.013 15.4025C18.5363 16.0035 19.0145 16.642 19.5391 17.2441C20.0548 17.8139 20.6177 18.339 21.2217 18.8141C21.2574 18.8356 21.2909 18.8603 21.3219 18.888C21.7701 19.4501 22.3322 19.9008 22.8142 20.4304C22.9908 20.6244 22.8493 20.7208 22.7529 20.8473C22.6352 21.0025 22.5188 21.0088 22.3585 20.8836C22.1382 20.7108 21.9629 20.493 21.7401 20.3215C21.377 20.041 21.0878 19.6629 20.6221 19.5227C20.5653 19.5061 20.5144 19.4737 20.4752 19.4294C20.436 19.3851 20.4101 19.3307 20.4005 19.2723C20.3818 19.1642 20.3335 19.0633 20.261 18.9809C20.1886 18.8985 20.0947 18.8377 19.9898 18.8053C19.7999 18.7165 19.6408 18.5731 19.5329 18.3934C19.399 18.1846 19.2181 18.0101 19.0045 17.8839C18.7578 17.7173 18.5634 17.4842 18.4437 17.2116C18.3264 16.9131 18.1167 16.66 17.8452 16.4892C17.7572 16.4331 17.6848 16.3556 17.6349 16.2639C17.4471 15.9521 17.2593 15.6454 16.9288 15.4488C16.8004 15.3586 16.7043 15.2296 16.6546 15.0808C16.5407 14.8191 16.254 14.7052 16.09 14.4823C15.9735 14.3246 15.8396 14.1806 15.7282 14.0141C15.6854 13.9605 15.6582 13.8963 15.6493 13.8283C15.6405 13.7603 15.6504 13.6912 15.6781 13.6285C15.8897 13.2717 15.6693 12.9888 15.5028 12.7434C15.161 12.2426 15.0358 11.6717 14.9031 11.0996C14.8969 11.0695 14.9031 11.0269 14.8881 11.0094C14.4687 10.5737 14.649 10.0141 14.6114 9.51457C14.5622 8.98786 14.4417 8.47026 14.2534 7.97592C14.0994 7.5465 13.4133 7.51019 13.1091 7.89329C12.9822 8.06062 12.908 8.26201 12.8962 8.47169C12.8649 8.89736 12.8487 9.32428 12.8261 9.77123Z" fill="black"/>
<path d="M14.1234 9.34835C14.2195 9.84749 14.2735 10.3538 14.2849 10.862C14.2849 11.4341 14.4627 11.9887 14.3851 12.5684C14.3628 12.7459 14.4031 12.9256 14.499 13.0767C14.6079 13.257 14.7832 13.3997 14.7343 13.6563C14.7143 13.759 14.8595 13.8141 14.9497 13.8579C15.4104 14.0732 15.7109 14.4476 15.9913 14.8595C16.2122 15.1615 16.4496 15.4512 16.7024 15.7271C17.5078 16.661 18.3154 17.5933 19.125 18.5239C19.557 19.0134 20.0438 19.4515 20.576 19.8297C20.9979 20.134 21.3484 20.5196 21.739 20.8588C21.8329 20.9402 21.9381 21.0103 22.0358 21.0854C22.1334 21.1606 22.3688 21.1906 22.2298 21.421C22.0908 21.6513 21.8129 21.8041 21.6489 21.6889C21.4261 21.5336 21.1569 21.4448 21.0392 21.1418C20.9566 20.9277 20.6774 20.8714 20.4883 20.7587C20.0326 20.4883 19.7009 20.0864 19.3215 19.7408C18.556 19.0629 17.8518 18.3189 17.217 17.5174C16.5685 16.6748 15.8574 15.8798 15.2865 14.9784C15.2151 14.867 15.1825 14.728 15.1225 14.6116C15.1012 14.5703 15.0461 14.5164 15.0098 14.5189C14.9259 14.5252 14.9409 14.6066 14.9434 14.6667C14.961 14.9634 15.145 15.195 15.299 15.4178C15.5068 15.7171 15.7071 16.0225 15.8874 16.3355C16.1566 16.805 16.5797 17.1505 16.8476 17.63C16.9966 17.8942 17.3309 18.067 17.545 18.3249C18.057 18.9421 18.5829 19.5493 19.1074 20.1577C19.1765 20.2207 19.2502 20.2785 19.3278 20.3305C19.8803 20.7846 20.4312 21.2398 20.9804 21.6964C21.0292 21.7365 21.0755 21.779 21.1256 21.8141C21.2508 21.9005 21.4686 21.9393 21.4048 22.1308C21.3409 22.3224 21.1444 22.42 20.9641 22.5064C20.8564 22.5565 20.7963 22.4551 20.7362 22.3812C20.5054 22.1131 20.2181 21.8993 19.8949 21.7552C19.7873 21.7127 19.6957 21.6373 19.6333 21.5399C19.4943 21.3058 19.2502 21.1818 19.0724 21.0066C18.4552 20.3981 17.5913 20.015 17.2783 19.1149C17.1819 18.8344 16.889 18.7055 16.7049 18.4889C16.4633 18.2084 16.2442 17.9067 15.9951 17.63C15.4862 17.0602 15.0165 16.4567 14.5891 15.8235C14.2235 15.2864 14.062 14.6742 13.9719 14.0457C13.9465 13.8832 13.8971 13.7254 13.8254 13.5775C13.4498 12.7649 13.3897 11.8998 13.3472 11.0272C13.3196 10.4613 13.2671 9.90047 13.2333 9.33083C13.22 8.93549 13.2541 8.53999 13.3347 8.15273C13.3446 8.06334 13.3877 7.9809 13.4553 7.9216C13.5229 7.8623 13.6103 7.83043 13.7002 7.83223C13.9005 7.82347 13.9506 7.99374 13.9882 8.14647C14.0804 8.54039 14.1258 8.9438 14.1234 9.34835Z" fill="black"/>
<path d="M14.7588 6.49044C15.2044 6.59503 15.6047 6.83991 15.9006 7.18903C16.3714 7.70859 16.7933 8.27197 17.239 8.81657C17.5699 9.21593 17.8349 9.66563 18.0239 10.1487C18.1854 10.5605 18.3632 10.9774 18.6812 11.3055C18.7396 11.3649 18.7766 11.442 18.7863 11.5247C18.7961 11.6075 18.778 11.6911 18.7351 11.7624C18.6487 11.9627 18.6662 12.1005 18.9466 12.0191C19.1081 11.9715 19.2333 12.0116 19.2684 12.2044C19.2799 12.2659 19.3066 12.3235 19.346 12.3721C20.1322 13.2923 20.6218 14.4278 21.4743 15.3005C21.6861 15.5299 21.8629 15.7893 21.9989 16.0704C22.2969 16.6438 22.8114 17.0307 23.2596 17.4726C23.5787 17.813 23.865 18.1827 24.1147 18.5768C24.2649 18.7947 24.1147 18.9912 23.9557 19.1565C23.9463 19.1689 23.934 19.179 23.92 19.186C23.906 19.1929 23.8906 19.1965 23.875 19.1965C23.8593 19.1965 23.8439 19.1929 23.8299 19.186C23.8159 19.179 23.8037 19.1689 23.7942 19.1565C23.331 18.687 22.8302 18.2413 22.4408 17.6967C22.3045 17.4853 22.1026 17.3244 21.8662 17.2385C21.6296 17.1596 21.5119 16.9555 21.3792 16.7728C20.9861 16.2344 20.6493 15.646 20.1936 15.1652C19.8531 14.8097 19.669 14.3277 19.2358 14.0497C19.1314 13.988 19.0462 13.8983 18.9898 13.7909C18.9334 13.6834 18.9081 13.5624 18.9166 13.4413C18.9166 13.3937 18.9053 13.3161 18.874 13.2973C18.3319 12.9969 18.2556 12.4022 17.9977 11.9202C17.9405 11.8093 17.8618 11.7109 17.766 11.631C17.602 11.5058 17.5157 11.4144 17.6196 11.174C17.7047 10.9712 17.4781 10.821 17.3116 10.7283C17.1701 10.6507 17.0925 10.5843 17.1526 10.4203C17.1611 10.4005 17.1654 10.3792 17.1654 10.3577C17.1654 10.3362 17.1611 10.3149 17.1526 10.2951C16.8596 9.87072 16.7908 9.29357 16.3764 8.97181C15.962 8.65006 15.7504 8.20436 15.47 7.79372C15.2296 7.43692 14.9992 7.08511 14.5009 7.09388C14.443 7.10062 14.3845 7.08692 14.3356 7.05515C14.2867 7.02338 14.2504 6.97553 14.233 6.91986C14.1842 6.77839 14.2681 6.68073 14.372 6.60186C14.4852 6.52313 14.6211 6.48397 14.7588 6.49044Z" fill="black"/>
<path d="M15.8811 9.06641C16.0133 9.07968 16.1358 9.14119 16.2254 9.23918C16.5322 9.54591 16.6273 9.95905 16.7763 10.3459C16.7763 10.3547 16.7838 10.3697 16.7763 10.3747C16.4896 10.7503 16.8627 10.9193 17.0267 11.1434C17.3297 11.5691 17.4198 12.1037 17.7503 12.5206C17.9306 12.7472 18.0758 13.0001 18.2436 13.2367C18.9785 14.2758 19.6984 15.3249 20.4971 16.3177C20.8088 16.7021 21.1807 17.0238 21.4837 17.4182C21.7866 17.8126 22.2461 18.0842 22.5691 18.4774C22.8508 18.8216 23.2777 19.0119 23.5118 19.4038C23.5776 19.5149 23.5979 19.6472 23.5685 19.7729C23.5391 19.8986 23.4623 20.0082 23.3541 20.0786C23.1463 20.2251 22.9923 20.0648 22.8696 19.9396C22.5904 19.6517 22.3275 19.3525 21.9844 19.1321C21.81 18.9989 21.6682 18.8277 21.57 18.6314C21.3585 18.2871 21.0254 18.0367 20.7225 17.7775C20.4195 17.5184 20.1741 17.2191 19.8799 16.9825C19.3791 16.5832 19.2389 15.9271 18.7231 15.5616C18.657 15.4973 18.583 15.4417 18.5027 15.3963C18.3847 15.3522 18.2771 15.284 18.1868 15.1961C18.0964 15.1081 18.0254 15.0024 17.9782 14.8855C17.8267 14.4999 17.6189 14.1406 17.4674 13.7587C17.3236 13.3595 17.0946 12.9964 16.7963 12.6946C16.7588 12.6583 16.6899 12.6307 16.6837 12.5919C16.601 12.0135 16.084 11.5904 16.1015 10.9769C16.0957 10.663 16.0058 10.3565 15.8411 10.0893C15.6996 9.83886 15.7034 9.56093 15.6846 9.28925C15.6818 9.26151 15.6848 9.23349 15.6934 9.20694C15.7019 9.1804 15.7159 9.15591 15.7343 9.135C15.7528 9.11408 15.7753 9.0972 15.8006 9.0854C15.8258 9.0736 15.8533 9.06713 15.8811 9.06641Z" fill="black"/>
<path d="M14.0693 19.887C14.0706 19.9764 14.0399 20.0634 13.9828 20.1323C13.9256 20.2012 13.8458 20.2473 13.7576 20.2625C13.656 20.2919 13.5472 20.2826 13.4521 20.2363C13.3571 20.1901 13.2826 20.1102 13.243 20.0122C12.9773 19.3802 12.5839 18.8099 12.0875 18.337C11.871 18.153 11.7341 17.8924 11.7056 17.6097C11.6981 17.4953 11.661 17.3848 11.5979 17.2892C11.1122 16.5918 10.9645 15.748 10.6026 14.9968C10.4261 14.6275 10.4211 14.1918 10.3235 13.7924C10.1983 13.2779 10.053 12.7671 10.0217 12.2388C10.0063 11.8843 10.0201 11.5293 10.063 11.1771C10.0856 10.9467 10.2496 10.8967 10.4048 11.0619C10.547 11.2009 10.6453 11.3785 10.6878 11.5727C10.8017 12.1924 10.8505 12.8247 11.0271 13.4344C11.0427 13.5265 11.0666 13.617 11.0984 13.7048C11.4853 14.4823 11.5491 15.3712 11.9247 16.1411C12.1163 16.5317 12.3579 16.9123 12.5382 17.3092C12.9062 18.1217 13.5322 18.7589 13.9566 19.5289C14.0233 19.637 14.0621 19.7601 14.0693 19.887Z" fill="black"/>
<path d="M4.29289 5.4411C4.24413 5.70697 4.15992 5.96509 4.0425 6.20855C3.69773 7.02094 3.414 7.85789 3.19367 8.71246C2.96832 9.52999 2.81808 10.3675 2.62778 11.1963C2.6108 11.2563 2.60113 11.3181 2.59899 11.3804C2.60775 12.243 2.3486 13.0755 2.29101 13.9219C2.23968 14.7269 2.10697 15.5494 2.27473 16.3607C2.29351 16.4546 2.34985 16.6111 2.22465 16.6323C2.09946 16.6536 2.09195 16.4934 2.06941 16.4032C1.8691 15.6383 1.66002 14.8658 1.645 14.0771C1.62872 13.2671 1.6112 12.4596 1.8666 11.6496C2.03311 11.1225 2.08569 10.5353 2.16581 9.97318C2.19461 9.76411 2.27098 9.57381 2.30603 9.37224C2.54515 7.98508 3.19993 6.79572 4.03749 5.69149C4.10008 5.60135 4.14265 5.48367 4.29289 5.4411Z" fill="black"/>
<path d="M16.1756 24.7421C15.8726 24.7158 15.6848 24.5192 15.5208 24.3026C15.4351 24.1722 15.3095 24.0729 15.1628 24.0197C15.0376 23.9809 14.9324 23.9233 14.9124 23.7693C14.9124 23.7375 14.9034 23.7063 14.8863 23.6795C14.8692 23.6526 14.8448 23.6312 14.816 23.6178C14.4253 23.4814 14.18 23.1596 14.016 22.8328C13.852 22.5061 13.5239 22.3834 13.39 22.1242C13.2335 21.8263 13.0695 21.5271 12.928 21.2191C12.8851 21.0941 12.8001 20.9879 12.6876 20.9186C12.2131 20.6682 12.0241 20.2175 11.8689 19.7555C11.8241 19.5758 11.7331 19.4109 11.6047 19.2773C11.4332 19.1208 11.4319 18.9668 11.5822 18.7903C11.7324 18.6138 11.8551 18.625 12.0241 18.769C12.3715 19.0757 12.663 19.4404 12.8854 19.8469C12.9544 19.9862 13.0425 20.1151 13.1471 20.23C13.7305 20.7884 14.0936 21.5145 14.6069 22.1267C15.2529 22.8992 15.8801 23.6879 16.7352 24.2463C16.8266 24.3064 16.9693 24.3577 16.943 24.4967C16.9167 24.6357 16.7628 24.6219 16.6576 24.6457C16.5011 24.6832 16.3358 24.7095 16.1756 24.7421Z" fill="black"/>
<path d="M14.763 24.973C14.5263 24.9792 14.2897 25.003 14.2459 24.6725C14.2321 24.6205 14.1989 24.5757 14.1533 24.5473C13.5899 24.193 13.213 23.6709 12.84 23.1401C12.6722 22.8985 12.4243 22.7094 12.2403 22.459C11.897 22.022 11.6058 21.5464 11.3727 21.0418C11.2642 20.8113 11.1075 20.6068 10.9132 20.4421C10.6933 20.2354 10.5462 19.9631 10.4938 19.6659C10.4711 19.5118 10.422 19.3627 10.3486 19.2252C10.2597 19.0813 10.1345 18.9461 10.3899 18.7996C10.624 18.6656 10.8055 18.6594 10.9533 18.8784C11.1985 19.2126 11.4083 19.5713 11.5792 19.9489C11.7379 20.2962 11.949 20.6171 12.2052 20.9004C12.7298 21.5338 13.0816 22.285 13.6149 22.9035C14.0906 23.4641 14.6079 23.9881 15.1623 24.4709C15.2087 24.511 15.265 24.5423 15.3113 24.5824C15.3827 24.6425 15.4753 24.7076 15.4528 24.8077C15.4303 24.9079 15.3051 24.9029 15.2187 24.9179C15.0722 24.9417 14.917 24.9492 14.763 24.973Z" fill="black"/>
<path d="M17.5449 24.3697C17.4143 24.3485 17.2962 24.2799 17.2131 24.1769C16.9276 23.8327 16.497 23.7012 16.1589 23.4358C16.1101 23.3982 16.0337 23.3669 16.0187 23.3181C15.8272 22.6921 15.0422 22.5281 14.892 21.8633C14.8757 21.7895 14.773 21.7181 14.6942 21.6743C14.2998 21.4602 14.276 20.997 14.0256 20.6865C13.9455 20.5863 14.0719 20.4787 14.1508 20.3923C14.166 20.3711 14.1854 20.3532 14.2077 20.3396C14.23 20.3261 14.2548 20.3171 14.2806 20.3134C14.3065 20.3097 14.3328 20.3112 14.358 20.3178C14.3832 20.3245 14.4069 20.3362 14.4275 20.3522C14.6059 20.4384 14.7642 20.5613 14.892 20.7128C15.4729 21.5194 16.154 22.2488 16.9189 22.8837C17.2686 23.1866 17.6212 23.4863 17.9768 23.7826C18.2597 24.0192 18.2434 24.1093 17.9104 24.237C17.7852 24.2859 17.6588 24.3297 17.5449 24.3697Z" fill="black"/>
<path d="M8.56996 23.8479C8.00658 23.5975 7.45196 23.3922 7.06761 22.8376C6.69953 22.313 6.57559 21.6182 5.98592 21.2463C5.96481 21.2355 5.94664 21.2197 5.93298 21.2003C5.91931 21.1809 5.91057 21.1585 5.90749 21.135C5.90441 21.1115 5.90709 21.0876 5.9153 21.0653C5.92351 21.043 5.937 21.0231 5.95462 21.0072C6.11988 20.7944 6.72457 20.7956 6.83099 21.0335C7.15775 21.7659 7.76996 22.323 8.06166 23.078C8.13191 23.2052 8.22783 23.3165 8.34335 23.4047C8.46883 23.5211 8.5491 23.6781 8.56996 23.8479Z" fill="black"/>
<path d="M9.63902 17.0623C9.72336 17.0544 9.80795 17.0747 9.87953 17.12C9.95111 17.1653 10.0057 17.2331 10.0346 17.3127C10.1439 17.6149 10.2771 17.9079 10.4328 18.189C10.478 18.2606 10.4943 18.3467 10.4785 18.4299C10.4627 18.5131 10.4159 18.5872 10.3476 18.6372C10.1786 18.7812 10.0421 18.7324 9.947 18.5508C9.7567 18.1878 9.46249 17.8873 9.38111 17.4591C9.32728 17.1662 9.36108 17.0623 9.63902 17.0623Z" fill="black"/>
<path d="M15.4403 13.278C15.4403 13.4282 15.4052 13.5384 15.2888 13.5897C15.1723 13.641 15.0847 13.5596 15.0296 13.4758C14.8481 13.2028 14.6378 12.9399 14.6027 12.5994C14.5889 12.4742 14.5952 12.3327 14.7279 12.2751C14.8794 12.2088 14.9883 12.3202 15.0572 12.4366C15.2212 12.6991 15.35 12.9819 15.4403 13.278Z" fill="black"/>
</g>
</mask>
<g mask="url(#mask0_475_7)">
<circle cx="13.5935" cy="13.0797" r="12.3318" fill="url(#paint0_linear_475_7)"/>
<circle cx="13.5935" cy="13.0797" r="12.3318" fill="url(#pattern0_475_7)"/>
<circle cx="13.5935" cy="13.0797" r="12.3318" fill="url(#paint1_linear_475_7)"/>
</g>
</g>
</g>
<defs>
<filter id="filter0_d_475_7" x="0.632812" y="0" width="25.9912" height="26" filterUnits="userSpaceOnUse" color-interpolation-filters="sRGB">
<feFlood flood-opacity="0" result="BackgroundImageFix"/>
<feColorMatrix in="SourceAlpha" type="matrix" values="0 0 0 0 0 0 0 0 0 0 0 0 0 0 0 0 0 0 127 0" result="hardAlpha"/>
<feOffset/>
<feGaussianBlur stdDeviation="0.5"/>
<feComposite in2="hardAlpha" operator="out"/>
<feColorMatrix type="matrix" values="0 0 0 0 0 0 0 0 0 0 0 0 0 0 0 0 0 0 0.13 0"/>
<feBlend mode="normal" in2="BackgroundImageFix" result="effect1_dropShadow_475_7"/>
<feBlend mode="normal" in="SourceGraphic" in2="effect1_dropShadow_475_7" result="shape"/>
</filter>
<filter id="filter1_d_475_7" x="0.632812" y="0" width="25.9912" height="26" filterUnits="userSpaceOnUse" color-interpolation-filters="sRGB">
<feFlood flood-opacity="0" result="BackgroundImageFix"/>
<feColorMatrix in="SourceAlpha" type="matrix" values="0 0 0 0 0 0 0 0 0 0 0 0 0 0 0 0 0 0 127 0" result="hardAlpha"/>
<feOffset/>
<feGaussianBlur stdDeviation="0.5"/>
<feComposite in2="hardAlpha" operator="out"/>
<feColorMatrix type="matrix" values="0 0 0 0 0 0 0 0 0 0 0 0 0 0 0 0 0 0 0.13 0"/>
<feBlend mode="normal" in2="BackgroundImageFix" result="effect1_dropShadow_475_7"/>
<feBlend mode="normal" in="SourceGraphic" in2="effect1_dropShadow_475_7" result="shape"/>
</filter>
<pattern id="pattern0_475_7" patternContentUnits="objectBoundingBox" width="1" height="1">
<use xlink:href="#image0_475_7" transform="scale(0.001)"/>
</pattern>
<linearGradient id="paint0_linear_475_7" x1="3.20884" y1="19.8946" x2="23.87" y2="10.3754" gradientUnits="userSpaceOnUse">
<stop stop-color="#00000021"/>
<stop offset="1" stop-color="#00000021"/>
</linearGradient>
<linearGradient id="paint1_linear_475_7" x1="5.86943" y1="22.1621" x2="25.3385" y2="5.23246" gradientUnits="userSpaceOnUse">
<stop stop-color="#00000021"/>
<stop offset="1" stop-color="#00000021"/>
</linearGradient>
<clipPath id="clip0_475_7">
<rect width="23.9912" height="24" fill="black" transform="translate(1.63281 1)"/>
</clipPath>
</defs>
</svg>
