<svg width="321" height="119" viewBox="0 0 321 119" fill="none" xmlns="http://www.w3.org/2000/svg">
<mask id="path-1-outside-1_1808_113074" maskUnits="userSpaceOnUse" x="138" y="-0.800049" width="82" height="26" fill="black">
<rect fill="white" x="138" y="-0.800049" width="82" height="26"/>
<path d="M151.167 5.52291V17.663C151.167 19.8627 150.602 21.5022 149.473 22.5813C148.364 23.6396 146.824 24.1688 144.853 24.1688C143.087 24.1688 141.67 23.816 140.602 23.1105C139.534 22.4049 139 21.471 139 20.3089C139 19.8939 139.082 19.5099 139.246 19.1571C139.308 19.0245 139.374 18.9022 139.445 18.7901C139.655 18.4562 140.051 18.3167 140.445 18.3167H140.618C141.392 18.3167 142.019 18.9438 142.019 19.7175C142.019 20.7758 142.296 21.5644 142.85 22.0832C143.425 22.5813 144.154 22.8303 145.037 22.8303C145.961 22.8303 146.711 22.4879 147.286 21.8031C147.882 21.0975 148.179 19.8835 148.179 18.161V5.52291C148.179 4.87959 148.056 4.40229 147.81 4.091C147.584 3.77972 147.235 3.5722 146.762 3.46843C146.45 3.38245 146.085 3.32121 145.665 3.28471C145.333 3.25585 145.068 2.98585 145.068 2.65282C145.068 2.31245 145.344 2.03653 145.684 2.03653H153.696C154.035 2.03653 154.309 2.31104 154.309 2.64966C154.309 2.98346 154.042 3.25318 153.709 3.27899C152.973 3.33606 152.393 3.47185 151.968 3.68633C151.434 3.95611 151.167 4.5683 151.167 5.52291Z"/>
<path d="M160.478 7.07933C160.84 7.07933 161.133 7.37247 161.133 7.73409V21.0249C161.133 21.7304 161.349 22.1766 161.78 22.3634C162.119 22.5038 162.529 22.6207 163.008 22.7142C163.292 22.7698 163.505 23.0138 163.505 23.3037C163.505 23.6268 163.243 23.8887 162.92 23.8887H156.513C156.19 23.8887 155.927 23.6262 155.927 23.3025C155.927 23.013 156.139 22.769 156.423 22.7118C156.885 22.6188 157.285 22.5026 157.621 22.3634C158.073 22.1766 158.299 21.7304 158.299 21.0249V11.6144C158.299 10.8581 157.869 10.1677 157.19 9.83419L156.357 9.42511C156.188 9.34206 156.081 9.17011 156.081 8.98176C156.081 8.77404 156.211 8.5885 156.406 8.51754L160.254 7.11873C160.326 7.09266 160.402 7.07933 160.478 7.07933ZM159.593 4.86921C159.038 4.86921 158.566 4.67207 158.176 4.27777C157.786 3.86273 157.591 3.36467 157.591 2.78361C157.591 2.20255 157.786 1.71487 158.176 1.32057C158.566 0.905528 159.038 0.698005 159.593 0.698005C160.147 0.698005 160.62 0.905528 161.01 1.32057C161.4 1.71487 161.595 2.20255 161.595 2.78361C161.595 3.36467 161.4 3.86273 161.01 4.27777C160.62 4.67207 160.147 4.86921 159.593 4.86921Z"/>
<path d="M178.422 21.0249V12.4023C178.422 11.2817 178.186 10.5035 177.714 10.0677C177.262 9.6111 176.543 9.38283 175.558 9.38283C174.757 9.38283 173.946 9.53847 173.124 9.84976C172.822 9.96728 172.534 10.0966 172.261 10.2378C171.437 10.664 171.03 11.5727 171.03 12.5007V21.0249C171.03 21.7304 171.245 22.1766 171.676 22.3634C172.016 22.5038 172.425 22.6207 172.904 22.7142C173.189 22.7698 173.401 23.0138 173.401 23.3037C173.401 23.6268 173.14 23.8887 172.816 23.8887H166.41C166.086 23.8887 165.824 23.6262 165.824 23.3025C165.824 23.013 166.036 22.769 166.32 22.7118C166.782 22.6188 167.181 22.5026 167.518 22.3634C167.97 22.1766 168.196 21.7304 168.196 21.0249V11.6144C168.196 10.8581 167.766 10.1677 167.087 9.83419L166.254 9.42511C166.085 9.34206 165.978 9.17011 165.978 8.98176C165.978 8.77404 166.108 8.5885 166.303 8.51754L170.151 7.11873C170.223 7.09266 170.299 7.07933 170.375 7.07933C170.736 7.07933 171.03 7.37248 171.03 7.73409V7.98632C171.03 8.78776 172.013 9.21511 172.64 8.71596C172.647 8.70997 172.655 8.70399 172.662 8.69801C173.258 8.2207 173.905 7.83679 174.603 7.54625C175.321 7.23497 176.102 7.07933 176.944 7.07933C178.279 7.07933 179.326 7.47362 180.086 8.26221C180.866 9.05079 181.256 10.3582 181.256 12.1844V21.0249C181.256 21.7304 181.482 22.1766 181.934 22.3634C182.273 22.5038 182.683 22.6207 183.162 22.7142C183.446 22.7698 183.659 23.0138 183.659 23.3037C183.659 23.6268 183.397 23.8887 183.074 23.8887H176.637C176.313 23.8887 176.05 23.6262 176.05 23.3025C176.05 23.013 176.262 22.769 176.546 22.7118C177.008 22.6188 177.408 22.5026 177.745 22.3634C178.196 22.1766 178.422 21.7304 178.422 21.0249Z"/>
<path d="M186.972 4.74889C186.972 3.98482 186.535 3.28797 185.848 2.95481L185.001 2.54448C184.831 2.46228 184.723 2.29033 184.723 2.1018C184.723 1.89452 184.853 1.70947 185.048 1.63911L188.928 0.238875C188.999 0.213121 189.074 0.199951 189.15 0.199951C189.512 0.199951 189.806 0.493395 189.806 0.855375V6.78242C189.806 7.75677 191.202 8.29819 192.054 7.82641C192.917 7.32836 193.913 7.07933 195.042 7.07933C196.459 7.07933 197.64 7.43212 198.585 8.13769C199.529 8.82252 200.238 9.75637 200.71 10.9393C201.203 12.1221 201.449 13.4295 201.449 14.8614C201.449 16.7706 201.09 18.4308 200.371 19.842C199.673 21.2324 198.728 22.3115 197.537 23.0793C196.346 23.8264 195.022 24.2 193.564 24.2C192.044 24.2 190.72 23.9924 189.59 23.5774C189.052 23.366 188.57 23.1425 188.143 22.9067C187.357 22.4722 186.972 21.5962 186.972 20.6976V4.74889ZM193.779 22.768C195.217 22.768 196.377 22.1766 197.26 20.9937C198.164 19.7901 198.615 18.1818 198.615 16.1688C198.615 14.9859 198.451 13.8653 198.123 12.807C197.815 11.7278 197.301 10.8562 196.582 10.1922C195.884 9.50734 194.96 9.16493 193.81 9.16493C193.05 9.16493 192.311 9.29982 191.592 9.5696C191.295 9.67263 191.019 9.79696 190.764 9.94261C190.084 10.3307 189.806 11.1267 189.806 11.9097V18.4412C189.806 20.0184 190.165 21.139 190.884 21.8031C191.623 22.4464 192.588 22.768 193.779 22.768Z"/>
<path d="M209.42 22.021C210.139 22.021 210.786 21.9068 211.361 21.6786C211.544 21.6084 211.729 21.5265 211.916 21.4328C212.776 21.0014 213.209 20.0536 213.209 19.0909V17.2316C213.209 16.1791 212.153 15.4539 211.171 15.8314L208.835 16.7291C208.26 16.9367 207.798 17.2583 207.449 17.6941C207.12 18.1299 206.956 18.6487 206.956 19.2505C206.956 20.1429 207.172 20.8277 207.603 21.305C208.034 21.7823 208.64 22.021 209.42 22.021ZM216.074 12.3089C216.074 12.5164 216.063 12.8692 216.043 13.3673C216.043 13.8653 216.043 14.436 216.043 15.0793C216.043 15.7226 216.033 16.3763 216.012 17.0404C216.012 17.7045 216.002 18.3063 215.981 18.8459C215.981 19.3647 215.981 19.759 215.981 20.0287C215.981 20.7136 216.105 21.2428 216.351 21.6163C216.597 21.9691 216.946 22.1455 217.398 22.1455C217.542 22.1455 217.758 22.1351 218.045 22.1143C218.152 22.1 218.253 22.0844 218.35 22.0676C218.621 22.0204 218.893 22.1869 218.949 22.4562C218.981 22.6121 218.933 22.7746 218.818 22.8841C218.365 23.3135 217.913 23.6379 217.46 23.8575C216.967 24.0858 216.454 24.2 215.92 24.2C215.139 24.2 214.544 23.9405 214.133 23.4217C214.058 23.3234 213.988 23.2203 213.922 23.1124C213.536 22.4816 212.54 22.1963 211.977 22.6747C211.464 23.1105 210.889 23.4736 210.252 23.7642C209.615 24.0547 208.917 24.2 208.157 24.2C206.761 24.2 205.724 23.7849 205.046 22.9548C204.389 22.1247 204.061 21.139 204.061 19.9976C204.061 19.0223 204.276 18.244 204.707 17.663C205.139 17.0819 205.683 16.615 206.34 16.2622C207.018 15.9094 207.685 15.6189 208.342 15.3906L211.776 14.1387C212.636 13.825 213.209 13.0069 213.209 12.091C213.209 11.4684 213.117 10.8874 212.932 10.3478C212.768 9.80825 212.459 9.38283 212.008 9.07155C211.576 8.73951 210.96 8.57349 210.16 8.57349C209.338 8.57349 208.712 8.76026 208.281 9.1338C207.849 9.50734 207.634 10.0884 207.634 10.877C207.634 11.1468 207.644 11.4062 207.664 11.6552C207.739 12.1063 207.449 12.5496 206.996 12.6106L206.274 12.7079C205.814 12.7699 205.331 12.6124 205.107 12.2064C205.086 12.1682 205.065 12.1297 205.046 12.091C204.944 11.8212 204.892 11.4996 204.892 11.126C204.892 10.2752 205.149 9.54885 205.662 8.94703C206.176 8.34522 206.874 7.88867 207.757 7.57738C208.64 7.24535 209.636 7.07933 210.745 7.07933C211.936 7.07933 212.922 7.28685 213.702 7.7019C214.482 8.09619 215.067 8.67725 215.458 9.44509C215.868 10.2129 216.074 11.1675 216.074 12.3089Z"/>
</mask>
<path d="M151.167 5.52291V17.663C151.167 19.8627 150.602 21.5022 149.473 22.5813C148.364 23.6396 146.824 24.1688 144.853 24.1688C143.087 24.1688 141.67 23.816 140.602 23.1105C139.534 22.4049 139 21.471 139 20.3089C139 19.8939 139.082 19.5099 139.246 19.1571C139.308 19.0245 139.374 18.9022 139.445 18.7901C139.655 18.4562 140.051 18.3167 140.445 18.3167H140.618C141.392 18.3167 142.019 18.9438 142.019 19.7175C142.019 20.7758 142.296 21.5644 142.85 22.0832C143.425 22.5813 144.154 22.8303 145.037 22.8303C145.961 22.8303 146.711 22.4879 147.286 21.8031C147.882 21.0975 148.179 19.8835 148.179 18.161V5.52291C148.179 4.87959 148.056 4.40229 147.81 4.091C147.584 3.77972 147.235 3.5722 146.762 3.46843C146.45 3.38245 146.085 3.32121 145.665 3.28471C145.333 3.25585 145.068 2.98585 145.068 2.65282C145.068 2.31245 145.344 2.03653 145.684 2.03653H153.696C154.035 2.03653 154.309 2.31104 154.309 2.64966C154.309 2.98346 154.042 3.25318 153.709 3.27899C152.973 3.33606 152.393 3.47185 151.968 3.68633C151.434 3.95611 151.167 4.5683 151.167 5.52291Z" fill="#A22727"/>
<path d="M160.478 7.07933C160.84 7.07933 161.133 7.37247 161.133 7.73409V21.0249C161.133 21.7304 161.349 22.1766 161.78 22.3634C162.119 22.5038 162.529 22.6207 163.008 22.7142C163.292 22.7698 163.505 23.0138 163.505 23.3037C163.505 23.6268 163.243 23.8887 162.92 23.8887H156.513C156.19 23.8887 155.927 23.6262 155.927 23.3025C155.927 23.013 156.139 22.769 156.423 22.7118C156.885 22.6188 157.285 22.5026 157.621 22.3634C158.073 22.1766 158.299 21.7304 158.299 21.0249V11.6144C158.299 10.8581 157.869 10.1677 157.19 9.83419L156.357 9.42511C156.188 9.34206 156.081 9.17011 156.081 8.98176C156.081 8.77404 156.211 8.5885 156.406 8.51754L160.254 7.11873C160.326 7.09266 160.402 7.07933 160.478 7.07933ZM159.593 4.86921C159.038 4.86921 158.566 4.67207 158.176 4.27777C157.786 3.86273 157.591 3.36467 157.591 2.78361C157.591 2.20255 157.786 1.71487 158.176 1.32057C158.566 0.905528 159.038 0.698005 159.593 0.698005C160.147 0.698005 160.62 0.905528 161.01 1.32057C161.4 1.71487 161.595 2.20255 161.595 2.78361C161.595 3.36467 161.4 3.86273 161.01 4.27777C160.62 4.67207 160.147 4.86921 159.593 4.86921Z" fill="#A22727"/>
<path d="M178.422 21.0249V12.4023C178.422 11.2817 178.186 10.5035 177.714 10.0677C177.262 9.6111 176.543 9.38283 175.558 9.38283C174.757 9.38283 173.946 9.53847 173.124 9.84976C172.822 9.96728 172.534 10.0966 172.261 10.2378C171.437 10.664 171.03 11.5727 171.03 12.5007V21.0249C171.03 21.7304 171.245 22.1766 171.676 22.3634C172.016 22.5038 172.425 22.6207 172.904 22.7142C173.189 22.7698 173.401 23.0138 173.401 23.3037C173.401 23.6268 173.14 23.8887 172.816 23.8887H166.41C166.086 23.8887 165.824 23.6262 165.824 23.3025C165.824 23.013 166.036 22.769 166.32 22.7118C166.782 22.6188 167.181 22.5026 167.518 22.3634C167.97 22.1766 168.196 21.7304 168.196 21.0249V11.6144C168.196 10.8581 167.766 10.1677 167.087 9.83419L166.254 9.42511C166.085 9.34206 165.978 9.17011 165.978 8.98176C165.978 8.77404 166.108 8.5885 166.303 8.51754L170.151 7.11873C170.223 7.09266 170.299 7.07933 170.375 7.07933C170.736 7.07933 171.03 7.37248 171.03 7.73409V7.98632C171.03 8.78776 172.013 9.21511 172.64 8.71596C172.647 8.70997 172.655 8.70399 172.662 8.69801C173.258 8.2207 173.905 7.83679 174.603 7.54625C175.321 7.23497 176.102 7.07933 176.944 7.07933C178.279 7.07933 179.326 7.47362 180.086 8.26221C180.866 9.05079 181.256 10.3582 181.256 12.1844V21.0249C181.256 21.7304 181.482 22.1766 181.934 22.3634C182.273 22.5038 182.683 22.6207 183.162 22.7142C183.446 22.7698 183.659 23.0138 183.659 23.3037C183.659 23.6268 183.397 23.8887 183.074 23.8887H176.637C176.313 23.8887 176.05 23.6262 176.05 23.3025C176.05 23.013 176.262 22.769 176.546 22.7118C177.008 22.6188 177.408 22.5026 177.745 22.3634C178.196 22.1766 178.422 21.7304 178.422 21.0249Z" fill="#A22727"/>
<path d="M186.972 4.74889C186.972 3.98482 186.535 3.28797 185.848 2.95481L185.001 2.54448C184.831 2.46228 184.723 2.29033 184.723 2.1018C184.723 1.89452 184.853 1.70947 185.048 1.63911L188.928 0.238875C188.999 0.213121 189.074 0.199951 189.15 0.199951C189.512 0.199951 189.806 0.493395 189.806 0.855375V6.78242C189.806 7.75677 191.202 8.29819 192.054 7.82641C192.917 7.32836 193.913 7.07933 195.042 7.07933C196.459 7.07933 197.64 7.43212 198.585 8.13769C199.529 8.82252 200.238 9.75637 200.71 10.9393C201.203 12.1221 201.449 13.4295 201.449 14.8614C201.449 16.7706 201.09 18.4308 200.371 19.842C199.673 21.2324 198.728 22.3115 197.537 23.0793C196.346 23.8264 195.022 24.2 193.564 24.2C192.044 24.2 190.72 23.9924 189.59 23.5774C189.052 23.366 188.57 23.1425 188.143 22.9067C187.357 22.4722 186.972 21.5962 186.972 20.6976V4.74889ZM193.779 22.768C195.217 22.768 196.377 22.1766 197.26 20.9937C198.164 19.7901 198.615 18.1818 198.615 16.1688C198.615 14.9859 198.451 13.8653 198.123 12.807C197.815 11.7278 197.301 10.8562 196.582 10.1922C195.884 9.50734 194.96 9.16493 193.81 9.16493C193.05 9.16493 192.311 9.29982 191.592 9.5696C191.295 9.67263 191.019 9.79696 190.764 9.94261C190.084 10.3307 189.806 11.1267 189.806 11.9097V18.4412C189.806 20.0184 190.165 21.139 190.884 21.8031C191.623 22.4464 192.588 22.768 193.779 22.768Z" fill="#A22727"/>
<path d="M209.42 22.021C210.139 22.021 210.786 21.9068 211.361 21.6786C211.544 21.6084 211.729 21.5265 211.916 21.4328C212.776 21.0014 213.209 20.0536 213.209 19.0909V17.2316C213.209 16.1791 212.153 15.4539 211.171 15.8314L208.835 16.7291C208.26 16.9367 207.798 17.2583 207.449 17.6941C207.12 18.1299 206.956 18.6487 206.956 19.2505C206.956 20.1429 207.172 20.8277 207.603 21.305C208.034 21.7823 208.64 22.021 209.42 22.021ZM216.074 12.3089C216.074 12.5164 216.063 12.8692 216.043 13.3673C216.043 13.8653 216.043 14.436 216.043 15.0793C216.043 15.7226 216.033 16.3763 216.012 17.0404C216.012 17.7045 216.002 18.3063 215.981 18.8459C215.981 19.3647 215.981 19.759 215.981 20.0287C215.981 20.7136 216.105 21.2428 216.351 21.6163C216.597 21.9691 216.946 22.1455 217.398 22.1455C217.542 22.1455 217.758 22.1351 218.045 22.1143C218.152 22.1 218.253 22.0844 218.35 22.0676C218.621 22.0204 218.893 22.1869 218.949 22.4562C218.981 22.6121 218.933 22.7746 218.818 22.8841C218.365 23.3135 217.913 23.6379 217.46 23.8575C216.967 24.0858 216.454 24.2 215.92 24.2C215.139 24.2 214.544 23.9405 214.133 23.4217C214.058 23.3234 213.988 23.2203 213.922 23.1124C213.536 22.4816 212.54 22.1963 211.977 22.6747C211.464 23.1105 210.889 23.4736 210.252 23.7642C209.615 24.0547 208.917 24.2 208.157 24.2C206.761 24.2 205.724 23.7849 205.046 22.9548C204.389 22.1247 204.061 21.139 204.061 19.9976C204.061 19.0223 204.276 18.244 204.707 17.663C205.139 17.0819 205.683 16.615 206.34 16.2622C207.018 15.9094 207.685 15.6189 208.342 15.3906L211.776 14.1387C212.636 13.825 213.209 13.0069 213.209 12.091C213.209 11.4684 213.117 10.8874 212.932 10.3478C212.768 9.80825 212.459 9.38283 212.008 9.07155C211.576 8.73951 210.96 8.57349 210.16 8.57349C209.338 8.57349 208.712 8.76026 208.281 9.1338C207.849 9.50734 207.634 10.0884 207.634 10.877C207.634 11.1468 207.644 11.4062 207.664 11.6552C207.739 12.1063 207.449 12.5496 206.996 12.6106L206.274 12.7079C205.814 12.7699 205.331 12.6124 205.107 12.2064C205.086 12.1682 205.065 12.1297 205.046 12.091C204.944 11.8212 204.892 11.4996 204.892 11.126C204.892 10.2752 205.149 9.54885 205.662 8.94703C206.176 8.34522 206.874 7.88867 207.757 7.57738C208.64 7.24535 209.636 7.07933 210.745 7.07933C211.936 7.07933 212.922 7.28685 213.702 7.7019C214.482 8.09619 215.067 8.67725 215.458 9.44509C215.868 10.2129 216.074 11.1675 216.074 12.3089Z" fill="#A22727"/>
<path d="M151.167 5.52291V17.663C151.167 19.8627 150.602 21.5022 149.473 22.5813C148.364 23.6396 146.824 24.1688 144.853 24.1688C143.087 24.1688 141.67 23.816 140.602 23.1105C139.534 22.4049 139 21.471 139 20.3089C139 19.8939 139.082 19.5099 139.246 19.1571C139.308 19.0245 139.374 18.9022 139.445 18.7901C139.655 18.4562 140.051 18.3167 140.445 18.3167H140.618C141.392 18.3167 142.019 18.9438 142.019 19.7175C142.019 20.7758 142.296 21.5644 142.85 22.0832C143.425 22.5813 144.154 22.8303 145.037 22.8303C145.961 22.8303 146.711 22.4879 147.286 21.8031C147.882 21.0975 148.179 19.8835 148.179 18.161V5.52291C148.179 4.87959 148.056 4.40229 147.81 4.091C147.584 3.77972 147.235 3.5722 146.762 3.46843C146.45 3.38245 146.085 3.32121 145.665 3.28471C145.333 3.25585 145.068 2.98585 145.068 2.65282C145.068 2.31245 145.344 2.03653 145.684 2.03653H153.696C154.035 2.03653 154.309 2.31104 154.309 2.64966C154.309 2.98346 154.042 3.25318 153.709 3.27899C152.973 3.33606 152.393 3.47185 151.968 3.68633C151.434 3.95611 151.167 4.5683 151.167 5.52291Z" stroke="#A22727" stroke-width="0.4" mask="url(#path-1-outside-1_1808_113074)"/>
<path d="M160.478 7.07933C160.84 7.07933 161.133 7.37247 161.133 7.73409V21.0249C161.133 21.7304 161.349 22.1766 161.78 22.3634C162.119 22.5038 162.529 22.6207 163.008 22.7142C163.292 22.7698 163.505 23.0138 163.505 23.3037C163.505 23.6268 163.243 23.8887 162.92 23.8887H156.513C156.19 23.8887 155.927 23.6262 155.927 23.3025C155.927 23.013 156.139 22.769 156.423 22.7118C156.885 22.6188 157.285 22.5026 157.621 22.3634C158.073 22.1766 158.299 21.7304 158.299 21.0249V11.6144C158.299 10.8581 157.869 10.1677 157.19 9.83419L156.357 9.42511C156.188 9.34206 156.081 9.17011 156.081 8.98176C156.081 8.77404 156.211 8.5885 156.406 8.51754L160.254 7.11873C160.326 7.09266 160.402 7.07933 160.478 7.07933ZM159.593 4.86921C159.038 4.86921 158.566 4.67207 158.176 4.27777C157.786 3.86273 157.591 3.36467 157.591 2.78361C157.591 2.20255 157.786 1.71487 158.176 1.32057C158.566 0.905528 159.038 0.698005 159.593 0.698005C160.147 0.698005 160.62 0.905528 161.01 1.32057C161.4 1.71487 161.595 2.20255 161.595 2.78361C161.595 3.36467 161.4 3.86273 161.01 4.27777C160.62 4.67207 160.147 4.86921 159.593 4.86921Z" stroke="#A22727" stroke-width="0.4" mask="url(#path-1-outside-1_1808_113074)"/>
<path d="M178.422 21.0249V12.4023C178.422 11.2817 178.186 10.5035 177.714 10.0677C177.262 9.6111 176.543 9.38283 175.558 9.38283C174.757 9.38283 173.946 9.53847 173.124 9.84976C172.822 9.96728 172.534 10.0966 172.261 10.2378C171.437 10.664 171.03 11.5727 171.03 12.5007V21.0249C171.03 21.7304 171.245 22.1766 171.676 22.3634C172.016 22.5038 172.425 22.6207 172.904 22.7142C173.189 22.7698 173.401 23.0138 173.401 23.3037C173.401 23.6268 173.14 23.8887 172.816 23.8887H166.41C166.086 23.8887 165.824 23.6262 165.824 23.3025C165.824 23.013 166.036 22.769 166.32 22.7118C166.782 22.6188 167.181 22.5026 167.518 22.3634C167.97 22.1766 168.196 21.7304 168.196 21.0249V11.6144C168.196 10.8581 167.766 10.1677 167.087 9.83419L166.254 9.42511C166.085 9.34206 165.978 9.17011 165.978 8.98176C165.978 8.77404 166.108 8.5885 166.303 8.51754L170.151 7.11873C170.223 7.09266 170.299 7.07933 170.375 7.07933C170.736 7.07933 171.03 7.37248 171.03 7.73409V7.98632C171.03 8.78776 172.013 9.21511 172.64 8.71596C172.647 8.70997 172.655 8.70399 172.662 8.69801C173.258 8.2207 173.905 7.83679 174.603 7.54625C175.321 7.23497 176.102 7.07933 176.944 7.07933C178.279 7.07933 179.326 7.47362 180.086 8.26221C180.866 9.05079 181.256 10.3582 181.256 12.1844V21.0249C181.256 21.7304 181.482 22.1766 181.934 22.3634C182.273 22.5038 182.683 22.6207 183.162 22.7142C183.446 22.7698 183.659 23.0138 183.659 23.3037C183.659 23.6268 183.397 23.8887 183.074 23.8887H176.637C176.313 23.8887 176.05 23.6262 176.05 23.3025C176.05 23.013 176.262 22.769 176.546 22.7118C177.008 22.6188 177.408 22.5026 177.745 22.3634C178.196 22.1766 178.422 21.7304 178.422 21.0249Z" stroke="#A22727" stroke-width="0.4" mask="url(#path-1-outside-1_1808_113074)"/>
<path d="M186.972 4.74889C186.972 3.98482 186.535 3.28797 185.848 2.95481L185.001 2.54448C184.831 2.46228 184.723 2.29033 184.723 2.1018C184.723 1.89452 184.853 1.70947 185.048 1.63911L188.928 0.238875C188.999 0.213121 189.074 0.199951 189.15 0.199951C189.512 0.199951 189.806 0.493395 189.806 0.855375V6.78242C189.806 7.75677 191.202 8.29819 192.054 7.82641C192.917 7.32836 193.913 7.07933 195.042 7.07933C196.459 7.07933 197.64 7.43212 198.585 8.13769C199.529 8.82252 200.238 9.75637 200.71 10.9393C201.203 12.1221 201.449 13.4295 201.449 14.8614C201.449 16.7706 201.09 18.4308 200.371 19.842C199.673 21.2324 198.728 22.3115 197.537 23.0793C196.346 23.8264 195.022 24.2 193.564 24.2C192.044 24.2 190.72 23.9924 189.59 23.5774C189.052 23.366 188.57 23.1425 188.143 22.9067C187.357 22.4722 186.972 21.5962 186.972 20.6976V4.74889ZM193.779 22.768C195.217 22.768 196.377 22.1766 197.26 20.9937C198.164 19.7901 198.615 18.1818 198.615 16.1688C198.615 14.9859 198.451 13.8653 198.123 12.807C197.815 11.7278 197.301 10.8562 196.582 10.1922C195.884 9.50734 194.96 9.16493 193.81 9.16493C193.05 9.16493 192.311 9.29982 191.592 9.5696C191.295 9.67263 191.019 9.79696 190.764 9.94261C190.084 10.3307 189.806 11.1267 189.806 11.9097V18.4412C189.806 20.0184 190.165 21.139 190.884 21.8031C191.623 22.4464 192.588 22.768 193.779 22.768Z" stroke="#A22727" stroke-width="0.4" mask="url(#path-1-outside-1_1808_113074)"/>
<path d="M209.42 22.021C210.139 22.021 210.786 21.9068 211.361 21.6786C211.544 21.6084 211.729 21.5265 211.916 21.4328C212.776 21.0014 213.209 20.0536 213.209 19.0909V17.2316C213.209 16.1791 212.153 15.4539 211.171 15.8314L208.835 16.7291C208.26 16.9367 207.798 17.2583 207.449 17.6941C207.12 18.1299 206.956 18.6487 206.956 19.2505C206.956 20.1429 207.172 20.8277 207.603 21.305C208.034 21.7823 208.64 22.021 209.42 22.021ZM216.074 12.3089C216.074 12.5164 216.063 12.8692 216.043 13.3673C216.043 13.8653 216.043 14.436 216.043 15.0793C216.043 15.7226 216.033 16.3763 216.012 17.0404C216.012 17.7045 216.002 18.3063 215.981 18.8459C215.981 19.3647 215.981 19.759 215.981 20.0287C215.981 20.7136 216.105 21.2428 216.351 21.6163C216.597 21.9691 216.946 22.1455 217.398 22.1455C217.542 22.1455 217.758 22.1351 218.045 22.1143C218.152 22.1 218.253 22.0844 218.35 22.0676C218.621 22.0204 218.893 22.1869 218.949 22.4562C218.981 22.6121 218.933 22.7746 218.818 22.8841C218.365 23.3135 217.913 23.6379 217.46 23.8575C216.967 24.0858 216.454 24.2 215.92 24.2C215.139 24.2 214.544 23.9405 214.133 23.4217C214.058 23.3234 213.988 23.2203 213.922 23.1124C213.536 22.4816 212.54 22.1963 211.977 22.6747C211.464 23.1105 210.889 23.4736 210.252 23.7642C209.615 24.0547 208.917 24.2 208.157 24.2C206.761 24.2 205.724 23.7849 205.046 22.9548C204.389 22.1247 204.061 21.139 204.061 19.9976C204.061 19.0223 204.276 18.244 204.707 17.663C205.139 17.0819 205.683 16.615 206.34 16.2622C207.018 15.9094 207.685 15.6189 208.342 15.3906L211.776 14.1387C212.636 13.825 213.209 13.0069 213.209 12.091C213.209 11.4684 213.117 10.8874 212.932 10.3478C212.768 9.80825 212.459 9.38283 212.008 9.07155C211.576 8.73951 210.96 8.57349 210.16 8.57349C209.338 8.57349 208.712 8.76026 208.281 9.1338C207.849 9.50734 207.634 10.0884 207.634 10.877C207.634 11.1468 207.644 11.4062 207.664 11.6552C207.739 12.1063 207.449 12.5496 206.996 12.6106L206.274 12.7079C205.814 12.7699 205.331 12.6124 205.107 12.2064C205.086 12.1682 205.065 12.1297 205.046 12.091C204.944 11.8212 204.892 11.4996 204.892 11.126C204.892 10.2752 205.149 9.54885 205.662 8.94703C206.176 8.34522 206.874 7.88867 207.757 7.57738C208.64 7.24535 209.636 7.07933 210.745 7.07933C211.936 7.07933 212.922 7.28685 213.702 7.7019C214.482 8.09619 215.067 8.67725 215.458 9.44509C215.868 10.2129 216.074 11.1675 216.074 12.3089Z" stroke="#A22727" stroke-width="0.4" mask="url(#path-1-outside-1_1808_113074)"/>
<path d="M287.694 98.2157C286.434 97.5718 284.371 98.4552 284.371 99.8696V108.289C284.371 112.032 286.274 112.988 289.457 113.542C290.611 113.743 291.482 114.716 291.482 115.887C291.482 117.178 290.435 118.225 289.145 118.225H267.908C266.617 118.225 265.57 117.178 265.57 115.887C265.57 114.716 266.442 113.744 267.595 113.541C270.751 112.987 272.584 112.029 272.584 108.289V60.0914C272.584 58.3783 271.712 56.783 270.27 55.8577L266.935 53.7172C266.388 53.3661 266.057 52.7607 266.057 52.1106C266.057 51.2811 266.593 50.5465 267.383 50.293L281.512 45.7579C281.728 45.6884 281.954 45.6531 282.181 45.6531C283.39 45.6531 284.371 46.6335 284.371 47.8429C284.371 49.9673 287.343 51.0254 289.027 49.7298C292.188 47.2971 296.039 45.8479 300.736 45.8479C313.692 45.8479 320.998 56.1735 320.998 70.3956C320.998 88.709 309.6 100.009 295.865 100.009C292.664 100.009 289.86 99.3232 287.694 98.2157ZM295.281 94.8459C303.658 94.8459 309.113 86.8582 309.113 74.7791C309.113 63.4794 304.73 53.8356 294.989 53.8356C291.8 53.8356 288.611 54.6428 286.117 56.2076C284.93 56.9523 284.371 58.3339 284.371 59.7353V82.3772C284.371 90.5598 288.365 94.8459 295.281 94.8459Z" fill="#A22727"/>
<path d="M230.037 98.2157C228.778 97.5718 226.714 98.4552 226.714 99.8696V108.289C226.714 112.032 228.618 112.988 231.8 113.542C232.954 113.743 233.826 114.716 233.826 115.887C233.826 117.178 232.779 118.225 231.488 118.225H210.251C208.96 118.225 207.914 117.178 207.914 115.887C207.914 114.716 208.785 113.744 209.939 113.541C213.095 112.987 214.928 112.029 214.928 108.289V60.0914C214.928 58.3783 214.056 56.783 212.614 55.8577L209.279 53.7172C208.732 53.3661 208.401 52.7607 208.401 52.1106C208.401 51.2811 208.937 50.5465 209.727 50.293L223.855 45.7579C224.072 45.6884 224.297 45.6531 224.525 45.6531C225.734 45.6531 226.714 46.6335 226.714 47.8429C226.714 49.9673 229.687 51.0254 231.371 49.7298C234.532 47.2971 238.383 45.8479 243.08 45.8479C256.035 45.8479 263.341 56.1735 263.341 70.3956C263.341 88.709 251.944 100.009 238.209 100.009C235.008 100.009 232.203 99.3232 230.037 98.2157ZM237.625 94.8459C246.002 94.8459 251.457 86.8582 251.457 74.7791C251.457 63.4794 247.074 53.8356 237.332 53.8356C234.144 53.8356 230.955 54.6428 228.46 56.2076C227.273 56.9523 226.714 58.3339 226.714 59.7353V82.3772C226.714 90.5598 230.708 94.8459 237.625 94.8459Z" fill="#A22727"/>
<path d="M188.193 90.5038L185.675 84.3699C184.9 82.4823 183.061 81.2497 181.021 81.2497H160.511C158.461 81.2497 156.616 82.4941 155.847 84.395L153.417 90.4064C152.832 91.8676 152.345 93.2314 152.345 94.3029C152.345 96.9281 153.891 98.0809 158.52 98.4653C159.798 98.5715 160.82 99.6087 160.82 100.891C160.82 102.202 159.758 103.265 158.447 103.265H141.51C140.124 103.265 139 102.141 139 100.755C139 99.5104 139.926 98.5055 141.121 98.1587C142.729 97.6918 143.985 96.8561 144.747 94.9848L166.327 42.645C166.729 41.6692 166.711 40.5708 166.278 39.6086C165.134 37.0716 166.99 34.2 169.773 34.2H174.071C176.079 34.2 177.895 35.3947 178.69 37.2391L203.584 94.9848C204.358 96.8137 205.538 97.6774 207.198 98.163C208.395 98.5134 209.331 99.5185 209.331 100.766C209.331 102.146 208.213 103.265 206.833 103.265H183.26C181.95 103.265 180.887 102.202 180.887 100.891C180.887 99.6087 181.909 98.571 183.188 98.4695C187.793 98.104 189.264 97.0246 189.264 94.4003C189.264 93.2313 188.875 91.965 188.193 90.5038ZM171.403 50.0956C171.059 49.269 169.886 49.2759 169.552 50.1065L160.171 73.4383C159.642 74.7525 160.61 76.1843 162.027 76.1843H179.253C180.68 76.1843 181.648 74.7337 181.1 73.4165L171.403 50.0956Z" fill="#A22727"/>
<path d="M90.1689 69.1682L109.357 64.8154C109.733 64.7301 110 64.3958 110 64.0102V1.02563C110 0.569619 109.62 0.199625 109.164 0.203516C38.0062 0.810762 0.844627 78.8179 0.0142313 102.413C-0.00180751 102.869 0.369664 103.2 0.825674 103.2H84.3734C84.987 103.2 85.3879 102.555 85.127 102C77.849 86.5124 76.4526 65.7506 77.7004 53.0663C77.7416 52.647 78.0952 52.3358 78.5166 52.3358H84.8826C85.3386 52.3358 85.7076 52.7052 85.7152 53.1612C85.8133 59.0251 86.9593 65.1228 89.3225 68.8318C89.5022 69.114 89.8426 69.2422 90.1689 69.1682Z" fill="#A22727"/>
<circle cx="19" cy="20.2" r="19" fill="#A22727"/>
</svg>
