<svg width="497" height="106" viewBox="0 0 497 106" fill="none" xmlns="http://www.w3.org/2000/svg">
<mask id="path-1-outside-1_1808_113087" maskUnits="userSpaceOnUse" x="135" y="-0.800049" width="83" height="26" fill="black">
<rect fill="white" x="135" y="-0.800049" width="83" height="26"/>
<path d="M148.319 5.52291V17.663C148.319 19.8627 147.748 21.5022 146.604 22.5813C145.481 23.6396 143.922 24.1688 141.926 24.1688C140.138 24.1688 138.703 23.816 137.622 23.1105C136.541 22.4049 136 21.471 136 20.3089C136 19.8939 136.083 19.5099 136.25 19.1571C136.312 19.0247 136.379 18.9025 136.45 18.7905C136.663 18.4556 137.062 18.3167 137.459 18.3167H137.656C138.429 18.3167 139.056 18.9438 139.056 19.7175C139.056 20.7758 139.337 21.5644 139.899 22.0832C140.481 22.5813 141.219 22.8303 142.113 22.8303C143.048 22.8303 143.807 22.4879 144.39 21.8031C144.993 21.0975 145.294 19.8835 145.294 18.161V5.52291C145.294 4.87959 145.169 4.40229 144.92 4.091C144.691 3.77972 144.338 3.5722 143.859 3.46843C143.542 3.38196 143.169 3.32051 142.741 3.28408C142.409 3.25584 142.144 2.98576 142.144 2.65271C142.144 2.3124 142.42 2.03653 142.76 2.03653H150.887C151.226 2.03653 151.5 2.311 151.5 2.64959C151.5 2.9834 151.233 3.2532 150.9 3.27842C150.151 3.33517 149.561 3.47114 149.13 3.68633C148.59 3.95611 148.319 4.5683 148.319 5.52291Z"/>
<path d="M157.745 7.07933C158.112 7.07933 158.41 7.37666 158.41 7.74343V21.0249C158.41 21.7304 158.628 22.1766 159.065 22.3634C159.41 22.5043 159.826 22.6216 160.313 22.7153C160.598 22.77 160.811 23.0141 160.811 23.3042C160.811 23.627 160.549 23.8887 160.227 23.8887H153.725C153.401 23.8887 153.139 23.6264 153.139 23.303C153.139 23.0133 153.351 22.7693 153.635 22.7129C154.106 22.6197 154.512 22.5031 154.854 22.3634C155.312 22.1766 155.54 21.7304 155.54 21.0249V11.6269C155.54 10.8636 155.104 10.1674 154.418 9.83419L153.572 9.42384C153.402 9.34164 153.295 9.16988 153.295 8.98156C153.295 8.77412 153.425 8.58899 153.62 8.5189L157.521 7.11839C157.593 7.09254 157.669 7.07933 157.745 7.07933ZM156.85 4.86921C156.289 4.86921 155.811 4.67207 155.416 4.27777C155.02 3.86273 154.823 3.36467 154.823 2.78361C154.823 2.20255 155.02 1.71487 155.416 1.32057C155.811 0.905528 156.289 0.698005 156.85 0.698005C157.412 0.698005 157.89 0.905528 158.285 1.32057C158.68 1.71487 158.877 2.20255 158.877 2.78361C158.877 3.36467 158.68 3.86273 158.285 4.27777C157.89 4.67207 157.412 4.86921 156.85 4.86921Z"/>
<path d="M175.915 21.0249V12.4023C175.915 11.2817 175.676 10.5035 175.198 10.0677C174.74 9.6111 174.013 9.38283 173.015 9.38283C172.204 9.38283 171.382 9.53847 170.551 9.84976C170.244 9.96747 169.952 10.0971 169.675 10.2385C168.843 10.6636 168.43 11.5776 168.43 12.5121V21.0249C168.43 21.7304 168.648 22.1766 169.085 22.3634C169.43 22.5043 169.846 22.6216 170.333 22.7153C170.618 22.77 170.831 23.0141 170.831 23.3042C170.831 23.627 170.57 23.8887 170.247 23.8887H163.745C163.421 23.8887 163.159 23.6264 163.159 23.303C163.159 23.0133 163.371 22.7693 163.656 22.7129C164.126 22.6197 164.532 22.5031 164.875 22.3634C165.332 22.1766 165.561 21.7304 165.561 21.0249V11.6269C165.561 10.8636 165.125 10.1674 164.438 9.83419L163.592 9.42384C163.423 9.34164 163.315 9.16988 163.315 8.98156C163.315 8.77412 163.445 8.58899 163.641 8.5189L167.541 7.11839C167.613 7.09254 167.689 7.07933 167.766 7.07933C168.133 7.07933 168.43 7.37666 168.43 7.74343V7.99183C168.43 8.79541 169.413 9.22599 170.044 8.72874C170.057 8.71849 170.07 8.70824 170.083 8.69801C170.686 8.2207 171.341 7.83679 172.048 7.54625C172.776 7.23497 173.566 7.07933 174.418 7.07933C175.77 7.07933 176.83 7.47362 177.599 8.26221C178.389 9.05079 178.784 10.3582 178.784 12.1844V21.0249C178.784 21.7304 179.013 22.1766 179.471 22.3634C179.816 22.5043 180.232 22.6216 180.719 22.7153C181.004 22.77 181.217 23.0141 181.217 23.3042C181.217 23.627 180.955 23.8887 180.633 23.8887H174.099C173.776 23.8887 173.514 23.6264 173.514 23.303C173.514 23.0133 173.726 22.7693 174.01 22.7129C174.48 22.6197 174.887 22.5031 175.229 22.3634C175.686 22.1766 175.915 21.7304 175.915 21.0249Z"/>
<path d="M184.571 4.76155C184.571 3.99038 184.129 3.2877 183.433 2.95481L182.573 2.54322C182.403 2.46185 182.295 2.2901 182.295 2.1016C182.295 1.8946 182.425 1.70996 182.62 1.64045L186.553 0.238544C186.624 0.213005 186.7 0.199951 186.776 0.199951C187.143 0.199951 187.441 0.497578 187.441 0.864719V6.76111C187.441 7.74893 188.851 8.30018 189.718 7.82641C190.591 7.32835 191.599 7.07933 192.743 7.07933C194.177 7.07933 195.373 7.43212 196.329 8.13769C197.286 8.82252 198.003 9.75637 198.481 10.9393C198.98 12.1221 199.23 13.4295 199.23 14.8614C199.23 16.7706 198.866 18.4308 198.138 19.842C197.431 21.2324 196.475 22.3115 195.269 23.0793C194.063 23.8264 192.722 24.2 191.246 24.2C189.707 24.2 188.366 23.9924 187.222 23.5774C186.678 23.3659 186.189 23.1423 185.757 22.9064C184.962 22.4727 184.571 21.5914 184.571 20.6862V4.76155ZM191.464 22.768C192.919 22.768 194.094 22.1766 194.988 20.9937C195.903 19.7901 196.361 18.1818 196.361 16.1688C196.361 14.9859 196.194 13.8653 195.862 12.807C195.55 11.7278 195.03 10.8562 194.302 10.1922C193.595 9.50734 192.66 9.16493 191.495 9.16493C190.726 9.16493 189.977 9.29982 189.25 9.5696C188.949 9.67245 188.67 9.79653 188.412 9.94185C187.724 10.3293 187.441 11.1311 187.441 11.9207V18.4412C187.441 20.0184 187.805 21.139 188.532 21.8031C189.281 22.4464 190.258 22.768 191.464 22.768Z"/>
<path d="M207.301 22.021C208.028 22.021 208.683 21.9068 209.265 21.6786C209.451 21.6081 209.639 21.5259 209.829 21.4317C210.698 21.0015 211.137 20.0486 211.137 19.0795V17.2219C211.137 16.1721 210.086 15.447 209.104 15.8196L206.708 16.7291C206.126 16.9367 205.658 17.2583 205.304 17.6941C204.972 18.1299 204.805 18.6487 204.805 19.2505C204.805 20.1429 205.024 20.8277 205.46 21.305C205.897 21.7823 206.51 22.021 207.301 22.021ZM214.037 12.3089C214.037 12.5164 214.027 12.8692 214.006 13.3673C214.006 13.8653 214.006 14.436 214.006 15.0793C214.006 15.7226 213.996 16.3763 213.975 17.0404C213.975 17.7045 213.964 18.3063 213.944 18.8459C213.944 19.3647 213.944 19.759 213.944 20.0287C213.944 20.7136 214.068 21.2428 214.318 21.6163C214.567 21.9691 214.921 22.1455 215.378 22.1455C215.524 22.1455 215.742 22.1351 216.033 22.1143C216.144 22.0996 216.25 22.0835 216.35 22.0661C216.62 22.0193 216.891 22.1852 216.947 22.4536C216.98 22.6109 216.932 22.7751 216.815 22.8849C216.357 23.3139 215.899 23.6381 215.441 23.8575C214.942 24.0858 214.422 24.2 213.881 24.2C213.091 24.2 212.488 23.9405 212.072 23.4217C211.998 23.3258 211.929 23.2252 211.863 23.12C211.468 22.4845 210.463 22.1938 209.889 22.6747C209.369 23.1105 208.787 23.4736 208.143 23.7642C207.498 24.0547 206.791 24.2 206.022 24.2C204.608 24.2 203.558 23.7849 202.872 22.9548C202.206 22.1247 201.874 21.139 201.874 19.9976C201.874 19.0223 202.092 18.244 202.529 17.663C202.965 17.0819 203.516 16.615 204.182 16.2622C204.868 15.9094 205.544 15.6189 206.209 15.3906L209.702 14.133C210.563 13.823 211.137 13.0062 211.137 12.091C211.137 11.4684 211.043 10.8874 210.856 10.3478C210.69 9.80825 210.378 9.38283 209.92 9.07155C209.484 8.73951 208.86 8.57349 208.049 8.57349C207.217 8.57349 206.583 8.76026 206.147 9.1338C205.71 9.50734 205.492 10.0884 205.492 10.877C205.492 11.1468 205.502 11.4062 205.523 11.6552C205.598 12.1057 205.309 12.5491 204.856 12.6093L204.108 12.7089C203.646 12.7703 203.161 12.6138 202.934 12.2076C202.912 12.169 202.891 12.1301 202.872 12.091C202.768 11.8212 202.716 11.4996 202.716 11.126C202.716 10.2752 202.976 9.54885 203.496 8.94703C204.015 8.34522 204.722 7.88867 205.616 7.57738C206.51 7.24535 207.519 7.07933 208.642 7.07933C209.848 7.07933 210.846 7.28685 211.636 7.7019C212.426 8.09619 213.018 8.67725 213.413 9.44509C213.829 10.2129 214.037 11.1675 214.037 12.3089Z"/>
</mask>
<path d="M148.319 5.52291V17.663C148.319 19.8627 147.748 21.5022 146.604 22.5813C145.481 23.6396 143.922 24.1688 141.926 24.1688C140.138 24.1688 138.703 23.816 137.622 23.1105C136.541 22.4049 136 21.471 136 20.3089C136 19.8939 136.083 19.5099 136.25 19.1571C136.312 19.0247 136.379 18.9025 136.45 18.7905C136.663 18.4556 137.062 18.3167 137.459 18.3167H137.656C138.429 18.3167 139.056 18.9438 139.056 19.7175C139.056 20.7758 139.337 21.5644 139.899 22.0832C140.481 22.5813 141.219 22.8303 142.113 22.8303C143.048 22.8303 143.807 22.4879 144.39 21.8031C144.993 21.0975 145.294 19.8835 145.294 18.161V5.52291C145.294 4.87959 145.169 4.40229 144.92 4.091C144.691 3.77972 144.338 3.5722 143.859 3.46843C143.542 3.38196 143.169 3.32051 142.741 3.28408C142.409 3.25584 142.144 2.98576 142.144 2.65271C142.144 2.3124 142.42 2.03653 142.76 2.03653H150.887C151.226 2.03653 151.5 2.311 151.5 2.64959C151.5 2.9834 151.233 3.2532 150.9 3.27842C150.151 3.33517 149.561 3.47114 149.13 3.68633C148.59 3.95611 148.319 4.5683 148.319 5.52291Z" fill="#7D95A1"/>
<path d="M157.745 7.07933C158.112 7.07933 158.41 7.37666 158.41 7.74343V21.0249C158.41 21.7304 158.628 22.1766 159.065 22.3634C159.41 22.5043 159.826 22.6216 160.313 22.7153C160.598 22.77 160.811 23.0141 160.811 23.3042C160.811 23.627 160.549 23.8887 160.227 23.8887H153.725C153.401 23.8887 153.139 23.6264 153.139 23.303C153.139 23.0133 153.351 22.7693 153.635 22.7129C154.106 22.6197 154.512 22.5031 154.854 22.3634C155.312 22.1766 155.54 21.7304 155.54 21.0249V11.6269C155.54 10.8636 155.104 10.1674 154.418 9.83419L153.572 9.42384C153.402 9.34164 153.295 9.16988 153.295 8.98156C153.295 8.77412 153.425 8.58899 153.62 8.5189L157.521 7.11839C157.593 7.09254 157.669 7.07933 157.745 7.07933ZM156.85 4.86921C156.289 4.86921 155.811 4.67207 155.416 4.27777C155.02 3.86273 154.823 3.36467 154.823 2.78361C154.823 2.20255 155.02 1.71487 155.416 1.32057C155.811 0.905528 156.289 0.698005 156.85 0.698005C157.412 0.698005 157.89 0.905528 158.285 1.32057C158.68 1.71487 158.877 2.20255 158.877 2.78361C158.877 3.36467 158.68 3.86273 158.285 4.27777C157.89 4.67207 157.412 4.86921 156.85 4.86921Z" fill="#7D95A1"/>
<path d="M175.915 21.0249V12.4023C175.915 11.2817 175.676 10.5035 175.198 10.0677C174.74 9.6111 174.013 9.38283 173.015 9.38283C172.204 9.38283 171.382 9.53847 170.551 9.84976C170.244 9.96747 169.952 10.0971 169.675 10.2385C168.843 10.6636 168.43 11.5776 168.43 12.5121V21.0249C168.43 21.7304 168.648 22.1766 169.085 22.3634C169.43 22.5043 169.846 22.6216 170.333 22.7153C170.618 22.77 170.831 23.0141 170.831 23.3042C170.831 23.627 170.57 23.8887 170.247 23.8887H163.745C163.421 23.8887 163.159 23.6264 163.159 23.303C163.159 23.0133 163.371 22.7693 163.656 22.7129C164.126 22.6197 164.532 22.5031 164.875 22.3634C165.332 22.1766 165.561 21.7304 165.561 21.0249V11.6269C165.561 10.8636 165.125 10.1674 164.438 9.83419L163.592 9.42384C163.423 9.34164 163.315 9.16988 163.315 8.98156C163.315 8.77412 163.445 8.58899 163.641 8.5189L167.541 7.11839C167.613 7.09254 167.689 7.07933 167.766 7.07933C168.133 7.07933 168.43 7.37666 168.43 7.74343V7.99183C168.43 8.79541 169.413 9.22599 170.044 8.72874C170.057 8.71849 170.07 8.70824 170.083 8.69801C170.686 8.2207 171.341 7.83679 172.048 7.54625C172.776 7.23497 173.566 7.07933 174.418 7.07933C175.77 7.07933 176.83 7.47362 177.599 8.26221C178.389 9.05079 178.784 10.3582 178.784 12.1844V21.0249C178.784 21.7304 179.013 22.1766 179.471 22.3634C179.816 22.5043 180.232 22.6216 180.719 22.7153C181.004 22.77 181.217 23.0141 181.217 23.3042C181.217 23.627 180.955 23.8887 180.633 23.8887H174.099C173.776 23.8887 173.514 23.6264 173.514 23.303C173.514 23.0133 173.726 22.7693 174.01 22.7129C174.48 22.6197 174.887 22.5031 175.229 22.3634C175.686 22.1766 175.915 21.7304 175.915 21.0249Z" fill="#7D95A1"/>
<path d="M184.571 4.76155C184.571 3.99038 184.129 3.2877 183.433 2.95481L182.573 2.54322C182.403 2.46185 182.295 2.2901 182.295 2.1016C182.295 1.8946 182.425 1.70996 182.62 1.64045L186.553 0.238544C186.624 0.213005 186.7 0.199951 186.776 0.199951C187.143 0.199951 187.441 0.497578 187.441 0.864719V6.76111C187.441 7.74893 188.851 8.30018 189.718 7.82641C190.591 7.32835 191.599 7.07933 192.743 7.07933C194.177 7.07933 195.373 7.43212 196.329 8.13769C197.286 8.82252 198.003 9.75637 198.481 10.9393C198.98 12.1221 199.23 13.4295 199.23 14.8614C199.23 16.7706 198.866 18.4308 198.138 19.842C197.431 21.2324 196.475 22.3115 195.269 23.0793C194.063 23.8264 192.722 24.2 191.246 24.2C189.707 24.2 188.366 23.9924 187.222 23.5774C186.678 23.3659 186.189 23.1423 185.757 22.9064C184.962 22.4727 184.571 21.5914 184.571 20.6862V4.76155ZM191.464 22.768C192.919 22.768 194.094 22.1766 194.988 20.9937C195.903 19.7901 196.361 18.1818 196.361 16.1688C196.361 14.9859 196.194 13.8653 195.862 12.807C195.55 11.7278 195.03 10.8562 194.302 10.1922C193.595 9.50734 192.66 9.16493 191.495 9.16493C190.726 9.16493 189.977 9.29982 189.25 9.5696C188.949 9.67245 188.67 9.79653 188.412 9.94185C187.724 10.3293 187.441 11.1311 187.441 11.9207V18.4412C187.441 20.0184 187.805 21.139 188.532 21.8031C189.281 22.4464 190.258 22.768 191.464 22.768Z" fill="#7D95A1"/>
<path d="M207.301 22.021C208.028 22.021 208.683 21.9068 209.265 21.6786C209.451 21.6081 209.639 21.5259 209.829 21.4317C210.698 21.0015 211.137 20.0486 211.137 19.0795V17.2219C211.137 16.1721 210.086 15.447 209.104 15.8196L206.708 16.7291C206.126 16.9367 205.658 17.2583 205.304 17.6941C204.972 18.1299 204.805 18.6487 204.805 19.2505C204.805 20.1429 205.024 20.8277 205.46 21.305C205.897 21.7823 206.51 22.021 207.301 22.021ZM214.037 12.3089C214.037 12.5164 214.027 12.8692 214.006 13.3673C214.006 13.8653 214.006 14.436 214.006 15.0793C214.006 15.7226 213.996 16.3763 213.975 17.0404C213.975 17.7045 213.964 18.3063 213.944 18.8459C213.944 19.3647 213.944 19.759 213.944 20.0287C213.944 20.7136 214.068 21.2428 214.318 21.6163C214.567 21.9691 214.921 22.1455 215.378 22.1455C215.524 22.1455 215.742 22.1351 216.033 22.1143C216.144 22.0996 216.25 22.0835 216.35 22.0661C216.62 22.0193 216.891 22.1852 216.947 22.4536C216.98 22.6109 216.932 22.7751 216.815 22.8849C216.357 23.3139 215.899 23.6381 215.441 23.8575C214.942 24.0858 214.422 24.2 213.881 24.2C213.091 24.2 212.488 23.9405 212.072 23.4217C211.998 23.3258 211.929 23.2252 211.863 23.12C211.468 22.4845 210.463 22.1938 209.889 22.6747C209.369 23.1105 208.787 23.4736 208.143 23.7642C207.498 24.0547 206.791 24.2 206.022 24.2C204.608 24.2 203.558 23.7849 202.872 22.9548C202.206 22.1247 201.874 21.139 201.874 19.9976C201.874 19.0223 202.092 18.244 202.529 17.663C202.965 17.0819 203.516 16.615 204.182 16.2622C204.868 15.9094 205.544 15.6189 206.209 15.3906L209.702 14.133C210.563 13.823 211.137 13.0062 211.137 12.091C211.137 11.4684 211.043 10.8874 210.856 10.3478C210.69 9.80825 210.378 9.38283 209.92 9.07155C209.484 8.73951 208.86 8.57349 208.049 8.57349C207.217 8.57349 206.583 8.76026 206.147 9.1338C205.71 9.50734 205.492 10.0884 205.492 10.877C205.492 11.1468 205.502 11.4062 205.523 11.6552C205.598 12.1057 205.309 12.5491 204.856 12.6093L204.108 12.7089C203.646 12.7703 203.161 12.6138 202.934 12.2076C202.912 12.169 202.891 12.1301 202.872 12.091C202.768 11.8212 202.716 11.4996 202.716 11.126C202.716 10.2752 202.976 9.54885 203.496 8.94703C204.015 8.34522 204.722 7.88867 205.616 7.57738C206.51 7.24535 207.519 7.07933 208.642 7.07933C209.848 7.07933 210.846 7.28685 211.636 7.7019C212.426 8.09619 213.018 8.67725 213.413 9.44509C213.829 10.2129 214.037 11.1675 214.037 12.3089Z" fill="#7D95A1"/>
<path d="M148.319 5.52291V17.663C148.319 19.8627 147.748 21.5022 146.604 22.5813C145.481 23.6396 143.922 24.1688 141.926 24.1688C140.138 24.1688 138.703 23.816 137.622 23.1105C136.541 22.4049 136 21.471 136 20.3089C136 19.8939 136.083 19.5099 136.25 19.1571C136.312 19.0247 136.379 18.9025 136.45 18.7905C136.663 18.4556 137.062 18.3167 137.459 18.3167H137.656C138.429 18.3167 139.056 18.9438 139.056 19.7175C139.056 20.7758 139.337 21.5644 139.899 22.0832C140.481 22.5813 141.219 22.8303 142.113 22.8303C143.048 22.8303 143.807 22.4879 144.39 21.8031C144.993 21.0975 145.294 19.8835 145.294 18.161V5.52291C145.294 4.87959 145.169 4.40229 144.92 4.091C144.691 3.77972 144.338 3.5722 143.859 3.46843C143.542 3.38196 143.169 3.32051 142.741 3.28408C142.409 3.25584 142.144 2.98576 142.144 2.65271C142.144 2.3124 142.42 2.03653 142.76 2.03653H150.887C151.226 2.03653 151.5 2.311 151.5 2.64959C151.5 2.9834 151.233 3.2532 150.9 3.27842C150.151 3.33517 149.561 3.47114 149.13 3.68633C148.59 3.95611 148.319 4.5683 148.319 5.52291Z" stroke="#7D95A1" stroke-width="0.4" mask="url(#path-1-outside-1_1808_113087)"/>
<path d="M157.745 7.07933C158.112 7.07933 158.41 7.37666 158.41 7.74343V21.0249C158.41 21.7304 158.628 22.1766 159.065 22.3634C159.41 22.5043 159.826 22.6216 160.313 22.7153C160.598 22.77 160.811 23.0141 160.811 23.3042C160.811 23.627 160.549 23.8887 160.227 23.8887H153.725C153.401 23.8887 153.139 23.6264 153.139 23.303C153.139 23.0133 153.351 22.7693 153.635 22.7129C154.106 22.6197 154.512 22.5031 154.854 22.3634C155.312 22.1766 155.54 21.7304 155.54 21.0249V11.6269C155.54 10.8636 155.104 10.1674 154.418 9.83419L153.572 9.42384C153.402 9.34164 153.295 9.16988 153.295 8.98156C153.295 8.77412 153.425 8.58899 153.62 8.5189L157.521 7.11839C157.593 7.09254 157.669 7.07933 157.745 7.07933ZM156.85 4.86921C156.289 4.86921 155.811 4.67207 155.416 4.27777C155.02 3.86273 154.823 3.36467 154.823 2.78361C154.823 2.20255 155.02 1.71487 155.416 1.32057C155.811 0.905528 156.289 0.698005 156.85 0.698005C157.412 0.698005 157.89 0.905528 158.285 1.32057C158.68 1.71487 158.877 2.20255 158.877 2.78361C158.877 3.36467 158.68 3.86273 158.285 4.27777C157.89 4.67207 157.412 4.86921 156.85 4.86921Z" stroke="#7D95A1" stroke-width="0.4" mask="url(#path-1-outside-1_1808_113087)"/>
<path d="M175.915 21.0249V12.4023C175.915 11.2817 175.676 10.5035 175.198 10.0677C174.74 9.6111 174.013 9.38283 173.015 9.38283C172.204 9.38283 171.382 9.53847 170.551 9.84976C170.244 9.96747 169.952 10.0971 169.675 10.2385C168.843 10.6636 168.43 11.5776 168.43 12.5121V21.0249C168.43 21.7304 168.648 22.1766 169.085 22.3634C169.43 22.5043 169.846 22.6216 170.333 22.7153C170.618 22.77 170.831 23.0141 170.831 23.3042C170.831 23.627 170.57 23.8887 170.247 23.8887H163.745C163.421 23.8887 163.159 23.6264 163.159 23.303C163.159 23.0133 163.371 22.7693 163.656 22.7129C164.126 22.6197 164.532 22.5031 164.875 22.3634C165.332 22.1766 165.561 21.7304 165.561 21.0249V11.6269C165.561 10.8636 165.125 10.1674 164.438 9.83419L163.592 9.42384C163.423 9.34164 163.315 9.16988 163.315 8.98156C163.315 8.77412 163.445 8.58899 163.641 8.5189L167.541 7.11839C167.613 7.09254 167.689 7.07933 167.766 7.07933C168.133 7.07933 168.43 7.37666 168.43 7.74343V7.99183C168.43 8.79541 169.413 9.22599 170.044 8.72874C170.057 8.71849 170.07 8.70824 170.083 8.69801C170.686 8.2207 171.341 7.83679 172.048 7.54625C172.776 7.23497 173.566 7.07933 174.418 7.07933C175.77 7.07933 176.83 7.47362 177.599 8.26221C178.389 9.05079 178.784 10.3582 178.784 12.1844V21.0249C178.784 21.7304 179.013 22.1766 179.471 22.3634C179.816 22.5043 180.232 22.6216 180.719 22.7153C181.004 22.77 181.217 23.0141 181.217 23.3042C181.217 23.627 180.955 23.8887 180.633 23.8887H174.099C173.776 23.8887 173.514 23.6264 173.514 23.303C173.514 23.0133 173.726 22.7693 174.01 22.7129C174.48 22.6197 174.887 22.5031 175.229 22.3634C175.686 22.1766 175.915 21.7304 175.915 21.0249Z" stroke="#7D95A1" stroke-width="0.4" mask="url(#path-1-outside-1_1808_113087)"/>
<path d="M184.571 4.76155C184.571 3.99038 184.129 3.2877 183.433 2.95481L182.573 2.54322C182.403 2.46185 182.295 2.2901 182.295 2.1016C182.295 1.8946 182.425 1.70996 182.62 1.64045L186.553 0.238544C186.624 0.213005 186.7 0.199951 186.776 0.199951C187.143 0.199951 187.441 0.497578 187.441 0.864719V6.76111C187.441 7.74893 188.851 8.30018 189.718 7.82641C190.591 7.32835 191.599 7.07933 192.743 7.07933C194.177 7.07933 195.373 7.43212 196.329 8.13769C197.286 8.82252 198.003 9.75637 198.481 10.9393C198.98 12.1221 199.23 13.4295 199.23 14.8614C199.23 16.7706 198.866 18.4308 198.138 19.842C197.431 21.2324 196.475 22.3115 195.269 23.0793C194.063 23.8264 192.722 24.2 191.246 24.2C189.707 24.2 188.366 23.9924 187.222 23.5774C186.678 23.3659 186.189 23.1423 185.757 22.9064C184.962 22.4727 184.571 21.5914 184.571 20.6862V4.76155ZM191.464 22.768C192.919 22.768 194.094 22.1766 194.988 20.9937C195.903 19.7901 196.361 18.1818 196.361 16.1688C196.361 14.9859 196.194 13.8653 195.862 12.807C195.55 11.7278 195.03 10.8562 194.302 10.1922C193.595 9.50734 192.66 9.16493 191.495 9.16493C190.726 9.16493 189.977 9.29982 189.25 9.5696C188.949 9.67245 188.67 9.79653 188.412 9.94185C187.724 10.3293 187.441 11.1311 187.441 11.9207V18.4412C187.441 20.0184 187.805 21.139 188.532 21.8031C189.281 22.4464 190.258 22.768 191.464 22.768Z" stroke="#7D95A1" stroke-width="0.4" mask="url(#path-1-outside-1_1808_113087)"/>
<path d="M207.301 22.021C208.028 22.021 208.683 21.9068 209.265 21.6786C209.451 21.6081 209.639 21.5259 209.829 21.4317C210.698 21.0015 211.137 20.0486 211.137 19.0795V17.2219C211.137 16.1721 210.086 15.447 209.104 15.8196L206.708 16.7291C206.126 16.9367 205.658 17.2583 205.304 17.6941C204.972 18.1299 204.805 18.6487 204.805 19.2505C204.805 20.1429 205.024 20.8277 205.46 21.305C205.897 21.7823 206.51 22.021 207.301 22.021ZM214.037 12.3089C214.037 12.5164 214.027 12.8692 214.006 13.3673C214.006 13.8653 214.006 14.436 214.006 15.0793C214.006 15.7226 213.996 16.3763 213.975 17.0404C213.975 17.7045 213.964 18.3063 213.944 18.8459C213.944 19.3647 213.944 19.759 213.944 20.0287C213.944 20.7136 214.068 21.2428 214.318 21.6163C214.567 21.9691 214.921 22.1455 215.378 22.1455C215.524 22.1455 215.742 22.1351 216.033 22.1143C216.144 22.0996 216.25 22.0835 216.35 22.0661C216.62 22.0193 216.891 22.1852 216.947 22.4536C216.98 22.6109 216.932 22.7751 216.815 22.8849C216.357 23.3139 215.899 23.6381 215.441 23.8575C214.942 24.0858 214.422 24.2 213.881 24.2C213.091 24.2 212.488 23.9405 212.072 23.4217C211.998 23.3258 211.929 23.2252 211.863 23.12C211.468 22.4845 210.463 22.1938 209.889 22.6747C209.369 23.1105 208.787 23.4736 208.143 23.7642C207.498 24.0547 206.791 24.2 206.022 24.2C204.608 24.2 203.558 23.7849 202.872 22.9548C202.206 22.1247 201.874 21.139 201.874 19.9976C201.874 19.0223 202.092 18.244 202.529 17.663C202.965 17.0819 203.516 16.615 204.182 16.2622C204.868 15.9094 205.544 15.6189 206.209 15.3906L209.702 14.133C210.563 13.823 211.137 13.0062 211.137 12.091C211.137 11.4684 211.043 10.8874 210.856 10.3478C210.69 9.80825 210.378 9.38283 209.92 9.07155C209.484 8.73951 208.86 8.57349 208.049 8.57349C207.217 8.57349 206.583 8.76026 206.147 9.1338C205.71 9.50734 205.492 10.0884 205.492 10.877C205.492 11.1468 205.502 11.4062 205.523 11.6552C205.598 12.1057 205.309 12.5491 204.856 12.6093L204.108 12.7089C203.646 12.7703 203.161 12.6138 202.934 12.2076C202.912 12.169 202.891 12.1301 202.872 12.091C202.768 11.8212 202.716 11.4996 202.716 11.126C202.716 10.2752 202.976 9.54885 203.496 8.94703C204.015 8.34522 204.722 7.88867 205.616 7.57738C206.51 7.24535 207.519 7.07933 208.642 7.07933C209.848 7.07933 210.846 7.28685 211.636 7.7019C212.426 8.09619 213.018 8.67725 213.413 9.44509C213.829 10.2129 214.037 11.1675 214.037 12.3089Z" stroke="#7D95A1" stroke-width="0.4" mask="url(#path-1-outside-1_1808_113087)"/>
<path d="M449.903 96.1886L462.071 80.7701C463.186 79.3569 463.209 77.3696 462.126 75.9313L450.77 60.8443C449.544 59.3128 448.624 58.2684 446.603 57.5174C445.572 57.1342 444.799 56.2122 444.799 55.1124C444.799 53.8103 445.854 52.7546 447.157 52.7546H467.386C468.634 52.7546 469.646 53.7662 469.646 55.014C469.646 56.1464 468.803 57.0918 467.687 57.2801C464.95 57.7417 464.156 58.2524 464.156 59.6887C464.156 60.5554 465.023 61.7111 465.89 62.8668L469.909 68.2799C471.5 70.4223 474.711 70.412 476.288 68.2594L480.239 62.8668C481.202 61.7111 481.684 60.8443 481.684 59.8813C481.684 58.3758 480.902 57.9786 478.425 57.4023C477.351 57.1523 476.58 56.2062 476.58 55.1032C476.58 53.8061 477.631 52.7546 478.928 52.7546H492.618C493.973 52.7546 495.07 53.8524 495.07 55.2066C495.07 56.2708 494.378 57.1988 493.386 57.5838C491.316 58.3869 489.809 59.3263 488.425 60.9406L478.035 74.3585C476.947 75.7635 476.927 77.7211 477.986 79.1479L490.64 96.1886C491.824 97.8161 492.894 98.989 494.811 99.62C495.916 99.9838 496.804 100.918 496.804 102.081C496.804 103.348 495.777 104.375 494.51 104.375H474.046C472.786 104.375 471.764 103.353 471.764 102.093C471.764 100.926 472.649 99.9619 473.803 99.7863C476.624 99.3569 477.35 98.78 477.35 97.3443C477.35 96.4776 476.58 95.3219 475.809 94.2625L470.267 86.7714C468.672 84.6158 465.442 84.6329 463.87 86.8052L458.474 94.2625C457.8 95.2256 457.222 96.0923 457.222 97.1517C457.222 98.6624 457.944 99.1228 460.581 99.671C461.698 99.9034 462.519 100.871 462.519 102.012C462.519 103.317 461.461 104.375 460.157 104.375H445.666C444.336 104.375 443.258 103.296 443.258 101.966C443.258 100.84 444.048 99.8885 445.104 99.5005C447.147 98.7506 448.701 97.6161 449.903 96.1886Z" fill="#7D95A1"/>
<path d="M418.131 105.348C403.3 105.348 393.766 94.3688 393.766 79.5376C393.766 62.6841 404.937 51.8015 418.998 51.8015C433.829 51.8015 443.46 62.7804 443.46 77.6115C443.46 94.4651 432.192 105.348 418.131 105.348ZM419.479 99.7619C427.376 99.7619 431.325 91.7685 431.325 80.0192C431.325 67.4994 426.413 57.291 417.746 57.291C409.752 57.291 405.804 65.3807 405.804 77.13C405.804 89.6498 410.715 99.7619 419.479 99.7619Z" fill="#7D95A1"/>
<path d="M332.901 104.381C331.605 104.381 330.555 103.331 330.555 102.035C330.555 100.767 331.565 99.7439 332.828 99.6357C337.647 99.223 339.704 97.7864 339.704 92.8242V48.3309C339.704 43.3687 337.647 41.9321 332.828 41.5194C331.565 41.4112 330.555 40.3883 330.555 39.12C330.555 37.8244 331.605 36.7742 332.901 36.7742H362.239C377.07 36.7742 385.642 42.4562 385.642 53.724C385.642 60.7825 381.28 65.1532 375.465 67.5352C374.554 67.9081 374.672 70.3699 375.619 70.6341C384.08 72.9926 389.012 78.368 389.012 86.1791C389.012 97.5432 379.863 104.381 363.684 104.381H332.901ZM357.809 41.9747H355.898C353.709 41.9747 351.935 43.7491 351.935 45.9379V63.2436C351.935 65.4325 353.709 67.2069 355.898 67.2069H358.002C368.018 67.2069 372.929 63.162 372.929 53.9166C372.929 46.9826 368.114 41.9747 357.809 41.9747ZM359.832 72.3111H355.898C353.709 72.3111 351.935 74.0855 351.935 76.2743V92.9206C351.935 98.1211 354.535 99.3731 360.795 99.3731H361.854C371.485 99.3731 376.204 94.943 376.204 86.0828C376.204 78.3784 371.774 72.3111 359.832 72.3111Z" fill="#7D95A1"/>
<path d="M318.914 31.0906C320.17 31.0906 321.189 32.1091 321.189 33.3655V94.5562C321.189 98.2427 323.056 99.1949 326.125 99.7437C327.264 99.9474 328.123 100.908 328.123 102.065C328.123 103.343 327.087 104.379 325.809 104.379H304.912C303.636 104.379 302.602 103.345 302.602 102.069C302.602 100.911 303.463 99.9488 304.604 99.7501C307.75 99.2023 309.632 98.2571 309.632 94.5562V44.3761C309.632 43.0022 308.92 41.7262 307.751 41.0042L303.992 38.6822C303.427 38.3333 303.083 37.7168 303.083 37.0529C303.083 36.2019 303.645 35.453 304.461 35.2146L318.276 31.1817C318.483 31.1213 318.698 31.0906 318.914 31.0906Z" fill="#7D95A1"/>
<path d="M274.694 105.348C259.862 105.348 250.328 94.3688 250.328 79.5376C250.328 62.6841 261.5 51.8015 275.56 51.8015C290.391 51.8015 300.022 62.7804 300.022 77.6115C300.022 94.4651 288.754 105.348 274.694 105.348ZM276.042 99.7619C283.939 99.7619 287.887 91.7685 287.887 80.0192C287.887 67.4994 282.976 57.291 274.308 57.291C266.315 57.291 262.366 65.3807 262.366 77.13C262.366 89.6498 267.278 99.7619 276.042 99.7619Z" fill="#7D95A1"/>
<path d="M220.795 105.348C205.964 105.348 196.43 94.3688 196.43 79.5376C196.43 62.6841 207.601 51.8015 221.662 51.8015C236.493 51.8015 246.124 62.7804 246.124 77.6115C246.124 94.4651 234.856 105.348 220.795 105.348ZM222.143 99.7619C230.04 99.7619 233.989 91.7685 233.989 80.0192C233.989 67.4994 229.077 57.291 220.41 57.291C212.416 57.291 208.468 65.3807 208.468 77.13C208.468 89.6498 213.38 99.7619 222.143 99.7619Z" fill="#7D95A1"/>
<path d="M137.19 40.4641C137.333 38.3863 139.061 36.7742 141.143 36.7742H193.263C195.346 36.7742 197.073 38.3863 197.217 40.4641L198.217 54.9388C198.319 56.4171 197.148 57.6726 195.666 57.6726C194.641 57.6726 193.713 57.0547 193.311 56.1122C188.55 44.956 186.969 41.7821 178.952 41.7821H177.234C175.045 41.7821 173.27 43.5565 173.27 45.7453V92.8242C173.27 97.7828 175.691 99.221 180.531 99.6348C181.795 99.7428 182.805 100.766 182.805 102.035C182.805 103.33 181.754 104.381 180.458 104.381H153.851C152.556 104.381 151.505 103.331 151.505 102.035C151.505 100.767 152.515 99.743 153.779 99.6371C158.684 99.2264 161.04 97.7922 161.04 92.8242V45.7453C161.04 43.5565 159.265 41.7821 157.076 41.7821H155.454C147.426 41.7821 145.852 44.9645 140.991 56.1572C140.593 57.0737 139.687 57.6726 138.688 57.6726C137.234 57.6726 136.085 56.4411 136.185 54.991L137.19 40.4641Z" fill="#7D95A1"/>
<path d="M90.1611 70.0588L109.349 65.706C109.725 65.6207 109.992 65.2864 109.992 64.9008V1.91625C109.992 1.46024 109.612 1.09025 109.156 1.09414C37.9984 1.70139 0.836814 79.7086 0.00641881 103.303C-0.00962001 103.759 0.361852 104.091 0.817862 104.091H84.3656C84.9791 104.091 85.3801 103.446 85.1192 102.89C77.8412 87.403 76.4448 66.6413 77.6925 53.9569C77.7338 53.5376 78.0874 53.2264 78.5088 53.2264H84.8748C85.3308 53.2264 85.6997 53.5959 85.7074 54.0518C85.8055 59.9157 86.9514 66.0135 89.3146 69.7224C89.4944 70.0046 89.8348 70.1328 90.1611 70.0588Z" fill="#7D95A1"/>
<rect y="2.19995" width="34" height="34" rx="0.825679" fill="#7D95A1"/>
</svg>
